<?xml version="1.0" encoding="UTF-8"?>
<svg id="Layer_2" data-name="Layer 2" xmlns="http://www.w3.org/2000/svg" viewBox="0 0 1024 768">
  <defs>
    <style>
      .cls-1 {
        fill: #231f20;
      }

      .cls-2 {
        fill: #37333f;
      }

      .cls-3 {
        fill: #787672;
      }

      .cls-4 {
        fill: #a7a39d;
      }
    </style>
  </defs>
  <g id="Layer_1-2" data-name="Layer 1">
    <rect class="cls-2" width="324" height="768"/>
    <rect class="cls-1" x="324" width="700" height="768"/>
    <g>
      <g>
        <g>
          <path class="cls-4" d="M178.33,138.43c-23.24,0-42.07,1.05-42.07,2.35s18.84,2.35,42.07,2.35,42.07-1.05,42.07-2.35-18.83-2.35-42.07-2.35Z"/>
          <path class="cls-4" d="M167.89,129.84c-29.01,0-52.52,1.05-52.52,2.35s23.51,2.35,52.52,2.35,52.52-1.05,52.52-2.35-23.52-2.35-52.52-2.35Z"/>
          <path class="cls-4" d="M160.41,121.24c-33.14,0-60,1.05-60,2.35s26.86,2.35,60,2.35,60-1.05,60-2.35-26.87-2.35-60-2.35Z"/>
          <path class="cls-4" d="M138.33,99.87c23.24,0,42.07-1.05,42.07-2.35s-18.84-2.35-42.07-2.35-42.07,1.05-42.07,2.35,18.84,2.35,42.07,2.35Z"/>
          <path class="cls-4" d="M148.78,108.46c29.01,0,52.52-1.05,52.52-2.35s-23.51-2.35-52.52-2.35-52.52,1.05-52.52,2.35,23.51,2.35,52.52,2.35Z"/>
          <path class="cls-4" d="M156.26,117.05c33.14,0,60-1.05,60-2.35s-26.86-2.35-60-2.35-60,1.05-60,2.35,26.86,2.35,60,2.35Z"/>
          <path class="cls-4" d="M158.33,73.92v-3.77c-15.21.43-25.07,1.11-25.07,1.89s9.86,1.46,25.07,1.88Z"/>
          <path class="cls-4" d="M158.33,91.56v-4.67c-30.99.13-55.07,1.13-55.07,2.33s24.09,2.2,55.07,2.34Z"/>
          <path class="cls-4" d="M158.33,82.91v-4.56c-27.03.25-47.07,1.18-47.07,2.28s20.04,2.03,47.07,2.28Z"/>
          <path class="cls-4" d="M158.81,164.9v3.77c15.21-.43,25.07-1.11,25.07-1.89s-9.85-1.46-25.07-1.88Z"/>
          <path class="cls-4" d="M158.81,147.26v4.67c30.99-.13,55.07-1.13,55.07-2.33s-24.08-2.21-55.07-2.34Z"/>
          <path class="cls-4" d="M158.81,155.91v4.56c27.03-.25,47.07-1.18,47.07-2.28s-20.03-2.03-47.07-2.28Z"/>
        </g>
        <g>
          <path class="cls-4" d="M125.58,203.73c-4.15,0-7.35-1.25-9.61-3.76s-3.4-6.07-3.4-10.68,1.12-7.94,3.38-10.49c2.25-2.55,5.35-3.82,9.31-3.82s7.38,1.24,9.69,3.72,3.48,5.95,3.48,10.39-1.12,8.2-3.37,10.78c-2.26,2.57-5.42,3.86-9.48,3.86ZM125.54,180.7c-3.55,0-5.32,2.89-5.32,8.67,0,2.75.34,4.8,1.02,6.14.84,1.66,2.26,2.5,4.25,2.5,3.52,0,5.28-2.81,5.28-8.43,0-3.11-.42-5.37-1.25-6.77-.83-1.41-2.16-2.11-3.98-2.11Z"/>
          <path class="cls-4" d="M157.03,197.8c.93,0,1.39-.84,1.39-2.54v-11.78c0-1.83-.67-2.74-2-2.74s-2,.46-2,1.39c0,.27.05.69.14,1.25.1.56.14.98.14,1.25,0,2.43-1.02,3.64-3.07,3.64-.96,0-1.7-.31-2.25-.92s-.82-1.44-.82-2.47c0-.35.05-1,.16-1.92.08-.71.12-1.36.12-1.96,0-.33-.06-1-.17-2-.08-.68-.11-1.23-.11-1.64,0-1.2.6-1.8,1.81-1.8.63,0,1.43.04,2.39.12,2.19.19,5.27.29,9.22.29s7.07-.09,9.26-.29c.96-.08,1.74-.12,2.35-.12,1.23,0,1.85.6,1.85,1.8,0,.41-.05,1.02-.14,1.82-.1.8-.14,1.41-.14,1.82,0,.44.04,1.09.12,1.96.11,1.15.16,1.8.16,1.96,0,1.04-.28,1.85-.84,2.45-.56.6-1.3.9-2.23.9-2.05,0-3.07-1.17-3.07-3.52,0-.33.04-.76.12-1.31s.12-.95.12-1.23c0-.98-.6-1.47-1.8-1.47-.79,0-1.35.21-1.68.61-.33.41-.49,1.12-.49,2.13v11.78c0,1.69.46,2.54,1.39,2.54.3,0,.74-.05,1.33-.14s1.03-.14,1.33-.14c1.64,0,2.45.82,2.45,2.45,0,2.16-1.02,3.23-3.07,3.23-.79,0-1.73-.05-2.82-.16-1.64-.16-3.04-.25-4.21-.25s-2.6.08-4.21.25c-1.06.11-2,.16-2.82.16-2.05,0-3.07-1-3.07-2.99,0-1.8.83-2.7,2.5-2.7.3,0,.74.05,1.33.14.59.1,1.03.15,1.33.15Z"/>
          <path class="cls-4" d="M197.49,182.58l3.68,13.17,3.89-13.17c.14-.46.2-.79.2-.98,0-.46-.22-.68-.65-.65h-.65c-1.25,0-1.88-.81-1.88-2.44,0-1.98.87-2.96,2.62-2.96.57,0,1.42.07,2.54.21s1.96.2,2.54.2c.87,0,1.66-.05,2.37-.16,1.06-.16,1.84-.25,2.33-.25.85,0,1.53.27,2.05.8.52.53.78,1.22.78,2.07,0,.79-.2,1.46-.59,2-.4.55-.88.82-1.45.82-.19,0-.46-.05-.82-.14-.35-.09-.59-.14-.7-.14-.65,0-1.36,1.17-2.13,3.52l-4.99,15.18c-.74,2.24-1.81,3.35-3.23,3.35-.27,0-.68-.02-1.23-.06s-.96-.06-1.23-.06-.67.02-1.19.06-.91.06-1.19.06c-1.45,0-2.67-1.58-3.68-4.75l-4.87-15.3c-.44-1.34-.93-2-1.47-2-.19,0-.44.05-.76.14-.31.1-.62.14-.92.14-.6,0-1.08-.25-1.45-.76s-.55-1.15-.55-1.94c0-1.99,1-2.99,2.99-2.99.54,0,1.38.07,2.5.21s1.96.2,2.54.2c.82,0,1.75-.07,2.78-.2,1.04-.14,1.76-.21,2.17-.21,1.8,0,2.7,1,2.7,3,0,1.6-.56,2.4-1.68,2.4h-.78c-.49,0-.74.23-.74.7-.02.24.04.55.15.93Z"/>
        </g>
      </g>
      <g>
        <path class="cls-4" d="M86.17,281.35h-4.22c-1.21,0-1.81.72-1.81,2.16,0,.34.18.51.54.51.11,0,.26-.02.48-.05.21-.03.37-.05.48-.05.78,0,1.17.62,1.17,1.87,0,.68-.18,1.23-.54,1.65-.36.42-.84.64-1.43.64-.3,0-.95-.08-1.97-.22-.44-.06-1.07-.1-1.87-.1-.87,0-1.55.03-2.03.1-1.12.15-1.79.22-2,.22-.66,0-1.19-.2-1.6-.6s-.62-.93-.62-1.59c0-1.48.56-2.22,1.68-2.22.13,0,.33.02.6.05.27.03.48.05.6.05.4,0,.73-.22.98-.67.06-.13.21-.52.44-1.17l4.38-12.48c.51-1.42,1.08-2.31,1.71-2.67.47-.23,1.49-.35,3.08-.35,1.78,0,2.9.11,3.37.33s.85.84,1.14,1.86l4.06,13.52c.32,1.08.69,1.62,1.11,1.62.13,0,.35-.03.67-.09h.35c1.19,0,1.78.7,1.78,2.09,0,.7-.21,1.26-.63,1.68-.42.42-.97.64-1.65.64-.3,0-.69-.03-1.17-.1-.59-.11-.98-.16-1.17-.16-.47-.04-1.07-.06-1.81-.06-.8,0-1.34.02-1.62.06-1.08.17-1.76.25-2.03.25-.57,0-1.04-.22-1.41-.65s-.56-.98-.56-1.63c0-1.25.4-1.87,1.21-1.87.11,0,.26.02.48.05.21.03.37.05.48.05.4,0,.6-.22.6-.67,0-.57-.12-1.05-.35-1.43-.25-.38-.54-.57-.9-.57ZM85.69,276.49l-1.52-6.51-1.97,6.76c-.02.06-.03.14-.03.22,0,.25.26.38.79.38h1.97c.55,0,.83-.15.83-.44,0,.03-.03-.11-.07-.41Z"/>
        <path class="cls-3" d="M109.76,287.03v-1.24c-1.4,1.78-3.25,2.67-5.56,2.67-.97,0-1.86-.21-2.67-.64-.8-.42-1.38-.99-1.73-1.7-.35-.71-.52-2.02-.52-3.92v-4.92c0-.74-.05-1.17-.14-1.3s-.25-.19-.46-.19h-.64c-.95,0-1.43-.58-1.43-1.73,0-1.41.65-2.11,1.94-2.11.25,0,.65.04,1.17.13.53.08.92.13,1.17.13s.63-.04,1.14-.13c.51-.08.89-.13,1.14-.13.64,0,.95.45.95,1.33v8.45c.06,1.65.73,2.48,1.99,2.48,1.93,0,2.9-1.32,2.9-3.97v-2.95c0-1.08-.24-1.62-.73-1.62-.13,0-.29.02-.49.06s-.37.06-.49.06c-.78,0-1.17-.56-1.17-1.67,0-1.45.59-2.17,1.78-2.17.3,0,.73.04,1.3.13.57.08.99.13,1.27.13.08,0,.54-.05,1.37-.16.49-.06.84-.1,1.05-.1.68,0,1.02.38,1.02,1.14v9.65c0,1.06.2,1.59.6,1.59.17,0,.32-.02.44-.06.13-.04.31-.06.54-.06.91,0,1.37.55,1.37,1.65,0,1.46-.62,2.19-1.87,2.19-.25,0-.63-.04-1.13-.13-.5-.08-.87-.13-1.13-.13-.23,0-.58.04-1.03.13-.46.08-.8.13-1.03.13-.62,0-.92-.34-.92-1.02Z"/>
        <path class="cls-3" d="M125.12,276.3v3.27l-.06,2.13c-.04.7-.06.98-.06.86,0,1.25.39,1.87,1.17,1.87s1.11-.56,1.11-1.68v-1.11c0-1.14.57-1.71,1.71-1.71,1.33,0,2,1.07,2,3.21,0,1.67-.5,2.98-1.49,3.92-1,.94-2.38,1.41-4.16,1.41-3.49,0-5.24-1.84-5.24-5.52,0-.59.03-1.48.08-2.67.05-1.18.08-2.07.08-2.67v-1.02c0-.53-.05-.86-.14-1s-.32-.21-.68-.21h-.51c-.4,0-.73-.15-.98-.46s-.38-.7-.38-1.19.13-.9.4-1.25c.26-.35.58-.52.94-.52h.6c.51,0,.8-.15.89-.44.06-.17.1-.45.1-.86v-1.56c0-.74.2-1.25.59-1.52s1.11-.41,2.14-.41c.74,0,1.24.11,1.51.32.26.21.4.68.4,1.4v1.71c0,.61.06,1,.17,1.14.12.15.42.22.9.22h2.29c1.25,0,1.87.58,1.87,1.75s-.57,1.68-1.71,1.68h-2.6c-.44,0-.71.07-.79.22-.11.14-.15.37-.15.69Z"/>
        <path class="cls-3" d="M141.06,288.46c-2.62,0-4.65-.74-6.08-2.22s-2.14-3.57-2.14-6.25.71-4.75,2.13-6.24,3.41-2.24,5.97-2.24,4.5.74,5.95,2.22,2.17,3.51,2.17,6.1-.7,4.83-2.11,6.35c-1.41,1.52-3.37,2.28-5.89,2.28ZM140.93,275.41c-.93,0-1.67.41-2.21,1.22-.54.81-.81,1.93-.81,3.35s.27,2.56.81,3.37c.54.8,1.3,1.21,2.27,1.21,1.97,0,2.95-1.52,2.95-4.57.01-3.05-1-4.58-3.01-4.58Z"/>
        <path class="cls-3" d="M157.98,272.9v1.46c1.59-1.9,3.35-2.86,5.3-2.86,1.63,0,2.97.79,4.03,2.38,1.06-.91,1.96-1.54,2.71-1.87.75-.34,1.62-.51,2.62-.51,2.01,0,3.51.67,4.51,2,.68.91,1.02,2.37,1.02,4.38v4.86c0,1.08.2,1.62.6,1.62.13,0,.3-.04.51-.13.11-.06.26-.09.48-.09.93,0,1.4.56,1.4,1.68,0,.67-.17,1.21-.51,1.61-.34.41-.78.61-1.33.61-.06,0-.37-.03-.92-.09l-.7-.1c-.34-.04-.78-.06-1.33-.06-.68,0-1.33.04-1.97.13s-1.08.13-1.33.13c-.51,0-.93-.2-1.25-.59-.33-.39-.49-.88-.49-1.47,0-.97.39-1.53,1.17-1.68.4-.06.64-.18.71-.35s.11-.63.11-1.39v-3.26c0-1.35-.14-2.28-.43-2.77-.29-.5-.83-.74-1.64-.74-1.8,0-2.7,1.28-2.7,3.83v2.95c0,.72.03,1.17.1,1.36.06.19.23.32.51.38.66.15.98.67.98,1.58,0,1.44-.59,2.15-1.78,2.15-.23,0-.56-.03-.98-.09-.7-.11-1.16-.16-1.4-.16s-.63.04-1.13.13-.87.13-1.13.13c-1.04,0-1.56-.67-1.56-2,0-.95.33-1.51.98-1.68.36-.08.55-.34.57-.76.02-.57.03-.92.03-1.04v-3.58c0-1.2-.14-2.04-.43-2.5s-.8-.7-1.54-.7c-1.86,0-2.79,1.28-2.79,3.83v3.83c0,.34.04.55.13.65.08.1.3.17.64.24.83.15,1.24.7,1.24,1.65,0,1.37-.58,2.06-1.75,2.06-.36,0-.89-.04-1.6-.13-.71-.08-1.24-.13-1.6-.13-.49,0-.98.03-1.49.09-.85.11-1.39.16-1.62.16-.59,0-1.06-.2-1.41-.59s-.52-.89-.52-1.51c0-1.21.51-1.81,1.52-1.81.17,0,.36.04.57.11.21.07.37.11.48.11.36,0,.54-.59.54-1.78v-5.14c0-1.21-.18-1.81-.54-1.81-.08,0-.25.04-.49.11-.24.08-.43.11-.56.11-1.02,0-1.52-.59-1.52-1.78,0-.61.17-1.12.52-1.52.35-.4.81-.6,1.38-.6.13,0,.48.05,1.05.16.34.06.66.1.95.1.25,0,.63-.04,1.13-.13.5-.08.87-.13,1.13-.13.55,0,.82.32.82.95Z"/>
        <path class="cls-3" d="M196.94,288.46c-1.74,0-2.9-.7-3.49-2.1-1.48,1.4-3.24,2.1-5.27,2.1-1.67,0-3.01-.44-4-1.32s-1.49-2.05-1.49-3.51c0-2.22.96-3.66,2.89-4.32.83-.28,1.78-.51,2.86-.7,1.5-.25,2.52-.54,3.06-.87s.81-.83.81-1.51c0-.49-.21-.89-.62-1.22s-.93-.49-1.54-.49c-.7,0-1.05.22-1.05.67v.57c0,.59-.25,1.09-.74,1.49s-1.11.6-1.85.6c-.84,0-1.54-.25-2.08-.76-.55-.51-.82-1.14-.82-1.9,0-1.14.6-2.04,1.81-2.7s2.87-.98,4.98-.98c2.29,0,3.99.35,5.11,1.05,1.21.76,1.81,2.18,1.81,4.25v6.57c0,.68.17,1.02.51,1.02h.7c.49,0,.9.17,1.24.5.34.33.51.74.51,1.22,0,.69-.31,1.25-.94,1.69-.63.43-1.43.65-2.4.65ZM192.3,281.67v-.71c-.15.09-1.07.35-2.77.8-1.16.3-1.73.76-1.73,1.38,0,.98.57,1.47,1.7,1.47,1.87,0,2.8-.97,2.8-2.94Z"/>
        <path class="cls-3" d="M208.59,276.3v3.27l-.06,2.13c-.04.7-.06.98-.06.86,0,1.25.39,1.87,1.17,1.87s1.11-.56,1.11-1.68v-1.11c0-1.14.57-1.71,1.71-1.71,1.33,0,2,1.07,2,3.21,0,1.67-.5,2.98-1.49,3.92-1,.94-2.38,1.41-4.16,1.41-3.49,0-5.24-1.84-5.24-5.52,0-.59.03-1.48.08-2.67.05-1.18.08-2.07.08-2.67v-1.02c0-.53-.05-.86-.14-1s-.32-.21-.68-.21h-.51c-.4,0-.73-.15-.98-.46s-.38-.7-.38-1.19.13-.9.4-1.25c.26-.35.58-.52.94-.52h.6c.51,0,.8-.15.89-.44.06-.17.1-.45.1-.86v-1.56c0-.74.2-1.25.59-1.52s1.11-.41,2.14-.41c.74,0,1.24.11,1.51.32.26.21.4.68.4,1.4v1.71c0,.61.06,1,.17,1.14.12.15.42.22.9.22h2.29c1.25,0,1.87.58,1.87,1.75s-.57,1.68-1.71,1.68h-2.6c-.44,0-.71.07-.79.22-.11.14-.15.37-.15.69Z"/>
        <path class="cls-3" d="M231.83,278.62c0,.89-.11,1.48-.33,1.78-.22.3-.66.44-1.32.44h-7.75c-.38,0-.62.04-.71.11s-.14.26-.14.56c0,.89.29,1.63.86,2.22s1.29.89,2.16.89,1.8-.49,2.73-1.46c.64-.68,1.33-1.02,2.09-1.02.64,0,1.15.18,1.54.54.39.36.59.81.59,1.37,0,1.23-.67,2.27-2.02,3.13s-2.98,1.29-4.9,1.29c-2.52,0-4.53-.76-6.03-2.29-1.5-1.52-2.25-3.56-2.25-6.1s.75-4.63,2.24-6.21,3.44-2.37,5.86-2.37c2.24,0,4.04.65,5.38,1.94,1.33,1.29,2,3.02,2,5.18ZM221.73,277.03c0,.13.03.23.1.32.06.08.29.13.67.13h3.56c.32,0,.51-.04.59-.11.07-.07.11-.21.11-.4,0-.55-.24-1.03-.73-1.44s-1.06-.62-1.71-.62c-.85,0-1.54.33-2.06.98-.36.42-.53.8-.53,1.14Z"/>
        <path class="cls-3" d="M241,271.73c1.61,0,3.09.62,4.44,1.87v-2.29c0-.76-.26-1.14-.79-1.14-.13,0-.38.02-.76.07-.28.1-.55.15-.83.15-.4,0-.74-.17-1.02-.51s-.41-.77-.41-1.28c0-1.37.72-2.05,2.16-2.05.46,0,.8.01,1.02.03.85.08,1.42.13,1.71.13.27,0,.68-.03,1.21-.08s.92-.08,1.17-.08c.53,0,.89.12,1.09.37s.3.7.3,1.36v14.52c0,1.09.2,1.63.6,1.63.13,0,.29-.04.48-.13.13-.06.3-.09.51-.09.91,0,1.37.54,1.37,1.62,0,.66-.16,1.19-.48,1.6s-.74.62-1.27.62h-.19l-1.11-.19c-.25-.04-.61-.06-1.08-.06-.55,0-1,.02-1.37.06-.53.06-.81.1-.86.1-.66,0-.98-.38-.98-1.14v-1.17c-1.1,1.88-2.75,2.83-4.95,2.83-1.95,0-3.55-.8-4.81-2.4s-1.89-3.61-1.89-6.05.62-4.48,1.86-6c1.25-1.54,2.87-2.3,4.88-2.3ZM242.11,275.73c-.78,0-1.42.37-1.92,1.11s-.78,1.75-.84,3.02v.41c0,1.29.25,2.31.75,3.05s1.17,1.11,2.02,1.11c.93,0,1.69-.4,2.27-1.21.58-.8.87-1.87.87-3.21s-.29-2.33-.86-3.11-1.33-1.17-2.29-1.17Z"/>
        <path class="cls-4" d="M90.84,310.17c-.61.42-1.58.79-2.89,1.08,1.52.25,2.6.71,3.24,1.35.63.65.95,1.61.95,2.88v1.49c0,.87.25,1.3.75,1.3.13,0,.32-.03.58-.08s.46-.08.58-.08c.46,0,.83.2,1.12.59.28.39.42.91.42,1.54,0,.7-.21,1.25-.62,1.67-.41.41-.96.62-1.64.62-.23,0-.59-.03-1.08-.08s-.85-.08-1.08-.08c-.25,0-.63.03-1.13.08s-.87.08-1.13.08c-.78,0-1.41-.32-1.89-.97-.48-.65-.71-1.5-.71-2.56,0-.11.03-.18.1-.22v-2.06c0-1.1-.28-1.86-.84-2.29-.56-.42-1.57-.64-3.03-.64-.59,0-.96.16-1.11.48-.11.21-.16.6-.16,1.17v.73c0,1.44.26,2.16.79,2.16.15,0,.38-.04.68-.11.31-.07.54-.11.71-.11.44,0,.82.2,1.13.6s.46.9.46,1.49c0,1.55-.74,2.32-2.22,2.32-.51,0-1.2-.05-2.06-.16-.87-.11-1.62-.16-2.25-.16-.68,0-1.46.05-2.35.16-.89.11-1.64.16-2.25.16-1.55,0-2.32-.77-2.32-2.32,0-.59.16-1.09.49-1.49s.74-.6,1.22-.6c.19,0,.46.04.79.11.34.08.58.11.73.11.57,0,.86-.72.86-2.16v-8.79c0-.68-.02-1.11-.06-1.3-.11-.55-.37-.83-.79-.83-.17,0-.42.04-.75.11s-.59.11-.78.11c-.49,0-.89-.2-1.22-.6-.33-.4-.49-.9-.49-1.49,0-.68.21-1.24.62-1.68s.95-.67,1.6-.67c.13,0,.22.01.29.03l2.25.22c.64.06,1.31.1,2.03.1,1.25,0,2.83-.07,4.73-.22,1.27-.08,2.21-.13,2.83-.13,2.01,0,3.6.5,4.78,1.51,1.17,1.01,1.76,2.38,1.76,4.12.01,1.6-.54,2.77-1.64,3.51ZM83.63,305.26c-.85,0-1.4.05-1.65.16-.47.21-.7.67-.7,1.37v1.92c0,.49.08.81.24.96s.46.22.9.22c2.75,0,4.13-.82,4.13-2.46,0-1.44-.97-2.17-2.92-2.17Z"/>
        <path class="cls-3" d="M112.33,313.07c0,.89-.11,1.48-.33,1.78-.22.3-.66.44-1.32.44h-7.75c-.38,0-.62.04-.71.11s-.14.26-.14.56c0,.89.29,1.63.86,2.22s1.29.89,2.16.89,1.8-.49,2.73-1.46c.64-.68,1.33-1.02,2.1-1.02.63,0,1.15.18,1.54.54.39.36.59.81.59,1.37,0,1.23-.67,2.27-2.02,3.13s-2.98,1.29-4.9,1.29c-2.52,0-4.53-.76-6.03-2.29-1.5-1.52-2.25-3.56-2.25-6.1s.75-4.63,2.24-6.21,3.44-2.37,5.86-2.37c2.24,0,4.04.65,5.38,1.94,1.32,1.3,1.99,3.02,1.99,5.18ZM102.23,311.48c0,.13.03.23.1.32.06.08.29.13.67.13h3.56c.32,0,.51-.04.59-.11.07-.07.11-.21.11-.4,0-.55-.24-1.03-.73-1.44s-1.06-.62-1.71-.62c-.85,0-1.54.33-2.06.98-.36.43-.53.81-.53,1.14Z"/>
        <path class="cls-3" d="M124.3,311.45c0-.32.11-.64.32-.95-.49-.34-1.03-.51-1.62-.51-.93,0-1.69.38-2.27,1.16-.58.77-.87,1.8-.87,3.08s.31,2.39.92,3.19,1.43,1.2,2.44,1.2,1.8-.56,2.29-1.67c.3-.69.55-1.13.76-1.32.3-.25.76-.38,1.4-.38.72,0,1.3.22,1.75.65.44.43.67.99.67,1.67,0,1.44-.7,2.69-2.1,3.75-1.4,1.06-3.07,1.59-5.02,1.59-2.5,0-4.49-.77-5.97-2.3s-2.22-3.59-2.22-6.17.76-4.67,2.29-6.19c1.52-1.52,3.58-2.29,6.16-2.29,1.86,0,3.4.44,4.62,1.32s1.83,2,1.83,3.35c0,.85-.28,1.53-.83,2.05s-1.26.78-2.13.78c-.72,0-1.3-.19-1.75-.56s-.67-.85-.67-1.45Z"/>
        <path class="cls-3" d="M140.39,322.91c-2.62,0-4.65-.74-6.08-2.22s-2.14-3.57-2.14-6.25.71-4.75,2.13-6.24,3.41-2.24,5.97-2.24,4.5.74,5.95,2.22,2.17,3.51,2.17,6.1-.7,4.83-2.11,6.35c-1.4,1.52-3.37,2.28-5.89,2.28ZM140.27,309.87c-.93,0-1.67.41-2.21,1.22-.54.81-.81,1.93-.81,3.35s.27,2.56.81,3.37c.54.8,1.3,1.21,2.27,1.21,1.97,0,2.95-1.52,2.95-4.57s-1-4.58-3.01-4.58Z"/>
        <path class="cls-3" d="M157.28,307.39v2.7c.3-1.08.65-1.87,1.05-2.38.93-1.16,2.23-1.75,3.91-1.75,1.16,0,2.14.38,2.94,1.13.79.75,1.19,1.68,1.19,2.78,0,.87-.25,1.58-.76,2.14-.51.56-1.15.84-1.94.84-.59,0-1.1-.19-1.51-.57s-.62-.85-.62-1.4c0-.3.14-.71.41-1.24h-.19c-1.42,0-2.37.75-2.86,2.25-.38,1.21-.57,2.59-.57,4.16v1.21c0,.76.06,1.25.19,1.46.08.13.23.19.44.19.19,0,.45-.05.79-.16.34-.11.59-.16.76-.16.47,0,.86.17,1.19.5s.49.74.49,1.21c0,.62-.21,1.15-.62,1.57s-.92.63-1.51.63c-.32,0-.91-.05-1.78-.16-.53-.06-1.2-.09-2-.09s-1.51.03-2.13.09c-1.02.11-1.64.16-1.87.16-1.31,0-1.97-.71-1.97-2.13,0-1.19.51-1.78,1.52-1.78.17,0,.36.04.57.11.21.07.37.11.48.11.36,0,.54-.59.54-1.78v-5.14c0-1.21-.18-1.81-.54-1.81-.08,0-.25.04-.49.11-.24.08-.43.11-.56.11-1.02,0-1.52-.58-1.52-1.75,0-.63.17-1.15.51-1.56.34-.4.77-.6,1.3-.6.21,0,.51.04.89.13.38.08.74.13,1.08.13.25,0,.62-.04,1.11-.13.49-.08.85-.13,1.08-.13.67.01,1,.34,1,1Z"/>
        <path class="cls-3" d="M174.27,306.18c1.61,0,3.09.62,4.44,1.87v-2.29c0-.76-.27-1.14-.79-1.14-.13,0-.38.02-.76.07-.28.1-.55.15-.83.15-.4,0-.74-.17-1.02-.51-.27-.34-.41-.77-.41-1.28,0-1.37.72-2.05,2.16-2.05.46,0,.8.01,1.02.03.85.08,1.42.13,1.71.13.27,0,.68-.03,1.21-.08s.92-.08,1.17-.08c.53,0,.89.12,1.1.37.2.25.3.7.3,1.36v14.52c0,1.09.2,1.63.6,1.63.13,0,.29-.04.48-.13.13-.06.3-.09.51-.09.91,0,1.36.54,1.36,1.62,0,.66-.16,1.19-.48,1.6s-.74.62-1.27.62h-.19l-1.11-.19c-.25-.04-.61-.06-1.08-.06-.55,0-1.01.02-1.37.06-.53.06-.81.1-.86.1-.66,0-.98-.38-.98-1.14v-1.17c-1.1,1.88-2.75,2.83-4.95,2.83-1.95,0-3.55-.8-4.81-2.4s-1.89-3.61-1.89-6.05.62-4.48,1.86-6c1.24-1.54,2.87-2.3,4.88-2.3ZM175.38,310.18c-.78,0-1.42.37-1.92,1.11s-.78,1.75-.84,3.02v.41c0,1.29.25,2.31.75,3.05s1.17,1.11,2.02,1.11c.93,0,1.69-.4,2.27-1.21.58-.8.87-1.87.87-3.21s-.29-2.33-.86-3.11-1.34-1.17-2.29-1.17Z"/>
        <path class="cls-4" d="M82.14,349.81c-.57-.02-.86.29-.86.93v1c0,.71.32,1.06.95,1.06.25,0,.57-.03.95-.09.47-.08.86-.13,1.17-.13.53,0,.95.19,1.27.57s.48.89.48,1.52c0,.7-.21,1.26-.63,1.68s-.97.64-1.65.64c-.59,0-1.47-.05-2.64-.16s-2.04-.16-2.63-.16c-.91,0-1.67.03-2.29.1l-1.56.16c-.42.04-.71.06-.86.06-.68,0-1.22-.21-1.64-.64-.41-.42-.62-.98-.62-1.68,0-.59.16-1.09.49-1.49s.74-.6,1.22-.6c.19,0,.46.04.79.11.34.08.58.11.73.11.57,0,.86-.72.86-2.16v-8.79c0-.68-.02-1.11-.06-1.3-.11-.55-.37-.83-.79-.83-.17,0-.42.04-.75.11s-.59.11-.78.11c-.49,0-.89-.2-1.22-.6-.33-.4-.49-.9-.49-1.49,0-.7.21-1.26.64-1.7.42-.43.97-.65,1.65-.65h.1s.08.03.13.03c.51,0,1.28.05,2.32.16,1.04.11,1.82.16,2.35.16,1.02,0,2.13-.04,3.33-.13,1.52-.15,2.39-.22,2.6-.22,2.31,0,4.17.65,5.6,1.96s2.14,3.02,2.14,5.15-.74,3.96-2.21,5.26c-1.47,1.3-3.48,1.94-6.02,1.94h-2.07ZM81.28,344.4c0,.6.05.97.16,1.11.11.14.39.22.86.24h.51c2.5.15,3.75-.84,3.75-2.97s-1.12-3.06-3.37-3.06c-.55,0-.93.03-1.14.1-.38.11-.61.36-.7.77-.04.21-.06.54-.06.96v2.85h0Z"/>
        <path class="cls-3" d="M100.99,335.46c.59,0,.89.39.89,1.18v15.04c0,1.06.21,1.59.64,1.59.17,0,.32-.04.44-.11s.3-.11.51-.11c.93,0,1.4.56,1.4,1.68,0,1.48-.63,2.23-1.9,2.23-.02,0-.83-.06-2.41-.19-.49-.04-1.01-.06-1.56-.06-.47,0-.96.03-1.49.09-.89.11-1.45.16-1.68.16-.57,0-1.04-.2-1.4-.59s-.54-.91-.54-1.54c0-1.19.52-1.78,1.56-1.78.13,0,.3.04.52.11s.4.11.52.11c.36,0,.54-.59.54-1.78v-10.57c0-1.19-.18-1.78-.54-1.78-.15,0-.34.04-.57.11-.13.04-.3.05-.51.05-1.02,0-1.52-.58-1.52-1.73,0-.65.18-1.17.54-1.54s.85-.57,1.46-.57c.17,0,.53.03,1.08.09.72.08,1.26.13,1.62.13.49,0,.91-.04,1.27-.13.48-.06.86-.09,1.13-.09Z"/>
        <path class="cls-3" d="M120.96,357.37c-1.74,0-2.9-.7-3.49-2.1-1.48,1.4-3.24,2.1-5.27,2.1-1.67,0-3.01-.44-4-1.32s-1.49-2.05-1.49-3.51c0-2.22.96-3.66,2.89-4.32.83-.28,1.78-.51,2.86-.7,1.5-.25,2.52-.54,3.06-.87s.81-.83.81-1.51c0-.49-.21-.89-.62-1.22s-.93-.49-1.54-.49c-.7,0-1.05.22-1.05.67v.57c0,.59-.25,1.09-.74,1.49s-1.11.6-1.85.6c-.84,0-1.54-.25-2.08-.76-.55-.51-.82-1.14-.82-1.9,0-1.14.6-2.04,1.81-2.7s2.87-.98,4.98-.98c2.29,0,3.99.35,5.11,1.05,1.21.76,1.81,2.18,1.81,4.25v6.57c0,.68.17,1.02.51,1.02h.7c.49,0,.9.17,1.24.5.34.33.51.74.51,1.22,0,.69-.31,1.25-.94,1.69-.62.43-1.42.65-2.4.65ZM116.33,350.58v-.71c-.15.09-1.07.35-2.77.8-1.16.3-1.73.76-1.73,1.38,0,.98.57,1.47,1.7,1.47,1.86.01,2.8-.97,2.8-2.94Z"/>
        <path class="cls-3" d="M132.9,345.65l2.16,6.83,2.16-6.54c.17-.51.25-.89.25-1.14,0-.23-.17-.41-.51-.54l-.57-.22c-.44-.17-.67-.61-.67-1.33,0-.53.15-.97.46-1.32s.69-.52,1.16-.52c.32,0,.8.04,1.46.13.66.08,1.14.13,1.46.13.34,0,.85-.04,1.52-.13.68-.08,1.19-.13,1.52-.13,1.27,0,1.9.69,1.9,2.06,0,.49-.14.92-.43,1.29s-.63.56-1.03.56c-.08,0-.23-.02-.43-.06s-.34-.06-.43-.06c-.38,0-.69.32-.92.95l-.41,1.11-2.73,7.11c-.85,2.2-1.43,3.63-1.76,4.29s-.8,1.38-1.41,2.16c-1.69,2.14-3.77,3.21-6.22,3.21-1.5,0-2.74-.36-3.71-1.08-.97-.72-1.46-1.64-1.46-2.76,0-.78.25-1.42.75-1.92s1.13-.75,1.89-.75c.66,0,1.19.2,1.59.59s.6.89.6,1.51v.7c.27.13.53.19.78.19.56,0,1.09-.34,1.6-1.01.51-.67.76-1.24.76-1.71,0-.42-.36-1.49-1.08-3.19l-3.56-8.38c-.25-.59-.51-.89-.76-.89h-.77c-1.08,0-1.62-.6-1.62-1.79,0-.59.19-1.09.56-1.5s.83-.61,1.38-.61c.34,0,.84.04,1.51.13.67.08,1.17.13,1.51.13.4,0,1.08-.04,2.03-.13.95-.08,1.46-.13,1.52-.13,1.16,0,1.75.61,1.75,1.84,0,.87-.44,1.38-1.33,1.52-.44.06-.67.25-.67.57,0,.15.07.43.2.83Z"/>
        <path class="cls-3" d="M152.74,336.57v6c1.36-1.44,2.88-2.16,4.56-2.16,1.85,0,3.34.76,4.48,2.27,1.14,1.51,1.72,3.5,1.72,5.95,0,2.65-.65,4.76-1.94,6.35-1.29,1.59-3.02,2.38-5.17,2.38s-3.86-.85-5.11-2.54c.04.34.06.61.06.8,0,.99-.58,1.48-1.75,1.48s-1.81-.62-1.81-1.85v-14.5c0-1.08-.17-1.62-.52-1.62-.14,0-.33.04-.55.11-.12.04-.29.05-.49.05-.98,0-1.48-.58-1.48-1.73,0-.63.17-1.14.52-1.53.35-.39.82-.58,1.41-.58.27,0,.68.03,1.21.09s.93.1,1.21.1c.64,0,1.2-.03,1.68-.1s.85-.09,1.08-.09c.6,0,.89.38.89,1.12ZM155.65,353.34c1.83,0,2.75-1.48,2.75-4.44s-.9-4.45-2.68-4.45c-.86,0-1.57.42-2.13,1.25-.56.84-.84,1.89-.84,3.16-.01,2.99.96,4.48,2.9,4.48Z"/>
        <path class="cls-3" d="M180.11,357.37c-1.74,0-2.9-.7-3.49-2.1-1.48,1.4-3.24,2.1-5.27,2.1-1.67,0-3.01-.44-4-1.32s-1.49-2.05-1.49-3.51c0-2.22.96-3.66,2.89-4.32.83-.28,1.78-.51,2.86-.7,1.5-.25,2.52-.54,3.06-.87s.81-.83.81-1.51c0-.49-.21-.89-.62-1.22s-.93-.49-1.54-.49c-.7,0-1.05.22-1.05.67v.57c0,.59-.25,1.09-.74,1.49s-1.11.6-1.85.6c-.84,0-1.54-.25-2.08-.76-.55-.51-.82-1.14-.82-1.9,0-1.14.6-2.04,1.81-2.7s2.87-.98,4.98-.98c2.29,0,3.99.35,5.11,1.05,1.21.76,1.81,2.18,1.81,4.25v6.57c0,.68.17,1.02.51,1.02h.7c.49,0,.9.17,1.24.5.34.33.51.74.51,1.22,0,.69-.31,1.25-.94,1.69-.63.43-1.43.65-2.4.65ZM175.47,350.58v-.71c-.15.09-1.07.35-2.77.8-1.16.3-1.73.76-1.73,1.38,0,.98.57,1.47,1.7,1.47,1.87.01,2.8-.97,2.8-2.94Z"/>
        <path class="cls-3" d="M194.49,345.91c0-.32.11-.64.32-.95-.49-.34-1.03-.51-1.62-.51-.93,0-1.69.38-2.27,1.16-.58.77-.87,1.8-.87,3.08s.31,2.39.92,3.19,1.43,1.2,2.44,1.2,1.8-.56,2.29-1.67c.3-.69.55-1.13.76-1.32.3-.25.76-.38,1.4-.38.72,0,1.3.22,1.75.65.44.43.67.99.67,1.67,0,1.44-.7,2.69-2.1,3.75-1.4,1.06-3.07,1.59-5.02,1.59-2.5,0-4.49-.77-5.97-2.3-1.48-1.53-2.22-3.59-2.22-6.17s.76-4.67,2.29-6.19c1.52-1.52,3.58-2.29,6.16-2.29,1.86,0,3.4.44,4.62,1.32s1.83,2,1.83,3.35c0,.85-.28,1.53-.83,2.05s-1.26.78-2.13.78c-.72,0-1.3-.19-1.75-.56s-.67-.86-.67-1.45Z"/>
        <path class="cls-3" d="M209.73,336.67v10.79l1.49-1.3c.13-.11.37-.32.73-.64.57-.49.86-.87.86-1.14,0-.17-.1-.34-.29-.51l-.51-.48c-.28-.25-.41-.61-.41-1.08,0-.97.55-1.46,1.65-1.46.38,0,.96.04,1.75.13.78.08,1.38.13,1.78.13.61,0,1.38-.04,2.29-.13.91-.08,1.39-.13,1.43-.13,1.25,0,1.87.64,1.87,1.91s-.49,1.84-1.46,1.84c-.19,0-.42-.03-.7-.1-.28-.06-.49-.09-.64-.09-.3,0-.76.23-1.4.7l-1.33.98c-.55.4-.83.72-.83.95,0,.11.04.22.13.35l.29.41,2.48,3.91c.68,1.08,1.22,1.62,1.62,1.62.13,0,.3-.04.51-.11l.67-.11c.95,0,1.43.61,1.43,1.83,0,1.34-.62,2.02-1.87,2.02-.34,0-.85-.04-1.52-.13s-1.19-.13-1.52-.13c-.57,0-1.13.04-1.68.13s-.95.13-1.21.13c-.42,0-.79-.17-1.11-.51s-.48-.74-.48-1.21c0-.25.13-.62.38-1.11.15-.21.22-.41.22-.6,0-.25-.23-.71-.7-1.37l-1.05-1.46c-.4-.55-.65-.83-.73-.83-.21,0-.54.2-.98.6l-1.14,1.05v.63c0,.8.17,1.21.51,1.21.13,0,.31-.04.54-.13.23-.08.42-.13.57-.13.87,0,1.3.52,1.3,1.55,0,1.53-.6,2.29-1.81,2.29-.3,0-.75-.04-1.37-.13-.61-.08-1.51-.13-2.7-.13-.66,0-1.21.03-1.65.09-.72.11-1.21.16-1.46.16-.57,0-1.04-.2-1.4-.59s-.54-.89-.54-1.51c0-1.21.52-1.81,1.56-1.81-.02,0,.24.06.79.19.08.02.16.03.22.03.38,0,.57-.59.57-1.78v-10.57c0-1.19-.18-1.78-.54-1.78-.15,0-.34.04-.57.11-.13.04-.3.05-.51.05-1.02,0-1.52-.58-1.52-1.73,0-1.41.68-2.11,2.03-2.11.34,0,.65.02.92.06.68.11,1.21.16,1.59.16.3,0,.76-.04,1.4-.13.49-.06.84-.09,1.05-.09.66.03,1,.44,1,1.24Z"/>
        <path class="cls-4" d="M79.85,369.54c2.2,0,3.94.75,5.21,2.25.02-.74.16-1.25.43-1.52.26-.27.72-.41,1.38-.41,1.35,0,2.03.57,2.03,1.71,0,.32-.03.78-.1,1.4s-.1,1.08-.1,1.4c0,.19.02.47.06.83.04.36.06.64.06.83v.16c0,1.25-.72,1.87-2.16,1.87-1.21,0-1.93-.5-2.16-1.51l-.16-.66c-.32-1.37-1.44-2.05-3.37-2.05-1.82,0-2.73.63-2.73,1.9,0,.66.2,1.1.59,1.33s1.38.51,2.97.82c2.67.53,4.6,1.32,5.81,2.38s1.81,2.49,1.81,4.31c0,2.13-.73,3.88-2.19,5.25-1.46,1.36-3.32,2.04-5.59,2.04-1.88,0-3.69-.68-5.43-2.03-.06,1.16-.7,1.75-1.9,1.75-1.38,0-2.06-.68-2.06-2.03,0-.44.03-.92.1-1.43.08-.68.13-1.2.13-1.56,0-.23-.03-.59-.08-1.08s-.08-.85-.08-1.08c0-.55.23-1,.68-1.35s1.04-.52,1.76-.52c.8,0,1.38.18,1.73.53.35.35.6,1.01.75,1.97.23,1.6,1.44,2.4,3.62,2.4.89,0,1.6-.21,2.13-.63s.79-.97.79-1.65c0-.74-.23-1.26-.7-1.57-.47-.31-1.58-.67-3.33-1.1l-2.1-.51c-.91-.23-1.76-.65-2.54-1.24-1.52-1.14-2.29-2.68-2.29-4.6s.65-3.53,1.95-4.75c1.32-1.24,3.01-1.85,5.08-1.85Z"/>
        <path class="cls-3" d="M99.25,380.11l2.16,6.83,2.16-6.54c.17-.51.25-.89.25-1.14,0-.23-.17-.41-.51-.54l-.57-.22c-.44-.17-.67-.61-.67-1.33,0-.53.15-.97.46-1.32.31-.35.69-.52,1.16-.52.32,0,.8.04,1.46.13.66.08,1.14.13,1.46.13.34,0,.85-.04,1.52-.13.68-.08,1.19-.13,1.52-.13,1.27,0,1.9.69,1.9,2.06,0,.49-.14.92-.43,1.29s-.63.56-1.03.56c-.08,0-.23-.02-.43-.06s-.34-.06-.43-.06c-.38,0-.69.32-.92.95l-.41,1.11-2.73,7.11c-.85,2.2-1.43,3.63-1.76,4.29s-.8,1.38-1.41,2.16c-1.69,2.14-3.77,3.21-6.22,3.21-1.5,0-2.74-.36-3.71-1.08-.97-.72-1.46-1.64-1.46-2.76,0-.78.25-1.42.75-1.92s1.13-.75,1.89-.75c.66,0,1.19.2,1.59.59s.6.89.6,1.51v.7c.27.13.53.19.78.19.56,0,1.09-.34,1.6-1.01.51-.67.76-1.24.76-1.71,0-.42-.36-1.49-1.08-3.19l-3.56-8.38c-.25-.59-.51-.89-.76-.89h-.77c-1.08,0-1.62-.6-1.62-1.79,0-.59.19-1.09.56-1.5s.83-.61,1.38-.61c.34,0,.84.04,1.51.13.67.08,1.17.13,1.51.13.4,0,1.08-.04,2.03-.13.95-.08,1.46-.13,1.52-.13,1.16,0,1.75.61,1.75,1.84,0,.87-.44,1.38-1.33,1.52-.44.06-.67.25-.67.57,0,.14.07.43.2.83Z"/>
        <path class="cls-3" d="M118.8,374.87c1.63,0,3,.46,4.13,1.37.08-.91.66-1.37,1.71-1.37s1.62.38,1.62,1.14c0,.25-.04.54-.13.86-.06.38-.1.74-.1,1.08,0,.06.01.23.03.51v.86c0,1.12-.56,1.68-1.68,1.68-.8,0-1.5-.4-2.1-1.19-.72-.96-1.6-1.44-2.64-1.44-1.23,0-1.84.42-1.84,1.27,0,.44.2.76.6.94.4.18,1.46.42,3.17.71,1.4.25,2.43.54,3.1.86s1.21.77,1.63,1.37c.53.76.79,1.65.79,2.67,0,1.61-.62,2.95-1.86,4.03s-2.79,1.62-4.65,1.62-3.56-.59-5.08-1.78c0,1.02-.53,1.52-1.59,1.52-1.14,0-1.71-.47-1.71-1.4,0-.21.02-.54.06-.98s.06-.77.06-.98c0-.19-.02-.48-.05-.86s-.05-.67-.05-.86c0-.95.59-1.43,1.78-1.43.57,0,1,.09,1.3.26s.61.5.95.99c.53.79,1.02,1.31,1.46,1.56s1.1.37,1.97.37c1.52,0,2.29-.48,2.29-1.43,0-.66-.61-1.11-1.84-1.37l-1.84-.38c-1.5-.32-2.57-.63-3.19-.95s-1.12-.82-1.48-1.51-.54-1.48-.54-2.37c0-1.59.52-2.88,1.57-3.87,1.09-1,2.46-1.5,4.15-1.5Z"/>
        <path class="cls-3" d="M136.08,379.66v3.27l-.06,2.13c-.04.7-.06.98-.06.86,0,1.25.39,1.87,1.17,1.87s1.11-.56,1.11-1.68v-1.11c0-1.14.57-1.71,1.71-1.71,1.33,0,2,1.07,2,3.21,0,1.67-.5,2.98-1.49,3.92-1,.94-2.38,1.41-4.16,1.41-3.49,0-5.24-1.84-5.24-5.52,0-.59.03-1.48.08-2.67.05-1.18.08-2.07.08-2.67v-1.02c0-.53-.05-.86-.14-1s-.32-.21-.68-.21h-.52c-.4,0-.73-.15-.98-.46s-.38-.7-.38-1.19.13-.9.4-1.25c.26-.35.58-.52.94-.52h.6c.51,0,.8-.15.89-.44.06-.17.1-.45.1-.86v-1.56c0-.74.2-1.25.59-1.52s1.11-.41,2.14-.41c.74,0,1.24.11,1.51.32.26.21.4.68.4,1.4v1.71c0,.61.06,1,.17,1.14.12.15.42.22.9.22h2.29c1.25,0,1.87.58,1.87,1.75s-.57,1.68-1.71,1.68h-2.6c-.44,0-.71.07-.79.22-.1.14-.14.38-.14.69Z"/>
        <path class="cls-3" d="M159.31,381.98c0,.89-.11,1.48-.33,1.78-.22.3-.66.44-1.32.44h-7.75c-.38,0-.62.04-.71.11s-.14.26-.14.56c0,.89.29,1.63.86,2.22.57.59,1.29.89,2.16.89s1.8-.49,2.73-1.46c.64-.68,1.33-1.02,2.1-1.02.63,0,1.15.18,1.54.54.39.36.59.81.59,1.37,0,1.23-.67,2.27-2.02,3.13s-2.98,1.29-4.9,1.29c-2.52,0-4.53-.76-6.03-2.29-1.5-1.52-2.25-3.56-2.25-6.1s.75-4.63,2.24-6.21,3.44-2.37,5.86-2.37c2.24,0,4.04.65,5.38,1.94,1.32,1.3,1.99,3.02,1.99,5.18ZM149.22,380.39c0,.13.03.23.1.32.06.08.29.13.67.13h3.56c.32,0,.51-.04.59-.11.07-.07.11-.21.11-.4,0-.55-.24-1.03-.73-1.44s-1.06-.62-1.71-.62c-.85,0-1.54.33-2.06.98-.36.43-.53.81-.53,1.14Z"/>
        <path class="cls-3" d="M168.36,376.27v1.46c1.59-1.9,3.35-2.86,5.3-2.86,1.63,0,2.97.79,4.03,2.38,1.06-.91,1.96-1.54,2.71-1.87.75-.34,1.62-.51,2.62-.51,2.01,0,3.51.67,4.51,2,.68.91,1.02,2.37,1.02,4.38v4.86c0,1.08.2,1.62.6,1.62.13,0,.3-.04.51-.13.11-.06.26-.09.48-.09.93,0,1.4.56,1.4,1.68,0,.67-.17,1.21-.51,1.61-.34.41-.78.61-1.33.61-.06,0-.37-.03-.92-.09l-.7-.1c-.34-.04-.78-.06-1.33-.06-.68,0-1.33.04-1.97.13s-1.08.13-1.33.13c-.51,0-.93-.2-1.25-.59-.33-.39-.49-.88-.49-1.47,0-.97.39-1.53,1.17-1.68.4-.06.64-.18.71-.35s.11-.63.11-1.39v-3.26c0-1.35-.14-2.28-.43-2.77-.29-.5-.83-.74-1.64-.74-1.8,0-2.7,1.28-2.7,3.83v2.95c0,.72.03,1.17.1,1.36.06.19.23.32.51.38.66.15.98.67.98,1.58,0,1.44-.59,2.15-1.78,2.15-.23,0-.56-.03-.98-.09-.7-.11-1.16-.16-1.4-.16s-.63.04-1.13.13-.87.13-1.13.13c-1.04,0-1.56-.67-1.56-2,0-.95.33-1.51.98-1.68.36-.08.55-.34.57-.76.02-.57.03-.92.03-1.04v-3.58c0-1.2-.14-2.04-.43-2.5s-.8-.7-1.54-.7c-1.86,0-2.79,1.28-2.79,3.83v3.83c0,.34.04.55.13.65.08.1.3.17.64.24.83.15,1.24.7,1.24,1.65,0,1.37-.58,2.06-1.75,2.06-.36,0-.89-.04-1.6-.13-.71-.08-1.24-.13-1.6-.13-.49,0-.98.03-1.49.09-.85.11-1.39.16-1.62.16-.59,0-1.06-.2-1.41-.59s-.52-.89-.52-1.51c0-1.21.51-1.81,1.52-1.81.17,0,.36.04.57.11s.37.11.48.11c.36,0,.54-.59.54-1.78v-5.14c0-1.21-.18-1.81-.54-1.81-.08,0-.25.04-.49.11-.24.08-.43.11-.56.11-1.02,0-1.52-.59-1.52-1.78,0-.61.17-1.12.52-1.52.35-.4.81-.6,1.38-.6.13,0,.48.05,1.05.16.34.06.66.1.95.1.25,0,.63-.04,1.13-.13.5-.08.87-.13,1.13-.13.55,0,.82.31.82.95Z"/>
      </g>
    </g>
  </g>
</svg>