<?xml version="1.0" encoding="UTF-8"?>
<svg id="Layer_2" data-name="Layer 2" xmlns="http://www.w3.org/2000/svg" xmlns:xlink="http://www.w3.org/1999/xlink" viewBox="0 0 600 600">
  <defs>
    <style>
      .cls-1 {
        fill: none;
      }

      .cls-2 {
        fill: url(#linear-gradient-8);
      }

      .cls-3 {
        fill: url(#linear-gradient-7);
      }

      .cls-4 {
        fill: url(#linear-gradient-5);
      }

      .cls-5 {
        fill: url(#linear-gradient-6);
      }

      .cls-6 {
        fill: url(#linear-gradient-9);
      }

      .cls-7 {
        fill: url(#linear-gradient-4);
      }

      .cls-8 {
        fill: url(#linear-gradient-3);
      }

      .cls-9 {
        fill: url(#linear-gradient-2);
      }

      .cls-10 {
        fill: #c00000;
      }

      .cls-11 {
        fill: url(#linear-gradient);
      }

      .cls-12 {
        fill: #6f2d31;
      }

      .cls-13 {
        fill: url(#linear-gradient-10);
      }

      .cls-14 {
        fill: url(#linear-gradient-11);
      }

      .cls-15 {
        fill: url(#linear-gradient-12);
      }

      .cls-16 {
        fill: #231f20;
        opacity: .3;
      }
    </style>
    <linearGradient id="linear-gradient" x1="257.14" y1="213.71" x2="268.18" y2="213.79" gradientUnits="userSpaceOnUse">
      <stop offset="0" stop-color="#5870aa"/>
      <stop offset=".5" stop-color="#a6b3d2"/>
      <stop offset="1" stop-color="#5870aa"/>
    </linearGradient>
    <linearGradient id="linear-gradient-2" x1="254.14" y1="132.47" x2="271.14" y2="132.47" xlink:href="#linear-gradient"/>
    <linearGradient id="linear-gradient-3" x1="1923.57" y1="-1954.81" x2="1923.57" y2="-1924.84" gradientTransform="translate(2215.82 -1750.98) rotate(90.4) scale(1 -1)" gradientUnits="userSpaceOnUse">
      <stop offset="0" stop-color="#25307d"/>
      <stop offset=".05" stop-color="#222c82"/>
      <stop offset=".12" stop-color="#1a2290"/>
      <stop offset=".18" stop-color="#0d11a8"/>
      <stop offset=".24" stop-color="#0000c0"/>
      <stop offset=".28" stop-color="#0005bf"/>
      <stop offset=".33" stop-color="#0013be"/>
      <stop offset=".39" stop-color="#002bbb"/>
      <stop offset=".45" stop-color="#004db7"/>
      <stop offset=".49" stop-color="#006ab4"/>
      <stop offset=".5" stop-color="#0068b4"/>
      <stop offset=".57" stop-color="#0043b8"/>
      <stop offset=".63" stop-color="#0025bc"/>
      <stop offset=".7" stop-color="#0011be"/>
      <stop offset=".76" stop-color="#0004c0"/>
      <stop offset=".82" stop-color="#0000c0"/>
      <stop offset="1" stop-color="#1b2266"/>
    </linearGradient>
    <linearGradient id="linear-gradient-4" x1="1939.81" y1="-1954.69" x2="1939.81" y2="-1924.73" xlink:href="#linear-gradient-3"/>
    <linearGradient id="linear-gradient-5" x1="1956.05" y1="-1954.58" x2="1956.05" y2="-1924.61" xlink:href="#linear-gradient-3"/>
    <linearGradient id="linear-gradient-6" x1="2196.3" y1="-1099.62" x2="2207.3" y2="-1099.54" gradientTransform="translate(-1939.14 1220.78)" xlink:href="#linear-gradient"/>
    <linearGradient id="linear-gradient-7" x1="11.45" y1="-3346.54" x2="11.45" y2="-3316.57" gradientTransform="translate(307.46 -3210.44) rotate(.4) scale(1 -1)" xlink:href="#linear-gradient-3"/>
    <linearGradient id="linear-gradient-8" x1="27.69" y1="-3346.43" x2="27.69" y2="-3316.46" gradientTransform="translate(307.46 -3210.44) rotate(.4) scale(1 -1)" xlink:href="#linear-gradient-3"/>
    <linearGradient id="linear-gradient-9" x1="43.94" y1="-3346.31" x2="43.94" y2="-3316.35" gradientTransform="translate(307.46 -3210.44) rotate(.4) scale(1 -1)" xlink:href="#linear-gradient-3"/>
    <linearGradient id="linear-gradient-10" x1="631.91" y1="-46.78" x2="631.91" y2="-16.81" gradientTransform="translate(861.19 157.38) rotate(-179.6) scale(1 -1)" xlink:href="#linear-gradient-3"/>
    <linearGradient id="linear-gradient-11" x1="648.15" y1="-46.67" x2="648.15" y2="-16.7" gradientTransform="translate(861.19 157.38) rotate(-179.6) scale(1 -1)" xlink:href="#linear-gradient-3"/>
    <linearGradient id="linear-gradient-12" x1="664.39" y1="-46.56" x2="664.39" y2="-16.59" gradientTransform="translate(861.19 157.38) rotate(-179.6) scale(1 -1)" xlink:href="#linear-gradient-3"/>
  </defs>
  <g id="Layer_1-2" data-name="Layer 1">
    <g>
      <g>
        <g>
          <g>
            <rect class="cls-11" x="257.64" y="138.75" width="10" height="150"/>
            <path class="cls-16" d="M258.14,138.75h9v1.55c0,1-.81,1.81-1.81,1.81h-5.37c-1,0-1.81-.81-1.81-1.81v-1.55h0Z"/>
            <path d="M257.53,139.24c1.42-.08,3.19-.12,5.11-.12s3.69.05,5.11.12c2.05-.11,3.39-.29,3.39-.49,0-.34-3.81-.61-8.5-.61s-8.5.27-8.5.61c0,.2,1.33.38,3.39.49Z"/>
            <path class="cls-9" d="M271.1,126.75c-.43-.31-4.05-.55-8.46-.55s-8.03.24-8.46.55h-.04v.06h0v11.94h17v-12h-.04Z"/>
          </g>
          <g>
            <g>
              <path class="cls-16" d="M257.65,162.4h10v4.28c0,1-.81,1.81-1.81,1.81h-6.37c-1,0-1.81-.81-1.81-1.81v-4.28h0Z"/>
              <path class="cls-8" d="M273.84,165.45l-22.46-.12c-2.06-.01-3.74-1.33-3.72-2.94l.04-7.74c.04-4.39,1.68.2,3.76.21l22.46.12c2.06.01,3.74-2.83,3.72-1.22l-.04,8.78c0,1.62-1.69,2.92-3.76,2.91Z"/>
              <path d="M273.92,150.47l-6.27-.02h0c0,1.82-.81,3.29-1.81,3.29h-6.37c-1,0-1.81-1.47-1.81-3.29v-.04l-6.2-.02c-2.06,0-3.75,1.86-3.76,2.88l-.04.84c-.01,1.02,1.66,2.9,3.72,2.9l22.47.08c2.06,0,3.75-1.86,3.76-2.88l.04-.84c.01-1.02-1.66-2.9-3.72-2.9Z"/>
            </g>
            <g>
              <path class="cls-16" d="M257.65,178.65h10v4.28c0,1-.81,1.81-1.81,1.81h-6.37c-1,0-1.81-.81-1.81-1.81v-4.28h0Z"/>
              <path class="cls-7" d="M273.84,181.69l-22.46-.12c-2.06-.01-3.74-1.33-3.72-2.94l.04-7.74c.04-4.39,1.68.2,3.76.21l22.46.12c2.06.01,3.74-2.83,3.72-1.22l-.04,8.78c0,1.62-1.69,2.92-3.76,2.91Z"/>
              <path d="M273.92,166.72l-6.27-.02h0c0,1.82-.81,3.29-1.81,3.29h-6.37c-1,0-1.81-1.47-1.81-3.29v-.04l-6.2-.02c-2.06,0-3.75,1.86-3.76,2.88l-.04.84c-.01,1.02,1.66,2.9,3.72,2.9l22.47.08c2.06,0,3.75-1.86,3.76-2.88l.04-.84c.01-1.02-1.66-2.9-3.72-2.9Z"/>
            </g>
            <g>
              <path class="cls-16" d="M257.65,194.89h10v4.28c0,1-.81,1.81-1.81,1.81h-6.37c-1,0-1.81-.81-1.81-1.81v-4.28h0Z"/>
              <path class="cls-4" d="M273.84,197.94l-22.46-.12c-2.06-.01-3.74-1.33-3.72-2.94l.04-7.74c.04-4.39,1.68.2,3.76.21l22.46.12c2.06.01,3.74-2.83,3.72-1.22l-.04,8.78c0,1.62-1.69,2.92-3.76,2.91Z"/>
              <path d="M273.92,182.96l-6.27-.02h0c0,1.82-.81,3.29-1.81,3.29h-6.37c-1,0-1.81-1.47-1.81-3.29v-.04l-6.2-.02c-2.06,0-3.75,1.86-3.76,2.88l-.04.84c-.01,1.02,1.66,2.9,3.72,2.9l22.47.08c2.06,0,3.75-1.86,3.76-2.88l.04-.84c.01-1.02-1.66-2.9-3.72-2.9Z"/>
            </g>
          </g>
        </g>
        <g>
          <g>
            <g>
              <polygon class="cls-12" points="190.44 133.54 186.87 135.2 187.44 53.42 190.6 55.11 190.44 133.54"/>
              <polygon class="cls-10" points="186.87 135.2 175.31 134.34 175.87 54.21 187.44 53.42 186.87 135.2"/>
            </g>
            <g>
              <polygon class="cls-12" points="334.85 134.6 338.42 136.26 337.85 54.48 334.69 56.17 334.85 134.6"/>
              <polygon class="cls-10" points="338.42 136.26 349.97 135.39 349.42 55.27 337.85 54.48 338.42 136.26"/>
            </g>
          </g>
          <rect class="cls-5" x="257.64" y="46.2" width="10" height="150" rx="2.73" ry="2.73" transform="translate(383.84 -141.45) rotate(90)"/>
          <g>
            <g>
              <g>
                <path class="cls-16" d="M297.11,118.15h10v4.28c0,1-.81,1.81-1.81,1.81h-6.37c-1,0-1.81-.81-1.81-1.81v-4.28h0Z" transform="translate(180.92 423.3) rotate(-90)"/>
                <path class="cls-3" d="M302.11,110l-.12,22.46c-.01,2.06-1.33,3.74-2.94,3.72l-7.74-.04c-4.39-.04.2-1.68.21-3.76l.12-22.46c.01-2.06-2.83-3.74-1.22-3.72l8.78.04c1.62,0,2.92,1.69,2.91,3.76Z"/>
                <path d="M287.13,109.92l-.02,6.27h0c1.82,0,3.29.81,3.29,1.81v6.37c0,1-1.47,1.81-3.29,1.81h-.04l-.02,6.2c0,2.06,1.86,3.75,2.88,3.76l.84.04c1.02.01,2.9-1.66,2.9-3.72l.08-22.47c0-2.06-1.86-3.75-2.88-3.76l-.84-.04c-1.02-.01-2.9,1.66-2.9,3.72Z"/>
              </g>
              <g>
                <path class="cls-16" d="M313.35,118.15h10v4.28c0,1-.81,1.81-1.81,1.81h-6.37c-1,0-1.81-.81-1.81-1.81v-4.28h0Z" transform="translate(197.16 439.55) rotate(-90)"/>
                <path class="cls-2" d="M318.35,110l-.12,22.46c-.01,2.06-1.33,3.74-2.94,3.72l-7.74-.04c-4.39-.04.2-1.68.21-3.76l.12-22.46c.01-2.06-2.83-3.74-1.22-3.72l8.78.04c1.62,0,2.92,1.69,2.91,3.76Z"/>
                <path d="M303.38,109.92l-.02,6.27h0c1.82,0,3.29.81,3.29,1.81v6.37c0,1-1.47,1.81-3.29,1.81h-.04l-.02,6.2c0,2.06,1.86,3.75,2.88,3.76l.84.04c1.02.01,2.9-1.66,2.9-3.72l.08-22.47c0-2.06-1.86-3.75-2.88-3.76l-.84-.04c-1.02-.01-2.9,1.66-2.9,3.72Z"/>
              </g>
              <g>
                <path class="cls-16" d="M329.6,118.15h10v4.28c0,1-.81,1.81-1.81,1.81h-6.37c-1,0-1.81-.81-1.81-1.81v-4.28h0Z" transform="translate(213.41 455.79) rotate(-90)"/>
                <path class="cls-6" d="M334.6,110l-.12,22.46c-.01,2.06-1.33,3.74-2.94,3.72l-7.74-.04c-4.39-.04.2-1.68.21-3.76l.12-22.46c.01-2.06-2.83-3.74-1.22-3.72l8.78.04c1.62,0,2.92,1.69,2.91,3.76Z"/>
                <path d="M319.62,109.92l-.02,6.27h0c1.82,0,3.29.81,3.29,1.81v6.37c0,1-1.47,1.81-3.29,1.81h-.04l-.02,6.2c0,2.06,1.86,3.75,2.88,3.76l.84.04c1.02.01,2.9-1.66,2.9-3.72l.08-22.47c0-2.06-1.86-3.75-2.88-3.76l-.84-.04c-1.02-.01-2.9,1.66-2.9,3.72Z"/>
              </g>
            </g>
            <g>
              <g>
                <path class="cls-16" d="M218.18,118.15h10v4.28c0,1-.81,1.81-1.81,1.81h-6.37c-1,0-1.81-.81-1.81-1.81v-4.28h0Z" transform="translate(344.38 -101.98) rotate(90)"/>
                <path class="cls-13" d="M223.18,132.39l.12-22.46c.01-2.06,1.33-3.74,2.94-3.72l7.74.04c4.39.04-.2,1.68-.21,3.76l-.12,22.46c-.01,2.06,2.83,3.74,1.22,3.72l-8.78-.04c-1.62,0-2.92-1.69-2.91-3.76Z"/>
                <path d="M238.15,132.47l.02-6.27h0c-1.82,0-3.29-.81-3.29-1.81v-6.37c0-1,1.47-1.81,3.29-1.81h.04l.02-6.2c0-2.06-1.86-3.75-2.88-3.76l-.84-.04c-1.02-.01-2.9,1.66-2.9,3.72l-.08,22.47c0,2.06,1.86,3.75,2.88,3.76l.84.04c1.02.01,2.9-1.66,2.9-3.72Z"/>
              </g>
              <g>
                <path class="cls-16" d="M201.93,118.15h10v4.28c0,1-.81,1.81-1.81,1.81h-6.37c-1,0-1.81-.81-1.81-1.81v-4.28h0Z" transform="translate(328.13 -85.74) rotate(90)"/>
                <path class="cls-14" d="M206.93,132.39l.12-22.46c.01-2.06,1.33-3.74,2.94-3.72l7.74.04c4.39.04-.2,1.68-.21,3.76l-.12,22.46c-.01,2.06,2.83,3.74,1.22,3.72l-8.78-.04c-1.62,0-2.92-1.69-2.91-3.76Z"/>
                <path d="M221.91,132.47l.02-6.27h0c-1.82,0-3.29-.81-3.29-1.81v-6.37c0-1,1.47-1.81,3.29-1.81h.04l.02-6.2c0-2.06-1.86-3.75-2.88-3.76l-.84-.04c-1.02-.01-2.9,1.66-2.9,3.72l-.08,22.47c0,2.06,1.86,3.75,2.88,3.76l.84.04c1.02.01,2.9-1.66,2.9-3.72Z"/>
              </g>
              <g>
                <path class="cls-16" d="M185.69,118.15h10v4.28c0,1-.81,1.81-1.81,1.81h-6.37c-1,0-1.81-.81-1.81-1.81v-4.28h0Z" transform="translate(311.89 -69.49) rotate(90)"/>
                <path class="cls-15" d="M190.69,132.39l.12-22.46c.01-2.06,1.33-3.74,2.94-3.72l7.74.04c4.39.04-.2,1.68-.21,3.76l-.12,22.46c-.01,2.06,2.83,3.74,1.22,3.72l-8.78-.04c-1.62,0-2.92-1.69-2.91-3.76Z"/>
                <path d="M205.67,132.47l.02-6.27h0c-1.82,0-3.29-.81-3.29-1.81v-6.37c0-1,1.47-1.81,3.29-1.81h.04l.02-6.2c0-2.06-1.86-3.75-2.88-3.76l-.84-.04c-1.02-.01-2.9,1.66-2.9,3.72l-.08,22.47c0,2.06,1.86,3.75,2.88,3.76l.84.04c1.02.01,2.9-1.66,2.9-3.72Z"/>
              </g>
            </g>
          </g>
        </g>
      </g>
      <rect class="cls-1" width="600" height="600"/>
    </g>
  </g>
</svg>