<?xml version="1.0" encoding="UTF-8"?>
<svg id="Layer_2" data-name="Layer 2" xmlns="http://www.w3.org/2000/svg" xmlns:xlink="http://www.w3.org/1999/xlink" viewBox="0 0 600 600">
  <defs>
    <style>
      .cls-1 {
        fill: none;
      }

      .cls-2 {
        fill: url(#linear-gradient-8);
      }

      .cls-3 {
        fill: url(#linear-gradient-7);
      }

      .cls-4 {
        fill: url(#linear-gradient-5);
      }

      .cls-5 {
        fill: url(#linear-gradient-6);
      }

      .cls-6 {
        fill: url(#linear-gradient-9);
      }

      .cls-7 {
        fill: url(#linear-gradient-4);
      }

      .cls-8 {
        fill: url(#linear-gradient-3);
      }

      .cls-9 {
        fill: url(#linear-gradient-2);
      }

      .cls-10 {
        fill: #c00000;
      }

      .cls-11 {
        fill: url(#linear-gradient);
      }

      .cls-12 {
        fill: #6f2d31;
      }

      .cls-13 {
        fill: url(#linear-gradient-10);
      }

      .cls-14 {
        fill: url(#linear-gradient-11);
      }

      .cls-15 {
        fill: url(#linear-gradient-12);
      }

      .cls-16 {
        fill: #231f20;
        opacity: .3;
      }
    </style>
    <linearGradient id="linear-gradient" x1="257.14" y1="226.26" x2="268.18" y2="226.34" gradientUnits="userSpaceOnUse">
      <stop offset="0" stop-color="#5870aa"/>
      <stop offset=".5" stop-color="#a6b3d2"/>
      <stop offset="1" stop-color="#5870aa"/>
    </linearGradient>
    <linearGradient id="linear-gradient-2" x1="254.14" y1="145.03" x2="271.14" y2="145.03" xlink:href="#linear-gradient"/>
    <linearGradient id="linear-gradient-3" x1="1331.96" y1="-1354.75" x2="1331.96" y2="-1324.78" gradientTransform="translate(1611.65 -1150.98) rotate(90.4) scale(1 -1)" gradientUnits="userSpaceOnUse">
      <stop offset="0" stop-color="#25307d"/>
      <stop offset=".05" stop-color="#222c82"/>
      <stop offset=".12" stop-color="#1a2290"/>
      <stop offset=".18" stop-color="#0d11a8"/>
      <stop offset=".24" stop-color="#0000c0"/>
      <stop offset=".28" stop-color="#0005bf"/>
      <stop offset=".33" stop-color="#0013be"/>
      <stop offset=".39" stop-color="#002bbb"/>
      <stop offset=".45" stop-color="#004db7"/>
      <stop offset=".49" stop-color="#006ab4"/>
      <stop offset=".5" stop-color="#0068b4"/>
      <stop offset=".57" stop-color="#0043b8"/>
      <stop offset=".63" stop-color="#0025bc"/>
      <stop offset=".7" stop-color="#0011be"/>
      <stop offset=".76" stop-color="#0004c0"/>
      <stop offset=".82" stop-color="#0000c0"/>
      <stop offset="1" stop-color="#1b2266"/>
    </linearGradient>
    <linearGradient id="linear-gradient-4" x1="1348.2" y1="-1354.64" x2="1348.2" y2="-1324.67" xlink:href="#linear-gradient-3"/>
    <linearGradient id="linear-gradient-5" x1="1364.44" y1="-1354.52" x2="1364.44" y2="-1324.56" xlink:href="#linear-gradient-3"/>
    <linearGradient id="linear-gradient-6" x1="1608.99" y1="-1699.62" x2="1619.72" y2="-1699.54" gradientTransform="translate(-1351.7 1833.33)" xlink:href="#linear-gradient"/>
    <linearGradient id="linear-gradient-7" x1="-484.4" y1="230.96" x2="-484.4" y2="260.92" gradientTransform="translate(-252.01 -115.56) rotate(-179.6) scale(1 -1)" xlink:href="#linear-gradient-3"/>
    <linearGradient id="linear-gradient-8" x1="-475.45" y1="231.02" x2="-475.45" y2="260.98" gradientTransform="translate(-252.01 -115.56) rotate(-179.6) scale(1 -1)" xlink:href="#linear-gradient-3"/>
    <linearGradient id="linear-gradient-9" x1="-466.49" y1="231.08" x2="-466.49" y2="261.04" gradientTransform="translate(-252.01 -115.56) rotate(-179.6) scale(1 -1)" xlink:href="#linear-gradient-3"/>
    <linearGradient id="linear-gradient-10" x1="-386.32" y1="-3088.91" x2="-386.32" y2="-3058.95" gradientTransform="translate(702.26 -2937.5) rotate(.4) scale(1 -1)" xlink:href="#linear-gradient-3"/>
    <linearGradient id="linear-gradient-11" x1="-377.37" y1="-3088.85" x2="-377.37" y2="-3058.89" gradientTransform="translate(702.26 -2937.5) rotate(.4) scale(1 -1)" xlink:href="#linear-gradient-3"/>
    <linearGradient id="linear-gradient-12" x1="-368.41" y1="-3088.79" x2="-368.41" y2="-3058.83" gradientTransform="translate(702.26 -2937.5) rotate(.4) scale(1 -1)" xlink:href="#linear-gradient-3"/>
  </defs>
  <g id="Layer_1-2" data-name="Layer 1">
    <g>
      <g>
        <g>
          <g>
            <rect class="cls-11" x="257.64" y="151.3" width="10" height="150"/>
            <path class="cls-16" d="M258.14,151.3h9v1.55c0,1-.81,1.81-1.81,1.81h-5.37c-1,0-1.81-.81-1.81-1.81v-1.55h0Z"/>
            <path d="M257.53,151.79c1.42-.08,3.19-.12,5.11-.12s3.69.05,5.11.12c2.05-.11,3.39-.29,3.39-.49,0-.34-3.81-.61-8.5-.61s-8.5.27-8.5.61c0,.2,1.33.38,3.39.49Z"/>
            <path class="cls-9" d="M271.1,139.3c-.43-.31-4.05-.55-8.46-.55s-8.03.24-8.46.55h-.04v.06h0v11.94h17v-12h-.04Z"/>
          </g>
          <g>
            <g>
              <path class="cls-16" d="M257.65,174.96h10v4.28c0,1-.81,1.81-1.81,1.81h-6.37c-1,0-1.81-.81-1.81-1.81v-4.28h0Z"/>
              <path class="cls-8" d="M273.84,178l-22.46-.12c-2.06-.01-3.74-1.33-3.72-2.94l.04-7.74c.04-4.39,1.68.2,3.76.21l22.46.12c2.06.01,3.74-2.83,3.72-1.22l-.04,8.78c0,1.62-1.69,2.92-3.76,2.91Z"/>
              <path d="M273.92,163.02l-6.27-.02h0c0,1.82-.81,3.29-1.81,3.29h-6.37c-1,0-1.81-1.47-1.81-3.29v-.04l-6.2-.02c-2.06,0-3.75,1.86-3.76,2.88l-.04.84c-.01,1.02,1.66,2.9,3.72,2.9l22.47.08c2.06,0,3.75-1.86,3.76-2.88l.04-.84c.01-1.02-1.66-2.9-3.72-2.9Z"/>
            </g>
            <g>
              <path class="cls-16" d="M257.65,191.2h10v4.28c0,1-.81,1.81-1.81,1.81h-6.37c-1,0-1.81-.81-1.81-1.81v-4.28h0Z"/>
              <path class="cls-7" d="M273.84,194.25l-22.46-.12c-2.06-.01-3.74-1.33-3.72-2.94l.04-7.74c.04-4.39,1.68.2,3.76.21l22.46.12c2.06.01,3.74-2.83,3.72-1.22l-.04,8.78c0,1.62-1.69,2.92-3.76,2.91Z"/>
              <path d="M273.92,179.27l-6.27-.02h0c0,1.82-.81,3.29-1.81,3.29h-6.37c-1,0-1.81-1.47-1.81-3.29v-.04l-6.2-.02c-2.06,0-3.75,1.86-3.76,2.88l-.04.84c-.01,1.02,1.66,2.9,3.72,2.9l22.47.08c2.06,0,3.75-1.86,3.76-2.88l.04-.84c.01-1.02-1.66-2.9-3.72-2.9Z"/>
            </g>
            <g>
              <path class="cls-16" d="M257.65,207.44h10v4.28c0,1-.81,1.81-1.81,1.81h-6.37c-1,0-1.81-.81-1.81-1.81v-4.28h0Z"/>
              <path class="cls-4" d="M273.84,210.49l-22.46-.12c-2.06-.01-3.74-1.33-3.72-2.94l.04-7.74c.04-4.39,1.68.2,3.76.21l22.46.12c2.06.01,3.74-2.83,3.72-1.22l-.04,8.78c0,1.62-1.69,2.92-3.76,2.91Z"/>
              <path d="M273.92,195.51l-6.27-.02h0c0,1.82-.81,3.29-1.81,3.29h-6.37c-1,0-1.81-1.47-1.81-3.29v-.04l-6.2-.02c-2.06,0-3.75,1.86-3.76,2.88l-.04.84c-.01,1.02,1.66,2.9,3.72,2.9l22.47.08c2.06,0,3.75-1.86,3.76-2.88l.04-.84c.01-1.02-1.66-2.9-3.72-2.9Z"/>
            </g>
          </g>
        </g>
        <g>
          <g>
            <g>
              <polygon class="cls-12" points="314.23 147.15 317.79 148.81 317.23 67.03 314.06 68.72 314.23 147.15"/>
              <polygon class="cls-10" points="317.79 148.81 329.35 147.94 328.79 67.82 317.23 67.03 317.79 148.81"/>
            </g>
            <g>
              <polygon class="cls-12" points="211.06 146.09 207.49 147.75 208.06 65.97 211.23 67.66 211.06 146.09"/>
              <polygon class="cls-10" points="207.49 147.75 195.94 146.89 196.5 66.77 208.06 65.97 207.49 147.75"/>
            </g>
          </g>
          <rect class="cls-5" x="257.64" y="78.75" width="10" height="110" rx="2.73" ry="2.73" transform="translate(396.39 -128.9) rotate(90)"/>
          <g>
            <g>
              <path class="cls-16" d="M222.24,132.07h10v1.55c0,1-.81,1.81-1.81,1.81h-6.37c-1,0-1.81-.81-1.81-1.81v-1.55h0Z" transform="translate(360.99 -93.49) rotate(90)"/>
              <path class="cls-3" d="M227.24,144.94l.07-22.46c0-2.06.73-3.74,1.62-3.72l4.27.04c2.42.04-.11,1.68-.11,3.76l-.07,22.46c0,2.06,1.56,3.74.67,3.72l-4.84-.04c-.9,0-1.61-1.69-1.61-3.76Z"/>
              <path d="M235.5,145.02v-6.27s0,0,0,0c-1,0-1.81-.81-1.81-1.81v-6.37c0-1,.81-1.81,1.81-1.81h.02v-6.2c.02-2.06-1.02-3.75-1.58-3.76l-.46-.04c-.56-.01-1.6,1.66-1.6,3.72l-.04,22.47c0,2.06,1.02,3.75,1.59,3.76l.46.04c.56.01,1.6-1.66,1.6-3.72Z"/>
            </g>
            <g>
              <path class="cls-16" d="M213.28,132.07h10v1.55c0,1-.81,1.81-1.81,1.81h-6.37c-1,0-1.81-.81-1.81-1.81v-1.55h0Z" transform="translate(352.03 -84.53) rotate(90)"/>
              <path class="cls-2" d="M218.28,144.94l.07-22.46c0-2.06.73-3.74,1.62-3.72l4.27.04c2.42.04-.11,1.68-.11,3.76l-.07,22.46c0,2.06,1.56,3.74.67,3.72l-4.84-.04c-.9,0-1.61-1.69-1.61-3.76Z"/>
              <path d="M226.54,145.02v-6.27s0,0,0,0c-1,0-1.81-.81-1.81-1.81v-6.37c0-1,.81-1.81,1.81-1.81h.02v-6.2c.02-2.06-1.02-3.75-1.58-3.76l-.46-.04c-.56-.01-1.6,1.66-1.6,3.72l-.04,22.47c0,2.06,1.02,3.75,1.59,3.76l.46.04c.56.01,1.6-1.66,1.6-3.72Z"/>
            </g>
            <g>
              <path class="cls-16" d="M204.32,132.07h10v1.55c0,1-.81,1.81-1.81,1.81h-6.37c-1,0-1.81-.81-1.81-1.81v-1.55h0Z" transform="translate(343.07 -75.57) rotate(90)"/>
              <path class="cls-6" d="M209.32,144.94l.07-22.46c0-2.06.73-3.74,1.62-3.72l4.27.04c2.42.04-.11,1.68-.11,3.76l-.07,22.46c0,2.06,1.56,3.74.67,3.72l-4.84-.04c-.9,0-1.61-1.69-1.61-3.76Z"/>
              <path d="M217.58,145.02v-6.27s0,0,0,0c-1,0-1.81-.81-1.81-1.81v-6.37c0-1,.81-1.81,1.81-1.81h.02v-6.2c.02-2.06-1.02-3.75-1.58-3.76l-.46-.04c-.56-.01-1.6,1.66-1.6,3.72l-.04,22.47c0,2.06,1.02,3.75,1.59,3.76l.46.04c.56.01,1.6-1.66,1.6-3.72Z"/>
            </g>
          </g>
          <g>
            <g>
              <path class="cls-16" d="M293.05,132.06h10v1.55c0,1-.81,1.81-1.81,1.81h-6.37c-1,0-1.81-.81-1.81-1.81v-1.55h0Z" transform="translate(164.31 431.79) rotate(-90)"/>
              <path class="cls-13" d="M298.05,122.55l-.07,22.46c0,2.06-.73,3.74-1.62,3.72l-4.27-.04c-2.42-.04.11-1.68.11-3.76l.07-22.46c0-2.06-1.56-3.74-.67-3.72l4.84.04c.9,0,1.61,1.69,1.61,3.76Z"/>
              <path d="M289.79,122.47v6.27s0,0,0,0c1,0,1.81.81,1.81,1.81v6.37c0,1-.81,1.81-1.81,1.81h-.02v6.2c-.02,2.06,1.02,3.75,1.58,3.76l.46.04c.56.01,1.6-1.66,1.6-3.72l.04-22.47c0-2.06-1.02-3.75-1.59-3.76l-.46-.04c-.56-.01-1.6,1.66-1.6,3.72Z"/>
            </g>
            <g>
              <path class="cls-16" d="M302.01,132.06h10v1.55c0,1-.81,1.81-1.81,1.81h-6.37c-1,0-1.81-.81-1.81-1.81v-1.55h0Z" transform="translate(173.26 440.75) rotate(-90)"/>
              <path class="cls-14" d="M307.01,122.55l-.07,22.46c0,2.06-.73,3.74-1.62,3.72l-4.27-.04c-2.42-.04.11-1.68.11-3.76l.07-22.46c0-2.06-1.56-3.74-.67-3.72l4.84.04c.9,0,1.61,1.69,1.61,3.76Z"/>
              <path d="M298.75,122.47v6.27s0,0,0,0c1,0,1.81.81,1.81,1.81v6.37c0,1-.81,1.81-1.81,1.81h-.02v6.2c-.02,2.06,1.02,3.75,1.58,3.76l.46.04c.56.01,1.6-1.66,1.6-3.72l.04-22.47c0-2.06-1.02-3.75-1.59-3.76l-.46-.04c-.56-.01-1.6,1.66-1.6,3.72Z"/>
            </g>
            <g>
              <path class="cls-16" d="M310.96,132.06h10v1.55c0,1-.81,1.81-1.81,1.81h-6.37c-1,0-1.81-.81-1.81-1.81v-1.55h0Z" transform="translate(182.22 449.71) rotate(-90)"/>
              <path class="cls-15" d="M315.96,122.55l-.07,22.46c0,2.06-.73,3.74-1.62,3.72l-4.27-.04c-2.42-.04.11-1.68.11-3.76l.07-22.46c0-2.06-1.56-3.74-.67-3.72l4.84.04c.9,0,1.61,1.69,1.61,3.76Z"/>
              <path d="M307.71,122.47v6.27s0,0,0,0c1,0,1.81.81,1.81,1.81v6.37c0,1-.81,1.81-1.81,1.81h-.02v6.2c-.02,2.06,1.02,3.75,1.58,3.76l.46.04c.56.01,1.6-1.66,1.6-3.72l.04-22.47c0-2.06-1.02-3.75-1.59-3.76l-.46-.04c-.56-.01-1.6,1.66-1.6,3.72Z"/>
            </g>
          </g>
        </g>
      </g>
      <rect class="cls-1" width="600" height="600"/>
    </g>
  </g>
</svg>