<?xml version="1.0" encoding="UTF-8"?>
<svg id="Layer_2" data-name="Layer 2" xmlns="http://www.w3.org/2000/svg" xmlns:xlink="http://www.w3.org/1999/xlink" viewBox="0 0 600 600">
  <defs>
    <style>
      .cls-1 {
        fill: none;
      }

      .cls-2 {
        fill: url(#linear-gradient-8);
      }

      .cls-3 {
        fill: url(#linear-gradient-7);
      }

      .cls-4 {
        fill: url(#linear-gradient-5);
      }

      .cls-5 {
        fill: url(#linear-gradient-6);
      }

      .cls-6 {
        fill: url(#linear-gradient-9);
      }

      .cls-7 {
        fill: url(#linear-gradient-4);
      }

      .cls-8 {
        fill: url(#linear-gradient-3);
      }

      .cls-9 {
        fill: url(#linear-gradient-2);
      }

      .cls-10 {
        fill: #c00000;
      }

      .cls-11 {
        fill: url(#linear-gradient);
      }

      .cls-12 {
        fill: #6f2d31;
      }

      .cls-13 {
        fill: url(#linear-gradient-10);
      }

      .cls-14 {
        fill: url(#linear-gradient-11);
      }

      .cls-15 {
        fill: url(#linear-gradient-12);
      }

      .cls-16 {
        fill: #231f20;
        opacity: .3;
      }
    </style>
    <linearGradient id="linear-gradient" x1="252.9" y1="233.71" x2="263.66" y2="233.79" gradientUnits="userSpaceOnUse">
      <stop offset="0" stop-color="#5870aa"/>
      <stop offset=".5" stop-color="#a6b3d2"/>
      <stop offset="1" stop-color="#5870aa"/>
    </linearGradient>
    <linearGradient id="linear-gradient-2" x1="1359.75" y1="-1363.1" x2="1359.75" y2="-1333.14" gradientTransform="translate(1615.82 -1155.15) rotate(90.4) scale(1 -1)" gradientUnits="userSpaceOnUse">
      <stop offset="0" stop-color="#25307d"/>
      <stop offset=".05" stop-color="#222c82"/>
      <stop offset=".12" stop-color="#1a2290"/>
      <stop offset=".18" stop-color="#0d11a8"/>
      <stop offset=".24" stop-color="#0000c0"/>
      <stop offset=".28" stop-color="#0005bf"/>
      <stop offset=".33" stop-color="#0013be"/>
      <stop offset=".39" stop-color="#002bbb"/>
      <stop offset=".45" stop-color="#004db7"/>
      <stop offset=".49" stop-color="#006ab4"/>
      <stop offset=".5" stop-color="#0068b4"/>
      <stop offset=".57" stop-color="#0043b8"/>
      <stop offset=".63" stop-color="#0025bc"/>
      <stop offset=".7" stop-color="#0011be"/>
      <stop offset=".76" stop-color="#0004c0"/>
      <stop offset=".82" stop-color="#0000c0"/>
      <stop offset="1" stop-color="#1b2266"/>
    </linearGradient>
    <linearGradient id="linear-gradient-3" x1="1368.71" y1="-1363.04" x2="1368.71" y2="-1333.08" xlink:href="#linear-gradient-2"/>
    <linearGradient id="linear-gradient-4" x1="1377.66" y1="-1362.98" x2="1377.66" y2="-1333.02" xlink:href="#linear-gradient-2"/>
    <linearGradient id="linear-gradient-5" x1="249.76" y1="183.16" x2="266.76" y2="183.16" xlink:href="#linear-gradient"/>
    <linearGradient id="linear-gradient-6" x1="1648.85" y1="-495.24" x2="1659.86" y2="-495.16" gradientTransform="translate(-1396.08 668.94)" xlink:href="#linear-gradient"/>
    <linearGradient id="linear-gradient-7" x1="3.27" y1="-2199.15" x2="3.27" y2="-2169.18" gradientTransform="translate(303.29 -2010.44) rotate(.4) scale(1 -1)" xlink:href="#linear-gradient-2"/>
    <linearGradient id="linear-gradient-8" x1="19.51" y1="-2199.03" x2="19.51" y2="-2169.07" gradientTransform="translate(303.29 -2010.44) rotate(.4) scale(1 -1)" xlink:href="#linear-gradient-2"/>
    <linearGradient id="linear-gradient-9" x1="35.75" y1="-2198.92" x2="35.75" y2="-2168.95" gradientTransform="translate(303.29 -2010.44) rotate(.4) scale(1 -1)" xlink:href="#linear-gradient-2"/>
    <linearGradient id="linear-gradient-10" x1="640.09" y1="5.83" x2="640.09" y2="35.79" gradientTransform="translate(865.36 157.38) rotate(-179.6) scale(1 -1)" xlink:href="#linear-gradient-2"/>
    <linearGradient id="linear-gradient-11" x1="656.33" y1="5.94" x2="656.33" y2="35.91" gradientTransform="translate(865.36 157.38) rotate(-179.6) scale(1 -1)" xlink:href="#linear-gradient-2"/>
    <linearGradient id="linear-gradient-12" x1="672.57" y1="6.05" x2="672.57" y2="36.02" gradientTransform="translate(865.36 157.38) rotate(-179.6) scale(1 -1)" xlink:href="#linear-gradient-2"/>
  </defs>
  <g id="Layer_1-2" data-name="Layer 1">
    <g>
      <g>
        <path class="cls-16" d="M253.76,189.43h9v1.55c0,1-.81,1.81-1.81,1.81h-5.37c-1,0-1.81-.81-1.81-1.81v-1.55h0Z"/>
        <g>
          <rect class="cls-11" x="253.26" y="178.75" width="10" height="110"/>
          <g>
            <g>
              <path class="cls-16" d="M253.26,197.02h10v1.55c0,1-.81,1.81-1.81,1.81h-6.37c-1,0-1.81-.81-1.81-1.81v-1.55h0Z"/>
              <path class="cls-9" d="M269.45,198.7l-22.46-.07c-2.06,0-3.74-.73-3.72-1.62l.04-4.27c.04-2.42,1.68.11,3.76.11l22.46.07c2.06,0,3.74-1.56,3.72-.67l-.04,4.84c0,.9-1.69,1.61-3.76,1.61Z"/>
              <path d="M269.53,190.44h-6.27s0,0,0,0c0,1-.81,1.81-1.81,1.81h-6.37c-1,0-1.81-.81-1.81-1.81v-.02h-6.2c-2.06-.02-3.75,1.02-3.76,1.58l-.04.46c-.01.56,1.66,1.6,3.72,1.6l22.47.04c2.06,0,3.75-1.02,3.76-1.59l.04-.46c.01-.56-1.66-1.6-3.72-1.6Z"/>
            </g>
            <g>
              <path class="cls-16" d="M253.26,205.97h10v1.55c0,1-.81,1.81-1.81,1.81h-6.37c-1,0-1.81-.81-1.81-1.81v-1.55h0Z"/>
              <path class="cls-8" d="M269.45,207.65l-22.46-.07c-2.06,0-3.74-.73-3.72-1.62l.04-4.27c.04-2.42,1.68.11,3.76.11l22.46.07c2.06,0,3.74-1.56,3.72-.67l-.04,4.84c0,.9-1.69,1.61-3.76,1.61Z"/>
              <path d="M269.53,199.39h-6.27s0,0,0,0c0,1-.81,1.81-1.81,1.81h-6.37c-1,0-1.81-.81-1.81-1.81v-.02h-6.2c-2.06-.02-3.75,1.02-3.76,1.58l-.04.46c-.01.56,1.66,1.6,3.72,1.6l22.47.04c2.06,0,3.75-1.02,3.76-1.59l.04-.46c.01-.56-1.66-1.6-3.72-1.6Z"/>
            </g>
            <g>
              <path class="cls-16" d="M253.26,214.93h10v1.55c0,1-.81,1.81-1.81,1.81h-6.37c-1,0-1.81-.81-1.81-1.81v-1.55h0Z"/>
              <path class="cls-7" d="M269.45,216.61l-22.46-.07c-2.06,0-3.74-.73-3.72-1.62l.04-4.27c.04-2.42,1.68.11,3.76.11l22.46.07c2.06,0,3.74-1.56,3.72-.67l-.04,4.84c0,.9-1.69,1.61-3.76,1.61Z"/>
              <path d="M269.53,208.35h-6.27s0,0,0,0c0,1-.81,1.81-1.81,1.81h-6.37c-1,0-1.81-.81-1.81-1.81v-.02h-6.2c-2.06-.02-3.75,1.02-3.76,1.58l-.04.46c-.01.56,1.66,1.6,3.72,1.6l22.47.04c2.06,0,3.75-1.02,3.76-1.59l.04-.46c.01-.56-1.66-1.6-3.72-1.6Z"/>
            </g>
          </g>
        </g>
        <path d="M253.15,189.92c1.42-.08,3.19-.12,5.11-.12s3.69.05,5.11.12c2.05-.11,3.39-.29,3.39-.49,0-.34-3.81-.61-8.5-.61s-8.5.27-8.5.61c0,.2,1.33.38,3.39.49Z"/>
        <path class="cls-4" d="M266.72,177.43c-.43-.31-4.05-.55-8.46-.55s-8.03.24-8.46.55h-.04v.06h0v11.94h17v-12h-.04Z"/>
        <g>
          <g>
            <g>
              <polygon class="cls-12" points="186.05 186.09 182.49 187.75 183.05 105.97 186.22 107.66 186.05 186.09"/>
              <polygon class="cls-10" points="182.49 187.75 170.93 186.89 171.49 106.77 183.05 105.97 182.49 187.75"/>
            </g>
            <g>
              <polygon class="cls-12" points="330.47 187.15 334.04 188.81 333.47 107.03 330.3 108.72 330.47 187.15"/>
              <polygon class="cls-10" points="334.04 188.81 345.59 187.94 345.03 107.82 333.47 107.03 334.04 188.81"/>
            </g>
          </g>
          <rect class="cls-5" x="253.26" y="98.75" width="10" height="150" rx="2.73" ry="2.73" transform="translate(432.01 -84.51) rotate(90)"/>
          <g>
            <g>
              <g>
                <path class="cls-16" d="M292.73,170.7h10v4.28c0,1-.81,1.81-1.81,1.81h-6.37c-1,0-1.81-.81-1.81-1.81v-4.28h0Z" transform="translate(123.98 471.47) rotate(-90)"/>
                <path class="cls-3" d="M297.73,162.55l-.12,22.46c-.01,2.06-1.33,3.74-2.94,3.72l-7.74-.04c-4.39-.04.2-1.68.21-3.76l.12-22.46c.01-2.06-2.83-3.74-1.22-3.72l8.78.04c1.62,0,2.92,1.69,2.91,3.76Z"/>
                <path d="M282.75,162.47l-.02,6.27h0c1.82,0,3.29.81,3.29,1.81v6.37c0,1-1.47,1.81-3.29,1.81h-.04l-.02,6.2c0,2.06,1.86,3.75,2.88,3.76l.84.04c1.02.01,2.9-1.66,2.9-3.72l.08-22.47c0-2.06-1.86-3.75-2.88-3.76l-.84-.04c-1.02-.01-2.9,1.66-2.9,3.72Z"/>
              </g>
              <g>
                <path class="cls-16" d="M308.97,170.7h10v4.28c0,1-.81,1.81-1.81,1.81h-6.37c-1,0-1.81-.81-1.81-1.81v-4.28h0Z" transform="translate(140.23 487.71) rotate(-90)"/>
                <path class="cls-2" d="M313.97,162.55l-.12,22.46c-.01,2.06-1.33,3.74-2.94,3.72l-7.74-.04c-4.39-.04.2-1.68.21-3.76l.12-22.46c.01-2.06-2.83-3.74-1.22-3.72l8.78.04c1.62,0,2.92,1.69,2.91,3.76Z"/>
                <path d="M298.99,162.47l-.02,6.27h0c1.82,0,3.29.81,3.29,1.81v6.37c0,1-1.47,1.81-3.29,1.81h-.04l-.02,6.2c0,2.06,1.86,3.75,2.88,3.76l.84.04c1.02.01,2.9-1.66,2.9-3.72l.08-22.47c0-2.06-1.86-3.75-2.88-3.76l-.84-.04c-1.02-.01-2.9,1.66-2.9,3.72Z"/>
              </g>
              <g>
                <path class="cls-16" d="M325.21,170.7h10v4.28c0,1-.81,1.81-1.81,1.81h-6.37c-1,0-1.81-.81-1.81-1.81v-4.28h0Z" transform="translate(156.47 503.96) rotate(-90)"/>
                <path class="cls-6" d="M330.21,162.55l-.12,22.46c-.01,2.06-1.33,3.74-2.94,3.72l-7.74-.04c-4.39-.04.2-1.68.21-3.76l.12-22.46c.01-2.06-2.83-3.74-1.22-3.72l8.78.04c1.62,0,2.92,1.69,2.91,3.76Z"/>
                <path d="M315.24,162.47l-.02,6.27h0c1.82,0,3.29.81,3.29,1.81v6.37c0,1-1.47,1.81-3.29,1.81h-.04l-.02,6.2c0,2.06,1.86,3.75,2.88,3.76l.84.04c1.02.01,2.9-1.66,2.9-3.72l.08-22.47c0-2.06-1.86-3.75-2.88-3.76l-.84-.04c-1.02-.01-2.9,1.66-2.9,3.72Z"/>
              </g>
            </g>
            <g>
              <g>
                <path class="cls-16" d="M213.79,170.7h10v4.28c0,1-.81,1.81-1.81,1.81h-6.37c-1,0-1.81-.81-1.81-1.81v-4.28h0Z" transform="translate(392.54 -45.04) rotate(90)"/>
                <path class="cls-13" d="M218.79,184.94l.12-22.46c.01-2.06,1.33-3.74,2.94-3.72l7.74.04c4.39.04-.2,1.68-.21,3.76l-.12,22.46c-.01,2.06,2.83,3.74,1.22,3.72l-8.78-.04c-1.62,0-2.92-1.69-2.91-3.76Z"/>
                <path d="M233.77,185.02l.02-6.27h0c-1.82,0-3.29-.81-3.29-1.81v-6.37c0-1,1.47-1.81,3.29-1.81h.04l.02-6.2c0-2.06-1.86-3.75-2.88-3.76l-.84-.04c-1.02-.01-2.9,1.66-2.9,3.72l-.08,22.47c0,2.06,1.86,3.75,2.88,3.76l.84.04c1.02.01,2.9-1.66,2.9-3.72Z"/>
              </g>
              <g>
                <path class="cls-16" d="M197.55,170.7h10v4.28c0,1-.81,1.81-1.81,1.81h-6.37c-1,0-1.81-.81-1.81-1.81v-4.28h0Z" transform="translate(376.3 -28.8) rotate(90)"/>
                <path class="cls-14" d="M202.55,184.94l.12-22.46c.01-2.06,1.33-3.74,2.94-3.72l7.74.04c4.39.04-.2,1.68-.21,3.76l-.12,22.46c-.01,2.06,2.83,3.74,1.22,3.72l-8.78-.04c-1.62,0-2.92-1.69-2.91-3.76Z"/>
                <path d="M217.53,185.02l.02-6.27h0c-1.82,0-3.29-.81-3.29-1.81v-6.37c0-1,1.47-1.81,3.29-1.81h.04l.02-6.2c0-2.06-1.86-3.75-2.88-3.76l-.84-.04c-1.02-.01-2.9,1.66-2.9,3.72l-.08,22.47c0,2.06,1.86,3.75,2.88,3.76l.84.04c1.02.01,2.9-1.66,2.9-3.72Z"/>
              </g>
              <g>
                <path class="cls-16" d="M181.31,170.7h10v4.28c0,1-.81,1.81-1.81,1.81h-6.37c-1,0-1.81-.81-1.81-1.81v-4.28h0Z" transform="translate(360.06 -12.56) rotate(90)"/>
                <path class="cls-15" d="M186.31,184.94l.12-22.46c.01-2.06,1.33-3.74,2.94-3.72l7.74.04c4.39.04-.2,1.68-.21,3.76l-.12,22.46c-.01,2.06,2.83,3.74,1.22,3.72l-8.78-.04c-1.62,0-2.92-1.69-2.91-3.76Z"/>
                <path d="M201.28,185.02l.02-6.27h0c-1.82,0-3.29-.81-3.29-1.81v-6.37c0-1,1.47-1.81,3.29-1.81h.04l.02-6.2c0-2.06-1.86-3.75-2.88-3.76l-.84-.04c-1.02-.01-2.9,1.66-2.9,3.72l-.08,22.47c0,2.06,1.86,3.75,2.88,3.76l.84.04c1.02.01,2.9-1.66,2.9-3.72Z"/>
              </g>
            </g>
          </g>
        </g>
      </g>
      <rect class="cls-1" width="600" height="600"/>
    </g>
  </g>
</svg>