<?xml version="1.0" encoding="UTF-8"?>
<svg id="Layer_2" data-name="Layer 2" xmlns="http://www.w3.org/2000/svg" xmlns:xlink="http://www.w3.org/1999/xlink" viewBox="0 0 600 600">
  <defs>
    <style>
      .cls-1 {
        fill: none;
      }

      .cls-2 {
        fill: url(#linear-gradient-8);
      }

      .cls-3 {
        fill: url(#linear-gradient-7);
      }

      .cls-4 {
        fill: url(#linear-gradient-5);
      }

      .cls-5 {
        fill: url(#linear-gradient-6);
      }

      .cls-6 {
        fill: url(#linear-gradient-9);
      }

      .cls-7 {
        fill: url(#linear-gradient-4);
      }

      .cls-8 {
        fill: url(#linear-gradient-3);
      }

      .cls-9 {
        fill: url(#linear-gradient-2);
      }

      .cls-10 {
        fill: #c00000;
      }

      .cls-11 {
        fill: url(#linear-gradient);
      }

      .cls-12 {
        fill: #6f2d31;
      }

      .cls-13 {
        fill: url(#linear-gradient-10);
      }

      .cls-14 {
        fill: url(#linear-gradient-11);
      }

      .cls-15 {
        fill: url(#linear-gradient-12);
      }

      .cls-16 {
        fill: #231f20;
        opacity: .3;
      }
    </style>
    <linearGradient id="linear-gradient" x1="257.28" y1="246.26" x2="268.04" y2="246.34" gradientUnits="userSpaceOnUse">
      <stop offset="0" stop-color="#5870aa"/>
      <stop offset=".5" stop-color="#a6b3d2"/>
      <stop offset="1" stop-color="#5870aa"/>
    </linearGradient>
    <linearGradient id="linear-gradient-2" x1="768.11" y1="-758.66" x2="768.11" y2="-728.7" gradientTransform="translate(1011.65 -555.15) rotate(90.4) scale(1 -1)" gradientUnits="userSpaceOnUse">
      <stop offset="0" stop-color="#25307d"/>
      <stop offset=".05" stop-color="#222c82"/>
      <stop offset=".12" stop-color="#1a2290"/>
      <stop offset=".18" stop-color="#0d11a8"/>
      <stop offset=".24" stop-color="#0000c0"/>
      <stop offset=".28" stop-color="#0005bf"/>
      <stop offset=".33" stop-color="#0013be"/>
      <stop offset=".39" stop-color="#002bbb"/>
      <stop offset=".45" stop-color="#004db7"/>
      <stop offset=".49" stop-color="#006ab4"/>
      <stop offset=".5" stop-color="#0068b4"/>
      <stop offset=".57" stop-color="#0043b8"/>
      <stop offset=".63" stop-color="#0025bc"/>
      <stop offset=".7" stop-color="#0011be"/>
      <stop offset=".76" stop-color="#0004c0"/>
      <stop offset=".82" stop-color="#0000c0"/>
      <stop offset="1" stop-color="#1b2266"/>
    </linearGradient>
    <linearGradient id="linear-gradient-3" x1="777.06" y1="-758.6" x2="777.06" y2="-728.64" xlink:href="#linear-gradient-2"/>
    <linearGradient id="linear-gradient-4" x1="786.02" y1="-758.53" x2="786.02" y2="-728.58" xlink:href="#linear-gradient-2"/>
    <linearGradient id="linear-gradient-5" x1="254.15" y1="185.03" x2="271.15" y2="185.03" xlink:href="#linear-gradient"/>
    <linearGradient id="linear-gradient-6" x1="1048.99" y1="-1099.62" x2="1059.72" y2="-1099.54" gradientTransform="translate(-791.7 1273.33)" xlink:href="#linear-gradient"/>
    <linearGradient id="linear-gradient-7" x1="-480.52" y1="270.99" x2="-480.52" y2="300.95" gradientTransform="translate(-247.85 -115.56) rotate(-179.6) scale(1 -1)" xlink:href="#linear-gradient-2"/>
    <linearGradient id="linear-gradient-8" x1="-471.56" y1="271.05" x2="-471.56" y2="301.01" gradientTransform="translate(-247.85 -115.56) rotate(-179.6) scale(1 -1)" xlink:href="#linear-gradient-2"/>
    <linearGradient id="linear-gradient-9" x1="-462.61" y1="271.11" x2="-462.61" y2="301.07" gradientTransform="translate(-247.85 -115.56) rotate(-179.6) scale(1 -1)" xlink:href="#linear-gradient-2"/>
    <linearGradient id="linear-gradient-10" x1="-390.21" y1="-1928.94" x2="-390.21" y2="-1898.98" gradientTransform="translate(698.1 -1737.5) rotate(.4) scale(1 -1)" xlink:href="#linear-gradient-2"/>
    <linearGradient id="linear-gradient-11" x1="-381.25" y1="-1928.88" x2="-381.25" y2="-1898.92" gradientTransform="translate(698.1 -1737.5) rotate(.4) scale(1 -1)" xlink:href="#linear-gradient-2"/>
    <linearGradient id="linear-gradient-12" x1="-372.3" y1="-1928.82" x2="-372.3" y2="-1898.86" gradientTransform="translate(698.1 -1737.5) rotate(.4) scale(1 -1)" xlink:href="#linear-gradient-2"/>
  </defs>
  <g id="Layer_1-2" data-name="Layer 1">
    <g>
      <g>
        <g>
          <rect class="cls-11" x="257.65" y="191.3" width="10" height="110"/>
          <path class="cls-16" d="M258.15,191.3h9v1.55c0,1-.81,1.81-1.81,1.81h-5.37c-1,0-1.81-.81-1.81-1.81v-1.55h0Z"/>
          <g>
            <g>
              <path class="cls-16" d="M257.65,209.57h10v1.55c0,1-.81,1.81-1.81,1.81h-6.37c-1,0-1.81-.81-1.81-1.81v-1.55h0Z"/>
              <path class="cls-9" d="M273.84,211.25l-22.46-.07c-2.06,0-3.74-.73-3.72-1.62l.04-4.27c.04-2.42,1.68.11,3.76.11l22.46.07c2.06,0,3.74-1.56,3.72-.67l-.04,4.84c0,.9-1.69,1.61-3.76,1.61Z"/>
              <path d="M273.92,202.99h-6.27s0,0,0,0c0,1-.81,1.81-1.81,1.81h-6.37c-1,0-1.81-.81-1.81-1.81v-.02h-6.2c-2.06-.02-3.75,1.02-3.76,1.58l-.04.46c-.01.56,1.66,1.6,3.72,1.6l22.47.04c2.06,0,3.75-1.02,3.76-1.59l.04-.46c.01-.56-1.66-1.6-3.72-1.6Z"/>
            </g>
            <g>
              <path class="cls-16" d="M257.65,218.52h10v1.55c0,1-.81,1.81-1.81,1.81h-6.37c-1,0-1.81-.81-1.81-1.81v-1.55h0Z"/>
              <path class="cls-8" d="M273.84,220.2l-22.46-.07c-2.06,0-3.74-.73-3.72-1.62l.04-4.27c.04-2.42,1.68.11,3.76.11l22.46.07c2.06,0,3.74-1.56,3.72-.67l-.04,4.84c0,.9-1.69,1.61-3.76,1.61Z"/>
              <path d="M273.92,211.95h-6.27s0,0,0,0c0,1-.81,1.81-1.81,1.81h-6.37c-1,0-1.81-.81-1.81-1.81v-.02h-6.2c-2.06-.02-3.75,1.02-3.76,1.58l-.04.46c-.01.56,1.66,1.6,3.72,1.6l22.47.04c2.06,0,3.75-1.02,3.76-1.59l.04-.46c.01-.56-1.66-1.6-3.72-1.6Z"/>
            </g>
            <g>
              <path class="cls-16" d="M257.65,227.48h10v1.55c0,1-.81,1.81-1.81,1.81h-6.37c-1,0-1.81-.81-1.81-1.81v-1.55h0Z"/>
              <path class="cls-7" d="M273.84,229.16l-22.46-.07c-2.06,0-3.74-.73-3.72-1.62l.04-4.27c.04-2.42,1.68.11,3.76.11l22.46.07c2.06,0,3.74-1.56,3.72-.67l-.04,4.84c0,.9-1.69,1.61-3.76,1.61Z"/>
              <path d="M273.92,220.9h-6.27s0,0,0,0c0,1-.81,1.81-1.81,1.81h-6.37c-1,0-1.81-.81-1.81-1.81v-.02h-6.2c-2.06-.02-3.75,1.02-3.76,1.58l-.04.46c-.01.56,1.66,1.6,3.72,1.6l22.47.04c2.06,0,3.75-1.02,3.76-1.59l.04-.46c.01-.56-1.66-1.6-3.72-1.6Z"/>
            </g>
          </g>
          <path d="M257.54,191.79c1.42-.08,3.19-.12,5.11-.12s3.69.05,5.11.12c2.05-.11,3.39-.29,3.39-.49,0-.34-3.81-.61-8.5-.61s-8.5.27-8.5.61c0,.2,1.33.38,3.39.49Z"/>
          <path class="cls-4" d="M271.1,179.3c-.43-.31-4.05-.55-8.46-.55s-8.03.24-8.46.55h-.04v.06h0v11.94h17v-12h-.04Z"/>
        </g>
        <g>
          <g>
            <g>
              <polygon class="cls-12" points="314.23 187.15 317.79 188.81 317.23 107.03 314.06 108.72 314.23 187.15"/>
              <polygon class="cls-10" points="317.79 188.81 329.35 187.94 328.79 107.82 317.23 107.03 317.79 188.81"/>
            </g>
            <g>
              <polygon class="cls-12" points="211.06 186.09 207.49 187.75 208.06 105.97 211.23 107.66 211.06 186.09"/>
              <polygon class="cls-10" points="207.49 187.75 195.94 186.89 196.5 106.77 208.06 105.97 207.49 187.75"/>
            </g>
          </g>
          <rect class="cls-5" x="257.64" y="118.75" width="10" height="110" rx="2.73" ry="2.73" transform="translate(436.39 -88.9) rotate(90)"/>
          <g>
            <g>
              <path class="cls-16" d="M222.24,172.07h10v1.55c0,1-.81,1.81-1.81,1.81h-6.37c-1,0-1.81-.81-1.81-1.81v-1.55h0Z" transform="translate(400.99 -53.49) rotate(90)"/>
              <path class="cls-3" d="M227.24,184.94l.07-22.46c0-2.06.73-3.74,1.62-3.72l4.27.04c2.42.04-.11,1.68-.11,3.76l-.07,22.46c0,2.06,1.56,3.74.67,3.72l-4.84-.04c-.9,0-1.61-1.69-1.61-3.76Z"/>
              <path d="M235.5,185.02v-6.27s0,0,0,0c-1,0-1.81-.81-1.81-1.81v-6.37c0-1,.81-1.81,1.81-1.81h.02v-6.2c.02-2.06-1.02-3.75-1.58-3.76l-.46-.04c-.56-.01-1.6,1.66-1.6,3.72l-.04,22.47c0,2.06,1.02,3.75,1.59,3.76l.46.04c.56.01,1.6-1.66,1.6-3.72Z"/>
            </g>
            <g>
              <path class="cls-16" d="M213.28,172.07h10v1.55c0,1-.81,1.81-1.81,1.81h-6.37c-1,0-1.81-.81-1.81-1.81v-1.55h0Z" transform="translate(392.03 -44.53) rotate(90)"/>
              <path class="cls-2" d="M218.28,184.94l.07-22.46c0-2.06.73-3.74,1.62-3.72l4.27.04c2.42.04-.11,1.68-.11,3.76l-.07,22.46c0,2.06,1.56,3.74.67,3.72l-4.84-.04c-.9,0-1.61-1.69-1.61-3.76Z"/>
              <path d="M226.54,185.02v-6.27s0,0,0,0c-1,0-1.81-.81-1.81-1.81v-6.37c0-1,.81-1.81,1.81-1.81h.02v-6.2c.02-2.06-1.02-3.75-1.58-3.76l-.46-.04c-.56-.01-1.6,1.66-1.6,3.72l-.04,22.47c0,2.06,1.02,3.75,1.59,3.76l.46.04c.56.01,1.6-1.66,1.6-3.72Z"/>
            </g>
            <g>
              <path class="cls-16" d="M204.32,172.07h10v1.55c0,1-.81,1.81-1.81,1.81h-6.37c-1,0-1.81-.81-1.81-1.81v-1.55h0Z" transform="translate(383.07 -35.57) rotate(90)"/>
              <path class="cls-6" d="M209.32,184.94l.07-22.46c0-2.06.73-3.74,1.62-3.72l4.27.04c2.42.04-.11,1.68-.11,3.76l-.07,22.46c0,2.06,1.56,3.74.67,3.72l-4.84-.04c-.9,0-1.61-1.69-1.61-3.76Z"/>
              <path d="M217.58,185.02v-6.27s0,0,0,0c-1,0-1.81-.81-1.81-1.81v-6.37c0-1,.81-1.81,1.81-1.81h.02v-6.2c.02-2.06-1.02-3.75-1.58-3.76l-.46-.04c-.56-.01-1.6,1.66-1.6,3.72l-.04,22.47c0,2.06,1.02,3.75,1.59,3.76l.46.04c.56.01,1.6-1.66,1.6-3.72Z"/>
            </g>
          </g>
          <g>
            <g>
              <path class="cls-16" d="M293.05,172.06h10v1.55c0,1-.81,1.81-1.81,1.81h-6.37c-1,0-1.81-.81-1.81-1.81v-1.55h0Z" transform="translate(124.31 471.79) rotate(-90)"/>
              <path class="cls-13" d="M298.05,162.55l-.07,22.46c0,2.06-.73,3.74-1.62,3.72l-4.27-.04c-2.42-.04.11-1.68.11-3.76l.07-22.46c0-2.06-1.56-3.74-.67-3.72l4.84.04c.9,0,1.61,1.69,1.61,3.76Z"/>
              <path d="M289.79,162.47v6.27s0,0,0,0c1,0,1.81.81,1.81,1.81v6.37c0,1-.81,1.81-1.81,1.81h-.02v6.2c-.02,2.06,1.02,3.75,1.58,3.76l.46.04c.56.01,1.6-1.66,1.6-3.72l.04-22.47c0-2.06-1.02-3.75-1.59-3.76l-.46-.04c-.56-.01-1.6,1.66-1.6,3.72Z"/>
            </g>
            <g>
              <path class="cls-16" d="M302.01,172.06h10v1.55c0,1-.81,1.81-1.81,1.81h-6.37c-1,0-1.81-.81-1.81-1.81v-1.55h0Z" transform="translate(133.26 480.75) rotate(-90)"/>
              <path class="cls-14" d="M307.01,162.55l-.07,22.46c0,2.06-.73,3.74-1.62,3.72l-4.27-.04c-2.42-.04.11-1.68.11-3.76l.07-22.46c0-2.06-1.56-3.74-.67-3.72l4.84.04c.9,0,1.61,1.69,1.61,3.76Z"/>
              <path d="M298.75,162.47v6.27s0,0,0,0c1,0,1.81.81,1.81,1.81v6.37c0,1-.81,1.81-1.81,1.81h-.02v6.2c-.02,2.06,1.02,3.75,1.58,3.76l.46.04c.56.01,1.6-1.66,1.6-3.72l.04-22.47c0-2.06-1.02-3.75-1.59-3.76l-.46-.04c-.56-.01-1.6,1.66-1.6,3.72Z"/>
            </g>
            <g>
              <path class="cls-16" d="M310.96,172.06h10v1.55c0,1-.81,1.81-1.81,1.81h-6.37c-1,0-1.81-.81-1.81-1.81v-1.55h0Z" transform="translate(142.22 489.71) rotate(-90)"/>
              <path class="cls-15" d="M315.96,162.55l-.07,22.46c0,2.06-.73,3.74-1.62,3.72l-4.27-.04c-2.42-.04.11-1.68.11-3.76l.07-22.46c0-2.06-1.56-3.74-.67-3.72l4.84.04c.9,0,1.61,1.69,1.61,3.76Z"/>
              <path d="M307.71,162.47v6.27s0,0,0,0c1,0,1.81.81,1.81,1.81v6.37c0,1-.81,1.81-1.81,1.81h-.02v6.2c-.02,2.06,1.02,3.75,1.58,3.76l.46.04c.56.01,1.6-1.66,1.6-3.72l.04-22.47c0-2.06-1.02-3.75-1.59-3.76l-.46-.04c-.56-.01-1.6,1.66-1.6,3.72Z"/>
            </g>
          </g>
        </g>
      </g>
      <rect class="cls-1" width="600" height="600"/>
    </g>
  </g>
</svg>