<?xml version="1.0" encoding="UTF-8"?>
<svg id="Layer_2" data-name="Layer 2" xmlns="http://www.w3.org/2000/svg" viewBox="0 0 612.42 199.4">
  <defs>
    <style>
      .cls-1 {
        fill: #bda451;
      }
    </style>
  </defs>
  <g id="Layer_1-2" data-name="Layer 1">
    <g>
      <path class="cls-1" d="M38.13,14.67c-2.3,0-3.84.21-4.61.63-1.05.63-1.57,2.03-1.57,4.19v5.87c0,1.19.15,2.08.46,2.67.3.59,1.1.89,2.39.89,2.99,0,4.48-1.11,4.48-3.32v-2.91c0-2.9,1.76-4.36,5.29-4.36s5.5,1.78,5.5,5.33c0,.98-.09,2.05-.28,3.24-.37,2.3-.56,4.42-.56,6.37,0,1.81.14,4.11.42,6.89.28,2.79.42,4.74.42,5.85,0,4.11-1.85,6.16-5.55,6.16-3.49,0-5.24-1.78-5.24-5.34v-3.03c0-1.68-1.46-2.51-4.38-2.51-1.97,0-2.95,1.12-2.95,3.35v7.86c0,2.45.44,4.1,1.31,4.98.87.87,2.5,1.31,4.87,1.31h6.08c4.47,0,7.6-.38,9.38-1.15s2.67-2.13,2.67-4.09c0-.98-.11-2.15-.31-3.51-.21-1.36-.31-2.5-.31-3.4,0-2.58.73-4.61,2.2-6.08s3.46-2.2,5.97-2.2c5.1,0,7.65,2.79,7.65,8.38,0,1.82-.1,3.74-.31,5.76-.35,3.35-.52,5.45-.52,6.29,0,.77.17,2.27.52,4.51.21,1.33.31,2.69.31,4.09,0,3.28-2.06,4.92-6.18,4.92-1.33,0-3.53-.1-6.6-.31-5.1-.35-13.24-.59-24.41-.73h-9.33c-3.49,0-6.39.1-8.7.31l-7.96.64c-.07,0-.21.03-.42.09h-.52c-2.17,0-3.93-.73-5.29-2.2S.01,66.79.01,64.56c0-1.95.54-3.6,1.62-4.92,1.08-1.33,2.46-1.99,4.14-1.99.56,0,1.4.14,2.51.42,1.12.28,1.92.42,2.41.42,1.89,0,2.83-2.37,2.83-7.12v-29.02c0-4.68-.94-7.02-2.83-7.02-.42,0-1.26.14-2.51.42-.91.21-1.71.31-2.41.31-1.61,0-2.97-.66-4.09-1.99-1.12-1.33-1.68-2.97-1.68-4.92C0,4.05,2.56,1.5,7.67,1.5c1.19,0,3.61.14,7.25.42,5.46.42,10.75.63,15.87.63.49,0,4.69-.1,12.61-.31,5.75-.14,9.53-.28,11.35-.42,3.01-.21,6.16-.31,9.46-.31,3.92,0,5.89,1.71,5.89,5.13,0,1.12-.16,2.76-.47,4.92-.31,2.17-.47,3.81-.47,4.92s.16,2.71.47,4.77.47,3.61.47,4.66c0,2.03-.75,3.74-2.25,5.13-1.5,1.4-3.37,2.1-5.61,2.1-5.24,0-7.86-2.69-7.86-8.07,0-.91.16-2.16.47-3.77.31-1.61.47-2.79.47-3.56,0-1.54-.8-2.48-2.41-2.83-.56-.14-2.03-.21-4.4-.21h-10.38v-.03Z"/>
      <path class="cls-1" d="M119.85,8.49l18.44,44.84v-31.01c0-4.68-.91-7.02-2.72-7.02-.49,0-1.2.12-2.15.37-.94.25-1.66.37-2.15.37-1.47,0-2.71-.66-3.72-1.99-1.01-1.33-1.52-2.97-1.52-4.92,0-2.31.66-4.16,1.99-5.55,1.33-1.4,3.07-2.1,5.24-2.1,1.12,0,3.04.18,5.76.52,2.72.35,5.13.52,7.23.52,1.89,0,4.09-.14,6.6-.42,3.77-.42,6.11-.63,7.02-.63,2.23,0,4.05.7,5.45,2.1,1.4,1.4,2.1,3.25,2.1,5.55,0,1.96-.56,3.6-1.68,4.92-1.12,1.33-2.48,1.99-4.09,1.99-.63,0-1.47-.12-2.51-.37-1.05-.24-1.85-.37-2.41-.37-1.4,0-2.3.87-2.72,2.62-.14.7-.21,2.17-.21,4.4v42.64c0,4.61-1.89,6.92-5.66,6.92-.7,0-1.76-.05-3.2-.16-1.43-.1-2.5-.16-3.2-.16-.07,0-1.78.1-5.13.31h-2.3c-2.03,0-3.53-.49-4.51-1.47-.56-.56-1.36-2.06-2.41-4.51l-20.22-46.19v31.64c0,4.75.91,7.12,2.72,7.12.49,0,1.24-.12,2.25-.37,1.01-.24,1.76-.37,2.25-.37,1.47,0,2.71.66,3.72,1.99,1.01,1.33,1.52,2.97,1.52,4.92,0,5.1-2.45,7.65-7.33,7.65-1.4,0-3.7-.21-6.92-.63-2.17-.28-4.33-.42-6.5-.42-1.82,0-4.26.18-7.33.52-3.07.35-5.03.52-5.87.52-5.1,0-7.65-2.55-7.65-7.65,0-1.95.54-3.6,1.62-4.92,1.08-1.33,2.43-1.99,4.03-1.99.63,0,1.48.12,2.57.37,1.08.25,1.9.37,2.46.37,1.89,0,2.83-2.37,2.83-7.12v-29.02c0-4.68-.94-7.02-2.83-7.02-.56,0-1.38.12-2.46.37s-1.94.37-2.57.37c-1.61,0-2.95-.66-4.03-1.99s-1.62-2.97-1.62-4.92c0-2.31.7-4.16,2.1-5.55,1.4-1.4,3.21-2.1,5.45-2.1,1.47,0,3.6.18,6.39.52,2.79.35,4.99.52,6.6.52,1.33,0,3.6-.14,6.81-.42,1.47-.07,3.14-.21,5.03-.42.84-.14,1.75-.21,2.72-.21,1.89,0,3.35.73,4.4,2.2.44.58,1.21,2.18,2.32,4.84Z"/>
      <path class="cls-1" d="M191.31,58.47c2.37,0,3.56-2.16,3.56-6.5v-30.18c0-4.68-1.71-7.02-5.13-7.02s-5.13,1.19-5.13,3.56c0,.7.12,1.76.37,3.2.24,1.43.37,2.5.37,3.2,0,6.22-2.62,9.33-7.86,9.33-2.45,0-4.37-.79-5.76-2.36-1.4-1.57-2.1-3.68-2.1-6.34,0-.91.14-2.55.42-4.92.21-1.82.31-3.49.31-5.03,0-.84-.15-2.55-.44-5.13-.2-1.75-.29-3.14-.29-4.19,0-3.07,1.55-4.61,4.64-4.61,1.62,0,3.65.1,6.12.31,5.62.49,13.49.73,23.61.73s18.1-.24,23.72-.73c2.46-.21,4.46-.31,6.01-.31,3.16,0,4.74,1.54,4.74,4.61,0,1.05-.12,2.6-.37,4.66s-.37,3.61-.37,4.66c0,1.12.1,2.79.31,5.03.28,2.93.42,4.61.42,5.03,0,2.66-.72,4.75-2.15,6.29-1.43,1.54-3.34,2.31-5.71,2.31-5.24,0-7.86-3-7.86-9.01,0-.84.11-1.95.31-3.35.21-1.4.31-2.44.31-3.14,0-2.51-1.54-3.77-4.61-3.77-2.03,0-3.46.52-4.3,1.57-.84,1.05-1.26,2.86-1.26,5.45v30.18c0,4.33,1.19,6.5,3.56,6.5.77,0,1.9-.12,3.41-.37,1.5-.24,2.64-.37,3.41-.37,4.19,0,6.29,2.1,6.29,6.29,0,5.52-2.62,8.28-7.86,8.28-2.03,0-4.44-.14-7.23-.42-4.19-.42-7.79-.63-10.79-.63s-6.67.21-10.79.63c-2.72.28-5.13.42-7.23.42-5.24,0-7.86-2.55-7.86-7.65,0-4.61,2.13-6.92,6.39-6.92.77,0,1.9.12,3.41.37,1.51.21,2.64.34,3.41.34Z"/>
      <path class="cls-1" d="M280.37,14.67c-2.3,0-3.84.21-4.61.63-1.05.63-1.57,2.03-1.57,4.19v5.87c0,1.19.15,2.08.46,2.67.3.59,1.1.89,2.39.89,2.99,0,4.48-1.11,4.48-3.32v-2.91c0-2.9,1.76-4.36,5.29-4.36s5.5,1.78,5.5,5.33c0,.98-.09,2.05-.28,3.24-.37,2.3-.56,4.42-.56,6.37,0,1.81.14,4.11.42,6.89.28,2.79.42,4.74.42,5.85,0,4.11-1.85,6.16-5.55,6.16-3.49,0-5.24-1.78-5.24-5.34v-3.03c0-1.68-1.46-2.51-4.38-2.51-1.97,0-2.95,1.12-2.95,3.35v7.86c0,2.45.44,4.1,1.31,4.98.87.87,2.5,1.31,4.87,1.31h6.08c4.47,0,7.6-.38,9.38-1.15s2.67-2.13,2.67-4.09c0-.98-.11-2.15-.31-3.51-.21-1.36-.31-2.5-.31-3.4,0-2.58.73-4.61,2.2-6.08s3.46-2.2,5.97-2.2c5.1,0,7.65,2.79,7.65,8.38,0,1.82-.1,3.74-.31,5.76-.35,3.35-.52,5.45-.52,6.29,0,.77.17,2.27.52,4.51.21,1.33.31,2.69.31,4.09,0,3.28-2.06,4.92-6.18,4.92-1.33,0-3.53-.1-6.6-.31-5.1-.35-13.24-.59-24.41-.73h-9.33c-3.49,0-6.39.1-8.7.31l-7.96.64c-.07,0-.21.03-.42.09h-.52c-2.17,0-3.93-.73-5.29-2.2s-2.04-3.32-2.04-5.55c0-1.95.54-3.6,1.62-4.92,1.08-1.33,2.46-1.99,4.14-1.99.56,0,1.4.14,2.51.42,1.12.28,1.92.42,2.41.42,1.89,0,2.83-2.37,2.83-7.12v-29.02c0-4.68-.94-7.02-2.83-7.02-.42,0-1.26.14-2.51.42-.91.21-1.71.31-2.41.31-1.61,0-2.97-.66-4.09-1.99-1.12-1.33-1.68-2.97-1.68-4.92,0-5.1,2.56-7.65,7.67-7.65,1.19,0,3.61.14,7.25.42,5.46.42,10.75.63,15.87.63.49,0,4.69-.1,12.61-.31,5.75-.14,9.53-.28,11.35-.42,3.01-.21,6.16-.31,9.46-.31,3.92,0,5.89,1.71,5.89,5.13,0,1.12-.16,2.76-.47,4.92-.31,2.17-.47,3.81-.47,4.92s.16,2.71.47,4.77.47,3.61.47,4.66c0,2.03-.75,3.74-2.25,5.13-1.5,1.4-3.37,2.1-5.61,2.1-5.24,0-7.86-2.69-7.86-8.07,0-.91.16-2.16.47-3.77.31-1.61.47-2.79.47-3.56,0-1.54-.8-2.48-2.41-2.83-.56-.14-2.03-.21-4.4-.21h-10.38v-.03Z"/>
      <path class="cls-1" d="M383.78,31.49c-2.03,1.4-5.2,2.59-9.53,3.57,5.03.84,8.59,2.33,10.69,4.46s3.14,5.3,3.14,9.5v4.93c0,2.87.83,4.3,2.49,4.3.42,0,1.06-.09,1.92-.26s1.51-.26,1.92-.26c1.52,0,2.75.65,3.69,1.94.93,1.29,1.4,2.99,1.4,5.08,0,2.31-.68,4.14-2.04,5.5s-3.16,2.04-5.4,2.04c-.77,0-1.96-.09-3.56-.26-1.61-.17-2.79-.26-3.56-.26-.84,0-2.08.09-3.72.26s-2.88.26-3.72.26c-2.58,0-4.66-1.06-6.23-3.2-1.57-2.13-2.36-4.94-2.36-8.43,0-.35.1-.59.31-.73v-6.81c0-3.63-.93-6.15-2.78-7.54-1.85-1.4-5.19-2.1-10.01-2.1-1.96,0-3.18.52-3.67,1.57-.35.7-.52,1.99-.52,3.88v2.41c0,4.75.87,7.12,2.62,7.12.49,0,1.24-.12,2.25-.37,1.01-.24,1.8-.37,2.36-.37,1.47,0,2.71.66,3.72,1.99,1.01,1.33,1.52,2.97,1.52,4.92,0,5.1-2.45,7.65-7.33,7.65-1.68,0-3.95-.18-6.81-.52-2.87-.35-5.34-.52-7.44-.52-2.24,0-4.82.18-7.75.52s-5.41.52-7.44.52c-5.1,0-7.65-2.55-7.65-7.65,0-1.95.54-3.6,1.62-4.92,1.08-1.33,2.43-1.99,4.03-1.99.63,0,1.5.12,2.62.37s1.92.37,2.41.37c1.89,0,2.83-2.37,2.83-7.12v-29.02c0-2.23-.07-3.67-.21-4.3-.35-1.82-1.22-2.72-2.62-2.72-.56,0-1.38.12-2.46.37s-1.94.37-2.57.37c-1.61,0-2.95-.66-4.03-1.99s-1.62-2.97-1.62-4.92c0-2.23.68-4.09,2.04-5.55s3.12-2.2,5.29-2.2c.42,0,.73.04.94.1l7.44.73c2.09.21,4.33.31,6.71.31,4.12,0,9.33-.24,15.61-.73,4.19-.28,7.3-.42,9.33-.42,6.64,0,11.89,1.66,15.77,4.99,3.88,3.32,5.82,7.85,5.82,13.59,0,5.24-1.83,9.09-5.46,11.54ZM360,15.3c-2.79,0-4.61.18-5.45.53-1.54.7-2.3,2.22-2.3,4.54v6.33c0,1.62.26,2.67.79,3.16.52.49,1.52.74,2.99.74,9.08,0,13.62-2.71,13.62-8.12-.01-4.79-3.23-7.18-9.65-7.18Z"/>
      <path class="cls-1" d="M411.13,58.47c1.4,0,2.27-.91,2.62-2.72.14-.7.21-2.16.21-4.4v-29.02c0-2.23-.07-3.67-.21-4.3-.35-1.82-1.22-2.72-2.62-2.72-.56,0-1.38.12-2.46.37s-1.94.37-2.57.37c-1.61,0-2.95-.66-4.03-1.99-1.08-1.33-1.62-2.97-1.62-4.92,0-2.37.68-4.24,2.04-5.61,1.36-1.36,3.2-2.04,5.5-2.04,1.05,0,3.49.21,7.33.63,2.58.28,5.1.42,7.54.42,1.96,0,4.77-.17,8.43-.52,3.67-.35,6.09-.52,7.28-.52,5.1,0,7.65,2.55,7.65,7.65,0,1.96-.54,3.6-1.62,4.92-1.08,1.33-2.43,1.99-4.03,1.99-.56,0-1.4-.12-2.51-.37-1.12-.24-1.96-.37-2.51-.37-1.89,0-2.83,2.34-2.83,7.02v29.02c0,4.75.94,7.12,2.83,7.12.56,0,1.4-.12,2.51-.37,1.12-.24,1.96-.37,2.51-.37,1.61,0,2.95.66,4.03,1.99,1.08,1.33,1.62,2.97,1.62,4.92,0,2.24-.68,4.09-2.04,5.55s-3.09,2.2-5.19,2.2c-.42,0-.73-.04-.94-.1l-6.6-.84c-1.68-.21-3.53-.31-5.55-.31-3.14,0-6.43.19-9.85.57-4.12.46-6.81.69-8.07.69-2.24,0-4.05-.7-5.45-2.11-1.4-1.41-2.1-3.27-2.1-5.59,0-2.04.54-3.71,1.62-5.01s2.46-1.95,4.14-1.95c.56,0,1.38.12,2.46.37,1.1.22,1.92.35,2.48.35Z"/>
      <path class="cls-1" d="M491.8,8.49l18.44,44.84v-31.01c0-4.68-.91-7.02-2.72-7.02-.49,0-1.21.12-2.15.37-.94.25-1.66.37-2.15.37-1.47,0-2.71-.66-3.72-1.99s-1.52-2.97-1.52-4.92c0-2.31.66-4.16,1.99-5.55,1.33-1.4,3.07-2.1,5.24-2.1,1.12,0,3.04.18,5.76.52,2.72.35,5.13.52,7.23.52,1.89,0,4.09-.14,6.6-.42,3.77-.42,6.11-.63,7.02-.63,2.24,0,4.05.7,5.45,2.1,1.4,1.4,2.1,3.25,2.1,5.55,0,1.96-.56,3.6-1.68,4.92-1.12,1.33-2.48,1.99-4.09,1.99-.63,0-1.47-.12-2.51-.37-1.05-.24-1.85-.37-2.41-.37-1.4,0-2.31.87-2.72,2.62-.14.7-.21,2.17-.21,4.4v42.64c0,4.61-1.89,6.92-5.66,6.92-.7,0-1.76-.05-3.2-.16-1.43-.1-2.5-.16-3.2-.16-.07,0-1.78.1-5.13.31h-2.31c-2.03,0-3.53-.49-4.5-1.47-.56-.56-1.36-2.06-2.41-4.51l-20.22-46.19v31.64c0,4.75.91,7.12,2.72,7.12.49,0,1.24-.12,2.25-.37,1.01-.24,1.76-.37,2.25-.37,1.47,0,2.71.66,3.72,1.99s1.52,2.97,1.52,4.92c0,5.1-2.45,7.65-7.33,7.65-1.4,0-3.7-.21-6.92-.63-2.17-.28-4.33-.42-6.5-.42-1.82,0-4.26.18-7.33.52-3.07.35-5.03.52-5.87.52-5.1,0-7.65-2.55-7.65-7.65,0-1.95.54-3.6,1.62-4.92,1.08-1.33,2.43-1.99,4.03-1.99.63,0,1.48.12,2.57.37,1.08.25,1.9.37,2.46.37,1.89,0,2.83-2.37,2.83-7.12v-29.02c0-4.68-.94-7.02-2.83-7.02-.56,0-1.38.12-2.46.37s-1.94.37-2.57.37c-1.61,0-2.95-.66-4.03-1.99-1.08-1.33-1.62-2.97-1.62-4.92,0-2.31.7-4.16,2.1-5.55,1.4-1.4,3.21-2.1,5.45-2.1,1.47,0,3.6.18,6.39.52,2.79.35,4.99.52,6.6.52,1.33,0,3.6-.14,6.81-.42,1.47-.07,3.14-.21,5.03-.42.84-.14,1.75-.21,2.72-.21,1.89,0,3.35.73,4.4,2.2.44.58,1.2,2.18,2.32,4.84Z"/>
      <path class="cls-1" d="M571.43,0c7.33,0,13.45,2.48,18.34,7.44.63-4.12,2.72-6.18,6.29-6.18,4.33,0,6.5,2.1,6.5,6.29,0,.7-.14,2.1-.42,4.19-.42,3.14-.63,5.27-.63,6.39,0,1.26.07,2.2.21,2.83.14,2.24.21,3.49.21,3.77,0,1.82-.8,3.34-2.41,4.56s-3.67,1.83-6.18,1.83c-4.05,0-6.5-1.99-7.33-5.97-.84-3.98-2.04-6.72-3.61-8.22s-4.07-2.25-7.49-2.25c-4.54,0-8.05,2.11-10.53,6.34-2.48,4.23-3.72,10.22-3.72,17.97,0,6.57,1.21,11.68,3.63,15.35s5.77,5.5,10.05,5.5c2.74,0,5-.79,6.79-2.36s2.68-3.54,2.68-5.92c0-2.93-1.23-4.4-3.7-4.4h-.63c-.28.07-.53.1-.74.1-1.13.14-1.76.21-1.9.21-1.41,0-2.61-.61-3.59-1.83-.99-1.22-1.48-2.74-1.48-4.56,0-2.1.7-3.77,2.09-5.03,1.4-1.26,3.21-1.89,5.45-1.89,1.47,0,3.68.19,6.65.58,2.97.38,5.22.58,6.76.58,2.3,0,4.85-.21,7.65-.64,2.23-.34,3.77-.51,4.61-.51,2.23,0,4.03.67,5.4,2.01,1.36,1.34,2.04,3.15,2.04,5.42,0,2-.49,3.67-1.47,5.01s-2.2,2.01-3.67,2.01h-2.51c-1.89,0-2.83,1.58-2.83,4.75,0,1.34.03,2.75.11,4.23l.21,4.54c.07,1.55.1,3.03.1,4.44,0,4.72-2.58,7.08-7.75,7.08-4.89,0-7.33-1.71-7.33-5.13v-.63c-4.82,3.84-10.3,5.76-16.45,5.76-5.38,0-10.44-1.41-15.19-4.24s-8.21-6.51-10.37-11.05c-2.79-5.8-4.19-12.54-4.19-20.22,0-11.74,2.72-21.02,8.17-27.87,5.42-6.86,12.82-10.28,22.18-10.28Z"/>
      <path class="cls-1" d="M91.62,175.81h-13.93c-3.98,0-5.97,2.38-5.97,7.12,0,1.12.59,1.68,1.78,1.68.35,0,.87-.05,1.57-.16.7-.1,1.22-.16,1.57-.16,2.58,0,3.88,2.06,3.88,6.18,0,2.24-.59,4.05-1.78,5.45-1.19,1.4-2.76,2.1-4.71,2.1-.98,0-3.14-.25-6.5-.73-1.47-.21-3.53-.31-6.18-.31-2.86,0-5.1.1-6.71.31-3.7.49-5.9.73-6.6.73-2.17,0-3.93-.66-5.29-1.99s-2.04-3.07-2.04-5.24c0-4.89,1.85-7.33,5.55-7.33.42,0,1.08.05,1.99.16.91.1,1.57.16,1.99.16,1.33,0,2.41-.73,3.25-2.2.21-.42.7-1.71,1.47-3.88l14.46-41.18c1.68-4.68,3.56-7.61,5.66-8.8,1.54-.77,4.92-1.15,10.16-1.15,5.87,0,9.57.37,11.11,1.1s2.79,2.78,3.77,6.13l13.41,44.63c1.05,3.56,2.27,5.34,3.67,5.34.42,0,1.15-.1,2.2-.31h1.15c3.91,0,5.87,2.31,5.87,6.92,0,2.31-.7,4.16-2.1,5.55-1.4,1.4-3.21,2.1-5.45,2.1-.98,0-2.27-.1-3.88-.31-1.96-.35-3.25-.52-3.88-.52-1.54-.14-3.53-.21-5.97-.21-2.66,0-4.44.07-5.34.21-3.56.56-5.8.84-6.71.84-1.89,0-3.44-.72-4.66-2.15s-1.83-3.23-1.83-5.4c0-4.12,1.33-6.18,3.98-6.18.35,0,.87.05,1.57.16.7.1,1.22.16,1.57.16,1.33,0,1.99-.73,1.99-2.2,0-1.89-.38-3.46-1.15-4.71s-1.76-1.91-2.94-1.91ZM90.04,159.78l-5.03-21.48-6.5,22.32c-.07.21-.1.46-.1.73,0,.84.87,1.26,2.62,1.26h6.5c1.82,0,2.72-.49,2.72-1.47,0,.08-.07-.38-.21-1.36Z"/>
      <path class="cls-1" d="M190.94,157.22c-2.03,1.4-5.2,2.59-9.53,3.57,5.03.84,8.59,2.33,10.69,4.46s3.14,5.3,3.14,9.5v4.93c0,2.87.83,4.3,2.49,4.3.42,0,1.06-.09,1.92-.26s1.51-.26,1.92-.26c1.52,0,2.75.65,3.69,1.94.93,1.29,1.4,2.99,1.4,5.08,0,2.31-.68,4.14-2.04,5.5s-3.16,2.04-5.4,2.04c-.77,0-1.96-.09-3.56-.26-1.61-.17-2.79-.26-3.56-.26-.84,0-2.08.09-3.72.26-1.64.17-2.88.26-3.72.26-2.58,0-4.66-1.06-6.23-3.2-1.57-2.13-2.36-4.94-2.36-8.43,0-.35.1-.59.31-.73v-6.81c0-3.63-.93-6.15-2.78-7.54-1.85-1.4-5.19-2.1-10.01-2.1-1.96,0-3.18.52-3.67,1.57-.35.7-.52,1.99-.52,3.88v2.41c0,4.75.87,7.12,2.62,7.12.49,0,1.24-.12,2.25-.37,1.01-.24,1.8-.37,2.36-.37,1.47,0,2.71.66,3.72,1.99,1.01,1.33,1.52,2.97,1.52,4.92,0,5.1-2.45,7.65-7.33,7.65-1.68,0-3.95-.18-6.81-.52-2.87-.35-5.34-.52-7.44-.52-2.24,0-4.82.18-7.75.52s-5.41.52-7.44.52c-5.1,0-7.65-2.55-7.65-7.65,0-1.95.54-3.6,1.62-4.92,1.08-1.33,2.43-1.99,4.03-1.99.63,0,1.5.12,2.62.37s1.92.37,2.41.37c1.89,0,2.83-2.37,2.83-7.12v-29.02c0-2.23-.07-3.67-.21-4.3-.35-1.82-1.22-2.72-2.62-2.72-.56,0-1.38.12-2.46.37s-1.94.37-2.57.37c-1.61,0-2.95-.66-4.03-1.99s-1.62-2.97-1.62-4.92c0-2.23.68-4.09,2.04-5.55s3.12-2.2,5.29-2.2c.42,0,.73.04.94.1l7.44.73c2.09.21,4.33.31,6.71.31,4.12,0,9.33-.24,15.61-.73,4.19-.28,7.3-.42,9.33-.42,6.64,0,11.89,1.66,15.77,4.99,3.88,3.32,5.82,7.85,5.82,13.59,0,5.24-1.83,9.09-5.46,11.54ZM167.16,141.03c-2.79,0-4.61.18-5.45.53-1.54.7-2.3,2.22-2.3,4.54v6.33c0,1.62.26,2.67.79,3.16.52.49,1.52.74,2.99.74,9.08,0,13.62-2.71,13.62-8.12-.01-4.79-3.23-7.18-9.65-7.18Z"/>
      <path class="cls-1" d="M242.39,174.35c-1.89-.07-2.83.96-2.83,3.08v3.28c0,2.33,1.05,3.49,3.14,3.49.84,0,1.89-.1,3.14-.31,1.54-.28,2.83-.42,3.88-.42,1.75,0,3.14.63,4.19,1.89s1.57,2.93,1.57,5.03c0,2.31-.7,4.16-2.1,5.55-1.4,1.4-3.21,2.1-5.45,2.1-1.96,0-4.86-.18-8.7-.52-3.84-.35-6.74-.52-8.7-.52-3,0-5.52.1-7.54.31l-5.13.52c-1.4.14-2.34.21-2.83.21-2.24,0-4.03-.7-5.4-2.1-1.36-1.4-2.04-3.25-2.04-5.55,0-1.95.54-3.6,1.62-4.92,1.08-1.33,2.43-1.99,4.03-1.99.63,0,1.5.12,2.62.37s1.92.37,2.41.37c1.89,0,2.83-2.37,2.83-7.12v-29.02c0-2.23-.07-3.67-.21-4.3-.35-1.82-1.22-2.72-2.62-2.72-.56,0-1.38.12-2.46.37s-1.94.37-2.57.37c-1.61,0-2.95-.66-4.03-1.99s-1.62-2.97-1.62-4.92c0-2.31.7-4.17,2.1-5.61,1.4-1.43,3.21-2.15,5.45-2.15h.31c.14.07.28.1.42.1,1.68,0,4.23.18,7.65.52,3.42.35,6.01.52,7.75.52,3.35,0,7.02-.14,11-.42,5.03-.49,7.89-.73,8.59-.73,7.61,0,13.78,2.16,18.49,6.47s7.07,9.98,7.07,17-2.43,13.09-7.28,17.36c-4.86,4.28-11.47,6.42-19.86,6.42h-6.89v-.02ZM239.56,156.49c0,1.98.17,3.2.52,3.65.35.46,1.29.72,2.83.79h1.68c8.24.49,12.36-2.77,12.36-9.79s-3.7-10.11-11.11-10.11c-1.82,0-3.07.11-3.77.32-1.26.35-2.03,1.2-2.3,2.54-.14.71-.21,1.77-.21,3.18v9.42Z"/>
      <path class="cls-1" d="M307.35,125.73c7.26,0,12.99,2.48,17.18,7.44.07-2.44.54-4.12,1.42-5.03.87-.91,2.39-1.36,4.56-1.36,4.47,0,6.71,1.89,6.71,5.66,0,1.05-.1,2.58-.31,4.61-.21,2.03-.31,3.56-.31,4.61,0,.63.07,1.54.21,2.72.14,1.19.21,2.1.21,2.72v.52c0,4.12-2.38,6.18-7.12,6.18-3.98,0-6.36-1.66-7.12-4.99l-.52-2.18c-1.05-4.51-4.75-6.76-11.11-6.76-6.01,0-9.01,2.09-9.01,6.28,0,2.16.64,3.63,1.94,4.39,1.29.77,4.56,1.67,9.8,2.72,8.8,1.74,15.19,4.36,19.17,7.85s5.97,8.23,5.97,14.22c0,7.04-2.41,12.81-7.23,17.31s-10.97,6.74-18.44,6.74c-6.22,0-12.19-2.23-17.92-6.71-.21,3.84-2.3,5.76-6.29,5.76-4.54,0-6.81-2.23-6.81-6.71,0-1.47.1-3.04.31-4.71.28-2.23.42-3.95.42-5.13,0-.77-.09-1.95-.26-3.56s-.26-2.79-.26-3.56c0-1.82.75-3.3,2.25-4.45s3.44-1.73,5.82-1.73c2.65,0,4.56.58,5.71,1.74,1.15,1.16,1.97,3.32,2.46,6.49.77,5.27,4.75,7.91,11.94,7.91,2.93,0,5.27-.7,7.02-2.1s2.62-3.21,2.62-5.45c0-2.44-.77-4.17-2.31-5.19-1.54-1.01-5.2-2.22-11-3.62l-6.92-1.68c-3-.77-5.8-2.13-8.38-4.09-5.03-3.77-7.54-8.84-7.54-15.19s2.15-11.65,6.44-15.66c4.28-4,9.85-6.01,16.7-6.01Z"/>
      <path class="cls-1" d="M399.97,152.82l10.37-11.47h-14.98c-3,0-4.5.87-4.5,2.62,0,.63.14,1.56.42,2.78.28,1.22.42,2.15.42,2.78,0,5.94-2.76,8.91-8.28,8.91-2.3,0-4.19-.71-5.66-2.13-1.47-1.42-2.2-3.28-2.2-5.57,0-1.11.19-2.81.58-5.1.38-2.29.58-3.99.58-5.1,0-.97-.14-2.38-.42-4.21-.28-1.84-.42-3.21-.42-4.11,0-3.33,1.96-5,5.87-5h44.32c2.23,0,3.77.47,4.61,1.41s1.26,2.67,1.26,5.19c0,3.63-1.29,6.81-3.88,9.53l-12.15,12.68c5.31.56,9.45,2.5,12.42,5.81,2.97,3.32,4.45,7.67,4.45,13.04,0,7.4-2.87,13.34-8.59,17.81-5.73,4.47-13.34,6.71-22.84,6.71-8.24,0-14.95-1.89-20.12-5.66s-7.75-8.66-7.75-14.67c0-3.35,1.05-6.18,3.14-8.49,2.1-2.31,4.68-3.46,7.75-3.46,2.65,0,4.94.89,6.86,2.67,1.92,1.78,2.88,3.97,2.88,6.55,0,2.17-.8,4.26-2.41,6.29,1.73,1.33,3.16,2.18,4.31,2.57,1.14.38,2.82.58,5.04.58,3.95,0,7.16-.98,9.66-2.95,2.49-1.96,3.74-4.49,3.74-7.58,0-5.97-4.4-9.09-13.2-9.37-3.21-.14-4.82-1.83-4.82-5.05-.02-2.75,1.16-5.42,3.54-8.01Z"/>
      <path class="cls-1" d="M468.6,152.82l10.37-11.47h-14.98c-3,0-4.5.87-4.5,2.62,0,.63.14,1.56.42,2.78.28,1.22.42,2.15.42,2.78,0,5.94-2.76,8.91-8.28,8.91-2.3,0-4.19-.71-5.66-2.13-1.47-1.42-2.2-3.28-2.2-5.57,0-1.11.19-2.81.58-5.1.38-2.29.58-3.99.58-5.1,0-.97-.14-2.38-.42-4.21-.28-1.84-.42-3.21-.42-4.11,0-3.33,1.96-5,5.87-5h44.32c2.23,0,3.77.47,4.61,1.41s1.26,2.67,1.26,5.19c0,3.63-1.29,6.81-3.88,9.53l-12.15,12.68c5.31.56,9.45,2.5,12.42,5.81,2.97,3.32,4.45,7.67,4.45,13.04,0,7.4-2.87,13.34-8.59,17.81-5.73,4.47-13.34,6.71-22.84,6.71-8.24,0-14.95-1.89-20.12-5.66s-7.75-8.66-7.75-14.67c0-3.35,1.05-6.18,3.14-8.49,2.1-2.31,4.68-3.46,7.75-3.46,2.65,0,4.94.89,6.86,2.67,1.92,1.78,2.88,3.97,2.88,6.55,0,2.17-.8,4.26-2.41,6.29,1.73,1.33,3.16,2.18,4.31,2.57,1.14.38,2.82.58,5.04.58,3.95,0,7.16-.98,9.66-2.95,2.49-1.96,3.74-4.49,3.74-7.58,0-5.97-4.4-9.09-13.2-9.37-3.21-.14-4.82-1.83-4.82-5.05-.03-2.75,1.16-5.42,3.54-8.01Z"/>
      <path class="cls-1" d="M546.13,133.28v46.94c0,2.51.94,3.77,2.83,3.77.56,0,1.36-.09,2.41-.26s1.85-.26,2.41-.26c4.54,0,6.81,2.27,6.81,6.81,0,2.38-.66,4.28-1.99,5.71s-3.08,2.15-5.24,2.15c-.49,0-.84-.04-1.05-.1l-6.39-.73c-1.82-.21-4.99-.31-9.53-.31-4.19,0-6.81.07-7.86.21l-6.29.84c-.28.07-.67.1-1.15.1-2.38,0-4.3-.72-5.76-2.15-1.47-1.43-2.2-3.3-2.2-5.61,0-2.1.59-3.77,1.78-5.03,1.19-1.26,2.76-1.89,4.72-1.89.63,0,1.59.09,2.88.26s2.25.26,2.88.26c1.68,0,2.72-1.12,3.14-3.35.07-.49.11-2.3.11-5.45v-28.92c0-3.28-1.19-4.92-3.56-4.92-.42,0-1.19.07-2.31.21-1.4.35-2.58.52-3.56.52-4.05,0-6.08-2.34-6.08-7.02,0-2.37.73-4.28,2.2-5.71s3.42-2.15,5.87-2.15c1.19,0,2.99.18,5.4.52,2.41.35,4.21.52,5.4.52,1.47,0,3.49-.24,6.08-.73,1.12-.21,2.27-.31,3.46-.31,1.89,0,3.18.52,3.88,1.57.46.84.71,2.34.71,4.51Z"/>
    </g>
  </g>
</svg>