<?xml version="1.0" encoding="UTF-8"?>
<svg id="Layer_2" xmlns="http://www.w3.org/2000/svg" xmlns:xlink="http://www.w3.org/1999/xlink" version="1.1" viewBox="0 0 130.9 130.9">
  <!-- Generator: Adobe Illustrator 30.3.0, SVG Export Plug-In . SVG Version: 2.1.3 Build 182)  -->
  <defs>
    <style>
      .st0 {
        fill: #fe3112;
      }

      .st1 {
        fill: url(#linear-gradient1);
      }

      .st2 {
        fill: #fe631c;
      }

      .st3 {
        fill: url(#linear-gradient);
      }

      .st4 {
        fill: #fe4a16;
      }

      .st5 {
        fill: #fe5d19;
      }

      .st6, .st7 {
        fill: #fe1212;
      }

      .st8 {
        fill: #fe6920;
      }

      .st7, .st9 {
        isolation: isolate;
      }

      .st10 {
        fill: #be1a19;
      }

      .st9 {
        fill: #743130;
      }

      .st11 {
        fill: #883939;
      }
    </style>
    <linearGradient id="linear-gradient" x1="0" y1="65.4" x2="130.9" y2="65.4" gradientUnits="userSpaceOnUse">
      <stop offset="0" stop-color="#7b6b35"/>
      <stop offset="1" stop-color="#bda451"/>
    </linearGradient>
    <linearGradient id="linear-gradient1" x1="1.2" y1="65.4" x2="129.7" y2="65.4" gradientUnits="userSpaceOnUse">
      <stop offset="0" stop-color="#bda451"/>
      <stop offset=".8" stop-color="#bda451"/>
      <stop offset=".9" stop-color="#beab5c"/>
      <stop offset="1" stop-color="#d2bb88"/>
    </linearGradient>
  </defs>
  <path class="st3" d="M65,130.9C28.9,130.6-.2,101.1,0,65,.2,29.1,29.6,0,65.4,0h.5c36.1.2,65.2,29.8,65,65.9-.2,35.8-29.6,65-65.4,65h-.5Z"/>
  <path class="st1" d="M65,129.7C29.6,129.5.9,100.4,1.2,65,1.4,29.8,30.3,1.2,65.4,1.2h.5c35.4.2,64.1,29.3,63.8,64.7-.2,35.2-29.1,63.8-64.2,63.8h-.5Z"/>
  <path class="st9" d="M65.2,104.4c-21.5-.1-38.8-17.7-38.7-39.2.1-21.3,17.6-38.7,38.9-38.7h.3c21.5.1,38.8,17.7,38.7,39.2-.1,21.3-17.6,38.7-38.9,38.7h-.3Z"/>
  <path class="st7" d="M65.2,103.4c-10.1,0-19.6-4.1-26.7-11.3-7.1-7.2-11-16.8-10.9-26.9.1-20.8,17.2-37.7,37.9-37.7h.3c10.1,0,19.6,4.1,26.7,11.3,7.1,7.2,11,16.8,10.9,26.9-.1,20.8-17.2,37.7-37.9,37.7h-.3Z"/>
  <g>
    <path class="st11" d="M65.2,103.4c-10.1,0-19.6-4.1-26.7-11.3-7.1-7.2-11-16.8-10.9-26.9.1-20.8,17.2-37.7,37.9-37.7h.3c10.1,0,19.6,4.1,26.7,11.3,7.1,7.2,11,16.8,10.9,26.9-.1,20.8-17.2,37.7-37.9,37.7h-.3Z"/>
    <path class="st10" d="M65.2,101.4c-9.6,0-18.6-3.9-25.3-10.7-6.7-6.8-10.4-15.9-10.4-25.5.1-19.7,16.3-35.7,35.9-35.7h.3c9.6,0,18.6,3.9,25.3,10.7,6.7,6.8,10.4,15.9,10.4,25.5-.1,19.7-16.3,35.7-35.9,35.7h-.3Z"/>
    <path class="st6" d="M67.2,99.4c-9,0-17.5-3.7-23.9-10.1-6.4-6.5-9.8-15-9.8-24.1.1-18.6,15.3-33.7,33.9-33.7h.3c9,0,17.5,3.7,23.9,10.1,6.4,6.5,9.8,15,9.8,24.1-.1,18.6-15.3,33.7-33.9,33.7h-.3Z"/>
    <path class="st0" d="M96.6,65.7c0-26.4-23.7-28.8-27.2-27.3,3.5,1.5,17.9,4.4,17.9,27.3s-7.5,22.4-18,26.9c3.5,1.5,27.3-3.4,27.3-26.9Z"/>
    <path class="st4" d="M79.1,88.8c6.4-4.2,10.9-9.4,10.9-23s-8.7-21.8-11-24c2.5-.3,16.8,2.7,16.8,24s-14.2,23.3-16.7,23Z"/>
    <path class="st5" d="M83.9,85c4.2-3.9,7.2-8.6,7.2-19.2s-5.6-17.9-7.4-20.6c2.1.9,11.3,4.4,11.3,20.6s-9.1,18.2-11.1,19.1Z"/>
    <path class="st2" d="M87,81.3c2.7-3.6,4.5-7.9,4.5-15.3s-3.4-13.9-4.9-17.3c1.9,2.1,7.6,6.1,7.6,17.3s-5.4,13.2-7.1,15.3Z"/>
    <path class="st8" d="M90.6,77.5c.9-3.3,1.4-7.1,1.4-11.4s-.7-9.9-2.1-13.9c2,3.4,3.4,7.9,3.4,13.9s-.9,8.1-2.7,11.4Z"/>
  </g>
</svg>