<?xml version="1.0" encoding="UTF-8"?>
<svg id="Layer_2" data-name="Layer 2" xmlns="http://www.w3.org/2000/svg" viewBox="0 0 468.34 639.11">
  <defs>
    <style>
      .cls-1 {
        fill: none;
      }

      .cls-2 {
        fill: #01c001;
      }
    </style>
  </defs>
  <g id="Layer_1-2" data-name="Layer 1">
    <g>
      <path class="cls-1" d="M246.66,594.52c-12.04.3-24.09.57-36.13.82-.99.02-1.83.86-1.87,1.88-.46,12.35-.96,24.7-1.49,37.05-.04,1.02.72,1.83,1.7,1.8,11.92-.28,23.85-.59,35.77-.94.98-.03,1.82-.88,1.88-1.89.65-12.31,1.27-24.62,1.85-36.93.05-1.01-.72-1.82-1.71-1.79Z"/>
      <path class="cls-1" d="M206.86,87.5c-12.15-.2-24.31-.38-36.46-.53-1-.01-1.8.81-1.77,1.83.29,12.38.55,24.76.79,37.15.02,1.02.86,1.86,1.86,1.87,12.24.13,24.48.27,36.72.44,1.01.01,1.81-.8,1.78-1.82-.32-12.35-.67-24.7-1.05-37.05-.03-1.02-.87-1.86-1.87-1.87Z"/>
      <path class="cls-1" d="M252.97,299.21c-12.42-.02-24.84-.04-37.26-.06-1.02,0-1.85.82-1.85,1.84.03,12.35.03,24.7,0,37.05,0,1.02.83,1.84,1.85,1.84,12.42-.02,24.84-.04,37.26-.06,1.02,0,1.86-.83,1.86-1.84.04-12.31.04-24.62,0-36.93,0-1.01-.84-1.84-1.86-1.84Z"/>
      <path class="cls-1" d="M205.44,45.17c-12.05-.24-24.1-.45-36.14-.63-.99-.02-1.78.8-1.75,1.82.34,12.38.66,24.76.95,37.15.02,1.02.86,1.86,1.86,1.87,12.15.16,24.3.33,36.45.54,1,.02,1.79-.8,1.76-1.81-.39-12.35-.81-24.7-1.26-37.05-.04-1.02-.87-1.86-1.87-1.88Z"/>
      <path class="cls-1" d="M208.05,129.82c-12.24-.16-24.49-.31-36.73-.44-1.01-.01-1.81.81-1.79,1.83.23,12.38.45,24.76.63,37.15.02,1.02.85,1.86,1.87,1.86,12.31.1,24.63.21,36.94.34,1.01.01,1.82-.81,1.8-1.82-.25-12.35-.53-24.7-.84-37.05-.03-1.02-.87-1.86-1.88-1.87Z"/>
      <path class="cls-1" d="M208.99,172.16c-12.31-.13-24.63-.24-36.95-.34-1.01,0-1.83.81-1.81,1.83.18,12.38.34,24.76.48,37.15.01,1.02.85,1.85,1.87,1.86,12.37.07,24.73.15,37.1.24,1.02,0,1.83-.81,1.82-1.83-.18-12.35-.39-24.7-.63-37.05-.02-1.02-.86-1.85-1.88-1.86Z"/>
      <path class="cls-1" d="M252.96,341.39c-12.42.02-24.84.05-37.26.06-1.02,0-1.86.83-1.86,1.85-.04,12.35-.11,24.7-.21,37.05,0,1.02.82,1.84,1.84,1.84,12.4-.06,24.81-.12,37.21-.19,1.02,0,1.86-.83,1.87-1.85.13-12.31.21-24.62.26-36.93,0-1.01-.82-1.84-1.85-1.83Z"/>
      <path class="cls-1" d="M166.79,171.77c-12.31-.09-24.63-.17-36.94-.24-1.01,0-1.83.82-1.82,1.84.12,12.4.23,24.81.32,37.21,0,1.02.84,1.86,1.86,1.86,12.37.05,24.73.11,37.1.17,1.02,0,1.84-.82,1.83-1.84-.13-12.38-.29-24.77-.47-37.15-.02-1.02-.85-1.86-1.87-1.86Z"/>
      <path class="cls-1" d="M252.66,383.58c-12.4.07-24.81.13-37.21.19-1.02,0-1.86.84-1.87,1.85-.11,12.35-.25,24.7-.42,37.05-.01,1.02.8,1.84,1.82,1.83,12.37-.09,24.74-.2,37.1-.31,1.02,0,1.86-.84,1.88-1.86.21-12.31.39-24.62.53-36.93.01-1.01-.81-1.83-1.83-1.83Z"/>
      <path class="cls-1" d="M209.7,214.49c-12.37-.09-24.74-.17-37.1-.24-1.02,0-1.84.82-1.83,1.84.13,12.38.23,24.76.32,37.15,0,1.02.84,1.85,1.86,1.86,12.4.04,24.81.09,37.21.15,1.02,0,1.84-.82,1.84-1.84-.11-12.35-.25-24.7-.42-37.05-.01-1.02-.85-1.85-1.87-1.86Z"/>
      <path class="cls-1" d="M251.15,467.96c-12.31.16-24.62.31-36.94.44-1.01.01-1.85.85-1.88,1.86-.25,12.35-.54,24.7-.85,37.05-.03,1.02.77,1.83,1.78,1.82,12.24-.17,24.49-.36,36.73-.56,1.01-.02,1.85-.86,1.89-1.87.39-12.31.74-24.62,1.06-36.93.03-1.01-.78-1.83-1.79-1.81Z"/>
      <path class="cls-1" d="M249.95,510.15c-12.24.21-24.48.4-36.72.57-1.01.01-1.85.85-1.88,1.87-.32,12.35-.68,24.7-1.06,37.05-.03,1.02.76,1.83,1.76,1.81,12.16-.21,24.31-.44,36.46-.69,1-.02,1.85-.86,1.89-1.88.48-12.31.92-24.62,1.32-36.93.03-1.01-.76-1.82-1.77-1.81Z"/>
      <path class="cls-1" d="M248.45,552.33c-12.15.25-24.3.48-36.45.69-1,.02-1.84.86-1.87,1.87-.39,12.35-.82,24.7-1.27,37.05-.04,1.02.74,1.83,1.73,1.81,12.05-.24,24.1-.51,36.14-.81.99-.02,1.84-.87,1.88-1.88.57-12.31,1.09-24.62,1.58-36.93.04-1.01-.74-1.82-1.74-1.8Z"/>
      <path class="cls-1" d="M203.78,2.84c-11.92-.27-23.85-.52-35.77-.73-.98-.02-1.75.8-1.72,1.82.39,12.38.76,24.76,1.11,37.15.03,1.02.86,1.86,1.85,1.88,12.04.18,24.09.4,36.13.63.99.02,1.77-.79,1.73-1.81-.46-12.35-.95-24.7-1.47-37.05-.04-1.02-.88-1.86-1.86-1.89Z"/>
      <path class="cls-1" d="M164.16,44.46c-12.05-.18-24.1-.32-36.14-.45-.99-.01-1.78.81-1.77,1.83.23,12.4.44,24.81.63,37.21.02,1.02.84,1.86,1.84,1.87,12.15.1,24.3.23,36.45.38,1,.01,1.79-.81,1.77-1.83-.29-12.38-.6-24.77-.94-37.15-.03-1.02-.86-1.86-1.85-1.88Z"/>
      <path class="cls-1" d="M162.93,2.03c-11.92-.2-23.85-.37-35.77-.52-.98-.01-1.76.81-1.74,1.83.26,12.4.51,24.81.74,37.22.02,1.02.84,1.86,1.83,1.87,12.04.12,24.09.27,36.13.45.99.01,1.78-.8,1.75-1.82-.34-12.38-.71-24.77-1.1-37.15-.03-1.02-.86-1.86-1.84-1.88Z"/>
      <path class="cls-1" d="M205.39,595.44c-12.04.24-24.09.45-36.13.63-.99.02-1.82.86-1.85,1.88-.35,12.38-.72,24.76-1.11,37.15-.03,1.02.74,1.83,1.72,1.82,11.92-.21,23.85-.45,35.77-.73.98-.02,1.82-.87,1.86-1.89.52-12.35,1.01-24.7,1.47-37.05.04-1.02-.74-1.83-1.73-1.81Z"/>
      <path class="cls-1" d="M166.09,129.33c-12.24-.12-24.49-.22-36.73-.31-1.01,0-1.82.82-1.8,1.84.16,12.4.3,24.81.42,37.22.01,1.02.84,1.86,1.86,1.86,12.31.07,24.63.15,36.94.24,1.01,0,1.83-.82,1.81-1.83-.19-12.38-.4-24.77-.63-37.15-.02-1.02-.85-1.86-1.86-1.87Z"/>
      <path class="cls-1" d="M165.21,86.9c-12.15-.15-24.31-.27-36.46-.38-1,0-1.8.82-1.79,1.84.19,12.4.37,24.81.53,37.22.01,1.02.84,1.86,1.85,1.86,12.24.09,24.48.19,36.72.31,1.01.01,1.81-.81,1.79-1.83-.24-12.38-.5-24.77-.78-37.15-.02-1.02-.86-1.86-1.86-1.87Z"/>
      <path class="cls-1" d="M206.82,553.11c-12.15.2-24.3.38-36.45.54-1,.01-1.83.85-1.86,1.87-.29,12.38-.61,24.76-.95,37.15-.03,1.02.76,1.84,1.75,1.82,12.05-.18,24.1-.39,36.14-.63.99-.02,1.83-.86,1.87-1.88.45-12.35.87-24.7,1.26-37.05.03-1.02-.76-1.83-1.76-1.81Z"/>
      <path class="cls-1" d="M210.16,383.79c-12.4.06-24.81.1-37.21.15-1.02,0-1.86.84-1.86,1.86-.08,12.38-.19,24.76-.32,37.15-.01,1.02.81,1.84,1.83,1.84,12.37-.07,24.74-.15,37.1-.24,1.02,0,1.86-.84,1.87-1.86.17-12.35.31-24.7.42-37.05,0-1.02-.81-1.84-1.84-1.84Z"/>
      <path class="cls-1" d="M210.4,341.47c-12.42.02-24.84.04-37.26.05-1.02,0-1.86.83-1.86,1.85-.03,12.38-.08,24.76-.16,37.15,0,1.02.82,1.85,1.84,1.84,12.4-.04,24.81-.09,37.21-.14,1.02,0,1.86-.84,1.87-1.85.1-12.35.17-24.7.21-37.05,0-1.02-.83-1.84-1.85-1.84Z"/>
      <path class="cls-1" d="M210.41,299.14c-12.42-.02-24.84-.03-37.26-.05-1.02,0-1.85.83-1.85,1.85.02,12.38.02,24.76,0,37.15,0,1.02.83,1.85,1.85,1.85,12.42-.01,24.84-.03,37.26-.05,1.02,0,1.86-.83,1.86-1.85.03-12.35.03-24.7,0-37.05,0-1.02-.84-1.85-1.86-1.85Z"/>
      <path class="cls-1" d="M208.01,510.79c-12.24.16-24.48.31-36.72.44-1.01.01-1.84.85-1.86,1.87-.24,12.38-.51,24.76-.79,37.15-.02,1.02.77,1.84,1.77,1.83,12.16-.15,24.31-.33,36.46-.53,1-.02,1.84-.86,1.87-1.87.38-12.35.73-24.7,1.05-37.05.03-1.02-.77-1.83-1.78-1.82Z"/>
      <path class="cls-1" d="M210.17,256.81c-12.4-.05-24.81-.1-37.21-.14-1.02,0-1.85.82-1.84,1.84.08,12.38.13,24.76.16,37.15,0,1.02.84,1.85,1.86,1.85,12.42.01,24.84.03,37.26.05,1.02,0,1.85-.82,1.85-1.84-.04-12.35-.11-24.7-.21-37.05,0-1.02-.85-1.85-1.87-1.85Z"/>
      <path class="cls-1" d="M209.68,426.12c-12.37.09-24.73.17-37.1.24-1.02,0-1.86.84-1.87,1.86-.14,12.38-.29,24.76-.48,37.15-.02,1.02.8,1.84,1.81,1.83,12.31-.1,24.63-.21,36.94-.34,1.01-.01,1.86-.85,1.88-1.86.24-12.35.45-24.7.63-37.05.02-1.02-.8-1.84-1.82-1.83Z"/>
      <path class="cls-1" d="M208.96,468.46c-12.31.13-24.62.24-36.94.34-1.01,0-1.85.84-1.87,1.86-.19,12.38-.4,24.76-.63,37.15-.02,1.02.78,1.84,1.79,1.83,12.24-.13,24.49-.27,36.73-.44,1.01-.01,1.85-.85,1.88-1.87.31-12.35.59-24.7.84-37.05.02-1.02-.79-1.84-1.8-1.82Z"/>
      <path class="cls-1" d="M252.06,425.77c-12.37.12-24.73.22-37.1.32-1.02,0-1.86.84-1.87,1.86-.18,12.35-.39,24.7-.64,37.05-.02,1.02.79,1.84,1.8,1.82,12.32-.13,24.63-.28,36.95-.44,1.01-.01,1.86-.85,1.88-1.86.3-12.31.57-24.62.79-36.93.02-1.01-.8-1.83-1.81-1.82Z"/>
      <path class="cls-1" d="M291.96,131.23c-12.24-.25-24.49-.48-36.73-.69-1.01-.02-1.8.79-1.77,1.81.39,12.31.75,24.61,1.06,36.92.03,1.01.87,1.85,1.89,1.86,12.31.17,24.62.35,36.94.54,1.01.02,1.81-.79,1.78-1.8-.38-12.26-.8-24.52-1.27-36.77-.04-1.01-.89-1.85-1.9-1.87Z"/>
      <path class="cls-1" d="M293.39,173.26c-12.31-.19-24.63-.37-36.94-.53-1.01-.01-1.82.8-1.79,1.81.3,12.31.57,24.61.8,36.92.02,1.01.86,1.85,1.88,1.86,12.37.12,24.73.25,37.1.39,1.02.01,1.83-.8,1.81-1.81-.27-12.26-.59-24.52-.95-36.77-.03-1.01-.88-1.84-1.89-1.86Z"/>
      <path class="cls-1" d="M290.16,89.22c-12.15-.3-24.31-.58-36.46-.84-1-.02-1.78.79-1.74,1.8.48,12.31.93,24.61,1.33,36.92.03,1.01.88,1.85,1.89,1.87,12.24.21,24.48.44,36.72.69,1.01.02,1.8-.78,1.76-1.79-.48-12.26-1.01-24.52-1.59-36.77-.05-1.01-.9-1.85-1.9-1.88Z"/>
      <path class="cls-1" d="M294.46,215.27c-12.37-.14-24.74-.26-37.1-.38-1.02,0-1.83.81-1.81,1.82.22,12.31.39,24.61.53,36.92.01,1.01.85,1.84,1.87,1.85,12.4.07,24.8.15,37.21.23,1.02,0,1.84-.81,1.83-1.82-.17-12.26-.38-24.52-.64-36.77-.02-1.01-.87-1.84-1.89-1.85Z"/>
      <path class="cls-1" d="M295.18,257.28c-12.4-.08-24.81-.16-37.21-.23-1.02,0-1.84.81-1.83,1.83.13,12.31.22,24.61.27,36.92,0,1.01.84,1.84,1.86,1.84,12.42.02,24.84.05,37.26.08,1.02,0,1.85-.82,1.85-1.83-.06-12.26-.17-24.52-.32-36.77-.01-1.01-.85-1.84-1.88-1.84Z"/>
      <path class="cls-1" d="M295.53,299.29c-12.42-.03-24.84-.05-37.26-.07-1.02,0-1.85.82-1.85,1.83.04,12.31.04,24.61,0,36.92,0,1.01.83,1.84,1.85,1.83,12.42-.02,24.84-.05,37.26-.07,1.02,0,1.86-.83,1.86-1.83.05-12.26.05-24.52,0-36.77,0-1.01-.84-1.83-1.86-1.83Z"/>
      <path class="cls-1" d="M288.01,47.21c-12.05-.36-24.1-.69-36.14-1-.99-.03-1.76.78-1.71,1.79.57,12.31,1.1,24.61,1.6,36.92.04,1.01.89,1.85,1.89,1.88,12.15.26,24.3.54,36.45.85,1,.03,1.78-.78,1.73-1.78-.59-12.26-1.22-24.52-1.91-36.77-.06-1.01-.91-1.85-1.9-1.88Z"/>
      <path class="cls-1" d="M335.53,466.63c-12.31.23-24.62.44-36.94.64-1.01.02-1.86.85-1.89,1.86-.38,12.26-.81,24.51-1.28,36.77-.04,1.01.75,1.81,1.76,1.79,12.24-.25,24.49-.52,36.73-.81,1.01-.02,1.87-.86,1.91-1.86.55-12.2,1.04-24.39,1.48-36.59.04-1-.76-1.81-1.77-1.79Z"/>
      <path class="cls-1" d="M336.81,424.81c-12.37.16-24.73.32-37.1.46-1.02.01-1.86.84-1.89,1.85-.27,12.26-.59,24.51-.96,36.77-.03,1.01.77,1.82,1.78,1.8,12.32-.2,24.63-.41,36.95-.63,1.01-.02,1.87-.85,1.9-1.86.42-12.2.8-24.39,1.11-36.59.03-1-.78-1.81-1.8-1.8Z"/>
      <path class="cls-1" d="M333.84,508.43c-12.24.29-24.48.57-36.72.82-1.01.02-1.86.86-1.9,1.87-.49,12.26-1.02,24.51-1.6,36.77-.05,1.01.73,1.81,1.73,1.78,12.16-.31,24.31-.64,36.46-1,1-.03,1.86-.87,1.92-1.87.67-12.19,1.29-24.39,1.86-36.59.05-1-.74-1.8-1.74-1.78Z"/>
      <path class="cls-1" d="M329.19,592.05c-12.04.42-24.09.82-36.13,1.18-.99.03-1.84.88-1.9,1.88-.7,12.26-1.44,24.52-2.24,36.77-.07,1.01.68,1.8,1.66,1.77,11.92-.42,23.85-.88,35.77-1.36.98-.04,1.84-.89,1.92-1.89.92-12.19,1.79-24.39,2.6-36.59.07-1-.69-1.79-1.68-1.76Z"/>
      <path class="cls-1" d="M285.49,5.2c-11.92-.41-23.85-.8-35.77-1.15-.98-.03-1.74.77-1.68,1.79.66,12.31,1.28,24.61,1.86,36.92.05,1.01.89,1.86,1.88,1.88,12.04.31,24.09.64,36.13,1,.99.03,1.75-.77,1.69-1.78-.69-12.26-1.44-24.52-2.22-36.77-.06-1.01-.92-1.86-1.9-1.89Z"/>
      <path class="cls-1" d="M331.73,550.24c-12.15.36-24.3.69-36.45,1-1,.03-1.85.87-1.9,1.88-.59,12.26-1.23,24.51-1.92,36.77-.06,1.01.7,1.81,1.7,1.78,12.05-.37,24.1-.76,36.14-1.18.99-.03,1.85-.88,1.92-1.88.8-12.19,1.54-24.39,2.23-36.59.06-1-.71-1.8-1.71-1.77Z"/>
      <path class="cls-1" d="M295.52,341.3c-12.42.03-24.84.06-37.26.08-1.02,0-1.86.83-1.86,1.84-.05,12.31-.14,24.62-.27,36.92-.01,1.01.81,1.83,1.83,1.83,12.4-.07,24.81-.15,37.21-.23,1.02,0,1.86-.83,1.88-1.84.15-12.26.26-24.52.32-36.77,0-1.01-.82-1.83-1.85-1.83Z"/>
      <path class="cls-1" d="M248.51,88.27c-12.15-.25-24.31-.48-36.46-.69-1-.02-1.79.8-1.76,1.81.38,12.35.74,24.7,1.06,37.05.03,1.02.87,1.86,1.88,1.87,12.24.17,24.48.36,36.72.57,1.01.02,1.8-.79,1.77-1.81-.4-12.31-.84-24.62-1.32-36.93-.04-1.01-.89-1.86-1.89-1.88Z"/>
      <path class="cls-1" d="M246.73,46.08c-12.05-.3-24.1-.57-36.14-.81-.99-.02-1.77.79-1.73,1.81.46,12.35.88,24.7,1.27,37.05.03,1.02.87,1.86,1.87,1.87,12.15.21,24.3.44,36.45.69,1,.02,1.78-.79,1.74-1.8-.49-12.31-1.02-24.62-1.58-36.93-.05-1.01-.89-1.86-1.88-1.88Z"/>
      <path class="cls-1" d="M244.64,3.9c-11.92-.34-23.85-.66-35.77-.94-.98-.02-1.74.79-1.7,1.8.53,12.35,1.02,24.7,1.49,37.05.04,1.02.88,1.86,1.87,1.88,12.04.25,24.09.52,36.13.82.99.02,1.76-.78,1.71-1.79-.58-12.31-1.19-24.62-1.85-36.93-.05-1.01-.9-1.86-1.88-1.89Z"/>
      <path class="cls-1" d="M250,130.46c-12.24-.21-24.49-.39-36.73-.56-1.01-.01-1.81.8-1.78,1.82.31,12.35.6,24.7.85,37.05.02,1.02.86,1.85,1.88,1.86,12.31.13,24.63.28,36.94.44,1.01.01,1.82-.8,1.79-1.81-.31-12.31-.67-24.62-1.06-36.93-.03-1.01-.88-1.85-1.89-1.87Z"/>
      <path class="cls-1" d="M251.19,172.65c-12.31-.16-24.63-.31-36.95-.44-1.01-.01-1.82.81-1.8,1.82.24,12.35.46,24.7.64,37.05.02,1.02.86,1.85,1.87,1.86,12.37.09,24.73.2,37.1.32,1.02,0,1.83-.81,1.81-1.82-.23-12.31-.49-24.62-.79-36.93-.02-1.01-.87-1.85-1.88-1.86Z"/>
      <path class="cls-1" d="M252.08,214.84c-12.37-.11-24.74-.22-37.1-.31-1.02,0-1.83.81-1.82,1.83.17,12.35.31,24.7.42,37.05,0,1.02.85,1.85,1.87,1.85,12.4.06,24.81.12,37.21.19,1.02,0,1.84-.81,1.83-1.83-.14-12.31-.31-24.62-.53-36.93-.02-1.01-.86-1.85-1.88-1.86Z"/>
      <path class="cls-1" d="M291.9,509.36c-12.24.25-24.48.48-36.72.69-1.01.02-1.85.86-1.89,1.87-.4,12.31-.85,24.62-1.33,36.92-.04,1.01.74,1.82,1.74,1.8,12.15-.26,24.31-.54,36.46-.84,1-.02,1.85-.87,1.9-1.88.58-12.26,1.1-24.51,1.59-36.77.04-1.01-.75-1.81-1.76-1.79Z"/>
      <path class="cls-1" d="M294.43,425.33c-12.37.14-24.73.27-37.1.39-1.02,0-1.86.84-1.88,1.86-.23,12.31-.49,24.62-.8,36.92-.02,1.01.78,1.83,1.79,1.81,12.31-.16,24.63-.34,36.94-.53,1.01-.02,1.86-.85,1.89-1.86.36-12.26.68-24.52.95-36.77.02-1.01-.79-1.82-1.81-1.81Z"/>
      <path class="cls-1" d="M287.92,593.39c-12.04.36-24.09.69-36.13,1-.99.03-1.84.87-1.89,1.88-.58,12.31-1.2,24.62-1.86,36.92-.05,1.01.7,1.81,1.68,1.79,11.92-.35,23.85-.74,35.77-1.15.98-.03,1.83-.88,1.9-1.89.79-12.26,1.53-24.51,2.22-36.77.06-1.01-.7-1.81-1.69-1.78Z"/>
      <path class="cls-1" d="M295.16,383.32c-12.4.08-24.8.16-37.21.23-1.02,0-1.86.84-1.87,1.85-.14,12.31-.32,24.62-.53,36.92-.02,1.01.8,1.83,1.81,1.82,12.37-.12,24.74-.24,37.1-.38,1.02-.01,1.86-.84,1.89-1.85.26-12.26.47-24.52.64-36.77.01-1.01-.81-1.82-1.83-1.82Z"/>
      <path class="cls-1" d="M293.34,467.35c-12.31.19-24.62.37-36.94.54-1.01.01-1.86.85-1.89,1.86-.32,12.31-.67,24.62-1.06,36.92-.03,1.01.76,1.82,1.77,1.81,12.24-.21,24.49-.44,36.73-.69,1.01-.02,1.86-.86,1.9-1.87.47-12.26.89-24.51,1.27-36.77.03-1.01-.77-1.82-1.78-1.8Z"/>
      <path class="cls-1" d="M252.68,257.02c-12.4-.07-24.81-.13-37.21-.19-1.02,0-1.85.82-1.84,1.84.1,12.35.17,24.7.21,37.05,0,1.02.84,1.85,1.86,1.85,12.42.02,24.84.04,37.26.07,1.02,0,1.85-.82,1.85-1.83-.05-12.31-.14-24.62-.26-36.93-.01-1.01-.85-1.84-1.87-1.85Z"/>
      <path class="cls-1" d="M290.09,551.38c-12.15.31-24.3.59-36.45.85-1,.02-1.85.86-1.89,1.88-.49,12.31-1.02,24.62-1.6,36.92-.05,1.01.72,1.82,1.71,1.79,12.05-.31,24.1-.64,36.14-1,.99-.03,1.85-.87,1.9-1.88.68-12.26,1.32-24.51,1.9-36.77.05-1.01-.73-1.81-1.73-1.78Z"/>
      <path class="cls-1" d="M167.84,341.52c-12.42.01-24.84.03-37.26.04-1.02,0-1.86.83-1.86,1.85-.02,12.41-.05,24.81-.1,37.22,0,1.02.82,1.85,1.84,1.85,12.4-.03,24.81-.06,37.21-.1,1.02,0,1.86-.84,1.86-1.86.08-12.38.13-24.77.16-37.15,0-1.02-.83-1.85-1.85-1.85Z"/>
      <path class="cls-1" d="M82.17,511.83c-12.24.04-24.48.06-36.72.06-1.01,0-1.83.83-1.83,1.85,0,12.42,0,24.85.01,37.27,0,1.02.81,1.86,1.82,1.86,12.15,0,24.31-.02,36.46-.07,1,0,1.82-.84,1.83-1.86.09-12.42.17-24.84.25-37.26,0-1.02-.81-1.85-1.82-1.85Z"/>
      <path class="cls-1" d="M82.39,469.27c-12.31.03-24.63.04-36.94.04-1.01,0-1.84.83-1.84,1.85,0,12.42,0,24.85,0,37.27,0,1.02.82,1.86,1.83,1.86,12.24,0,24.49-.02,36.73-.06,1.01,0,1.83-.84,1.84-1.86.07-12.42.14-24.84.2-37.26,0-1.02-.82-1.85-1.83-1.85Z"/>
      <path class="cls-1" d="M81.89,554.38c-12.15.05-24.3.07-36.45.07-1,0-1.81.83-1.81,1.85,0,12.42,0,24.85.01,37.27,0,1.02.81,1.86,1.8,1.86,12.05,0,24.1-.03,36.14-.08.99,0,1.81-.84,1.81-1.86.11-12.42.21-24.84.3-37.26,0-1.02-.8-1.85-1.8-1.85Z"/>
      <path class="cls-1" d="M40.35,1.03c-11.92,0-23.85.05-35.77.12-.98,0-1.79.84-1.8,1.86-.14,12.42-.27,24.84-.39,37.25-.01,1.02.79,1.85,1.78,1.84,12.04-.06,24.09-.1,36.13-.1.99,0,1.8-.83,1.8-1.86,0-12.42.02-24.85.03-37.27,0-1.02-.8-1.85-1.78-1.85Z"/>
      <path class="cls-1" d="M82.55,426.7c-12.37.02-24.73.03-37.1.03-1.02,0-1.85.83-1.85,1.85,0,12.42,0,24.85,0,37.27,0,1.02.83,1.86,1.84,1.86,12.31,0,24.63-.01,36.94-.04,1.01,0,1.84-.84,1.85-1.86.06-12.42.11-24.84.15-37.26,0-1.02-.82-1.85-1.84-1.85Z"/>
      <path class="cls-1" d="M40.25,86.17c-12.15,0-24.31.03-36.46.09-1,0-1.82.84-1.83,1.86-.1,12.42-.19,24.84-.28,37.25,0,1.02.81,1.85,1.82,1.85,12.24-.04,24.48-.07,36.72-.07,1.01,0,1.83-.83,1.83-1.86,0-12.42.01-24.85.02-37.27,0-1.02-.81-1.85-1.81-1.85Z"/>
      <path class="cls-1" d="M81.57,596.94c-12.04.05-24.09.08-36.13.08-.99,0-1.8.83-1.8,1.85,0,12.42,0,24.85.01,37.27,0,1.02.8,1.86,1.78,1.86,11.92,0,23.85-.03,35.77-.09.98,0,1.79-.84,1.8-1.86.12-12.42.24-24.84.35-37.26,0-1.02-.79-1.85-1.78-1.85Z"/>
      <path class="cls-1" d="M82.67,256.47c-12.4-.01-24.81-.02-37.21-.02-1.02,0-1.85.83-1.85,1.86,0,12.42,0,24.85,0,37.27,0,1.02.83,1.85,1.85,1.85,12.42,0,24.84,0,37.26,0,1.02,0,1.85-.83,1.85-1.85,0-12.42-.03-24.84-.05-37.26,0-1.02-.83-1.86-1.86-1.86Z"/>
      <path class="cls-1" d="M82.18,128.79c-12.24-.04-24.49-.06-36.73-.06-1.01,0-1.83.83-1.83,1.86,0,12.42,0,24.85,0,37.27,0,1.02.82,1.85,1.84,1.85,12.31,0,24.62.01,36.94.04,1.01,0,1.83-.83,1.83-1.85-.06-12.42-.12-24.84-.2-37.26,0-1.02-.83-1.86-1.84-1.86Z"/>
      <path class="cls-1" d="M82.66,384.14c-12.4.01-24.81.02-37.21.02-1.02,0-1.85.83-1.85,1.85,0,12.42,0,24.85,0,37.27,0,1.02.83,1.86,1.85,1.86,12.37,0,24.74-.01,37.1-.03,1.02,0,1.85-.84,1.85-1.86.04-12.42.07-24.84.1-37.26,0-1.02-.83-1.85-1.85-1.85Z"/>
      <path class="cls-1" d="M82.4,171.35c-12.31-.03-24.63-.04-36.94-.04-1.01,0-1.84.83-1.84,1.86,0,12.42,0,24.85,0,37.27,0,1.02.83,1.85,1.85,1.85,12.37,0,24.73.01,37.1.03,1.02,0,1.84-.83,1.84-1.85-.04-12.42-.09-24.84-.15-37.26,0-1.02-.83-1.86-1.85-1.86Z"/>
      <path class="cls-1" d="M82.72,341.59c-12.42,0-24.84,0-37.26,0-1.02,0-1.85.83-1.85,1.86,0,12.42,0,24.85,0,37.27,0,1.02.83,1.86,1.85,1.86,12.4,0,24.81,0,37.21-.02,1.02,0,1.85-.83,1.86-1.86.02-12.42.04-24.84.05-37.26,0-1.02-.83-1.85-1.85-1.85Z"/>
      <path class="cls-1" d="M82.72,299.03c-12.42,0-24.84,0-37.26,0-1.02,0-1.85.83-1.85,1.85,0,12.42,0,24.85,0,37.27,0,1.02.83,1.86,1.85,1.86,12.42,0,24.84,0,37.26,0,1.02,0,1.86-.83,1.86-1.85,0-12.42,0-24.84,0-37.26,0-1.02-.83-1.85-1.86-1.85Z"/>
      <path class="cls-1" d="M82.56,213.92c-12.37-.02-24.74-.03-37.1-.03-1.02,0-1.85.83-1.85,1.86,0,12.42,0,24.85,0,37.27,0,1.02.83,1.85,1.85,1.85,12.4,0,24.81,0,37.21.02,1.02,0,1.85-.83,1.85-1.85-.03-12.42-.06-24.84-.1-37.26,0-1.02-.83-1.86-1.85-1.86Z"/>
      <path class="cls-1" d="M40.17,426.73c-12.37,0-24.73-.02-37.1-.04-1.02,0-1.84.83-1.84,1.85.05,12.42.1,24.84.17,37.25,0,1.02.83,1.86,1.85,1.86,12.31.03,24.63.05,36.95.05,1.01,0,1.84-.83,1.84-1.85,0-12.42,0-24.85-.01-37.27,0-1.02-.83-1.86-1.85-1.86Z"/>
      <path class="cls-1" d="M40.19,469.31c-12.31,0-24.63-.02-36.94-.06-1.01,0-1.83.83-1.83,1.85.07,12.42.14,24.84.22,37.25,0,1.02.83,1.86,1.84,1.86,12.24.04,24.49.07,36.73.07,1.01,0,1.83-.83,1.83-1.85,0-12.42-.01-24.85-.02-37.27,0-1.02-.83-1.86-1.84-1.86Z"/>
      <path class="cls-1" d="M40.26,554.45c-12.15,0-24.3-.04-36.45-.09-1,0-1.81.82-1.8,1.85.1,12.42.21,24.84.33,37.25,0,1.02.82,1.86,1.82,1.86,12.05.06,24.1.09,36.14.1.99,0,1.8-.83,1.8-1.85,0-12.42-.02-24.85-.02-37.27,0-1.02-.82-1.86-1.82-1.86Z"/>
      <path class="cls-1" d="M40.22,511.88c-12.24,0-24.48-.03-36.72-.07-1.01,0-1.82.83-1.82,1.85.08,12.42.18,24.84.28,37.25,0,1.02.83,1.86,1.83,1.86,12.15.05,24.31.08,36.46.09,1,0,1.81-.83,1.81-1.85,0-12.42-.01-24.85-.02-37.27,0-1.02-.82-1.86-1.83-1.86Z"/>
      <path class="cls-1" d="M40.3,597.02c-12.04,0-24.09-.04-36.13-.1-.99,0-1.79.82-1.78,1.84.12,12.42.25,24.84.39,37.25.01,1.02.82,1.86,1.8,1.86,11.92.07,23.85.11,35.77.12.98,0,1.78-.83,1.78-1.85-.01-12.42-.02-24.85-.03-37.27,0-1.02-.81-1.86-1.8-1.86Z"/>
      <path class="cls-1" d="M40.22,128.74c-12.24,0-24.49.03-36.73.07-1.01,0-1.83.84-1.84,1.86-.08,12.42-.16,24.84-.22,37.25,0,1.02.81,1.85,1.83,1.85,12.31-.03,24.63-.05,36.94-.06,1.01,0,1.84-.83,1.84-1.86,0-12.42.01-24.85.02-37.27,0-1.02-.82-1.85-1.83-1.85Z"/>
      <path class="cls-1" d="M40.15,384.16c-12.4,0-24.81,0-37.21-.02-1.02,0-1.85.83-1.85,1.85.03,12.42.07,24.84.11,37.25,0,1.02.84,1.86,1.85,1.86,12.37.02,24.74.04,37.1.04,1.02,0,1.85-.83,1.85-1.85,0-12.42,0-24.85,0-37.27,0-1.02-.83-1.86-1.85-1.86Z"/>
      <path class="cls-1" d="M40.19,171.3c-12.32,0-24.63.02-36.95.05-1.01,0-1.84.84-1.85,1.86-.06,12.42-.12,24.84-.17,37.25,0,1.02.82,1.85,1.84,1.85,12.37-.02,24.73-.04,37.1-.04,1.02,0,1.85-.83,1.85-1.86,0-12.42,0-24.85.01-37.27,0-1.02-.82-1.85-1.84-1.85Z"/>
      <path class="cls-1" d="M40.15,256.45c-12.4,0-24.81,0-37.21.02-1.02,0-1.85.83-1.86,1.86-.03,12.42-.05,24.84-.06,37.25,0,1.02.83,1.85,1.85,1.85,12.42,0,24.84,0,37.26,0,1.02,0,1.85-.83,1.85-1.86,0-12.42,0-24.85,0-37.27,0-1.02-.83-1.85-1.85-1.85Z"/>
      <path class="cls-1" d="M40.17,213.88c-12.37,0-24.74.02-37.1.04-1.02,0-1.85.84-1.85,1.86-.05,12.42-.08,24.84-.11,37.25,0,1.02.83,1.85,1.85,1.85,12.4-.01,24.81-.02,37.21-.02,1.02,0,1.85-.83,1.85-1.86,0-12.42,0-24.85,0-37.27,0-1.02-.83-1.85-1.85-1.85Z"/>
      <path class="cls-1" d="M40.15,341.59c-12.42,0-24.84,0-37.26,0-1.02,0-1.85.83-1.85,1.85.01,12.42.03,24.84.06,37.25,0,1.02.83,1.86,1.86,1.86,12.4.01,24.81.02,37.21.02,1.02,0,1.85-.83,1.85-1.85,0-12.42,0-24.85,0-37.27,0-1.02-.83-1.86-1.85-1.86Z"/>
      <path class="cls-1" d="M40.15,299.02c-12.42,0-24.84,0-37.26,0-1.02,0-1.86.83-1.86,1.85,0,12.42,0,24.84,0,37.25,0,1.02.83,1.85,1.86,1.85,12.42,0,24.84,0,37.26,0,1.02,0,1.85-.83,1.85-1.85,0-12.42,0-24.85,0-37.27,0-1.02-.83-1.85-1.85-1.85Z"/>
      <path class="cls-1" d="M124.93,426.59c-12.37.04-24.73.08-37.1.1-1.02,0-1.85.84-1.85,1.86-.04,12.42-.1,24.84-.15,37.26,0,1.02.82,1.85,1.83,1.85,12.32-.03,24.63-.08,36.95-.14,1.01,0,1.85-.84,1.86-1.86.12-12.41.22-24.81.31-37.22,0-1.02-.82-1.85-1.83-1.85Z"/>
      <path class="cls-1" d="M166.06,511.28c-12.24.12-24.48.23-36.72.31-1.01,0-1.84.84-1.85,1.86-.16,12.41-.34,24.81-.53,37.22-.02,1.02.79,1.85,1.79,1.84,12.16-.1,24.31-.23,36.46-.38,1-.01,1.83-.85,1.86-1.87.28-12.38.55-24.77.78-37.15.02-1.02-.78-1.84-1.79-1.83Z"/>
      <path class="cls-1" d="M165.18,553.71c-12.15.15-24.3.28-36.45.38-1,0-1.83.85-1.84,1.87-.2,12.41-.41,24.81-.63,37.22-.02,1.02.77,1.84,1.77,1.83,12.05-.12,24.1-.27,36.14-.45.99-.01,1.82-.86,1.85-1.88.34-12.38.65-24.77.94-37.15.02-1.02-.77-1.84-1.77-1.83Z"/>
      <path class="cls-1" d="M122.07,1.45c-11.92-.13-23.85-.23-35.77-.3-.98,0-1.77.82-1.76,1.84.13,12.42.25,24.84.36,37.26,0,1.02.82,1.86,1.82,1.86,12.04.06,24.09.15,36.13.27.99,0,1.78-.81,1.76-1.83-.23-12.41-.47-24.81-.72-37.22-.02-1.02-.84-1.86-1.82-1.87Z"/>
      <path class="cls-1" d="M164.12,596.15c-12.04.18-24.09.33-36.13.45-.99.01-1.81.85-1.83,1.87-.23,12.41-.48,24.81-.74,37.22-.02,1.02.76,1.84,1.74,1.83,11.92-.14,23.85-.31,35.77-.52.98-.02,1.81-.86,1.84-1.88.39-12.38.75-24.77,1.1-37.15.03-1.02-.76-1.84-1.75-1.82Z"/>
      <path class="cls-1" d="M122.88,43.97c-12.05-.11-24.1-.2-36.14-.26-.99,0-1.79.82-1.78,1.85.11,12.42.21,24.84.31,37.26,0,1.02.83,1.86,1.83,1.86,12.15.05,24.3.13,36.45.22,1,0,1.8-.82,1.79-1.84-.19-12.41-.4-24.81-.62-37.22-.02-1.02-.84-1.86-1.83-1.87Z"/>
      <path class="cls-1" d="M81.91,86.23c-12.15-.05-24.31-.07-36.46-.07-1,0-1.82.83-1.82,1.86,0,12.42,0,24.85-.01,37.27,0,1.02.82,1.85,1.83,1.85,12.24,0,24.48.02,36.72.06,1.01,0,1.82-.83,1.82-1.85-.08-12.42-.16-24.84-.25-37.26,0-1.02-.83-1.86-1.83-1.86Z"/>
      <path class="cls-1" d="M337.66,383c-12.4.1-24.81.19-37.21.28-1.02,0-1.86.83-1.88,1.84-.17,12.26-.38,24.51-.64,36.77-.02,1.01.79,1.82,1.81,1.81,12.37-.14,24.74-.29,37.1-.45,1.02-.01,1.87-.84,1.89-1.85.3-12.2.55-24.39.74-36.59.02-1-.8-1.81-1.82-1.81Z"/>
      <path class="cls-1" d="M124.14,128.99c-12.24-.08-24.49-.14-36.73-.18-1.01,0-1.82.83-1.82,1.85.08,12.42.15,24.84.21,37.26,0,1.02.83,1.86,1.85,1.86,12.31.03,24.63.08,36.94.14,1.01,0,1.83-.82,1.82-1.84-.12-12.41-.26-24.81-.41-37.22-.01-1.02-.84-1.86-1.85-1.86Z"/>
      <path class="cls-1" d="M167.84,299.09c-12.42-.01-24.84-.02-37.26-.03-1.02,0-1.85.83-1.85,1.85.02,12.4.02,24.81,0,37.21,0,1.02.83,1.85,1.85,1.85,12.42,0,24.84-.02,37.26-.03,1.02,0,1.86-.83,1.86-1.85.02-12.38.02-24.77,0-37.15,0-1.02-.84-1.85-1.86-1.85Z"/>
      <path class="cls-1" d="M166.77,468.84c-12.31.1-24.63.18-36.94.24-1.01,0-1.85.84-1.86,1.86-.12,12.41-.27,24.81-.42,37.22-.01,1.02.8,1.85,1.8,1.84,12.24-.08,24.49-.19,36.73-.31,1.01-.01,1.84-.85,1.86-1.87.23-12.38.44-24.77.63-37.15.02-1.02-.8-1.84-1.81-1.83Z"/>
      <path class="cls-1" d="M167.67,256.65c-12.4-.04-24.81-.07-37.21-.1-1.02,0-1.85.83-1.84,1.85.05,12.41.09,24.81.1,37.22,0,1.02.83,1.85,1.86,1.85,12.42,0,24.84.02,37.26.04,1.02,0,1.85-.83,1.85-1.85-.03-12.38-.08-24.77-.16-37.15,0-1.02-.84-1.85-1.86-1.86Z"/>
      <path class="cls-1" d="M167.66,383.96c-12.4.04-24.81.08-37.21.1-1.02,0-1.86.84-1.86,1.86-.05,12.41-.12,24.81-.21,37.22,0,1.02.82,1.85,1.83,1.85,12.37-.05,24.74-.1,37.1-.17,1.02,0,1.86-.84,1.87-1.86.13-12.38.23-24.77.31-37.15,0-1.02-.82-1.85-1.84-1.84Z"/>
      <path class="cls-1" d="M167.3,426.4c-12.37.07-24.73.13-37.1.17-1.02,0-1.85.84-1.86,1.86-.09,12.41-.19,24.81-.32,37.22,0,1.02.81,1.85,1.82,1.84,12.32-.07,24.63-.15,36.94-.24,1.01,0,1.85-.84,1.87-1.86.18-12.38.34-24.77.47-37.15.01-1.02-.81-1.84-1.83-1.84Z"/>
      <path class="cls-1" d="M123.56,86.48c-12.15-.1-24.31-.17-36.46-.22-1,0-1.81.82-1.8,1.85.09,12.42.18,24.84.26,37.26,0,1.02.83,1.86,1.84,1.86,12.24.04,24.48.1,36.72.18,1.01,0,1.82-.82,1.8-1.84-.16-12.41-.33-24.81-.52-37.22-.02-1.02-.84-1.86-1.84-1.87Z"/>
      <path class="cls-1" d="M123.54,554.14c-12.15.1-24.3.17-36.45.22-1,0-1.82.84-1.83,1.86-.1,12.42-.2,24.84-.31,37.26,0,1.02.79,1.85,1.78,1.85,12.05-.06,24.1-.15,36.14-.26.99,0,1.81-.85,1.83-1.87.22-12.41.43-24.81.62-37.22.02-1.02-.79-1.85-1.79-1.84Z"/>
      <path class="cls-1" d="M122.85,596.65c-12.04.12-24.09.2-36.13.27-.99,0-1.81.84-1.81,1.86-.11,12.42-.23,24.84-.36,37.26-.01,1.02.78,1.85,1.76,1.84,11.92-.07,23.85-.17,35.77-.3.98-.01,1.8-.85,1.82-1.87.26-12.41.5-24.81.72-37.22.02-1.02-.77-1.84-1.76-1.83Z"/>
      <path class="cls-1" d="M124.12,511.62c-12.24.08-24.48.14-36.72.18-1.01,0-1.83.84-1.84,1.86-.08,12.42-.16,24.84-.26,37.26,0,1.02.8,1.85,1.8,1.85,12.16-.05,24.31-.13,36.46-.22,1,0,1.83-.85,1.84-1.87.19-12.41.36-24.81.52-37.22.01-1.02-.8-1.85-1.8-1.84Z"/>
      <path class="cls-1" d="M124.58,469.11c-12.31.06-24.63.11-36.94.14-1.01,0-1.84.84-1.85,1.86-.06,12.42-.13,24.84-.21,37.26,0,1.02.81,1.85,1.82,1.85,12.24-.04,24.49-.1,36.73-.18,1.01,0,1.84-.84,1.85-1.86.15-12.41.29-24.81.41-37.22.01-1.02-.81-1.85-1.82-1.84Z"/>
      <path class="cls-1" d="M81.59,43.68c-12.05-.05-24.1-.08-36.14-.08-.99,0-1.8.83-1.8,1.86,0,12.42,0,24.85-.01,37.27,0,1.02.81,1.85,1.81,1.85,12.15,0,24.3.02,36.45.07,1,0,1.81-.83,1.8-1.85-.09-12.42-.19-24.84-.3-37.26,0-1.02-.82-1.86-1.81-1.86Z"/>
      <path class="cls-1" d="M81.21,1.12c-11.92-.06-23.85-.09-35.77-.09-.98,0-1.78.83-1.78,1.86,0,12.42,0,24.85-.01,37.27,0,1.02.81,1.85,1.8,1.85,12.04,0,24.09.03,36.13.08.99,0,1.79-.82,1.78-1.85-.11-12.42-.22-24.84-.35-37.26-.01-1.02-.82-1.86-1.8-1.86Z"/>
      <path class="cls-1" d="M125.17,256.54c-12.4-.03-24.81-.05-37.21-.06-1.02,0-1.85.83-1.85,1.85.02,12.42.04,24.84.05,37.26,0,1.02.83,1.85,1.86,1.86,12.42,0,24.84.01,37.26.02,1.02,0,1.85-.83,1.85-1.85-.02-12.41-.05-24.81-.1-37.22,0-1.02-.84-1.85-1.86-1.86Z"/>
      <path class="cls-1" d="M125.28,299.05c-12.42,0-24.84-.02-37.26-.02-1.02,0-1.85.83-1.85,1.85,0,12.42,0,24.84,0,37.26,0,1.02.83,1.85,1.85,1.85,12.42,0,24.84-.01,37.26-.02,1.02,0,1.86-.83,1.86-1.85.02-12.41.02-24.81,0-37.22,0-1.02-.83-1.85-1.86-1.85Z"/>
      <path class="cls-1" d="M167.32,214.22c-12.37-.07-24.74-.12-37.1-.17-1.02,0-1.84.82-1.83,1.85.09,12.41.16,24.81.21,37.22,0,1.02.84,1.85,1.86,1.86,12.4.03,24.81.06,37.21.1,1.02,0,1.85-.82,1.84-1.84-.08-12.38-.19-24.77-.31-37.15-.01-1.02-.85-1.85-1.87-1.86Z"/>
      <path class="cls-1" d="M124.94,214.03c-12.37-.04-24.74-.08-37.1-.1-1.02,0-1.84.83-1.84,1.85.04,12.42.08,24.84.1,37.26,0,1.02.83,1.86,1.86,1.86,12.4.01,24.81.04,37.21.06,1.02,0,1.85-.83,1.84-1.85-.05-12.41-.12-24.81-.21-37.22,0-1.02-.84-1.86-1.86-1.86Z"/>
      <path class="cls-1" d="M124.6,171.5c-12.31-.06-24.63-.11-36.94-.14-1.01,0-1.83.83-1.83,1.85.06,12.42.11,24.84.15,37.26,0,1.02.83,1.86,1.85,1.86,12.37.02,24.73.06,37.1.1,1.02,0,1.84-.82,1.83-1.85-.09-12.41-.19-24.81-.31-37.22,0-1.02-.84-1.86-1.86-1.86Z"/>
      <path class="cls-1" d="M125.28,341.56c-12.42,0-24.84.02-37.26.02-1.02,0-1.86.83-1.86,1.86,0,12.42-.03,24.84-.05,37.26,0,1.02.83,1.85,1.85,1.85,12.4-.01,24.81-.03,37.21-.06,1.02,0,1.86-.84,1.86-1.86.05-12.41.08-24.81.1-37.22,0-1.02-.83-1.85-1.85-1.85Z"/>
      <path class="cls-1" d="M125.16,384.08c-12.4.03-24.81.05-37.21.06-1.02,0-1.85.83-1.86,1.86-.03,12.42-.06,24.84-.1,37.26,0,1.02.82,1.85,1.84,1.85,12.37-.02,24.74-.06,37.1-.1,1.02,0,1.85-.84,1.86-1.86.08-12.41.15-24.81.21-37.22,0-1.02-.82-1.85-1.84-1.85Z"/>
      <path class="cls-1" d="M40.3,43.6c-12.05,0-24.1.04-36.14.1-.99,0-1.81.84-1.82,1.86-.12,12.42-.23,24.84-.33,37.25,0,1.02.8,1.85,1.8,1.85,12.15-.05,24.3-.08,36.45-.09,1,0,1.81-.83,1.82-1.86,0-12.42.02-24.85.02-37.27,0-1.02-.81-1.85-1.8-1.85Z"/>
      <path class="cls-1" d="M375.88,133.22c-12.24-.33-24.49-.65-36.73-.94-1.01-.02-1.79.77-1.75,1.78.55,12.19,1.05,24.39,1.49,36.59.04,1,.89,1.84,1.9,1.86,12.31.23,24.63.48,36.94.74,1.01.02,1.81-.77,1.76-1.77-.5-12.13-1.07-24.26-1.7-36.38-.05-1-.91-1.83-1.92-1.86Z"/>
      <path class="cls-1" d="M411.74,588.74c-12.04.54-24.09,1.06-36.13,1.55-.99.04-1.86.89-1.94,1.88-.93,12.13-1.93,24.26-2.99,36.38-.09,1,.64,1.77,1.62,1.73,11.92-.56,23.85-1.16,35.77-1.78.98-.05,1.86-.9,1.96-1.89,1.19-12.04,2.3-24.09,3.35-36.15.09-.99-.65-1.76-1.64-1.72Z"/>
      <path class="cls-1" d="M380.17,382.64c-12.4.11-24.81.22-37.21.32-1.02,0-1.86.83-1.88,1.84-.19,12.2-.44,24.39-.75,36.59-.02,1,.78,1.81,1.8,1.8,12.37-.16,24.74-.34,37.1-.52,1.02-.02,1.87-.84,1.9-1.84.35-12.13.63-24.25.85-36.38.02-1-.8-1.8-1.82-1.79Z"/>
      <path class="cls-1" d="M375.8,507.36c-12.24.33-24.48.65-36.72.95-1.01.02-1.87.86-1.91,1.87-.57,12.2-1.19,24.39-1.87,36.59-.06,1,.71,1.8,1.71,1.77,12.16-.36,24.31-.74,36.46-1.15,1-.03,1.87-.87,1.93-1.87.77-12.12,1.48-24.25,2.12-36.38.05-1-.72-1.79-1.73-1.76Z"/>
      <path class="cls-1" d="M415.12,93.13c-12.15-.46-24.31-.89-36.46-1.31-1-.03-1.76.75-1.7,1.75.77,12.12,1.49,24.25,2.13,36.38.05,1,.92,1.83,1.92,1.86,12.24.34,24.48.7,36.72,1.08,1.01.03,1.78-.75,1.72-1.74-.73-12.05-1.53-24.1-2.39-36.15-.07-.99-.94-1.83-1.94-1.87Z"/>
      <path class="cls-1" d="M411.87,51.83c-12.05-.54-24.09-1.06-36.14-1.54-.99-.04-1.74.74-1.66,1.74.92,12.12,1.77,24.25,2.56,36.37.07,1,.93,1.84,1.93,1.87,12.15.42,24.3.85,36.45,1.31,1,.04,1.76-.74,1.68-1.73-.89-12.05-1.84-24.1-2.87-36.15-.08-.99-.96-1.84-1.95-1.88Z"/>
      <path class="cls-1" d="M465.78,340.78c-12.42.05-24.84.09-37.26.14-1.02,0-1.86.81-1.87,1.81-.09,12.05-.25,24.09-.48,36.14-.02.99.8,1.79,1.82,1.78,12.4-.13,24.81-.26,37.21-.39,1.02-.01,1.87-.82,1.89-1.81.25-11.96.43-23.92.53-35.88,0-.98-.82-1.78-1.84-1.78Z"/>
      <path class="cls-1" d="M379.19,424.22c-12.37.19-24.73.36-37.1.53-1.02.01-1.87.84-1.89,1.85-.32,12.2-.69,24.39-1.12,36.59-.04,1,.76,1.81,1.77,1.79,12.32-.23,24.63-.47,36.94-.73,1.01-.02,1.87-.85,1.91-1.85.49-12.13.91-24.25,1.27-36.38.03-1-.77-1.8-1.79-1.78Z"/>
      <path class="cls-1" d="M377.74,465.79c-12.31.26-24.62.51-36.94.74-1.01.02-1.87.85-1.9,1.86-.44,12.2-.94,24.39-1.49,36.59-.05,1,.74,1.8,1.75,1.78,12.24-.3,24.49-.61,36.73-.94,1.01-.03,1.87-.86,1.92-1.86.63-12.12,1.19-24.25,1.7-36.38.04-1-.75-1.79-1.76-1.77Z"/>
      <path class="cls-1" d="M370.47,590.5c-12.04.48-24.09.94-36.13,1.37-.99.04-1.85.88-1.92,1.88-.82,12.2-1.69,24.39-2.61,36.59-.08,1,.66,1.79,1.64,1.75,11.92-.49,23.85-1.02,35.77-1.57.98-.05,1.85-.9,1.94-1.89,1.05-12.12,2.04-24.25,2.97-36.38.08-1-.67-1.78-1.66-1.74Z"/>
      <path class="cls-1" d="M464,217.79c-12.37-.23-24.74-.45-37.1-.66-1.02-.02-1.82.78-1.79,1.77.39,12.04.71,24.09.96,36.14.02.99.87,1.81,1.89,1.82,12.4.13,24.81.26,37.21.4,1.02.01,1.83-.78,1.81-1.76-.28-11.96-.63-23.92-1.06-35.88-.04-.98-.89-1.8-1.91-1.82Z"/>
      <path class="cls-1" d="M417.83,134.43c-12.24-.37-24.49-.73-36.73-1.07-1.01-.03-1.79.76-1.73,1.76.63,12.12,1.2,24.25,1.71,36.38.04,1,.9,1.83,1.91,1.85,12.31.27,24.63.54,36.94.84,1.01.02,1.8-.76,1.75-1.76-.57-12.05-1.21-24.1-1.91-36.15-.06-.99-.93-1.82-1.93-1.86Z"/>
      <path class="cls-1" d="M415.01,547.44c-12.15.46-24.3.9-36.45,1.31-1,.03-1.87.87-1.93,1.87-.79,12.13-1.65,24.25-2.56,36.38-.08,1,.67,1.78,1.66,1.74,12.05-.49,24.1-1,36.14-1.54.99-.04,1.87-.89,1.95-1.88,1.03-12.04,1.98-24.09,2.87-36.15.07-.99-.68-1.77-1.68-1.73Z"/>
      <path class="cls-1" d="M465.2,258.79c-12.4-.14-24.81-.27-37.21-.39-1.02-.01-1.84.79-1.82,1.78.23,12.04.39,24.09.48,36.14,0,.99.85,1.8,1.87,1.81,12.42.04,24.84.09,37.26.14,1.02,0,1.85-.79,1.84-1.78-.1-11.96-.28-23.92-.53-35.88-.02-.98-.87-1.8-1.89-1.81Z"/>
      <path class="cls-1" d="M417.74,506.14c-12.24.38-24.48.74-36.72,1.08-1.01.03-1.87.86-1.92,1.86-.65,12.13-1.36,24.25-2.13,36.38-.06,1,.7,1.78,1.7,1.75,12.16-.41,24.31-.85,36.46-1.31,1-.04,1.87-.88,1.94-1.87.87-12.04,1.66-24.09,2.39-36.15.06-.99-.71-1.77-1.72-1.74Z"/>
      <path class="cls-1" d="M373.38,548.93c-12.15.41-24.3.8-36.45,1.16-1,.03-1.86.87-1.92,1.88-.69,12.2-1.44,24.39-2.24,36.59-.07,1,.69,1.79,1.68,1.76,12.05-.43,24.1-.88,36.14-1.36.99-.04,1.86-.88,1.94-1.88.91-12.12,1.76-24.25,2.55-36.38.06-1-.7-1.78-1.7-1.75Z"/>
      <path class="cls-1" d="M453.01,586.77c-12.04.61-24.09,1.18-36.13,1.74-.99.05-1.87.89-1.95,1.88-1.05,12.05-2.17,24.1-3.36,36.14-.1.99.62,1.76,1.6,1.7,11.92-.63,23.85-1.3,35.77-1.99.98-.06,1.87-.91,1.98-1.89,1.32-11.95,2.56-23.91,3.72-35.88.1-.98-.63-1.75-1.62-1.7Z"/>
      <path class="cls-1" d="M459.69,504.77c-12.24.42-24.48.82-36.72,1.2-1.01.03-1.88.86-1.94,1.86-.73,12.05-1.53,24.1-2.4,36.14-.07.99.68,1.77,1.68,1.73,12.16-.46,24.31-.95,36.46-1.46,1-.04,1.88-.88,1.96-1.86.96-11.95,1.85-23.91,2.66-35.88.07-.98-.7-1.76-1.71-1.72Z"/>
      <path class="cls-1" d="M379.24,216.37c-12.37-.18-24.74-.36-37.1-.52-1.02-.01-1.83.79-1.8,1.8.3,12.19.55,24.39.75,36.59.02,1,.86,1.83,1.88,1.84,12.4.1,24.81.21,37.21.32,1.02,0,1.84-.8,1.82-1.79-.22-12.13-.5-24.26-.85-36.38-.03-1-.88-1.82-1.9-1.84Z"/>
      <path class="cls-1" d="M380.19,257.94c-12.4-.11-24.81-.21-37.21-.31-1.02,0-1.84.8-1.83,1.81.18,12.19.3,24.39.37,36.59,0,1,.84,1.82,1.86,1.83,12.42.03,24.84.07,37.26.11,1.02,0,1.85-.81,1.84-1.81-.08-12.13-.22-24.26-.42-36.38-.02-1-.86-1.82-1.88-1.83Z"/>
      <path class="cls-1" d="M373.47,91.65c-12.15-.41-24.31-.79-36.46-1.15-1-.03-1.77.76-1.71,1.77.68,12.19,1.3,24.39,1.87,36.59.05,1,.9,1.84,1.91,1.87,12.24.3,24.48.61,36.72.95,1.01.03,1.79-.76,1.73-1.76-.65-12.13-1.35-24.26-2.12-36.38-.06-1-.93-1.84-1.93-1.87Z"/>
      <path class="cls-1" d="M456.65,545.77c-12.15.51-24.3,1-36.45,1.47-1,.04-1.87.88-1.95,1.87-.89,12.05-1.85,24.1-2.88,36.14-.08.99.65,1.76,1.64,1.72,12.05-.55,24.1-1.12,36.14-1.73.99-.05,1.88-.89,1.97-1.88,1.14-11.95,2.2-23.91,3.19-35.88.08-.98-.67-1.75-1.67-1.71Z"/>
      <path class="cls-1" d="M326.36,6.73c-11.92-.48-23.84-.94-35.77-1.36-.98-.03-1.73.76-1.66,1.77.79,12.25,1.54,24.51,2.24,36.77.06,1.01.91,1.85,1.9,1.88,12.04.37,24.09.76,36.13,1.19.99.03,1.74-.75,1.68-1.76-.81-12.2-1.68-24.4-2.6-36.59-.08-1-.94-1.85-1.92-1.89Z"/>
      <path class="cls-1" d="M377.8,174.8c-12.31-.26-24.63-.5-36.95-.73-1.01-.02-1.81.78-1.77,1.79.43,12.19.8,24.39,1.12,36.59.03,1,.88,1.83,1.89,1.85,12.37.17,24.73.34,37.1.53,1.02.02,1.82-.78,1.79-1.78-.36-12.13-.79-24.26-1.27-36.38-.04-1-.9-1.83-1.91-1.85Z"/>
      <path class="cls-1" d="M462.12,463.78c-12.31.33-24.62.64-36.94.94-1.01.02-1.88.85-1.92,1.84-.57,12.05-1.21,24.09-1.92,36.14-.06.99.71,1.77,1.72,1.74,12.24-.38,24.49-.78,36.73-1.19,1.01-.03,1.88-.86,1.95-1.85.79-11.96,1.5-23.92,2.13-35.88.05-.98-.73-1.76-1.75-1.74Z"/>
      <path class="cls-1" d="M463.94,422.78c-12.37.23-24.73.46-37.1.67-1.02.02-1.87.84-1.91,1.83-.41,12.05-.89,24.09-1.44,36.14-.05.99.74,1.78,1.76,1.75,12.32-.29,24.63-.6,36.94-.93,1.01-.03,1.88-.85,1.93-1.83.61-11.96,1.14-23.92,1.6-35.88.04-.98-.76-1.77-1.78-1.75Z"/>
      <path class="cls-1" d="M380.66,341.07c-12.42.04-24.84.07-37.26.11-1.02,0-1.86.82-1.86,1.83-.07,12.2-.19,24.39-.37,36.59-.01,1,.8,1.81,1.83,1.81,12.4-.1,24.81-.2,37.21-.31,1.02,0,1.87-.83,1.88-1.83.2-12.13.35-24.26.42-36.38,0-1-.82-1.81-1.84-1.81Z"/>
      <path class="cls-1" d="M367.22,8.51c-11.92-.55-23.85-1.08-35.77-1.57-.98-.04-1.72.74-1.64,1.75.93,12.19,1.8,24.39,2.61,36.59.07,1,.93,1.85,1.92,1.88,12.04.43,24.09.89,36.13,1.37.99.04,1.74-.74,1.66-1.74-.93-12.13-1.92-24.26-2.97-36.38-.09-1-.96-1.85-1.94-1.89Z"/>
      <path class="cls-1" d="M370.59,50.08c-12.05-.48-24.09-.93-36.14-1.36-.99-.04-1.75.75-1.68,1.76.8,12.19,1.55,24.39,2.24,36.59.06,1,.92,1.85,1.92,1.88,12.15.36,24.3.75,36.45,1.16,1,.03,1.76-.75,1.7-1.75-.79-12.13-1.64-24.26-2.55-36.38-.08-1-.94-1.84-1.94-1.88Z"/>
      <path class="cls-1" d="M465.16,381.77c-12.4.14-24.81.28-37.21.4-1.02.01-1.87.83-1.89,1.82-.25,12.05-.57,24.09-.96,36.14-.03.99.77,1.78,1.79,1.77,12.37-.21,24.74-.43,37.1-.66,1.02-.02,1.88-.84,1.91-1.82.43-11.96.79-23.92,1.06-35.88.02-.98-.79-1.78-1.81-1.76Z"/>
      <path class="cls-1" d="M380.67,299.51c-12.42-.04-24.84-.07-37.26-.1-1.02,0-1.85.81-1.85,1.82.05,12.2.05,24.39,0,36.59,0,1,.82,1.82,1.85,1.82,12.42-.03,24.84-.07,37.26-.1,1.02,0,1.86-.82,1.86-1.82.06-12.13.06-24.26,0-36.38,0-1-.84-1.81-1.86-1.82Z"/>
      <path class="cls-1" d="M408.07,10.54c-11.92-.62-23.84-1.22-35.77-1.78-.98-.05-1.71.73-1.62,1.73,1.06,12.12,2.05,24.25,2.99,36.38.08,1,.95,1.84,1.94,1.88,12.04.49,24.09,1.01,36.13,1.55.99.04,1.73-.73,1.64-1.72-1.05-12.05-2.16-24.1-3.35-36.15-.1-.99-.98-1.84-1.96-1.89Z"/>
      <path class="cls-1" d="M465.79,299.78c-12.42-.04-24.84-.09-37.26-.13-1.02,0-1.85.8-1.84,1.79.07,12.05.07,24.09,0,36.14,0,.99.82,1.8,1.84,1.79,12.42-.04,24.84-.08,37.26-.13,1.02,0,1.86-.81,1.87-1.79.08-11.96.08-23.92,0-35.88,0-.98-.84-1.79-1.87-1.79Z"/>
      <path class="cls-1" d="M333.91,132.15c-12.24-.29-24.49-.56-36.73-.81-1.01-.02-1.8.78-1.76,1.79.47,12.25.9,24.51,1.28,36.77.03,1.01.88,1.84,1.89,1.86,12.31.2,24.63.41,36.94.64,1.01.02,1.81-.78,1.77-1.79-.44-12.2-.94-24.4-1.48-36.59-.05-1-.9-1.84-1.91-1.86Z"/>
      <path class="cls-1" d="M422.7,258.34c-12.4-.12-24.81-.24-37.21-.35-1.02,0-1.84.8-1.82,1.79.2,12.12.35,24.25.43,36.37,0,1,.84,1.81,1.87,1.82,12.42.04,24.84.08,37.26.12,1.02,0,1.85-.8,1.84-1.79-.09-12.05-.25-24.1-.48-36.15-.02-.99-.87-1.81-1.89-1.82Z"/>
      <path class="cls-1" d="M421.57,423.54c-12.37.21-24.73.41-37.1.6-1.02.02-1.87.84-1.9,1.84-.36,12.13-.79,24.25-1.28,36.38-.04,1,.75,1.79,1.77,1.77,12.32-.26,24.63-.54,36.94-.83,1.01-.02,1.88-.85,1.92-1.84.55-12.05,1.03-24.09,1.44-36.15.03-.99-.77-1.78-1.79-1.77Z"/>
      <path class="cls-1" d="M423.22,340.93c-12.42.04-24.84.08-37.26.12-1.02,0-1.86.82-1.87,1.82-.08,12.13-.22,24.25-.43,36.38-.02,1,.8,1.8,1.82,1.79,12.4-.11,24.81-.23,37.21-.35,1.02-.01,1.87-.83,1.89-1.82.23-12.05.39-24.1.48-36.15,0-.99-.82-1.8-1.84-1.79Z"/>
      <path class="cls-1" d="M338.09,299.39c-12.42-.03-24.84-.06-37.26-.09-1.02,0-1.85.82-1.85,1.83.05,12.26.05,24.51,0,36.77,0,1.01.83,1.83,1.85,1.83,12.42-.03,24.84-.06,37.26-.09,1.02,0,1.86-.82,1.86-1.83.05-12.2.05-24.4,0-36.59,0-1-.84-1.82-1.86-1.83Z"/>
      <path class="cls-1" d="M335.59,173.97c-12.31-.23-24.63-.44-36.94-.63-1.01-.02-1.81.79-1.78,1.8.37,12.25.69,24.51.96,36.77.02,1.01.87,1.84,1.89,1.85,12.37.14,24.73.29,37.1.46,1.02.01,1.83-.79,1.8-1.8-.32-12.2-.69-24.4-1.11-36.59-.03-1-.89-1.84-1.9-1.86Z"/>
      <path class="cls-1" d="M423.23,299.64c-12.42-.04-24.84-.08-37.26-.11-1.02,0-1.85.81-1.84,1.81.06,12.12.06,24.25,0,36.37,0,1,.82,1.81,1.84,1.81,12.42-.04,24.84-.07,37.26-.11,1.02,0,1.86-.81,1.87-1.81.07-12.05.07-24.1,0-36.15,0-.99-.84-1.8-1.87-1.81Z"/>
      <path class="cls-1" d="M421.62,217.04c-12.37-.21-24.74-.4-37.1-.59-1.02-.02-1.82.78-1.79,1.78.35,12.12.63,24.25.85,36.38.02,1,.86,1.82,1.88,1.83,12.4.11,24.81.24,37.21.36,1.02.01,1.84-.79,1.82-1.78-.25-12.05-.57-24.1-.96-36.15-.03-.99-.89-1.81-1.91-1.83Z"/>
      <path class="cls-1" d="M336.85,215.78c-12.37-.16-24.74-.31-37.1-.45-1.02-.01-1.83.8-1.81,1.81.26,12.26.47,24.51.64,36.77.01,1.01.86,1.84,1.88,1.84,12.4.09,24.81.18,37.21.28,1.02,0,1.84-.8,1.82-1.81-.19-12.2-.44-24.4-.74-36.59-.02-1-.87-1.83-1.89-1.85Z"/>
      <path class="cls-1" d="M422.67,382.23c-12.4.13-24.81.25-37.21.36-1.02,0-1.87.83-1.88,1.83-.22,12.13-.51,24.25-.85,36.38-.03,1,.78,1.8,1.79,1.78,12.37-.19,24.74-.38,37.1-.59,1.02-.02,1.87-.84,1.91-1.83.39-12.05.71-24.1.96-36.15.02-.99-.79-1.79-1.81-1.78Z"/>
      <path class="cls-1" d="M456.77,94.79c-12.15-.51-24.31-1-36.46-1.46-1-.04-1.76.74-1.68,1.73.87,12.04,1.67,24.09,2.4,36.14.06.99.93,1.82,1.94,1.86,12.24.38,24.48.78,36.72,1.2,1.01.03,1.77-.74,1.71-1.72-.81-11.97-1.7-23.93-2.66-35.88-.08-.98-.96-1.82-1.96-1.86Z"/>
      <path class="cls-1" d="M453.15,53.79c-12.05-.6-24.09-1.18-36.14-1.73-.99-.05-1.73.73-1.64,1.72,1.03,12.04,1.99,24.09,2.88,36.14.07.99.95,1.83,1.95,1.87,12.15.47,24.3.96,36.45,1.47,1,.04,1.75-.72,1.67-1.71-.99-11.97-2.05-23.93-3.19-35.88-.09-.98-.98-1.83-1.97-1.88Z"/>
      <path class="cls-1" d="M448.93,12.8c-11.92-.7-23.84-1.36-35.77-1.99-.98-.05-1.7.71-1.6,1.7,1.19,12.04,2.31,24.08,3.36,36.14.09.99.96,1.84,1.95,1.88,12.04.55,24.09,1.13,36.13,1.74.99.05,1.72-.71,1.63-1.7-1.17-11.97-2.41-23.93-3.72-35.88-.11-.98-1-1.83-1.98-1.89Z"/>
      <path class="cls-1" d="M419.93,464.84c-12.31.29-24.62.57-36.94.84-1.01.02-1.87.85-1.91,1.85-.51,12.13-1.08,24.25-1.71,36.38-.05,1,.73,1.79,1.73,1.76,12.24-.34,24.49-.69,36.73-1.07,1.01-.03,1.88-.86,1.93-1.86.71-12.04,1.35-24.09,1.91-36.15.05-.99-.74-1.78-1.75-1.76Z"/>
      <path class="cls-1" d="M329.3,48.54c-12.05-.42-24.09-.81-36.14-1.18-.99-.03-1.75.77-1.7,1.78.69,12.25,1.33,24.51,1.92,36.77.05,1.01.9,1.85,1.9,1.88,12.15.31,24.3.65,36.45,1,1,.03,1.77-.76,1.71-1.77-.69-12.2-1.43-24.4-2.23-36.59-.07-1-.93-1.85-1.92-1.88Z"/>
      <path class="cls-1" d="M462.2,176.79c-12.31-.32-24.63-.63-36.94-.93-1.01-.02-1.8.76-1.76,1.75.55,12.04,1.03,24.09,1.44,36.14.03.99.89,1.81,1.91,1.83,12.37.21,24.73.44,37.1.67,1.02.02,1.82-.77,1.78-1.75-.45-11.96-.99-23.92-1.6-35.88-.05-.98-.92-1.81-1.93-1.83Z"/>
      <path class="cls-1" d="M459.79,135.79c-12.24-.42-24.49-.81-36.73-1.19-1.01-.03-1.78.75-1.72,1.74.71,12.04,1.35,24.09,1.92,36.14.05.99.91,1.82,1.92,1.84,12.31.3,24.63.61,36.94.94,1.01.03,1.8-.75,1.75-1.74-.63-11.96-1.34-23.92-2.13-35.88-.06-.98-.94-1.81-1.95-1.85Z"/>
      <path class="cls-1" d="M337.68,257.58c-12.4-.1-24.81-.19-37.21-.27-1.02,0-1.84.81-1.83,1.82.15,12.26.26,24.51.32,36.77,0,1.01.84,1.83,1.86,1.83,12.42.03,24.84.06,37.26.09,1.02,0,1.85-.81,1.84-1.82-.07-12.2-.19-24.4-.37-36.59-.01-1-.86-1.83-1.88-1.84Z"/>
      <path class="cls-1" d="M331.81,90.35c-12.15-.35-24.31-.69-36.46-1-1-.03-1.78.77-1.73,1.78.58,12.25,1.11,24.51,1.6,36.77.04,1.01.89,1.85,1.9,1.87,12.24.26,24.48.53,36.72.82,1.01.02,1.79-.77,1.74-1.78-.56-12.2-1.18-24.4-1.86-36.59-.06-1-.92-1.85-1.92-1.87Z"/>
      <path class="cls-1" d="M338.09,341.2c-12.42.03-24.84.06-37.26.09-1.02,0-1.86.83-1.86,1.83-.06,12.26-.17,24.51-.32,36.77-.01,1.01.81,1.82,1.83,1.82,12.4-.08,24.81-.17,37.21-.27,1.02,0,1.86-.83,1.88-1.84.18-12.2.3-24.4.37-36.59,0-1-.82-1.82-1.84-1.82Z"/>
      <path class="cls-1" d="M420,175.74c-12.31-.29-24.63-.57-36.94-.83-1.01-.02-1.81.77-1.77,1.77.49,12.12.92,24.25,1.28,36.38.03,1,.88,1.82,1.9,1.84,12.37.19,24.73.39,37.1.6,1.02.02,1.82-.78,1.79-1.77-.41-12.05-.89-24.1-1.44-36.15-.04-.99-.91-1.82-1.92-1.84Z"/>
      <path class="cls-2" d="M451.79,625.34c22.05-203.31,22.07-407.8.06-611.11-.09-.97-.24-1.6-.32-1.81-.17-.06-.32-.2-.38-.37-.22-.08-.87-.19-1.82-.25C301.05,3.26,152.6-.65,4.08.09c-.95,0-1.58.09-1.8.16-.05.18-.18.31-.35.36-.07.22-.15.89-.16,1.88-2.36,211.54-2.36,423.09,0,634.63.01,1.12.23,1.78.33,1.87.16-.02.34-.02.4-.03,0,0,0,.01,0,.02.25-.05.82-.04,2.08-.04,11.92.07,23.84.11,35.76.12,1.27,0,1.83,0,2.08.05,0,0,0-.01,0-.02.11.01.8.02.91,0,0,0,0,.01,0,.02.25-.05.82-.05,2.08-.05,11.92,0,23.84-.03,35.76-.09,1.26,0,1.83,0,2.08.04,0,0,0-.01,0-.02.11.02.81.01.91,0,0,0,0,.01,0,.02.25-.05.82-.05,2.09-.06,11.92-.07,23.84-.17,35.76-.31,1.26-.01,1.83-.02,2.08.03,0,0,0-.01,0-.02.11.02.8,0,.91,0,0,0,0,.01,0,.02.25-.05.82-.06,2.09-.07,11.92-.14,23.84-.31,35.76-.52,1.26-.02,1.83-.03,2.08.01,0,0,0-.01,0-.02.11.01.8,0,.91-.01,0,0,0,.01,0,.02.25-.05.82-.06,2.09-.09,11.92-.21,23.84-.46,35.76-.73,1.26-.03,1.83-.04,2.08,0,0,0,0-.01,0-.02.11.01.8,0,.91-.02,0,0,0,.01,0,.02.25-.05.82-.07,2.09-.1,11.92-.28,23.84-.6,35.76-.94,1.26-.04,1.83-.05,2.08-.01,0,0,0-.01,0-.02.11.01.8,0,.91-.03,0,0,0,.01,0,.02.25-.06.82-.07,2.09-.11,11.92-.35,23.84-.74,35.76-1.15,1.26-.04,1.83-.06,2.08-.02,0,0,0-.01,0-.02.11.01.8-.01.91-.03,0,0,0,.01,0,.02.26-.06.82-.08,2.09-.12,11.92-.42,23.84-.88,35.76-1.36,1.26-.05,1.83-.07,2.08-.04,0,0,0-.01,0-.02.11.01.8-.02.91-.04,0,0,0,.01,0,.02.26-.06.82-.08,2.09-.13,11.92-.49,23.84-1.02,35.76-1.58,1.26-.06,1.83-.09,2.08-.05,0,0,0-.01,0-.02.11.01.8-.02.91-.04,0,0,0,.01,0,.02.26-.06.82-.09,2.09-.15,11.92-.57,23.84-1.16,35.76-1.79,1.26-.07,1.83-.1,2.08-.06,0,0,0-.01,0-.02.11.01.8-.03.91-.05,0,0,0,.01,0,.02.26-.06.82-.09,2.09-.16,11.92-.64,23.84-1.3,35.76-2,1.26-.07,1.83-.11,2.08-.08,0,0,0-.01,0-.02.05,0,.24,0,.45-.01.06-.07.33-.72.45-1.8ZM42.64,636.15c0,1.31-1.03,2.38-2.29,2.38-11.92,0-23.84-.05-35.77-.12-1.26,0-2.3-1.08-2.32-2.4-.14-12.42-.27-24.84-.39-37.25-.01-1.31,1.01-2.38,2.29-2.37,12.05.06,24.09.09,36.14.1,1.27,0,2.31,1.07,2.31,2.39,0,12.42.02,24.85.02,37.27ZM42.61,593.58c0,1.31-1.04,2.38-2.31,2.38-12.05,0-24.09-.04-36.14-.1-1.28,0-2.32-1.08-2.34-2.4-.12-12.42-.23-24.84-.34-37.25-.01-1.31,1.03-2.38,2.31-2.37,12.15.05,24.3.08,36.46.09,1.29,0,2.33,1.07,2.33,2.39,0,12.42.01,24.85.02,37.27ZM42.59,551.01c0,1.31-1.05,2.38-2.33,2.38-12.15,0-24.31-.03-36.46-.09-1.29,0-2.34-1.08-2.35-2.39-.1-12.42-.2-24.84-.28-37.25,0-1.31,1.04-2.38,2.33-2.38,12.24.04,24.48.07,36.73.07,1.3,0,2.35,1.07,2.35,2.39,0,12.42.01,24.85.02,37.27ZM42.57,508.44c0,1.31-1.05,2.38-2.35,2.38-12.24,0-24.49-.03-36.73-.07-1.3,0-2.36-1.08-2.37-2.39-.08-12.42-.16-24.84-.23-37.25,0-1.31,1.05-2.38,2.35-2.38,12.31.03,24.63.05,36.94.06,1.3,0,2.36,1.07,2.36,2.39,0,12.42,0,24.85.01,37.27ZM42.55,465.86c0,1.31-1.06,2.38-2.36,2.38-12.31,0-24.63-.02-36.94-.05-1.3,0-2.37-1.08-2.38-2.39-.06-12.42-.12-24.84-.17-37.25,0-1.31,1.06-2.38,2.37-2.38,12.37.02,24.73.04,37.1.04,1.31,0,2.37,1.07,2.37,2.39,0,12.42,0,24.85.01,37.27ZM42.54,423.29c0,1.31-1.06,2.38-2.37,2.38-12.37,0-24.74-.02-37.1-.04-1.31,0-2.38-1.07-2.38-2.39-.05-12.42-.08-24.84-.11-37.25,0-1.31,1.06-2.38,2.38-2.38,12.4.01,24.81.02,37.21.02,1.31,0,2.38,1.07,2.38,2.39,0,12.42,0,24.85,0,37.27ZM42.53,380.72c0,1.31-1.07,2.38-2.38,2.38-12.4,0-24.81,0-37.21-.02-1.31,0-2.38-1.07-2.39-2.39-.03-12.42-.05-24.84-.06-37.25,0-1.31,1.07-2.38,2.38-2.38,12.42,0,24.84,0,37.26,0,1.31,0,2.38,1.07,2.38,2.39,0,12.42,0,24.85,0,37.27ZM42.53,338.15c0,1.31-1.07,2.39-2.38,2.38-12.42,0-24.84,0-37.26,0-1.31,0-2.39-1.07-2.39-2.38,0-12.42,0-24.84,0-37.25,0-1.31,1.07-2.38,2.39-2.38,12.42,0,24.84,0,37.26,0,1.31,0,2.38,1.07,2.38,2.38,0,12.42,0,24.85,0,37.27ZM42.53,295.58c0,1.32-1.07,2.39-2.38,2.39-12.42,0-24.84,0-37.26,0-1.31,0-2.38-1.07-2.38-2.38.01-12.42.03-24.84.06-37.25,0-1.31,1.07-2.39,2.39-2.39,12.4-.01,24.81-.02,37.21-.02,1.31,0,2.38,1.07,2.38,2.38,0,12.42,0,24.85,0,37.27ZM42.53,253.01c0,1.32-1.07,2.39-2.38,2.39-12.4,0-24.81,0-37.21.02-1.31,0-2.38-1.07-2.38-2.38.03-12.42.07-24.84.11-37.25,0-1.31,1.07-2.39,2.38-2.39,12.37-.02,24.74-.04,37.1-.04,1.31,0,2.37,1.07,2.37,2.38,0,12.42,0,24.85,0,37.27ZM42.54,210.43c0,1.32-1.07,2.39-2.37,2.39-12.37,0-24.73.02-37.1.04-1.31,0-2.37-1.06-2.36-2.38.05-12.42.1-24.84.17-37.25,0-1.31,1.07-2.39,2.38-2.39,12.31-.03,24.63-.05,36.94-.05,1.3,0,2.36,1.07,2.36,2.38,0,12.42,0,24.85-.01,37.27ZM42.55,167.86c0,1.32-1.06,2.39-2.36,2.39-12.31,0-24.63.02-36.94.06-1.3,0-2.36-1.06-2.35-2.38.07-12.42.14-24.84.23-37.25,0-1.31,1.07-2.39,2.37-2.39,12.24-.04,24.49-.07,36.73-.07,1.3,0,2.35,1.07,2.35,2.38,0,12.42,0,24.85-.01,37.27ZM42.57,125.29c0,1.32-1.06,2.39-2.35,2.39-12.24,0-24.48.03-36.73.07-1.3,0-2.34-1.06-2.33-2.38.09-12.42.18-24.84.28-37.25.01-1.31,1.07-2.39,2.35-2.39,12.15-.05,24.31-.08,36.46-.09,1.29,0,2.33,1.07,2.33,2.38,0,12.42-.01,24.85-.02,37.27ZM42.59,82.72c0,1.32-1.05,2.39-2.33,2.39-12.15,0-24.3.03-36.46.09-1.29,0-2.32-1.06-2.31-2.37.1-12.42.22-24.84.34-37.25.01-1.31,1.06-2.39,2.34-2.4,12.05-.06,24.09-.09,36.14-.1,1.27,0,2.31,1.07,2.31,2.38,0,12.42-.01,24.85-.02,37.27ZM42.61,40.15c0,1.32-1.04,2.39-2.31,2.39-12.05,0-24.09.04-36.14.1-1.28,0-2.3-1.06-2.29-2.37.12-12.42.25-24.84.39-37.25.01-1.31,1.05-2.39,2.32-2.4,11.92-.07,23.84-.11,35.76-.12,1.26,0,2.29,1.07,2.29,2.38,0,12.42-.02,24.85-.02,37.27ZM83.51,636.04c-.01,1.31-1.05,2.39-2.31,2.4-11.92.06-23.84.09-35.76.09-1.26,0-2.29-1.07-2.29-2.39,0-12.42-.01-24.85-.02-37.27,0-1.31,1.04-2.38,2.31-2.38,12.05,0,24.09-.03,36.14-.08,1.27,0,2.3,1.06,2.29,2.37-.11,12.42-.23,24.84-.35,37.26ZM83.91,593.49c-.01,1.31-1.06,2.39-2.33,2.39-12.05.05-24.09.08-36.14.08-1.27,0-2.31-1.07-2.31-2.39,0-12.42-.01-24.85-.02-37.27,0-1.31,1.05-2.38,2.33-2.38,12.15,0,24.3-.02,36.46-.07,1.29,0,2.32,1.06,2.32,2.38-.09,12.42-.19,24.84-.3,37.26ZM84.26,550.93c0,1.31-1.06,2.39-2.35,2.39-12.15.05-24.31.07-36.46.07-1.29,0-2.33-1.07-2.33-2.39,0-12.42,0-24.85-.01-37.27,0-1.31,1.05-2.38,2.35-2.38,12.24,0,24.48-.02,36.73-.06,1.3,0,2.34,1.06,2.34,2.38-.08,12.42-.16,24.84-.25,37.26ZM84.55,508.37c0,1.31-1.07,2.39-2.36,2.39-12.24.04-24.49.06-36.73.06-1.3,0-2.35-1.07-2.35-2.39,0-12.42,0-24.85-.01-37.27,0-1.31,1.06-2.38,2.36-2.38,12.31,0,24.63-.01,36.94-.04,1.3,0,2.36,1.06,2.35,2.38-.06,12.42-.13,24.84-.2,37.26ZM84.77,465.81c0,1.31-1.07,2.39-2.38,2.39-12.31.03-24.63.04-36.94.04-1.3,0-2.36-1.07-2.36-2.39,0-12.42,0-24.85,0-37.27,0-1.31,1.06-2.38,2.37-2.38,12.37,0,24.73-.01,37.1-.03,1.31,0,2.37,1.07,2.37,2.38-.04,12.42-.09,24.84-.15,37.26ZM84.94,423.25c0,1.31-1.07,2.39-2.38,2.39-12.37.02-24.74.03-37.1.03-1.31,0-2.37-1.07-2.37-2.39,0-12.42,0-24.85,0-37.27,0-1.31,1.07-2.38,2.38-2.38,12.4,0,24.81,0,37.21-.02,1.31,0,2.38,1.07,2.38,2.38-.03,12.42-.06,24.84-.1,37.26ZM85.05,380.7c0,1.31-1.07,2.39-2.39,2.39-12.4.01-24.81.02-37.21.02-1.31,0-2.38-1.07-2.38-2.39,0-12.42,0-24.85,0-37.27,0-1.31,1.07-2.38,2.38-2.38,12.42,0,24.84,0,37.26,0,1.31,0,2.38,1.07,2.38,2.38,0,12.42-.03,24.84-.05,37.26ZM85.1,338.14c0,1.31-1.07,2.38-2.39,2.39-12.42,0-24.84,0-37.26,0-1.31,0-2.38-1.07-2.38-2.39,0-12.42,0-24.85,0-37.27,0-1.32,1.07-2.39,2.38-2.39,12.42,0,24.84,0,37.26,0,1.31,0,2.39,1.07,2.39,2.39,0,12.42,0,24.84,0,37.26ZM85.1,295.59c0,1.31-1.07,2.38-2.38,2.38-12.42,0-24.84,0-37.26,0-1.31,0-2.38-1.07-2.38-2.39,0-12.42,0-24.85,0-37.27,0-1.32,1.07-2.39,2.38-2.39,12.4,0,24.81,0,37.21.02,1.31,0,2.38,1.07,2.39,2.39.02,12.42.04,24.84.05,37.26ZM85.04,253.03c0,1.31-1.06,2.38-2.38,2.38-12.4-.01-24.81-.02-37.21-.02-1.31,0-2.38-1.07-2.38-2.38,0-12.42,0-24.85,0-37.27,0-1.32,1.07-2.39,2.37-2.39,12.37,0,24.74.01,37.1.03,1.31,0,2.38,1.07,2.38,2.39.04,12.42.07,24.84.1,37.26ZM84.92,210.46c0,1.31-1.06,2.38-2.37,2.38-12.37-.02-24.73-.03-37.1-.03-1.31,0-2.37-1.07-2.37-2.38,0-12.42,0-24.85,0-37.27,0-1.32,1.06-2.39,2.36-2.39,12.31,0,24.63.01,36.94.04,1.3,0,2.37,1.08,2.38,2.39.06,12.42.11,24.84.15,37.26ZM84.75,167.91c0,1.31-1.05,2.38-2.35,2.38-12.31-.03-24.63-.04-36.94-.04-1.3,0-2.36-1.07-2.36-2.38,0-12.42,0-24.85.01-37.27,0-1.32,1.06-2.39,2.35-2.39,12.24,0,24.49.02,36.73.06,1.3,0,2.36,1.08,2.36,2.39.07,12.42.14,24.84.2,37.26ZM84.51,125.35c0,1.31-1.04,2.38-2.34,2.38-12.24-.04-24.48-.06-36.73-.06-1.3,0-2.35-1.07-2.35-2.38,0-12.42,0-24.85.01-37.27,0-1.32,1.05-2.39,2.33-2.39,12.15,0,24.31.02,36.46.07,1.29,0,2.34,1.08,2.35,2.39.09,12.42.17,24.84.25,37.26ZM84.22,82.8c.01,1.31-1.03,2.38-2.32,2.38-12.15-.05-24.3-.07-36.46-.07-1.29,0-2.33-1.07-2.33-2.38,0-12.42.01-24.85.02-37.27,0-1.32,1.04-2.39,2.31-2.39,12.05,0,24.09.03,36.14.08,1.27,0,2.32,1.08,2.33,2.39.11,12.42.21,24.84.3,37.26ZM83.87,40.24c.01,1.31-1.02,2.38-2.29,2.37-12.04-.05-24.09-.08-36.13-.08-1.27,0-2.31-1.07-2.31-2.38,0-12.42.01-24.85.02-37.27,0-1.32,1.03-2.39,2.29-2.39,11.92,0,23.84.03,35.76.09,1.26,0,2.3,1.08,2.31,2.4.12,12.42.24,24.84.35,37.26ZM124.4,635.7c-.03,1.31-1.08,2.39-2.34,2.41-11.92.13-23.84.23-35.76.31-1.26,0-2.28-1.06-2.26-2.37.13-12.42.25-24.84.36-37.26.01-1.31,1.06-2.39,2.33-2.4,12.05-.06,24.09-.15,36.14-.26,1.27-.01,2.29,1.05,2.27,2.36-.23,12.41-.47,24.81-.73,37.22ZM125.22,593.19c-.02,1.31-1.08,2.39-2.36,2.4-12.05.11-24.09.2-36.14.26-1.27,0-2.3-1.06-2.29-2.37.11-12.42.21-24.84.31-37.26.01-1.31,1.06-2.39,2.35-2.39,12.15-.05,24.3-.13,36.46-.22,1.29-.01,2.32,1.05,2.3,2.36-.19,12.41-.4,24.81-.62,37.22ZM125.93,550.68c-.02,1.31-1.08,2.39-2.37,2.4-12.15.1-24.31.17-36.46.22-1.29,0-2.33-1.06-2.32-2.37.09-12.42.18-24.84.25-37.26,0-1.31,1.07-2.39,2.36-2.39,12.24-.04,24.48-.1,36.73-.18,1.3,0,2.34,1.05,2.32,2.37-.16,12.41-.33,24.81-.52,37.22ZM126.51,508.17c-.02,1.31-1.08,2.39-2.38,2.4-12.24.08-24.49.14-36.73.18-1.3,0-2.34-1.06-2.34-2.38.08-12.42.14-24.84.2-37.26,0-1.31,1.07-2.39,2.38-2.39,12.31-.03,24.63-.08,36.94-.14,1.3,0,2.35,1.06,2.34,2.37-.12,12.41-.26,24.81-.42,37.22ZM126.98,465.65c-.01,1.31-1.08,2.39-2.39,2.39-12.31.06-24.63.11-36.94.14-1.3,0-2.36-1.06-2.35-2.38.06-12.42.11-24.84.15-37.26,0-1.31,1.07-2.39,2.38-2.39,12.37-.02,24.73-.06,37.1-.1,1.31,0,2.37,1.06,2.36,2.37-.09,12.41-.19,24.81-.31,37.22ZM127.33,423.14c0,1.31-1.08,2.39-2.39,2.39-12.37.04-24.74.08-37.1.1-1.31,0-2.37-1.07-2.37-2.38.04-12.42.08-24.84.1-37.26,0-1.31,1.07-2.39,2.39-2.39,12.4-.01,24.81-.03,37.21-.06,1.31,0,2.38,1.06,2.37,2.38-.05,12.41-.12,24.81-.21,37.22ZM127.56,380.63c0,1.31-1.08,2.38-2.39,2.39-12.4.03-24.81.05-37.21.06-1.31,0-2.38-1.07-2.38-2.38.02-12.42.04-24.84.05-37.26,0-1.31,1.07-2.38,2.39-2.39,12.42,0,24.84-.01,37.26-.02,1.31,0,2.38,1.07,2.38,2.38-.02,12.41-.05,24.81-.1,37.22ZM127.67,338.12c0,1.31-1.07,2.38-2.39,2.38-12.42,0-24.84.02-37.26.02-1.31,0-2.38-1.07-2.38-2.38,0-12.42,0-24.84,0-37.26,0-1.31,1.07-2.38,2.38-2.38,12.42,0,24.84.01,37.26.02,1.31,0,2.39,1.07,2.39,2.38.02,12.41.02,24.81,0,37.22ZM127.66,295.61c0,1.31-1.07,2.38-2.38,2.38-12.42,0-24.84-.02-37.26-.02-1.31,0-2.39-1.07-2.39-2.39,0-12.42-.03-24.84-.05-37.26,0-1.31,1.06-2.38,2.38-2.38,12.4.01,24.81.03,37.21.06,1.31,0,2.39,1.07,2.39,2.39.05,12.41.08,24.81.1,37.22ZM127.53,253.1c0,1.31-1.06,2.38-2.37,2.38-12.4-.03-24.81-.05-37.21-.06-1.31,0-2.38-1.07-2.39-2.39-.03-12.42-.06-24.84-.1-37.26,0-1.31,1.06-2.38,2.37-2.38,12.37.02,24.74.06,37.1.1,1.31,0,2.38,1.08,2.39,2.39.08,12.41.15,24.81.21,37.22ZM127.29,210.58c0,1.31-1.05,2.38-2.36,2.37-12.37-.04-24.73-.08-37.1-.1-1.31,0-2.38-1.07-2.38-2.39-.04-12.42-.09-24.84-.15-37.26,0-1.31,1.05-2.38,2.35-2.38,12.31.03,24.63.08,36.94.14,1.3,0,2.37,1.08,2.39,2.39.12,12.41.22,24.81.31,37.22ZM126.93,168.07c.01,1.31-1.04,2.38-2.34,2.37-12.31-.06-24.63-.11-36.94-.14-1.3,0-2.37-1.08-2.38-2.39-.06-12.42-.13-24.84-.2-37.26,0-1.31,1.04-2.38,2.34-2.38,12.24.04,24.49.1,36.73.18,1.3,0,2.36,1.08,2.38,2.4.15,12.41.29,24.81.42,37.22ZM126.45,125.57c.02,1.31-1.02,2.37-2.32,2.37-12.24-.08-24.48-.14-36.73-.18-1.3,0-2.36-1.08-2.36-2.39-.08-12.42-.16-24.84-.25-37.26,0-1.31,1.03-2.38,2.32-2.37,12.15.05,24.31.13,36.46.22,1.29.01,2.35,1.09,2.37,2.4.19,12.41.36,24.81.52,37.22ZM125.84,83.06c.02,1.31-1.01,2.37-2.3,2.36-12.15-.1-24.3-.17-36.46-.22-1.29,0-2.34-1.08-2.35-2.39-.09-12.42-.2-24.84-.31-37.26-.01-1.31,1.02-2.38,2.29-2.37,12.05.06,24.09.15,36.14.26,1.27.01,2.33,1.09,2.36,2.4.22,12.41.43,24.81.62,37.22ZM125.13,40.55c.02,1.31-.99,2.37-2.27,2.36-12.04-.12-24.09-.2-36.14-.27-1.27,0-2.32-1.08-2.33-2.4-.11-12.42-.23-24.84-.36-37.26-.01-1.31,1-2.38,2.26-2.37,11.92.07,23.84.17,35.76.31,1.26.01,2.31,1.09,2.34,2.41.26,12.41.5,24.81.73,37.22ZM165.28,635.11c-.04,1.31-1.1,2.4-2.36,2.42-11.92.2-23.84.38-35.77.52-1.26.01-2.27-1.04-2.24-2.35.26-12.41.5-24.81.73-37.22.02-1.31,1.08-2.39,2.36-2.4,12.05-.12,24.09-.27,36.14-.45,1.27-.02,2.28,1.03,2.25,2.34-.34,12.38-.71,24.77-1.1,37.15ZM166.52,592.68c-.04,1.31-1.1,2.39-2.38,2.41-12.05.18-24.09.33-36.14.45-1.27.01-2.29-1.05-2.27-2.36.22-12.41.43-24.81.63-37.22.02-1.31,1.08-2.39,2.37-2.4,12.15-.1,24.31-.23,36.46-.38,1.29-.02,2.31,1.04,2.28,2.35-.29,12.38-.61,24.77-.94,37.15ZM167.59,550.25c-.03,1.31-1.1,2.39-2.39,2.41-12.15.15-24.31.28-36.46.38-1.29.01-2.32-1.05-2.3-2.36.19-12.41.36-24.81.52-37.22.02-1.31,1.08-2.39,2.38-2.4,12.24-.08,24.48-.19,36.73-.31,1.3-.01,2.33,1.04,2.3,2.35-.24,12.38-.5,24.77-.79,37.15ZM168.48,507.82c-.02,1.31-1.1,2.39-2.4,2.4-12.24.12-24.49.23-36.73.31-1.3,0-2.34-1.05-2.32-2.37.15-12.41.29-24.81.42-37.22.01-1.31,1.08-2.39,2.39-2.39,12.31-.07,24.63-.15,36.94-.24,1.3-.01,2.35,1.05,2.33,2.36-.19,12.38-.4,24.77-.63,37.15ZM169.19,465.38c-.02,1.31-1.1,2.39-2.4,2.4-12.31.09-24.63.17-36.94.24-1.3,0-2.35-1.06-2.34-2.37.12-12.41.22-24.81.31-37.22,0-1.31,1.08-2.39,2.39-2.39,12.37-.05,24.73-.1,37.1-.17,1.31,0,2.36,1.05,2.35,2.36-.13,12.38-.29,24.77-.47,37.15ZM169.71,422.95c-.01,1.31-1.09,2.38-2.4,2.39-12.37.07-24.74.12-37.1.17-1.31,0-2.37-1.06-2.36-2.37.08-12.41.15-24.81.21-37.22,0-1.31,1.08-2.38,2.39-2.39,12.4-.03,24.81-.06,37.21-.1,1.31,0,2.37,1.06,2.37,2.37-.08,12.38-.19,24.77-.31,37.15ZM170.06,380.52c0,1.31-1.08,2.38-2.4,2.39-12.4.04-24.81.07-37.21.1-1.31,0-2.38-1.06-2.37-2.38.05-12.41.08-24.81.1-37.22,0-1.31,1.07-2.38,2.39-2.38,12.42,0,24.84-.02,37.26-.03,1.31,0,2.38,1.06,2.38,2.37-.03,12.38-.08,24.77-.16,37.15ZM170.23,338.09c0,1.31-1.07,2.38-2.39,2.38-12.42.01-24.84.02-37.26.03-1.31,0-2.38-1.07-2.38-2.38.02-12.41.02-24.81,0-37.22,0-1.31,1.07-2.38,2.38-2.38,12.42,0,24.84.02,37.26.03,1.31,0,2.39,1.07,2.39,2.38.02,12.38.02,24.77,0,37.15ZM170.22,295.66c0,1.31-1.06,2.38-2.38,2.37-12.42-.01-24.84-.03-37.26-.03-1.31,0-2.39-1.07-2.39-2.38-.02-12.41-.05-24.81-.1-37.22,0-1.31,1.06-2.38,2.37-2.38,12.4.03,24.81.06,37.21.1,1.31,0,2.39,1.07,2.4,2.39.08,12.38.13,24.76.16,37.15ZM170.03,253.23c0,1.31-1.05,2.37-2.37,2.37-12.4-.04-24.81-.08-37.21-.1-1.31,0-2.39-1.07-2.39-2.39-.05-12.41-.12-24.81-.21-37.22,0-1.31,1.05-2.38,2.36-2.37,12.37.05,24.74.1,37.1.17,1.31,0,2.39,1.08,2.4,2.39.13,12.38.23,24.77.31,37.15ZM169.66,210.78c.01,1.31-1.04,2.37-2.35,2.36-12.37-.07-24.73-.13-37.1-.17-1.31,0-2.38-1.08-2.39-2.39-.09-12.41-.19-24.81-.31-37.22-.01-1.31,1.04-2.38,2.34-2.37,12.31.07,24.63.15,36.94.24,1.3.01,2.38,1.08,2.4,2.4.18,12.38.34,24.76.47,37.15ZM169.11,168.35c.02,1.31-1.02,2.37-2.33,2.36-12.31-.1-24.63-.18-36.94-.24-1.3,0-2.37-1.08-2.39-2.39-.12-12.41-.26-24.81-.42-37.22-.02-1.31,1.03-2.37,2.32-2.37,12.24.08,24.49.19,36.73.31,1.3.01,2.37,1.09,2.4,2.4.23,12.38.44,24.76.63,37.15ZM168.38,125.92c.03,1.31-1.01,2.37-2.3,2.35-12.24-.12-24.48-.23-36.73-.31-1.3,0-2.36-1.08-2.38-2.4-.16-12.41-.33-24.81-.52-37.22-.02-1.31,1.01-2.37,2.3-2.36,12.15.1,24.31.23,36.46.38,1.29.02,2.36,1.1,2.39,2.41.29,12.38.55,24.76.79,37.15ZM167.47,83.49c.03,1.31-.99,2.36-2.28,2.35-12.15-.15-24.3-.28-36.46-.38-1.29-.01-2.35-1.09-2.37-2.4-.19-12.41-.4-24.81-.63-37.22-.02-1.31.99-2.37,2.27-2.36,12.05.12,24.09.27,36.14.45,1.27.02,2.34,1.1,2.38,2.41.34,12.38.65,24.76.94,37.15ZM166.38,41.06c.04,1.31-.97,2.36-2.25,2.34-12.04-.18-24.09-.33-36.14-.45-1.27-.01-2.33-1.09-2.36-2.4-.23-12.41-.47-24.81-.73-37.22-.03-1.31.98-2.37,2.24-2.35,11.92.14,23.84.31,35.76.52,1.26.02,2.32,1.11,2.36,2.42.39,12.38.76,24.76,1.1,37.15ZM206.15,634.29c-.06,1.31-1.13,2.39-2.39,2.42-11.92.27-23.84.52-35.76.73-1.26.02-2.25-1.03-2.21-2.34.39-12.38.76-24.76,1.11-37.15.04-1.31,1.1-2.39,2.38-2.41,12.05-.18,24.09-.39,36.14-.63,1.27-.03,2.27,1.02,2.22,2.33-.46,12.35-.95,24.7-1.48,37.05ZM207.82,591.97c-.05,1.31-1.13,2.39-2.4,2.42-12.05.24-24.09.45-36.14.63-1.27.02-2.28-1.03-2.25-2.34.34-12.38.66-24.76.95-37.15.03-1.31,1.1-2.39,2.39-2.41,12.15-.16,24.31-.33,36.46-.53,1.29-.02,2.3,1.03,2.26,2.33-.39,12.35-.81,24.7-1.27,37.05ZM209.26,549.65c-.04,1.31-1.12,2.39-2.41,2.41-12.15.2-24.31.38-36.46.53-1.29.02-2.31-1.04-2.28-2.35.29-12.38.55-24.76.79-37.15.03-1.31,1.1-2.39,2.4-2.4,12.24-.13,24.48-.27,36.73-.44,1.3-.02,2.32,1.03,2.29,2.34-.32,12.35-.67,24.7-1.05,37.05ZM210.45,507.33c-.03,1.31-1.12,2.39-2.41,2.4-12.24.16-24.49.31-36.73.44-1.3.01-2.33-1.04-2.31-2.35.23-12.38.44-24.76.63-37.15.02-1.31,1.1-2.39,2.4-2.4,12.31-.1,24.63-.21,36.94-.34,1.3-.01,2.34,1.04,2.32,2.35-.25,12.35-.53,24.7-.84,37.05ZM211.4,465c-.03,1.31-1.11,2.38-2.41,2.4-12.31.13-24.63.24-36.94.34-1.3.01-2.35-1.05-2.33-2.36.18-12.38.34-24.76.47-37.15.01-1.31,1.09-2.38,2.4-2.39,12.37-.07,24.73-.15,37.1-.24,1.31,0,2.36,1.05,2.34,2.35-.18,12.35-.39,24.7-.63,37.05ZM212.1,422.68c-.02,1.31-1.1,2.38-2.41,2.39-12.37.09-24.74.17-37.1.24-1.31,0-2.36-1.05-2.35-2.36.13-12.38.23-24.76.32-37.15,0-1.31,1.08-2.38,2.4-2.39,12.4-.04,24.81-.09,37.21-.15,1.31,0,2.37,1.05,2.36,2.36-.11,12.35-.25,24.7-.42,37.05ZM212.57,380.36c-.01,1.31-1.09,2.38-2.4,2.38-12.4.05-24.81.1-37.21.15-1.31,0-2.37-1.06-2.37-2.37.08-12.38.13-24.76.16-37.15,0-1.31,1.08-2.38,2.39-2.38,12.42-.01,24.84-.03,37.26-.05,1.31,0,2.38,1.06,2.38,2.37-.04,12.35-.11,24.7-.21,37.05ZM212.8,338.04c0,1.31-1.08,2.37-2.39,2.37-12.42.02-24.84.03-37.26.05-1.31,0-2.38-1.06-2.38-2.37.02-12.38.02-24.76,0-37.15,0-1.31,1.07-2.38,2.38-2.37,12.42.01,24.84.03,37.26.05,1.31,0,2.39,1.07,2.39,2.37.03,12.35.03,24.7,0,37.05ZM212.78,295.72c0,1.31-1.06,2.37-2.38,2.37-12.42-.02-24.84-.03-37.26-.05-1.31,0-2.39-1.07-2.39-2.38-.03-12.38-.08-24.76-.16-37.15,0-1.31,1.05-2.37,2.37-2.37,12.4.04,24.81.09,37.21.15,1.31,0,2.39,1.07,2.4,2.38.1,12.35.17,24.7.21,37.05ZM212.52,253.4c.01,1.31-1.05,2.37-2.36,2.36-12.4-.05-24.81-.1-37.21-.15-1.31,0-2.39-1.07-2.4-2.39-.08-12.38-.19-24.76-.32-37.15-.01-1.31,1.04-2.37,2.35-2.36,12.37.07,24.74.15,37.1.24,1.31,0,2.39,1.08,2.41,2.39.17,12.35.31,24.7.42,37.05ZM212.03,211.08c.02,1.31-1.03,2.36-2.34,2.35-12.37-.09-24.73-.17-37.1-.24-1.31,0-2.39-1.08-2.4-2.39-.14-12.38-.29-24.76-.47-37.15-.02-1.31,1.03-2.37,2.33-2.36,12.31.1,24.63.21,36.94.34,1.3.01,2.39,1.09,2.41,2.4.24,12.35.45,24.7.63,37.05ZM211.29,168.75c.03,1.31-1.01,2.36-2.32,2.35-12.31-.13-24.63-.24-36.94-.34-1.3-.01-2.38-1.09-2.4-2.4-.19-12.38-.4-24.77-.63-37.15-.02-1.31,1.01-2.37,2.31-2.35,12.24.13,24.49.27,36.73.44,1.3.02,2.38,1.1,2.41,2.4.31,12.35.59,24.7.84,37.05ZM210.31,126.43c.03,1.31-.99,2.36-2.29,2.34-12.24-.16-24.48-.31-36.73-.44-1.3-.01-2.37-1.09-2.4-2.4-.24-12.38-.5-24.77-.79-37.15-.03-1.31.99-2.36,2.28-2.35,12.15.16,24.31.33,36.46.53,1.29.02,2.37,1.1,2.41,2.41.38,12.35.73,24.7,1.06,37.05ZM209.09,84.11c.04,1.31-.97,2.35-2.26,2.33-12.15-.2-24.3-.38-36.46-.54-1.29-.02-2.36-1.1-2.39-2.41-.29-12.38-.61-24.76-.95-37.15-.04-1.31.97-2.36,2.25-2.34,12.05.18,24.09.39,36.14.63,1.27.03,2.35,1.11,2.4,2.42.45,12.35.88,24.7,1.27,37.05ZM207.63,41.79c.05,1.31-.95,2.35-2.22,2.33-12.04-.24-24.09-.45-36.14-.63-1.27-.02-2.34-1.1-2.38-2.41-.35-12.38-.71-24.77-1.11-37.15-.04-1.31.95-2.36,2.21-2.34,11.92.21,23.84.45,35.76.73,1.26.03,2.33,1.12,2.39,2.42.52,12.35,1.02,24.7,1.48,37.05ZM247.03,633.23c-.07,1.3-1.15,2.39-2.42,2.43-11.92.34-23.84.66-35.77.94-1.26.03-2.24-1.01-2.19-2.32.52-12.35,1.02-24.7,1.48-37.05.05-1.31,1.13-2.39,2.4-2.42,12.05-.25,24.09-.52,36.14-.82,1.27-.03,2.26,1,2.2,2.31-.58,12.31-1.2,24.62-1.85,36.93ZM249.13,591.05c-.06,1.3-1.15,2.39-2.42,2.42-12.05.3-24.09.57-36.14.81-1.27.03-2.27-1.02-2.23-2.32.45-12.35.88-24.7,1.27-37.05.04-1.31,1.12-2.39,2.41-2.41,12.15-.21,24.31-.44,36.46-.69,1.29-.03,2.29,1.01,2.24,2.31-.49,12.31-1.02,24.62-1.59,36.93ZM250.92,548.87c-.05,1.3-1.14,2.38-2.43,2.41-12.15.25-24.31.48-36.46.69-1.29.02-2.3-1.02-2.26-2.33.38-12.35.74-24.7,1.06-37.05.03-1.31,1.12-2.39,2.41-2.4,12.24-.17,24.48-.36,36.73-.56,1.3-.02,2.32,1.02,2.27,2.32-.4,12.31-.84,24.62-1.32,36.93ZM252.41,506.69c-.04,1.3-1.13,2.38-2.43,2.4-12.24.21-24.49.39-36.73.56-1.3.02-2.32-1.03-2.29-2.34.31-12.35.6-24.7.85-37.05.03-1.31,1.11-2.38,2.41-2.4,12.31-.13,24.63-.28,36.94-.44,1.3-.02,2.34,1.03,2.3,2.33-.31,12.31-.67,24.62-1.06,36.93ZM253.6,464.51c-.03,1.3-1.12,2.38-2.42,2.39-12.31.16-24.63.31-36.94.44-1.3.01-2.34-1.04-2.32-2.35.24-12.35.45-24.7.63-37.05.02-1.31,1.1-2.38,2.41-2.39,12.37-.09,24.73-.2,37.1-.31,1.31-.01,2.35,1.04,2.33,2.34-.23,12.31-.49,24.62-.79,36.93ZM254.49,422.33c-.02,1.3-1.11,2.37-2.42,2.39-12.37.11-24.74.22-37.1.31-1.31,0-2.36-1.05-2.34-2.35.17-12.35.31-24.7.42-37.05.01-1.31,1.09-2.38,2.4-2.38,12.4-.06,24.81-.12,37.21-.19,1.31,0,2.37,1.05,2.35,2.35-.14,12.31-.31,24.62-.53,36.93ZM255.08,380.15c-.01,1.3-1.09,2.37-2.41,2.38-12.4.07-24.81.13-37.21.19-1.31,0-2.37-1.05-2.36-2.36.1-12.35.17-24.7.21-37.05,0-1.31,1.08-2.37,2.39-2.37,12.42-.02,24.84-.04,37.26-.06,1.31,0,2.38,1.06,2.38,2.36-.05,12.31-.14,24.62-.26,36.93ZM255.36,337.98c0,1.3-1.08,2.36-2.39,2.37-12.42.02-24.84.04-37.26.06-1.31,0-2.38-1.06-2.38-2.37.03-12.35.03-24.7,0-37.05,0-1.31,1.06-2.37,2.38-2.37,12.42.02,24.84.04,37.26.06,1.31,0,2.39,1.06,2.39,2.37.04,12.31.04,24.62,0,36.93ZM255.34,295.8c0,1.3-1.06,2.36-2.38,2.36-12.42-.02-24.84-.04-37.26-.06-1.31,0-2.39-1.07-2.39-2.37-.04-12.35-.11-24.7-.21-37.05-.01-1.31,1.05-2.37,2.36-2.36,12.4.06,24.81.12,37.21.19,1.31,0,2.39,1.07,2.41,2.38.13,12.31.21,24.62.26,36.93ZM255.02,253.62c.01,1.3-1.04,2.36-2.35,2.35-12.4-.07-24.81-.13-37.21-.19-1.31,0-2.39-1.07-2.4-2.38-.11-12.35-.25-24.7-.42-37.05-.02-1.31,1.03-2.36,2.34-2.35,12.37.09,24.74.2,37.1.31,1.31.01,2.39,1.08,2.42,2.39.21,12.31.39,24.62.53,36.93ZM254.4,211.45c.02,1.3-1.02,2.35-2.33,2.34-12.37-.12-24.73-.22-37.1-.31-1.31-.01-2.39-1.08-2.41-2.39-.18-12.35-.39-24.7-.64-37.05-.03-1.31,1.01-2.36,2.32-2.35,12.31.13,24.63.28,36.94.44,1.3.02,2.39,1.09,2.42,2.39.3,12.31.57,24.62.79,36.93ZM253.47,169.26c.03,1.3-1,2.35-2.3,2.33-12.31-.16-24.63-.31-36.94-.44-1.3-.01-2.39-1.09-2.41-2.4-.25-12.35-.53-24.7-.85-37.05-.03-1.31.99-2.36,2.29-2.34,12.24.17,24.49.36,36.73.56,1.3.02,2.38,1.1,2.43,2.4.39,12.31.74,24.62,1.06,36.93ZM252.24,127.08c.04,1.3-.98,2.34-2.27,2.32-12.24-.21-24.48-.4-36.73-.57-1.3-.02-2.38-1.1-2.41-2.4-.32-12.35-.68-24.7-1.06-37.05-.04-1.31.97-2.35,2.26-2.33,12.15.21,24.31.44,36.46.69,1.29.03,2.38,1.11,2.43,2.41.48,12.31.92,24.62,1.32,36.93ZM250.71,84.9c.05,1.3-.95,2.34-2.24,2.31-12.15-.25-24.3-.48-36.46-.69-1.29-.02-2.37-1.1-2.41-2.41-.39-12.35-.82-24.7-1.27-37.05-.05-1.31.95-2.35,2.23-2.32,12.05.24,24.09.52,36.14.81,1.27.03,2.36,1.12,2.42,2.42.57,12.31,1.1,24.62,1.59,36.93ZM248.88,42.73c.06,1.3-.93,2.34-2.2,2.31-12.04-.3-24.09-.57-36.14-.82-1.27-.03-2.35-1.11-2.4-2.42-.46-12.35-.96-24.7-1.48-37.05-.06-1.31.93-2.35,2.19-2.32,11.92.28,23.84.6,35.76.94,1.26.04,2.35,1.13,2.42,2.43.66,12.31,1.27,24.62,1.85,36.93ZM287.9,631.92c-.08,1.3-1.18,2.39-2.44,2.43-11.92.41-23.84.8-35.76,1.15-1.26.04-2.23-.99-2.16-2.3.66-12.31,1.28-24.61,1.86-36.92.06-1.3,1.15-2.39,2.42-2.42,12.05-.31,24.09-.64,36.13-1,1.27-.04,2.25.99,2.18,2.28-.7,12.26-1.44,24.52-2.23,36.77ZM290.43,589.92c-.07,1.3-1.17,2.38-2.44,2.42-12.05.36-24.09.69-36.14,1-1.27.03-2.26-1-2.2-2.3.57-12.31,1.1-24.61,1.59-36.92.05-1.3,1.14-2.38,2.43-2.41,12.15-.26,24.3-.54,36.46-.85,1.29-.03,2.28,1,2.22,2.29-.59,12.26-1.23,24.52-1.91,36.77ZM292.58,547.92c-.06,1.3-1.16,2.38-2.44,2.41-12.15.3-24.31.59-36.46.84-1.29.03-2.29-1.01-2.24-2.31.48-12.31.92-24.61,1.33-36.92.04-1.3,1.13-2.38,2.43-2.4,12.24-.21,24.48-.44,36.72-.69,1.3-.03,2.31,1.01,2.26,2.31-.48,12.26-1.01,24.52-1.59,36.77ZM294.38,505.92c-.05,1.3-1.15,2.37-2.44,2.4-12.24.25-24.48.48-36.73.69-1.3.02-2.32-1.02-2.27-2.32.39-12.31.75-24.62,1.06-36.92.03-1.3,1.12-2.38,2.42-2.39,12.31-.17,24.63-.34,36.94-.54,1.3-.02,2.33,1.02,2.29,2.32-.38,12.26-.8,24.52-1.27,36.77ZM295.81,463.9c-.04,1.3-1.13,2.37-2.43,2.39-12.31.19-24.63.37-36.94.54-1.3.02-2.34-1.03-2.31-2.33.3-12.31.57-24.62.8-36.92.02-1.3,1.11-2.37,2.42-2.39,12.37-.12,24.73-.25,37.1-.38,1.31-.01,2.35,1.03,2.32,2.33-.27,12.26-.59,24.52-.95,36.77ZM296.88,421.9c-.03,1.3-1.12,2.37-2.42,2.38-12.37.14-24.73.27-37.1.38-1.31.01-2.35-1.04-2.33-2.34.22-12.31.39-24.62.53-36.92.01-1.3,1.09-2.37,2.41-2.38,12.4-.07,24.81-.15,37.21-.23,1.31,0,2.37,1.04,2.35,2.34-.17,12.26-.38,24.52-.64,36.77ZM297.58,379.9c-.02,1.3-1.1,2.36-2.41,2.37-12.4.08-24.81.16-37.21.23-1.31,0-2.37-1.05-2.36-2.35.13-12.31.22-24.62.27-36.92,0-1.3,1.08-2.36,2.39-2.37,12.42-.02,24.84-.05,37.26-.08,1.31,0,2.38,1.05,2.37,2.35-.06,12.26-.17,24.52-.32,36.77ZM297.92,337.9c0,1.3-1.08,2.36-2.39,2.36-12.42.03-24.84.05-37.26.08-1.31,0-2.38-1.06-2.38-2.36.04-12.31.04-24.62,0-36.92,0-1.3,1.06-2.36,2.38-2.36,12.42.02,24.84.05,37.26.08,1.31,0,2.39,1.06,2.39,2.36.05,12.26.05,24.51,0,36.77ZM297.9,295.9c0,1.3-1.06,2.35-2.37,2.35-12.42-.03-24.84-.05-37.26-.08-1.31,0-2.39-1.06-2.39-2.37-.05-12.31-.14-24.62-.27-36.92-.01-1.3,1.04-2.36,2.36-2.35,12.4.07,24.81.15,37.21.23,1.31,0,2.4,1.07,2.41,2.37.15,12.26.26,24.51.32,36.77ZM297.51,253.9c.02,1.3-1.04,2.35-2.35,2.34-12.4-.08-24.81-.16-37.21-.23-1.31,0-2.39-1.07-2.41-2.38-.14-12.31-.31-24.62-.53-36.92-.02-1.3,1.02-2.35,2.33-2.34,12.37.12,24.73.25,37.1.38,1.31.01,2.4,1.08,2.42,2.38.26,12.26.47,24.51.64,36.77ZM296.76,211.9c.03,1.3-1.01,2.34-2.32,2.33-12.37-.14-24.73-.27-37.1-.39-1.31-.01-2.39-1.08-2.42-2.39-.23-12.31-.49-24.62-.8-36.92-.03-1.3,1-2.35,2.31-2.33,12.31.16,24.63.34,36.94.54,1.3.02,2.4,1.09,2.44,2.39.36,12.26.68,24.51.95,36.77ZM295.65,169.88c.04,1.3-.99,2.34-2.29,2.32-12.31-.19-24.63-.37-36.94-.54-1.3-.02-2.39-1.09-2.42-2.39-.31-12.31-.67-24.62-1.06-36.92-.04-1.3.98-2.34,2.27-2.32,12.24.21,24.49.44,36.73.69,1.3.03,2.39,1.1,2.44,2.4.47,12.26.9,24.51,1.27,36.77ZM294.17,127.88c.05,1.3-.96,2.33-2.26,2.31-12.24-.25-24.48-.48-36.73-.69-1.3-.02-2.38-1.1-2.43-2.4-.4-12.31-.85-24.62-1.33-36.92-.05-1.3.95-2.34,2.24-2.31,12.15.26,24.31.54,36.46.84,1.29.03,2.38,1.11,2.44,2.41.58,12.26,1.11,24.51,1.59,36.77ZM292.33,85.88c.06,1.3-.93,2.33-2.22,2.29-12.15-.3-24.3-.59-36.46-.85-1.29-.03-2.37-1.11-2.43-2.41-.49-12.31-1.02-24.62-1.59-36.92-.06-1.3.93-2.34,2.2-2.3,12.05.31,24.09.64,36.14,1,1.27.04,2.37,1.12,2.44,2.42.68,12.25,1.32,24.51,1.91,36.77ZM290.13,43.88c.07,1.3-.9,2.32-2.18,2.28-12.04-.36-24.09-.69-36.13-1-1.27-.03-2.36-1.12-2.42-2.42-.58-12.31-1.2-24.62-1.86-36.92-.07-1.3.9-2.33,2.16-2.3,11.92.35,23.84.74,35.76,1.15,1.26.04,2.36,1.14,2.44,2.43.79,12.25,1.53,24.51,2.23,36.77ZM328.78,630.38c-.1,1.29-1.21,2.38-2.47,2.44-11.92.48-23.84.94-35.77,1.36-1.26.04-2.22-.98-2.14-2.27.79-12.25,1.53-24.51,2.23-36.77.07-1.3,1.17-2.38,2.45-2.42,12.05-.37,24.09-.76,36.14-1.18,1.27-.04,2.24.97,2.16,2.26-.81,12.2-1.68,24.4-2.6,36.59ZM331.73,588.58c-.08,1.29-1.19,2.38-2.47,2.42-12.05.42-24.09.81-36.14,1.18-1.27.04-2.25-.99-2.18-2.28.68-12.25,1.32-24.51,1.91-36.77.06-1.3,1.16-2.38,2.45-2.41,12.15-.31,24.31-.64,36.46-1,1.29-.04,2.27.98,2.2,2.27-.69,12.2-1.43,24.4-2.23,36.59ZM334.25,546.79c-.07,1.29-1.18,2.37-2.46,2.41-12.15.36-24.31.69-36.46,1-1.29.03-2.28-1-2.22-2.29.58-12.25,1.11-24.51,1.59-36.77.05-1.3,1.15-2.37,2.44-2.4,12.24-.25,24.48-.53,36.73-.82,1.3-.03,2.3.99,2.24,2.29-.57,12.2-1.19,24.4-1.86,36.59ZM336.35,505c-.06,1.29-1.16,2.37-2.46,2.4-12.24.29-24.49.56-36.73.82-1.3.03-2.31-1.01-2.26-2.3.47-12.26.9-24.51,1.28-36.77.04-1.3,1.13-2.37,2.44-2.39,12.31-.2,24.63-.41,36.94-.64,1.3-.02,2.33,1.01,2.28,2.3-.44,12.2-.94,24.4-1.49,36.59ZM338.02,463.19c-.04,1.29-1.14,2.36-2.45,2.39-12.31.23-24.63.44-36.94.64-1.3.02-2.33-1.02-2.29-2.32.37-12.26.68-24.51.96-36.77.03-1.3,1.12-2.37,2.43-2.38,12.37-.14,24.73-.29,37.1-.46,1.31-.02,2.35,1.02,2.31,2.31-.32,12.2-.69,24.4-1.12,36.59ZM339.27,421.4c-.03,1.29-1.12,2.36-2.43,2.37-12.37.16-24.74.31-37.1.45-1.31.01-2.35-1.03-2.32-2.33.26-12.26.47-24.51.64-36.77.02-1.3,1.1-2.36,2.41-2.37,12.4-.09,24.81-.18,37.21-.27,1.31-.01,2.37,1.03,2.34,2.32-.19,12.2-.44,24.4-.74,36.59ZM340.09,379.6c-.02,1.29-1.1,2.35-2.42,2.36-12.4.1-24.81.19-37.21.27-1.31,0-2.37-1.04-2.35-2.34.15-12.26.26-24.51.32-36.77,0-1.3,1.08-2.36,2.4-2.36,12.42-.03,24.84-.06,37.26-.09,1.31,0,2.38,1.04,2.37,2.34-.07,12.2-.19,24.39-.37,36.59ZM340.49,337.81c0,1.29-1.08,2.34-2.4,2.35-12.42.03-24.84.06-37.26.09-1.31,0-2.38-1.05-2.38-2.35.05-12.26.05-24.51,0-36.77,0-1.3,1.06-2.35,2.38-2.35,12.42.03,24.84.06,37.26.09,1.31,0,2.39,1.06,2.4,2.35.05,12.2.05,24.39,0,36.59ZM340.46,296.01c0,1.29-1.06,2.34-2.37,2.34-12.42-.03-24.84-.06-37.26-.09-1.31,0-2.39-1.06-2.4-2.36-.06-12.26-.17-24.51-.32-36.77-.02-1.3,1.04-2.35,2.35-2.34,12.4.08,24.81.17,37.21.27,1.31.01,2.4,1.07,2.42,2.36.18,12.2.3,24.39.37,36.59ZM340.01,254.22c.02,1.29-1.03,2.33-2.34,2.32-12.4-.1-24.81-.19-37.21-.27-1.31,0-2.39-1.07-2.41-2.37-.17-12.26-.38-24.51-.64-36.77-.03-1.3,1.02-2.34,2.32-2.33,12.37.14,24.74.29,37.1.45,1.31.02,2.4,1.08,2.43,2.37.3,12.2.55,24.39.74,36.59ZM339.13,212.43c.03,1.29-1,2.33-2.31,2.31-12.37-.16-24.73-.31-37.1-.46-1.31-.01-2.4-1.08-2.43-2.38-.27-12.26-.59-24.51-.96-36.77-.04-1.3.99-2.34,2.29-2.32,12.31.2,24.63.41,36.94.64,1.3.02,2.4,1.09,2.45,2.39.43,12.2.8,24.39,1.12,36.59ZM337.83,170.62c.05,1.29-.98,2.32-2.28,2.3-12.31-.23-24.63-.44-36.94-.64-1.3-.02-2.4-1.09-2.44-2.39-.38-12.26-.8-24.52-1.28-36.77-.05-1.3.96-2.33,2.26-2.3,12.24.25,24.49.53,36.73.82,1.3.03,2.4,1.11,2.46,2.4.55,12.19,1.05,24.39,1.49,36.59ZM336.11,128.83c.06,1.29-.95,2.32-2.24,2.29-12.24-.29-24.48-.56-36.73-.82-1.3-.03-2.39-1.1-2.44-2.4-.49-12.26-1.02-24.52-1.59-36.77-.06-1.3.94-2.33,2.22-2.29,12.15.31,24.31.64,36.46,1,1.29.04,2.39,1.12,2.46,2.41.67,12.19,1.29,24.39,1.86,36.59ZM333.97,87.03c.07,1.29-.92,2.31-2.2,2.27-12.15-.36-24.3-.69-36.46-1-1.29-.03-2.38-1.11-2.45-2.41-.59-12.26-1.23-24.52-1.91-36.77-.07-1.3.91-2.32,2.18-2.28,12.05.37,24.09.76,36.14,1.18,1.27.04,2.38,1.13,2.47,2.42.8,12.19,1.54,24.39,2.23,36.59ZM331.39,45.24c.09,1.29-.88,2.3-2.16,2.26-12.04-.42-24.09-.82-36.13-1.18-1.27-.04-2.37-1.13-2.45-2.42-.7-12.26-1.44-24.52-2.23-36.77-.08-1.3.88-2.32,2.14-2.27,11.92.42,23.84.88,35.76,1.36,1.26.05,2.37,1.14,2.47,2.44.92,12.19,1.79,24.39,2.6,36.59ZM369.67,628.6c-.11,1.28-1.23,2.38-2.49,2.44-11.92.56-23.84,1.08-35.77,1.57-1.26.05-2.21-.96-2.11-2.25.92-12.19,1.79-24.39,2.61-36.59.09-1.29,1.19-2.38,2.47-2.42,12.05-.43,24.09-.88,36.14-1.37,1.27-.05,2.23.95,2.13,2.24-.93,12.13-1.92,24.26-2.98,36.38ZM373.04,587.04c-.1,1.28-1.21,2.37-2.49,2.42-12.05.48-24.09.94-36.14,1.36-1.27.05-2.24-.97-2.16-2.26.8-12.19,1.54-24.39,2.23-36.59.07-1.29,1.18-2.37,2.46-2.41,12.15-.36,24.31-.75,36.46-1.16,1.29-.04,2.27.97,2.18,2.25-.79,12.13-1.64,24.26-2.55,36.38ZM375.92,545.49c-.08,1.28-1.2,2.36-2.48,2.41-12.15.41-24.31.79-36.46,1.15-1.29.04-2.27-.98-2.2-2.27.67-12.19,1.3-24.39,1.86-36.59.06-1.29,1.16-2.37,2.46-2.4,12.24-.3,24.48-.61,36.73-.95,1.3-.04,2.3.98,2.23,2.26-.65,12.13-1.36,24.26-2.13,36.38ZM378.32,503.93c-.07,1.28-1.18,2.36-2.47,2.39-12.24.33-24.49.65-36.73.94-1.3.03-2.3-.99-2.24-2.28.55-12.19,1.05-24.39,1.49-36.59.05-1.29,1.15-2.36,2.45-2.39,12.31-.23,24.63-.48,36.94-.74,1.3-.03,2.32.99,2.27,2.28-.51,12.13-1.07,24.26-1.7,36.38ZM380.24,462.38c-.05,1.28-1.16,2.35-2.46,2.38-12.31.26-24.63.5-36.94.73-1.3.02-2.33-1.01-2.28-2.3.43-12.19.8-24.39,1.12-36.59.03-1.29,1.13-2.36,2.43-2.37,12.37-.17,24.73-.34,37.1-.53,1.31-.02,2.34,1.01,2.31,2.29-.36,12.13-.79,24.26-1.28,36.38ZM381.66,420.81c-.04,1.28-1.13,2.34-2.44,2.36-12.37.18-24.74.36-37.1.52-1.31.02-2.35-1.02-2.32-2.31.3-12.19.55-24.39.75-36.59.02-1.29,1.1-2.35,2.42-2.36,12.4-.1,24.81-.2,37.21-.32,1.31-.01,2.36,1.02,2.34,2.31-.22,12.13-.5,24.26-.85,36.38ZM382.61,379.26c-.02,1.28-1.11,2.34-2.42,2.35-12.4.11-24.81.22-37.21.31-1.31.01-2.36-1.03-2.35-2.32.18-12.2.3-24.39.37-36.59,0-1.29,1.08-2.34,2.4-2.35,12.42-.03,24.84-.07,37.26-.11,1.31,0,2.38,1.04,2.37,2.32-.08,12.13-.22,24.25-.43,36.38ZM383.06,337.7c0,1.28-1.08,2.33-2.4,2.34-12.42.04-24.84.07-37.26.1-1.31,0-2.38-1.04-2.37-2.34.05-12.2.05-24.39,0-36.59,0-1.29,1.06-2.34,2.37-2.34,12.42.03,24.84.07,37.26.1,1.31,0,2.39,1.05,2.4,2.34.06,12.13.06,24.25,0,36.38ZM383.03,296.15c0,1.28-1.06,2.32-2.37,2.32-12.42-.04-24.84-.07-37.26-.11-1.31,0-2.39-1.06-2.4-2.35-.07-12.2-.19-24.39-.37-36.59-.02-1.29,1.03-2.33,2.35-2.32,12.4.1,24.81.2,37.21.31,1.31.01,2.4,1.07,2.42,2.35.2,12.13.35,24.25.43,36.38ZM382.51,254.6c.02,1.28-1.03,2.32-2.34,2.31-12.4-.11-24.81-.22-37.21-.32-1.31-.01-2.4-1.07-2.42-2.36-.19-12.2-.44-24.39-.75-36.59-.03-1.29,1.01-2.33,2.32-2.31,12.37.16,24.74.34,37.1.52,1.31.02,2.41,1.08,2.44,2.36.35,12.13.63,24.25.85,36.38ZM381.51,213.04c.04,1.28-1,2.31-2.31,2.29-12.37-.19-24.73-.36-37.1-.53-1.31-.02-2.4-1.08-2.43-2.37-.32-12.2-.69-24.39-1.12-36.59-.05-1.29.98-2.32,2.28-2.3,12.31.23,24.63.47,36.94.73,1.3.03,2.41,1.09,2.46,2.38.49,12.12.91,24.25,1.28,36.38ZM380.02,171.48c.05,1.28-.96,2.31-2.27,2.28-12.31-.26-24.63-.51-36.94-.74-1.3-.02-2.4-1.09-2.45-2.39-.44-12.2-.94-24.39-1.49-36.59-.06-1.29.95-2.32,2.24-2.28,12.24.3,24.49.61,36.73.94,1.3.04,2.41,1.11,2.47,2.39.63,12.12,1.2,24.25,1.7,36.38ZM378.05,129.92c.07,1.28-.93,2.3-2.23,2.26-12.24-.33-24.48-.65-36.73-.95-1.3-.03-2.4-1.11-2.46-2.4-.57-12.2-1.19-24.4-1.86-36.59-.07-1.29.92-2.31,2.2-2.27,12.15.36,24.31.75,36.46,1.15,1.29.04,2.4,1.12,2.48,2.41.77,12.12,1.48,24.25,2.13,36.38ZM375.59,88.37c.08,1.28-.9,2.29-2.18,2.25-12.15-.41-24.3-.79-36.46-1.16-1.29-.04-2.39-1.12-2.47-2.41-.69-12.2-1.44-24.4-2.24-36.59-.08-1.29.88-2.3,2.16-2.26,12.05.43,24.09.88,36.14,1.36,1.27.05,2.39,1.14,2.49,2.42.91,12.12,1.76,24.25,2.55,36.38ZM372.64,46.81c.1,1.28-.86,2.29-2.13,2.24-12.04-.48-24.09-.94-36.14-1.37-1.27-.05-2.38-1.13-2.47-2.42-.82-12.2-1.69-24.4-2.61-36.59-.1-1.29.85-2.3,2.11-2.25,11.92.49,23.84,1.02,35.76,1.57,1.26.06,2.38,1.15,2.49,2.44,1.05,12.12,2.05,24.25,2.98,36.38ZM410.54,626.57c-.13,1.27-1.26,2.37-2.52,2.43-11.92.63-23.84,1.22-35.77,1.79-1.26.06-2.2-.94-2.08-2.22,1.06-12.12,2.05-24.25,2.98-36.38.1-1.28,1.22-2.37,2.49-2.42,12.05-.49,24.09-1.01,36.14-1.55,1.27-.06,2.22.93,2.11,2.21-1.05,12.05-2.17,24.1-3.35,36.14ZM414.34,585.29c-.11,1.27-1.24,2.36-2.51,2.42-12.05.54-24.09,1.06-36.14,1.55-1.27.05-2.23-.95-2.14-2.23.91-12.12,1.77-24.25,2.56-36.38.08-1.28,1.2-2.36,2.48-2.41,12.15-.41,24.31-.85,36.46-1.31,1.29-.05,2.26.95,2.16,2.22-.89,12.05-1.85,24.1-2.87,36.14ZM417.59,544.01c-.09,1.27-1.21,2.35-2.5,2.4-12.15.46-24.31.9-36.46,1.31-1.29.04-2.27-.97-2.18-2.25.77-12.12,1.48-24.25,2.13-36.38.07-1.28,1.18-2.36,2.47-2.39,12.24-.34,24.48-.7,36.73-1.07,1.3-.04,2.29.97,2.21,2.24-.73,12.05-1.53,24.1-2.4,36.14ZM420.29,502.73c-.07,1.27-1.19,2.35-2.49,2.39-12.24.38-24.49.73-36.73,1.07-1.3.04-2.29-.98-2.23-2.26.63-12.12,1.2-24.25,1.7-36.38.05-1.28,1.16-2.35,2.46-2.38,12.31-.26,24.63-.54,36.94-.84,1.3-.03,2.32.98,2.26,2.26-.57,12.05-1.21,24.1-1.92,36.14ZM422.44,461.44c-.06,1.27-1.17,2.34-2.47,2.37-12.31.29-24.63.57-36.94.83-1.3.03-2.32-.99-2.27-2.28.49-12.12.91-24.25,1.28-36.38.04-1.28,1.13-2.34,2.44-2.36,12.37-.19,24.73-.39,37.1-.6,1.31-.02,2.34,1,2.3,2.27-.41,12.05-.89,24.1-1.44,36.14ZM424.05,420.15c-.04,1.27-1.14,2.33-2.45,2.35-12.37.21-24.74.41-37.1.59-1.31.02-2.34-1.01-2.31-2.29.35-12.12.63-24.25.85-36.38.02-1.28,1.11-2.34,2.42-2.35,12.4-.11,24.81-.23,37.21-.36,1.31-.01,2.36,1.01,2.33,2.29-.25,12.05-.57,24.1-.96,36.14ZM425.11,378.87c-.02,1.27-1.11,2.32-2.43,2.34-12.4.12-24.81.24-37.21.36-1.31.01-2.36-1.02-2.34-2.31.2-12.13.35-24.25.43-36.38,0-1.28,1.08-2.33,2.4-2.34,12.42-.04,24.84-.08,37.26-.12,1.31,0,2.38,1.03,2.37,2.3-.09,12.05-.25,24.1-.48,36.14ZM425.62,337.59c0,1.27-1.08,2.32-2.4,2.32-12.42.04-24.84.08-37.26.12-1.31,0-2.38-1.04-2.37-2.32.06-12.13.06-24.25,0-36.38,0-1.28,1.06-2.32,2.37-2.32,12.42.04,24.84.08,37.26.12,1.31,0,2.39,1.05,2.4,2.32.07,12.05.07,24.1,0,36.14ZM425.59,296.3c0,1.28-1.05,2.31-2.37,2.3-12.42-.04-24.84-.08-37.26-.12-1.31,0-2.39-1.05-2.4-2.34-.08-12.13-.22-24.25-.43-36.38-.02-1.28,1.03-2.32,2.34-2.31,12.4.11,24.81.23,37.21.36,1.31.01,2.4,1.06,2.43,2.34.23,12.05.39,24.09.48,36.14ZM425.01,255.02c.03,1.28-1.02,2.3-2.33,2.29-12.4-.13-24.81-.25-37.21-.36-1.31-.01-2.4-1.07-2.42-2.35-.22-12.13-.51-24.25-.85-36.38-.04-1.28,1-2.31,2.31-2.29,12.37.19,24.74.39,37.1.59,1.31.02,2.41,1.08,2.45,2.35.39,12.05.71,24.09.96,36.14ZM423.88,213.74c.04,1.28-.99,2.29-2.3,2.27-12.37-.21-24.73-.41-37.1-.6-1.31-.02-2.4-1.08-2.44-2.36-.36-12.13-.79-24.25-1.28-36.38-.05-1.28.97-2.31,2.27-2.28,12.31.26,24.63.54,36.94.83,1.3.03,2.41,1.09,2.47,2.37.55,12.04,1.03,24.09,1.44,36.14ZM422.2,172.45c.06,1.28-.95,2.29-2.26,2.26-12.31-.29-24.63-.57-36.94-.84-1.3-.03-2.41-1.09-2.46-2.38-.51-12.13-1.07-24.26-1.7-36.38-.07-1.28.93-2.3,2.23-2.26,12.24.34,24.49.7,36.73,1.07,1.3.04,2.41,1.11,2.49,2.39.71,12.04,1.35,24.09,1.92,36.14ZM419.98,131.16c.08,1.28-.92,2.28-2.21,2.24-12.24-.38-24.48-.73-36.73-1.07-1.3-.04-2.41-1.11-2.47-2.39-.65-12.13-1.36-24.26-2.13-36.38-.08-1.28.9-2.29,2.18-2.25,12.15.41,24.31.85,36.46,1.31,1.29.05,2.41,1.13,2.5,2.4.87,12.04,1.67,24.09,2.4,36.14ZM417.21,89.88c.09,1.28-.88,2.27-2.16,2.22-12.15-.46-24.3-.9-36.46-1.31-1.29-.04-2.4-1.12-2.48-2.41-.79-12.13-1.64-24.26-2.56-36.38-.1-1.28.86-2.29,2.14-2.23,12.05.49,24.09,1,36.14,1.55,1.27.06,2.4,1.14,2.51,2.42,1.03,12.04,1.99,24.09,2.88,36.14ZM413.89,48.6c.11,1.28-.84,2.27-2.11,2.21-12.04-.54-24.09-1.06-36.14-1.55-1.27-.05-2.39-1.14-2.49-2.42-.93-12.13-1.93-24.26-2.98-36.38-.11-1.28.82-2.28,2.08-2.22,11.92.56,23.84,1.16,35.76,1.79,1.26.07,2.39,1.16,2.52,2.43,1.19,12.04,2.31,24.09,3.35,36.14ZM451.42,624.31c-.14,1.27-1.28,2.36-2.54,2.43-11.92.7-23.84,1.36-35.76,2-1.26.07-2.19-.92-2.06-2.19,1.19-12.04,2.31-24.09,3.36-36.14.11-1.27,1.24-2.36,2.51-2.42,12.05-.55,24.09-1.13,36.14-1.73,1.27-.06,2.21.91,2.09,2.18-1.17,11.97-2.41,23.93-3.73,35.88ZM455.64,583.33c-.12,1.27-1.26,2.35-2.53,2.41-12.04.6-24.09,1.18-36.14,1.73-1.27.06-2.22-.93-2.11-2.21,1.03-12.04,1.99-24.09,2.88-36.14.09-1.27,1.22-2.35,2.5-2.4,12.15-.47,24.31-.96,36.46-1.47,1.29-.05,2.25.93,2.14,2.2-.99,11.97-2.05,23.92-3.2,35.88ZM459.25,542.36c-.1,1.27-1.23,2.34-2.52,2.39-12.15.51-24.31,1-36.46,1.46-1.29.05-2.26-.95-2.17-2.22.87-12.04,1.67-24.09,2.4-36.14.08-1.27,1.19-2.35,2.49-2.39,12.24-.38,24.48-.78,36.73-1.2,1.3-.04,2.28.95,2.2,2.22-.81,11.96-1.7,23.92-2.66,35.88ZM462.26,501.38c-.08,1.27-1.21,2.33-2.5,2.38-12.24.42-24.48.82-36.73,1.2-1.3.04-2.29-.97-2.21-2.24.71-12.04,1.35-24.09,1.92-36.14.06-1.27,1.17-2.34,2.47-2.37,12.31-.3,24.63-.61,36.94-.93,1.3-.03,2.31.97,2.24,2.23-.63,11.96-1.34,23.92-2.13,35.88ZM464.65,460.4c-.06,1.27-1.18,2.32-2.48,2.36-12.31.32-24.63.63-36.94.93-1.3.03-2.32-.98-2.26-2.26.55-12.04,1.03-24.09,1.44-36.14.04-1.27,1.14-2.33,2.45-2.35,12.37-.21,24.73-.43,37.1-.67,1.31-.02,2.34.99,2.29,2.25-.46,11.96-.99,23.92-1.6,35.88ZM466.44,419.41c-.05,1.27-1.15,2.32-2.46,2.34-12.37.23-24.74.45-37.1.66-1.31.02-2.34-1-2.3-2.27.39-12.04.71-24.09.96-36.14.03-1.27,1.12-2.32,2.43-2.34,12.4-.13,24.81-.26,37.21-.4,1.31-.01,2.36,1,2.33,2.27-.28,11.96-.63,23.92-1.06,35.88ZM467.62,378.43c-.03,1.27-1.12,2.31-2.43,2.32-12.4.14-24.81.27-37.21.4-1.31.01-2.36-1.01-2.34-2.29.23-12.05.39-24.09.48-36.14,0-1.27,1.09-2.32,2.4-2.32,12.42-.04,24.84-.09,37.26-.13,1.31,0,2.38,1.02,2.37,2.29-.1,11.96-.28,23.92-.53,35.88ZM468.19,337.45c0,1.27-1.09,2.3-2.4,2.3-12.42.05-24.84.09-37.26.13-1.31,0-2.38-1.03-2.37-2.3.07-12.05.07-24.09,0-36.14,0-1.28,1.06-2.31,2.37-2.3,12.42.04,24.84.09,37.26.13,1.31,0,2.39,1.04,2.4,2.3.08,11.96.08,23.92,0,35.88ZM468.15,296.47c.01,1.27-1.05,2.29-2.37,2.29-12.42-.05-24.84-.09-37.26-.14-1.31,0-2.39-1.05-2.4-2.32-.09-12.05-.25-24.09-.48-36.14-.02-1.28,1.02-2.3,2.34-2.29,12.4.13,24.81.26,37.21.4,1.31.01,2.4,1.06,2.43,2.32.26,11.96.43,23.92.53,35.88ZM467.5,255.5c.03,1.27-1.02,2.28-2.33,2.27-12.4-.14-24.81-.27-37.21-.4-1.31-.01-2.4-1.06-2.43-2.34-.25-12.05-.57-24.1-.96-36.14-.04-1.28.99-2.29,2.3-2.27,12.37.21,24.74.43,37.1.66,1.31.02,2.41,1.07,2.46,2.34.43,11.96.79,23.92,1.07,35.88ZM466.25,214.52c.05,1.27-.98,2.28-2.29,2.25-12.37-.23-24.73-.46-37.1-.67-1.31-.02-2.41-1.08-2.45-2.35-.41-12.05-.89-24.1-1.44-36.14-.06-1.28.95-2.29,2.26-2.26,12.31.3,24.63.61,36.94.93,1.3.03,2.42,1.09,2.48,2.36.61,11.96,1.14,23.91,1.6,35.88ZM464.39,173.53c.07,1.27-.94,2.27-2.24,2.23-12.31-.33-24.63-.64-36.94-.93-1.3-.03-2.41-1.09-2.47-2.37-.57-12.05-1.21-24.1-1.92-36.14-.08-1.28.92-2.28,2.21-2.24,12.24.38,24.49.78,36.73,1.2,1.3.04,2.42,1.11,2.5,2.38.79,11.95,1.5,23.91,2.13,35.88ZM461.91,132.55c.09,1.27-.9,2.26-2.2,2.22-12.24-.42-24.48-.82-36.73-1.2-1.3-.04-2.41-1.11-2.49-2.39-.73-12.05-1.53-24.1-2.4-36.14-.09-1.28.88-2.27,2.17-2.22,12.15.47,24.31.95,36.46,1.46,1.29.05,2.42,1.13,2.52,2.39.97,11.95,1.85,23.91,2.66,35.88ZM458.83,91.57c.1,1.27-.86,2.25-2.14,2.2-12.15-.51-24.3-1-36.46-1.47-1.29-.05-2.41-1.13-2.5-2.4-.89-12.05-1.85-24.1-2.88-36.14-.11-1.28.84-2.27,2.11-2.21,12.05.55,24.09,1.13,36.14,1.73,1.27.06,2.41,1.15,2.53,2.41,1.14,11.95,2.21,23.91,3.2,35.88ZM455.14,50.59c.12,1.27-.81,2.24-2.09,2.18-12.04-.6-24.09-1.18-36.14-1.73-1.27-.06-2.4-1.14-2.51-2.42-1.05-12.05-2.17-24.1-3.36-36.14-.13-1.28.8-2.26,2.06-2.19,11.92.63,23.84,1.3,35.76,2,1.26.07,2.4,1.16,2.54,2.43,1.32,11.95,2.56,23.91,3.73,35.88Z"/>
    </g>
  </g>
</svg>