<?xml version="1.0" encoding="UTF-8"?>
<svg id="Layer_2" data-name="Layer 2" xmlns="http://www.w3.org/2000/svg" viewBox="0 0 442.26 602.98">
  <defs>
    <style>
      .cls-1 {
        fill: none;
      }

      .cls-2 {
        fill: #01c001;
      }
    </style>
  </defs>
  <g id="Layer_1-2" data-name="Layer 1">
    <g>
      <rect class="cls-1" x="201.81" y="563.26" width="38.66" height="38.66" rx="1.75" ry="1.75"/>
      <rect class="cls-1" x="161.65" y="81.32" width="38.66" height="38.66" rx="1.75" ry="1.75"/>
      <rect class="cls-1" x="201.81" y="282.13" width="38.66" height="38.66" rx="1.75" ry="1.75"/>
      <rect class="cls-1" x="161.65" y="41.16" width="38.66" height="38.66" rx="1.75" ry="1.75"/>
      <rect class="cls-1" x="161.65" y="121.48" width="38.66" height="38.66" rx="1.75" ry="1.75"/>
      <rect class="cls-1" x="161.65" y="161.65" width="38.66" height="38.66" rx="1.75" ry="1.75"/>
      <rect class="cls-1" x="201.81" y="322.29" width="38.66" height="38.66" rx="1.75" ry="1.75"/>
      <rect class="cls-1" x="121.49" y="161.64" width="38.66" height="38.66" rx="1.75" ry="1.75"/>
      <rect class="cls-1" x="201.81" y="362.45" width="38.66" height="38.66" rx="1.75" ry="1.75"/>
      <rect class="cls-1" x="161.65" y="201.81" width="38.66" height="38.66" rx="1.75" ry="1.75"/>
      <rect class="cls-1" x="201.81" y="442.78" width="38.66" height="38.66" rx="1.75" ry="1.75"/>
      <rect class="cls-1" x="201.81" y="482.94" width="38.66" height="38.66" rx="1.75" ry="1.75"/>
      <rect class="cls-1" x="201.81" y="523.1" width="38.66" height="38.66" rx="1.75" ry="1.75"/>
      <rect class="cls-1" x="161.65" y="1" width="38.66" height="38.66" rx="1.75" ry="1.75"/>
      <rect class="cls-1" x="121.49" y="41.16" width="38.66" height="38.66" rx="1.75" ry="1.75"/>
      <rect class="cls-1" x="121.49" y="1" width="38.66" height="38.66" rx="1.75" ry="1.75"/>
      <rect class="cls-1" x="161.65" y="563.26" width="38.66" height="38.66" rx="1.75" ry="1.75"/>
      <rect class="cls-1" x="121.49" y="121.48" width="38.66" height="38.66" rx="1.75" ry="1.75"/>
      <rect class="cls-1" x="121.49" y="81.32" width="38.66" height="38.66" rx="1.75" ry="1.75"/>
      <rect class="cls-1" x="161.65" y="523.1" width="38.66" height="38.66" rx="1.75" ry="1.75"/>
      <rect class="cls-1" x="161.65" y="362.45" width="38.66" height="38.66" rx="1.75" ry="1.75"/>
      <rect class="cls-1" x="161.65" y="322.29" width="38.66" height="38.66" rx="1.75" ry="1.75"/>
      <rect class="cls-1" x="161.65" y="282.13" width="38.66" height="38.66" rx="1.75" ry="1.75"/>
      <rect class="cls-1" x="161.65" y="482.94" width="38.66" height="38.66" rx="1.75" ry="1.75"/>
      <rect class="cls-1" x="161.65" y="241.97" width="38.66" height="38.66" rx="1.75" ry="1.75"/>
      <rect class="cls-1" x="161.65" y="402.61" width="38.66" height="38.66" rx="1.75" ry="1.75"/>
      <rect class="cls-1" x="161.65" y="442.78" width="38.66" height="38.66" rx="1.75" ry="1.75"/>
      <rect class="cls-1" x="201.81" y="402.61" width="38.66" height="38.66" rx="1.75" ry="1.75"/>
      <rect class="cls-1" x="241.97" y="121.48" width="38.66" height="38.66" rx="1.75" ry="1.75"/>
      <rect class="cls-1" x="241.97" y="161.65" width="38.66" height="38.66" rx="1.75" ry="1.75"/>
      <rect class="cls-1" x="241.97" y="81.32" width="38.66" height="38.66" rx="1.75" ry="1.75"/>
      <rect class="cls-1" x="241.97" y="201.81" width="38.66" height="38.66" rx="1.75" ry="1.75"/>
      <rect class="cls-1" x="241.97" y="241.97" width="38.66" height="38.66" rx="1.75" ry="1.75"/>
      <rect class="cls-1" x="241.97" y="282.13" width="38.66" height="38.66" rx="1.75" ry="1.75"/>
      <rect class="cls-1" x="241.97" y="41.16" width="38.66" height="38.66" rx="1.75" ry="1.75"/>
      <rect class="cls-1" x="282.13" y="442.78" width="38.66" height="38.66" rx="1.75" ry="1.75"/>
      <rect class="cls-1" x="282.13" y="402.61" width="38.66" height="38.66" rx="1.75" ry="1.75"/>
      <rect class="cls-1" x="282.13" y="482.94" width="38.66" height="38.66" rx="1.75" ry="1.75"/>
      <rect class="cls-1" x="282.13" y="563.26" width="38.66" height="38.66" rx="1.75" ry="1.75"/>
      <rect class="cls-1" x="241.97" y="1" width="38.66" height="38.66" rx="1.75" ry="1.75"/>
      <rect class="cls-1" x="282.13" y="523.1" width="38.66" height="38.66" rx="1.75" ry="1.75"/>
      <rect class="cls-1" x="241.97" y="322.29" width="38.66" height="38.66" rx="1.75" ry="1.75"/>
      <rect class="cls-1" x="201.81" y="81.32" width="38.66" height="38.66" rx="1.75" ry="1.75"/>
      <rect class="cls-1" x="201.81" y="41.16" width="38.66" height="38.66" rx="1.75" ry="1.75"/>
      <rect class="cls-1" x="201.81" y="1" width="38.66" height="38.66" rx="1.75" ry="1.75"/>
      <rect class="cls-1" x="201.81" y="121.48" width="38.66" height="38.66" rx="1.75" ry="1.75"/>
      <rect class="cls-1" x="201.81" y="161.65" width="38.66" height="38.66" rx="1.75" ry="1.75"/>
      <rect class="cls-1" x="201.81" y="201.81" width="38.66" height="38.66" rx="1.75" ry="1.75"/>
      <rect class="cls-1" x="241.97" y="482.94" width="38.66" height="38.66" rx="1.75" ry="1.75"/>
      <rect class="cls-1" x="241.97" y="402.61" width="38.66" height="38.66" rx="1.75" ry="1.75"/>
      <rect class="cls-1" x="241.97" y="563.26" width="38.66" height="38.66" rx="1.75" ry="1.75"/>
      <rect class="cls-1" x="241.97" y="362.45" width="38.66" height="38.66" rx="1.75" ry="1.75"/>
      <rect class="cls-1" x="241.97" y="442.78" width="38.66" height="38.66" rx="1.75" ry="1.75"/>
      <rect class="cls-1" x="201.81" y="241.97" width="38.66" height="38.66" rx="1.75" ry="1.75"/>
      <rect class="cls-1" x="241.97" y="523.1" width="38.66" height="38.66" rx="1.75" ry="1.75"/>
      <rect class="cls-1" x="121.49" y="322.29" width="38.66" height="38.66" rx="1.75" ry="1.75"/>
      <rect class="cls-1" x="41.17" y="482.94" width="38.66" height="38.66" rx="1.75" ry="1.75"/>
      <rect class="cls-1" x="41.17" y="442.78" width="38.66" height="38.66" rx="1.75" ry="1.75"/>
      <rect class="cls-1" x="41.16" y="523.1" width="38.66" height="38.66" rx="1.75" ry="1.75"/>
      <rect class="cls-1" x="1" y="1" width="38.66" height="38.66" rx="1.75" ry="1.75"/>
      <rect class="cls-1" x="41.17" y="402.61" width="38.66" height="38.66" rx="1.75" ry="1.75"/>
      <rect class="cls-1" x="1" y="81.32" width="38.66" height="38.66" rx="1.75" ry="1.75"/>
      <rect class="cls-1" x="41.16" y="563.26" width="38.66" height="38.66" rx="1.75" ry="1.75"/>
      <rect class="cls-1" x="41.17" y="241.97" width="38.66" height="38.66" rx="1.75" ry="1.75"/>
      <rect class="cls-1" x="41.17" y="121.48" width="38.66" height="38.66" rx="1.75" ry="1.75"/>
      <rect class="cls-1" x="41.17" y="362.45" width="38.66" height="38.66" rx="1.75" ry="1.75"/>
      <rect class="cls-1" x="41.17" y="161.64" width="38.66" height="38.66" rx="1.75" ry="1.75"/>
      <rect class="cls-1" x="41.17" y="322.29" width="38.66" height="38.66" rx="1.75" ry="1.75"/>
      <rect class="cls-1" x="41.17" y="282.13" width="38.66" height="38.66" rx="1.75" ry="1.75"/>
      <rect class="cls-1" x="41.17" y="201.81" width="38.66" height="38.66" rx="1.75" ry="1.75"/>
      <rect class="cls-1" x="1" y="402.61" width="38.66" height="38.66" rx="1.75" ry="1.75"/>
      <rect class="cls-1" x="1" y="442.78" width="38.66" height="38.66" rx="1.75" ry="1.75"/>
      <rect class="cls-1" x="1" y="523.1" width="38.66" height="38.66" rx="1.75" ry="1.75"/>
      <rect class="cls-1" x="1" y="482.94" width="38.66" height="38.66" rx="1.75" ry="1.75"/>
      <rect class="cls-1" x="1" y="563.26" width="38.66" height="38.66" rx="1.75" ry="1.75"/>
      <rect class="cls-1" x="1" y="121.48" width="38.66" height="38.66" rx="1.75" ry="1.75"/>
      <rect class="cls-1" x="1" y="362.45" width="38.66" height="38.66" rx="1.75" ry="1.75"/>
      <rect class="cls-1" x="1" y="161.64" width="38.66" height="38.66" rx="1.75" ry="1.75"/>
      <rect class="cls-1" x="1" y="241.97" width="38.66" height="38.66" rx="1.75" ry="1.75"/>
      <rect class="cls-1" x="1" y="201.81" width="38.66" height="38.66" rx="1.75" ry="1.75"/>
      <rect class="cls-1" x="1" y="322.29" width="38.66" height="38.66" rx="1.75" ry="1.75"/>
      <rect class="cls-1" x="1" y="282.13" width="38.66" height="38.66" rx="1.75" ry="1.75"/>
      <rect class="cls-1" x="81.33" y="402.61" width="38.66" height="38.66" rx="1.75" ry="1.75"/>
      <rect class="cls-1" x="121.49" y="482.94" width="38.66" height="38.66" rx="1.75" ry="1.75"/>
      <rect class="cls-1" x="121.49" y="523.1" width="38.66" height="38.66" rx="1.75" ry="1.75"/>
      <rect class="cls-1" x="81.33" y="1" width="38.66" height="38.66" rx="1.75" ry="1.75"/>
      <rect class="cls-1" x="121.49" y="563.26" width="38.66" height="38.66" rx="1.75" ry="1.75"/>
      <rect class="cls-1" x="81.33" y="41.16" width="38.66" height="38.66" rx="1.75" ry="1.75"/>
      <rect class="cls-1" x="41.17" y="81.32" width="38.66" height="38.66" rx="1.75" ry="1.75"/>
      <rect class="cls-1" x="282.13" y="362.45" width="38.66" height="38.66" rx="1.75" ry="1.75"/>
      <rect class="cls-1" x="81.33" y="121.48" width="38.66" height="38.66" rx="1.75" ry="1.75"/>
      <rect class="cls-1" x="121.49" y="282.13" width="38.66" height="38.66" rx="1.75" ry="1.75"/>
      <rect class="cls-1" x="121.49" y="442.78" width="38.66" height="38.66" rx="1.75" ry="1.75"/>
      <rect class="cls-1" x="121.49" y="241.97" width="38.66" height="38.66" rx="1.75" ry="1.75"/>
      <rect class="cls-1" x="121.49" y="362.45" width="38.66" height="38.66" rx="1.75" ry="1.75"/>
      <rect class="cls-1" x="121.49" y="402.61" width="38.66" height="38.66" rx="1.75" ry="1.75"/>
      <rect class="cls-1" x="81.33" y="81.32" width="38.66" height="38.66" rx="1.75" ry="1.75"/>
      <rect class="cls-1" x="81.33" y="523.1" width="38.66" height="38.66" rx="1.75" ry="1.75"/>
      <rect class="cls-1" x="81.33" y="563.26" width="38.66" height="38.66" rx="1.75" ry="1.75"/>
      <rect class="cls-1" x="81.33" y="482.94" width="38.66" height="38.66" rx="1.75" ry="1.75"/>
      <rect class="cls-1" x="81.33" y="442.78" width="38.66" height="38.66" rx="1.75" ry="1.75"/>
      <rect class="cls-1" x="41.17" y="41.16" width="38.66" height="38.66" rx="1.75" ry="1.75"/>
      <rect class="cls-1" x="41.17" y="1" width="38.66" height="38.66" rx="1.75" ry="1.75"/>
      <rect class="cls-1" x="81.33" y="241.97" width="38.66" height="38.66" rx="1.75" ry="1.75"/>
      <rect class="cls-1" x="81.33" y="282.13" width="38.66" height="38.66" rx="1.75" ry="1.75"/>
      <rect class="cls-1" x="121.49" y="201.81" width="38.66" height="38.66" rx="1.75" ry="1.75"/>
      <rect class="cls-1" x="81.33" y="201.81" width="38.66" height="38.66" rx="1.75" ry="1.75"/>
      <rect class="cls-1" x="81.33" y="161.64" width="38.66" height="38.66" rx="1.75" ry="1.75"/>
      <rect class="cls-1" x="81.33" y="322.29" width="38.66" height="38.66" rx="1.75" ry="1.75"/>
      <rect class="cls-1" x="81.33" y="362.45" width="38.66" height="38.66" rx="1.75" ry="1.75"/>
      <rect class="cls-1" x="1" y="41.16" width="38.66" height="38.66" rx="1.75" ry="1.75"/>
      <rect class="cls-1" x="322.3" y="121.48" width="38.66" height="38.66" rx="1.75" ry="1.75"/>
      <rect class="cls-1" x="362.46" y="563.26" width="38.66" height="38.66" rx="1.75" ry="1.75"/>
      <rect class="cls-1" x="322.3" y="362.45" width="38.66" height="38.66" rx="1.75" ry="1.75"/>
      <rect class="cls-1" x="322.3" y="482.94" width="38.66" height="38.66" rx="1.75" ry="1.75"/>
      <rect class="cls-1" x="362.46" y="81.32" width="38.66" height="38.66" rx="1.75" ry="1.75"/>
      <rect class="cls-1" x="362.46" y="41.16" width="38.66" height="38.66" rx="1.75" ry="1.75"/>
      <rect class="cls-1" x="402.62" y="322.29" width="38.66" height="38.66" rx="1.75" ry="1.75"/>
      <rect class="cls-1" x="322.3" y="402.62" width="38.66" height="38.66" rx="1.75" ry="1.75"/>
      <rect class="cls-1" x="322.3" y="442.78" width="38.66" height="38.66" rx="1.75" ry="1.75"/>
      <rect class="cls-1" x="322.3" y="563.26" width="38.66" height="38.66" rx="1.75" ry="1.75"/>
      <rect class="cls-1" x="402.62" y="201.81" width="38.66" height="38.66" rx="1.75" ry="1.75"/>
      <rect class="cls-1" x="362.46" y="121.48" width="38.66" height="38.66" rx="1.75" ry="1.75"/>
      <rect class="cls-1" x="362.46" y="523.1" width="38.66" height="38.66" rx="1.75" ry="1.75"/>
      <rect class="cls-1" x="402.62" y="241.97" width="38.66" height="38.66" rx="1.75" ry="1.75"/>
      <rect class="cls-1" x="362.46" y="482.94" width="38.66" height="38.66" rx="1.75" ry="1.75"/>
      <rect class="cls-1" x="322.3" y="523.1" width="38.66" height="38.66" rx="1.75" ry="1.75"/>
      <rect class="cls-1" x="402.62" y="563.26" width="38.66" height="38.66" rx="1.75" ry="1.75"/>
      <rect class="cls-1" x="402.62" y="482.94" width="38.66" height="38.66" rx="1.75" ry="1.75"/>
      <rect class="cls-1" x="322.3" y="201.81" width="38.66" height="38.66" rx="1.75" ry="1.75"/>
      <rect class="cls-1" x="322.3" y="241.97" width="38.66" height="38.66" rx="1.75" ry="1.75"/>
      <rect class="cls-1" x="322.3" y="81.32" width="38.66" height="38.66" rx="1.75" ry="1.75"/>
      <rect class="cls-1" x="402.62" y="523.1" width="38.66" height="38.66" rx="1.75" ry="1.75"/>
      <rect class="cls-1" x="282.14" y="1" width="38.66" height="38.66" rx="1.75" ry="1.75"/>
      <rect class="cls-1" x="322.3" y="161.65" width="38.66" height="38.66" rx="1.75" ry="1.75"/>
      <rect class="cls-1" x="402.62" y="442.78" width="38.66" height="38.66" rx="1.75" ry="1.75"/>
      <rect class="cls-1" x="402.62" y="402.62" width="38.66" height="38.66" rx="1.75" ry="1.75"/>
      <rect class="cls-1" x="322.3" y="322.29" width="38.66" height="38.66" rx="1.75" ry="1.75"/>
      <rect class="cls-1" x="322.3" y="1" width="38.66" height="38.66" rx="1.75" ry="1.75"/>
      <rect class="cls-1" x="322.3" y="41.16" width="38.66" height="38.66" rx="1.75" ry="1.75"/>
      <rect class="cls-1" x="402.62" y="362.45" width="38.66" height="38.66" rx="1.75" ry="1.75"/>
      <rect class="cls-1" x="322.3" y="282.13" width="38.66" height="38.66" rx="1.75" ry="1.75"/>
      <rect class="cls-1" x="362.46" y="1" width="38.66" height="38.66" rx="1.75" ry="1.75"/>
      <rect class="cls-1" x="402.62" y="282.13" width="38.66" height="38.66" rx="1.75" ry="1.75"/>
      <rect class="cls-1" x="282.13" y="121.48" width="38.66" height="38.66" rx="1.75" ry="1.75"/>
      <rect class="cls-1" x="362.46" y="241.97" width="38.66" height="38.66" rx="1.75" ry="1.75"/>
      <rect class="cls-1" x="362.46" y="402.62" width="38.66" height="38.66" rx="1.75" ry="1.75"/>
      <rect class="cls-1" x="362.46" y="322.29" width="38.66" height="38.66" rx="1.75" ry="1.75"/>
      <rect class="cls-1" x="282.13" y="282.13" width="38.66" height="38.66" rx="1.75" ry="1.75"/>
      <rect class="cls-1" x="282.13" y="161.65" width="38.66" height="38.66" rx="1.75" ry="1.75"/>
      <rect class="cls-1" x="362.46" y="282.13" width="38.66" height="38.66" rx="1.75" ry="1.75"/>
      <rect class="cls-1" x="362.46" y="201.81" width="38.66" height="38.66" rx="1.75" ry="1.75"/>
      <rect class="cls-1" x="282.13" y="201.81" width="38.66" height="38.66" rx="1.75" ry="1.75"/>
      <rect class="cls-1" x="362.46" y="362.45" width="38.66" height="38.66" rx="1.75" ry="1.75"/>
      <rect class="cls-1" x="402.62" y="81.32" width="38.66" height="38.66" rx="1.75" ry="1.75"/>
      <rect class="cls-1" x="402.62" y="41.16" width="38.66" height="38.66" rx="1.75" ry="1.75"/>
      <rect class="cls-1" x="402.62" y="1" width="38.66" height="38.66" rx="1.75" ry="1.75"/>
      <rect class="cls-1" x="362.46" y="442.78" width="38.66" height="38.66" rx="1.75" ry="1.75"/>
      <rect class="cls-1" x="282.14" y="41.16" width="38.66" height="38.66" rx="1.75" ry="1.75"/>
      <rect class="cls-1" x="402.62" y="161.65" width="38.66" height="38.66" rx="1.75" ry="1.75"/>
      <rect class="cls-1" x="402.62" y="121.48" width="38.66" height="38.66" rx="1.75" ry="1.75"/>
      <rect class="cls-1" x="282.13" y="241.97" width="38.66" height="38.66" rx="1.75" ry="1.75"/>
      <rect class="cls-1" x="282.13" y="81.32" width="38.66" height="38.66" rx="1.75" ry="1.75"/>
      <rect class="cls-1" x="282.13" y="322.29" width="38.66" height="38.66" rx="1.75" ry="1.75"/>
      <rect class="cls-1" x="362.46" y="161.65" width="38.66" height="38.66" rx="1.75" ry="1.75"/>
      <path class="cls-2" d="M442.26,601.21V2.25c.02-.95-.06-1.57-.12-1.77-.16-.05-.29-.18-.34-.34-.21-.06-.84-.14-1.77-.14H2.25C1.32,0,.69.08.48.14c-.05.17-.18.3-.34.34-.06.21-.14.84-.14,1.77v598.96c0,1.06.2,1.68.31,1.77.15-.02.34-.02.39-.03v.02c.25-.05.81-.05,2.05-.05h35.16c1.24,0,1.8,0,2.05.05v-.02c.11.01.79.02.9,0v.02c.25-.05.81-.05,2.05-.05h35.16c1.24,0,1.8,0,2.05.05v-.02c.11.02.8.02.9,0v.02c.25-.05.81-.05,2.05-.05h35.16c1.24,0,1.8,0,2.05.05v-.02c.11.02.79.01.9,0v.02c.25-.05.81-.05,2.05-.05h35.16c1.24,0,1.8,0,2.05.05v-.02c.11.02.79.01.9,0v.02c.25-.05.81-.05,2.05-.05h35.16c1.24,0,1.8,0,2.05.05v-.02c.11.02.79.01.9,0v.02c.25-.05.81-.05,2.05-.05h35.16c1.24,0,1.8,0,2.05.05v-.02c.11.02.8.01.9,0v.02c.25-.05.81-.05,2.05-.05h35.16c1.24,0,1.8,0,2.05.05v-.02c.11.02.8.01.9,0v.02c.25-.05.81-.05,2.05-.05h35.16c1.24,0,1.8,0,2.05.05v-.02c.11.02.79.01.9,0v.02c.25-.05.81-.05,2.05-.05h35.16c1.24,0,1.8,0,2.05.05v-.02c.11.02.8.02.9,0v.02c.25-.05.81-.05,2.05-.05h35.16c1.24,0,1.8,0,2.05.05v-.02c.11.02.8.02.9,0v.02c.25-.05.81-.05,2.05-.05h35.16c1.24,0,1.8,0,2.05.05v-.02c.06,0,.24.01.45.01.05-.07.25-.69.25-1.75ZM40.16,600.17c0,1.24-1.01,2.25-2.25,2.25H2.75c-1.24,0-2.25-1.01-2.25-2.25v-35.16c0-1.24,1.01-2.25,2.25-2.25h35.16c1.24,0,2.25,1.01,2.25,2.25v35.16ZM40.16,560.01c0,1.24-1.01,2.25-2.25,2.25H2.75c-1.24,0-2.25-1.01-2.25-2.25v-35.16c0-1.24,1.01-2.25,2.25-2.25h35.16c1.24,0,2.25,1.01,2.25,2.25v35.16ZM40.16,519.85c0,1.24-1.01,2.25-2.25,2.25H2.75c-1.24,0-2.25-1.01-2.25-2.25v-35.16c0-1.24,1.01-2.25,2.25-2.25h35.16c1.24,0,2.25,1.01,2.25,2.25v35.16ZM40.16,479.69c0,1.24-1.01,2.25-2.25,2.25H2.75c-1.24,0-2.25-1.01-2.25-2.25v-35.16c0-1.24,1.01-2.25,2.25-2.25h35.16c1.24,0,2.25,1.01,2.25,2.25v35.16ZM40.16,439.52c0,1.24-1.01,2.25-2.25,2.25H2.75c-1.24,0-2.25-1.01-2.25-2.25v-35.16c0-1.24,1.01-2.25,2.25-2.25h35.16c1.24,0,2.25,1.01,2.25,2.25v35.16ZM40.16,399.36c0,1.24-1.01,2.25-2.25,2.25H2.75c-1.24,0-2.25-1.01-2.25-2.25v-35.16c0-1.24,1.01-2.25,2.25-2.25h35.16c1.24,0,2.25,1.01,2.25,2.25v35.16ZM40.16,359.2c0,1.24-1.01,2.25-2.25,2.25H2.75c-1.24,0-2.25-1.01-2.25-2.25v-35.16c0-1.24,1.01-2.25,2.25-2.25h35.16c1.24,0,2.25,1.01,2.25,2.25v35.16ZM40.16,319.04c0,1.24-1.01,2.25-2.25,2.25H2.75c-1.24,0-2.25-1.01-2.25-2.25v-35.16c0-1.24,1.01-2.25,2.25-2.25h35.16c1.24,0,2.25,1.01,2.25,2.25v35.16ZM40.16,278.88c0,1.24-1.01,2.25-2.25,2.25H2.75c-1.24,0-2.25-1.01-2.25-2.25v-35.16c0-1.24,1.01-2.25,2.25-2.25h35.16c1.24,0,2.25,1.01,2.25,2.25v35.16ZM40.16,238.72c0,1.24-1.01,2.25-2.25,2.25H2.75c-1.24,0-2.25-1.01-2.25-2.25v-35.16c0-1.24,1.01-2.25,2.25-2.25h35.16c1.24,0,2.25,1.01,2.25,2.25v35.16ZM40.16,198.55c0,1.24-1.01,2.25-2.25,2.25H2.75c-1.24,0-2.25-1.01-2.25-2.25v-35.16c0-1.24,1.01-2.25,2.25-2.25h35.16c1.24,0,2.25,1.01,2.25,2.25v35.16ZM40.16,158.39c0,1.24-1.01,2.25-2.25,2.25H2.75c-1.24,0-2.25-1.01-2.25-2.25v-35.16c0-1.24,1.01-2.25,2.25-2.25h35.16c1.24,0,2.25,1.01,2.25,2.25v35.16ZM40.16,118.23c0,1.24-1.01,2.25-2.25,2.25H2.75c-1.24,0-2.25-1.01-2.25-2.25v-35.16c0-1.24,1.01-2.25,2.25-2.25h35.16c1.24,0,2.25,1.01,2.25,2.25v35.16ZM40.16,78.07c0,1.24-1.01,2.25-2.25,2.25H2.75c-1.24,0-2.25-1.01-2.25-2.25v-35.16c0-1.24,1.01-2.25,2.25-2.25h35.16c1.24,0,2.25,1.01,2.25,2.25v35.16ZM40.16,37.91c0,1.24-1.01,2.25-2.25,2.25H2.75c-1.24,0-2.25-1.01-2.25-2.25V2.75C.5,1.51,1.51.5,2.75.5h35.16c1.24,0,2.25,1.01,2.25,2.25v35.16ZM80.32,600.17c0,1.24-1.01,2.25-2.25,2.25h-35.16c-1.24,0-2.25-1.01-2.25-2.25v-35.16c0-1.24,1.01-2.25,2.25-2.25h35.16c1.24,0,2.25,1.01,2.25,2.25v35.16ZM80.32,560.01c0,1.24-1.01,2.25-2.25,2.25h-35.16c-1.24,0-2.25-1.01-2.25-2.25v-35.16c0-1.24,1.01-2.25,2.25-2.25h35.16c1.24,0,2.25,1.01,2.25,2.25v35.16ZM80.33,519.85c0,1.24-1.01,2.25-2.25,2.25h-35.16c-1.24,0-2.25-1.01-2.25-2.25v-35.16c0-1.24,1.01-2.25,2.25-2.25h35.16c1.24,0,2.25,1.01,2.25,2.25v35.16ZM80.33,479.69c0,1.24-1.01,2.25-2.25,2.25h-35.16c-1.24,0-2.25-1.01-2.25-2.25v-35.16c0-1.24,1.01-2.25,2.25-2.25h35.16c1.24,0,2.25,1.01,2.25,2.25v35.16ZM80.33,439.52c0,1.24-1.01,2.25-2.25,2.25h-35.16c-1.24,0-2.25-1.01-2.25-2.25v-35.16c0-1.24,1.01-2.25,2.25-2.25h35.16c1.24,0,2.25,1.01,2.25,2.25v35.16ZM80.33,399.36c0,1.24-1.01,2.25-2.25,2.25h-35.16c-1.24,0-2.25-1.01-2.25-2.25v-35.16c0-1.24,1.01-2.25,2.25-2.25h35.16c1.24,0,2.25,1.01,2.25,2.25v35.16ZM80.33,359.2c0,1.24-1.01,2.25-2.25,2.25h-35.16c-1.24,0-2.25-1.01-2.25-2.25v-35.16c0-1.24,1.01-2.25,2.25-2.25h35.16c1.24,0,2.25,1.01,2.25,2.25v35.16ZM80.33,319.04c0,1.24-1.01,2.25-2.25,2.25h-35.16c-1.24,0-2.25-1.01-2.25-2.25v-35.16c0-1.24,1.01-2.25,2.25-2.25h35.16c1.24,0,2.25,1.01,2.25,2.25v35.16ZM80.33,278.88c0,1.24-1.01,2.25-2.25,2.25h-35.16c-1.24,0-2.25-1.01-2.25-2.25v-35.16c0-1.24,1.01-2.25,2.25-2.25h35.16c1.24,0,2.25,1.01,2.25,2.25v35.16ZM80.33,238.72c0,1.24-1.01,2.25-2.25,2.25h-35.16c-1.24,0-2.25-1.01-2.25-2.25v-35.16c0-1.24,1.01-2.25,2.25-2.25h35.16c1.24,0,2.25,1.01,2.25,2.25v35.16ZM80.33,198.55c0,1.24-1.01,2.25-2.25,2.25h-35.16c-1.24,0-2.25-1.01-2.25-2.25v-35.16c0-1.24,1.01-2.25,2.25-2.25h35.16c1.24,0,2.25,1.01,2.25,2.25v35.16ZM80.33,158.39c0,1.24-1.01,2.25-2.25,2.25h-35.16c-1.24,0-2.25-1.01-2.25-2.25v-35.16c0-1.24,1.01-2.25,2.25-2.25h35.16c1.24,0,2.25,1.01,2.25,2.25v35.16ZM80.33,118.23c0,1.24-1.01,2.25-2.25,2.25h-35.16c-1.24,0-2.25-1.01-2.25-2.25v-35.16c0-1.24,1.01-2.25,2.25-2.25h35.16c1.24,0,2.25,1.01,2.25,2.25v35.16ZM80.33,78.07c0,1.24-1.01,2.25-2.25,2.25h-35.16c-1.24,0-2.25-1.01-2.25-2.25v-35.16c0-1.24,1.01-2.25,2.25-2.25h35.16c1.24,0,2.25,1.01,2.25,2.25v35.16ZM80.33,37.91c0,1.24-1.01,2.25-2.25,2.25h-35.16c-1.24,0-2.25-1.01-2.25-2.25V2.75c0-1.24,1.01-2.25,2.25-2.25h35.16c1.24,0,2.25,1.01,2.25,2.25v35.16ZM120.49,600.17c0,1.24-1.01,2.25-2.25,2.25h-35.16c-1.24,0-2.25-1.01-2.25-2.25v-35.16c0-1.24,1.01-2.25,2.25-2.25h35.16c1.24,0,2.25,1.01,2.25,2.25v35.16ZM120.49,560.01c0,1.24-1.01,2.25-2.25,2.25h-35.16c-1.24,0-2.25-1.01-2.25-2.25v-35.16c0-1.24,1.01-2.25,2.25-2.25h35.16c1.24,0,2.25,1.01,2.25,2.25v35.16ZM120.49,519.85c0,1.24-1.01,2.25-2.25,2.25h-35.16c-1.24,0-2.25-1.01-2.25-2.25v-35.16c0-1.24,1.01-2.25,2.25-2.25h35.16c1.24,0,2.25,1.01,2.25,2.25v35.16ZM120.49,479.69c0,1.24-1.01,2.25-2.25,2.25h-35.16c-1.24,0-2.25-1.01-2.25-2.25v-35.16c0-1.24,1.01-2.25,2.25-2.25h35.16c1.24,0,2.25,1.01,2.25,2.25v35.16ZM120.49,439.52c0,1.24-1.01,2.25-2.25,2.25h-35.16c-1.24,0-2.25-1.01-2.25-2.25v-35.16c0-1.24,1.01-2.25,2.25-2.25h35.16c1.24,0,2.25,1.01,2.25,2.25v35.16ZM120.49,399.36c0,1.24-1.01,2.25-2.25,2.25h-35.16c-1.24,0-2.25-1.01-2.25-2.25v-35.16c0-1.24,1.01-2.25,2.25-2.25h35.16c1.24,0,2.25,1.01,2.25,2.25v35.16ZM120.49,359.2c0,1.24-1.01,2.25-2.25,2.25h-35.16c-1.24,0-2.25-1.01-2.25-2.25v-35.16c0-1.24,1.01-2.25,2.25-2.25h35.16c1.24,0,2.25,1.01,2.25,2.25v35.16ZM120.49,319.04c0,1.24-1.01,2.25-2.25,2.25h-35.16c-1.24,0-2.25-1.01-2.25-2.25v-35.16c0-1.24,1.01-2.25,2.25-2.25h35.16c1.24,0,2.25,1.01,2.25,2.25v35.16ZM120.49,278.88c0,1.24-1.01,2.25-2.25,2.25h-35.16c-1.24,0-2.25-1.01-2.25-2.25v-35.16c0-1.24,1.01-2.25,2.25-2.25h35.16c1.24,0,2.25,1.01,2.25,2.25v35.16ZM120.49,238.72c0,1.24-1.01,2.25-2.25,2.25h-35.16c-1.24,0-2.25-1.01-2.25-2.25v-35.16c0-1.24,1.01-2.25,2.25-2.25h35.16c1.24,0,2.25,1.01,2.25,2.25v35.16ZM120.49,198.55c0,1.24-1.01,2.25-2.25,2.25h-35.16c-1.24,0-2.25-1.01-2.25-2.25v-35.16c0-1.24,1.01-2.25,2.25-2.25h35.16c1.24,0,2.25,1.01,2.25,2.25v35.16ZM120.49,158.39c0,1.24-1.01,2.25-2.25,2.25h-35.16c-1.24,0-2.25-1.01-2.25-2.25v-35.16c0-1.24,1.01-2.25,2.25-2.25h35.16c1.24,0,2.25,1.01,2.25,2.25v35.16ZM120.49,118.23c0,1.24-1.01,2.25-2.25,2.25h-35.16c-1.24,0-2.25-1.01-2.25-2.25v-35.16c0-1.24,1.01-2.25,2.25-2.25h35.16c1.24,0,2.25,1.01,2.25,2.25v35.16ZM120.49,78.07c0,1.24-1.01,2.25-2.25,2.25h-35.16c-1.24,0-2.25-1.01-2.25-2.25v-35.16c0-1.24,1.01-2.25,2.25-2.25h35.16c1.24,0,2.25,1.01,2.25,2.25v35.16ZM120.49,37.91c0,1.24-1.01,2.25-2.25,2.25h-35.16c-1.24,0-2.25-1.01-2.25-2.25V2.75c0-1.24,1.01-2.25,2.25-2.25h35.16c1.24,0,2.25,1.01,2.25,2.25v35.16ZM160.65,600.17c0,1.24-1.01,2.25-2.25,2.25h-35.16c-1.24,0-2.25-1.01-2.25-2.25v-35.16c0-1.24,1.01-2.25,2.25-2.25h35.16c1.24,0,2.25,1.01,2.25,2.25v35.16ZM160.65,560.01c0,1.24-1.01,2.25-2.25,2.25h-35.16c-1.24,0-2.25-1.01-2.25-2.25v-35.16c0-1.24,1.01-2.25,2.25-2.25h35.16c1.24,0,2.25,1.01,2.25,2.25v35.16ZM160.65,519.85c0,1.24-1.01,2.25-2.25,2.25h-35.16c-1.24,0-2.25-1.01-2.25-2.25v-35.16c0-1.24,1.01-2.25,2.25-2.25h35.16c1.24,0,2.25,1.01,2.25,2.25v35.16ZM160.65,479.69c0,1.24-1.01,2.25-2.25,2.25h-35.16c-1.24,0-2.25-1.01-2.25-2.25v-35.16c0-1.24,1.01-2.25,2.25-2.25h35.16c1.24,0,2.25,1.01,2.25,2.25v35.16ZM160.65,439.52c0,1.24-1.01,2.25-2.25,2.25h-35.16c-1.24,0-2.25-1.01-2.25-2.25v-35.16c0-1.24,1.01-2.25,2.25-2.25h35.16c1.24,0,2.25,1.01,2.25,2.25v35.16ZM160.65,399.36c0,1.24-1.01,2.25-2.25,2.25h-35.16c-1.24,0-2.25-1.01-2.25-2.25v-35.16c0-1.24,1.01-2.25,2.25-2.25h35.16c1.24,0,2.25,1.01,2.25,2.25v35.16ZM160.65,359.2c0,1.24-1.01,2.25-2.25,2.25h-35.16c-1.24,0-2.25-1.01-2.25-2.25v-35.16c0-1.24,1.01-2.25,2.25-2.25h35.16c1.24,0,2.25,1.01,2.25,2.25v35.16ZM160.65,319.04c0,1.24-1.01,2.25-2.25,2.25h-35.16c-1.24,0-2.25-1.01-2.25-2.25v-35.16c0-1.24,1.01-2.25,2.25-2.25h35.16c1.24,0,2.25,1.01,2.25,2.25v35.16ZM160.65,278.88c0,1.24-1.01,2.25-2.25,2.25h-35.16c-1.24,0-2.25-1.01-2.25-2.25v-35.16c0-1.24,1.01-2.25,2.25-2.25h35.16c1.24,0,2.25,1.01,2.25,2.25v35.16ZM160.65,238.72c0,1.24-1.01,2.25-2.25,2.25h-35.16c-1.24,0-2.25-1.01-2.25-2.25v-35.16c0-1.24,1.01-2.25,2.25-2.25h35.16c1.24,0,2.25,1.01,2.25,2.25v35.16ZM160.65,198.55c0,1.24-1.01,2.25-2.25,2.25h-35.16c-1.24,0-2.25-1.01-2.25-2.25v-35.16c0-1.24,1.01-2.25,2.25-2.25h35.16c1.24,0,2.25,1.01,2.25,2.25v35.16ZM160.65,158.39c0,1.24-1.01,2.25-2.25,2.25h-35.16c-1.24,0-2.25-1.01-2.25-2.25v-35.16c0-1.24,1.01-2.25,2.25-2.25h35.16c1.24,0,2.25,1.01,2.25,2.25v35.16ZM160.65,118.23c0,1.24-1.01,2.25-2.25,2.25h-35.16c-1.24,0-2.25-1.01-2.25-2.25v-35.16c0-1.24,1.01-2.25,2.25-2.25h35.16c1.24,0,2.25,1.01,2.25,2.25v35.16ZM160.65,78.07c0,1.24-1.01,2.25-2.25,2.25h-35.16c-1.24,0-2.25-1.01-2.25-2.25v-35.16c0-1.24,1.01-2.25,2.25-2.25h35.16c1.24,0,2.25,1.01,2.25,2.25v35.16ZM160.65,37.91c0,1.24-1.01,2.25-2.25,2.25h-35.16c-1.24,0-2.25-1.01-2.25-2.25V2.75c0-1.24,1.01-2.25,2.25-2.25h35.16c1.24,0,2.25,1.01,2.25,2.25v35.16ZM200.81,600.17c0,1.24-1.01,2.25-2.25,2.25h-35.16c-1.24,0-2.25-1.01-2.25-2.25v-35.16c0-1.24,1.01-2.25,2.25-2.25h35.16c1.24,0,2.25,1.01,2.25,2.25v35.16ZM200.81,560.01c0,1.24-1.01,2.25-2.25,2.25h-35.16c-1.24,0-2.25-1.01-2.25-2.25v-35.16c0-1.24,1.01-2.25,2.25-2.25h35.16c1.24,0,2.25,1.01,2.25,2.25v35.16ZM200.81,519.85c0,1.24-1.01,2.25-2.25,2.25h-35.16c-1.24,0-2.25-1.01-2.25-2.25v-35.16c0-1.24,1.01-2.25,2.25-2.25h35.16c1.24,0,2.25,1.01,2.25,2.25v35.16ZM200.81,479.69c0,1.24-1.01,2.25-2.25,2.25h-35.16c-1.24,0-2.25-1.01-2.25-2.25v-35.16c0-1.24,1.01-2.25,2.25-2.25h35.16c1.24,0,2.25,1.01,2.25,2.25v35.16ZM200.81,439.52c0,1.24-1.01,2.25-2.25,2.25h-35.16c-1.24,0-2.25-1.01-2.25-2.25v-35.16c0-1.24,1.01-2.25,2.25-2.25h35.16c1.24,0,2.25,1.01,2.25,2.25v35.16ZM200.81,399.36c0,1.24-1.01,2.25-2.25,2.25h-35.16c-1.24,0-2.25-1.01-2.25-2.25v-35.16c0-1.24,1.01-2.25,2.25-2.25h35.16c1.24,0,2.25,1.01,2.25,2.25v35.16ZM200.81,359.2c0,1.24-1.01,2.25-2.25,2.25h-35.16c-1.24,0-2.25-1.01-2.25-2.25v-35.16c0-1.24,1.01-2.25,2.25-2.25h35.16c1.24,0,2.25,1.01,2.25,2.25v35.16ZM200.81,319.04c0,1.24-1.01,2.25-2.25,2.25h-35.16c-1.24,0-2.25-1.01-2.25-2.25v-35.16c0-1.24,1.01-2.25,2.25-2.25h35.16c1.24,0,2.25,1.01,2.25,2.25v35.16ZM200.81,278.88c0,1.24-1.01,2.25-2.25,2.25h-35.16c-1.24,0-2.25-1.01-2.25-2.25v-35.16c0-1.24,1.01-2.25,2.25-2.25h35.16c1.24,0,2.25,1.01,2.25,2.25v35.16ZM200.81,238.72c0,1.24-1.01,2.25-2.25,2.25h-35.16c-1.24,0-2.25-1.01-2.25-2.25v-35.16c0-1.24,1.01-2.25,2.25-2.25h35.16c1.24,0,2.25,1.01,2.25,2.25v35.16ZM200.81,198.56c0,1.24-1.01,2.25-2.25,2.25h-35.16c-1.24,0-2.25-1.01-2.25-2.25v-35.16c0-1.24,1.01-2.25,2.25-2.25h35.16c1.24,0,2.25,1.01,2.25,2.25v35.16ZM200.81,158.39c0,1.24-1.01,2.25-2.25,2.25h-35.16c-1.24,0-2.25-1.01-2.25-2.25v-35.16c0-1.24,1.01-2.25,2.25-2.25h35.16c1.24,0,2.25,1.01,2.25,2.25v35.16ZM200.81,118.23c0,1.24-1.01,2.25-2.25,2.25h-35.16c-1.24,0-2.25-1.01-2.25-2.25v-35.16c0-1.24,1.01-2.25,2.25-2.25h35.16c1.24,0,2.25,1.01,2.25,2.25v35.16ZM200.81,78.07c0,1.24-1.01,2.25-2.25,2.25h-35.16c-1.24,0-2.25-1.01-2.25-2.25v-35.16c0-1.24,1.01-2.25,2.25-2.25h35.16c1.24,0,2.25,1.01,2.25,2.25v35.16ZM200.81,37.91c0,1.24-1.01,2.25-2.25,2.25h-35.16c-1.24,0-2.25-1.01-2.25-2.25V2.75c0-1.24,1.01-2.25,2.25-2.25h35.16c1.24,0,2.25,1.01,2.25,2.25v35.16ZM240.97,600.17c0,1.24-1.01,2.25-2.25,2.25h-35.16c-1.24,0-2.25-1.01-2.25-2.25v-35.16c0-1.24,1.01-2.25,2.25-2.25h35.16c1.24,0,2.25,1.01,2.25,2.25v35.16ZM240.97,560.01c0,1.24-1.01,2.25-2.25,2.25h-35.16c-1.24,0-2.25-1.01-2.25-2.25v-35.16c0-1.24,1.01-2.25,2.25-2.25h35.16c1.24,0,2.25,1.01,2.25,2.25v35.16ZM240.97,519.85c0,1.24-1.01,2.25-2.25,2.25h-35.16c-1.24,0-2.25-1.01-2.25-2.25v-35.16c0-1.24,1.01-2.25,2.25-2.25h35.16c1.24,0,2.25,1.01,2.25,2.25v35.16ZM240.97,479.69c0,1.24-1.01,2.25-2.25,2.25h-35.16c-1.24,0-2.25-1.01-2.25-2.25v-35.16c0-1.24,1.01-2.25,2.25-2.25h35.16c1.24,0,2.25,1.01,2.25,2.25v35.16ZM240.97,439.52c0,1.24-1.01,2.25-2.25,2.25h-35.16c-1.24,0-2.25-1.01-2.25-2.25v-35.16c0-1.24,1.01-2.25,2.25-2.25h35.16c1.24,0,2.25,1.01,2.25,2.25v35.16ZM240.97,399.36c0,1.24-1.01,2.25-2.25,2.25h-35.16c-1.24,0-2.25-1.01-2.25-2.25v-35.16c0-1.24,1.01-2.25,2.25-2.25h35.16c1.24,0,2.25,1.01,2.25,2.25v35.16ZM240.97,359.2c0,1.24-1.01,2.25-2.25,2.25h-35.16c-1.24,0-2.25-1.01-2.25-2.25v-35.16c0-1.24,1.01-2.25,2.25-2.25h35.16c1.24,0,2.25,1.01,2.25,2.25v35.16ZM240.97,319.04c0,1.24-1.01,2.25-2.25,2.25h-35.16c-1.24,0-2.25-1.01-2.25-2.25v-35.16c0-1.24,1.01-2.25,2.25-2.25h35.16c1.24,0,2.25,1.01,2.25,2.25v35.16ZM240.97,278.88c0,1.24-1.01,2.25-2.25,2.25h-35.16c-1.24,0-2.25-1.01-2.25-2.25v-35.16c0-1.24,1.01-2.25,2.25-2.25h35.16c1.24,0,2.25,1.01,2.25,2.25v35.16ZM240.97,238.72c0,1.24-1.01,2.25-2.25,2.25h-35.16c-1.24,0-2.25-1.01-2.25-2.25v-35.16c0-1.24,1.01-2.25,2.25-2.25h35.16c1.24,0,2.25,1.01,2.25,2.25v35.16ZM240.97,198.56c0,1.24-1.01,2.25-2.25,2.25h-35.16c-1.24,0-2.25-1.01-2.25-2.25v-35.16c0-1.24,1.01-2.25,2.25-2.25h35.16c1.24,0,2.25,1.01,2.25,2.25v35.16ZM240.97,158.39c0,1.24-1.01,2.25-2.25,2.25h-35.16c-1.24,0-2.25-1.01-2.25-2.25v-35.16c0-1.24,1.01-2.25,2.25-2.25h35.16c1.24,0,2.25,1.01,2.25,2.25v35.16ZM240.97,118.23c0,1.24-1.01,2.25-2.25,2.25h-35.16c-1.24,0-2.25-1.01-2.25-2.25v-35.16c0-1.24,1.01-2.25,2.25-2.25h35.16c1.24,0,2.25,1.01,2.25,2.25v35.16ZM240.97,78.07c0,1.24-1.01,2.25-2.25,2.25h-35.16c-1.24,0-2.25-1.01-2.25-2.25v-35.16c0-1.24,1.01-2.25,2.25-2.25h35.16c1.24,0,2.25,1.01,2.25,2.25v35.16ZM240.97,37.91c0,1.24-1.01,2.25-2.25,2.25h-35.16c-1.24,0-2.25-1.01-2.25-2.25V2.75c0-1.24,1.01-2.25,2.25-2.25h35.16c1.24,0,2.25,1.01,2.25,2.25v35.16ZM281.13,600.17c0,1.24-1.01,2.25-2.25,2.25h-35.16c-1.24,0-2.25-1.01-2.25-2.25v-35.16c0-1.24,1.01-2.25,2.25-2.25h35.16c1.24,0,2.25,1.01,2.25,2.25v35.16ZM281.13,560.01c0,1.24-1.01,2.25-2.25,2.25h-35.16c-1.24,0-2.25-1.01-2.25-2.25v-35.16c0-1.24,1.01-2.25,2.25-2.25h35.16c1.24,0,2.25,1.01,2.25,2.25v35.16ZM281.13,519.85c0,1.24-1.01,2.25-2.25,2.25h-35.16c-1.24,0-2.25-1.01-2.25-2.25v-35.16c0-1.24,1.01-2.25,2.25-2.25h35.16c1.24,0,2.25,1.01,2.25,2.25v35.16ZM281.13,479.69c0,1.24-1.01,2.25-2.25,2.25h-35.16c-1.24,0-2.25-1.01-2.25-2.25v-35.16c0-1.24,1.01-2.25,2.25-2.25h35.16c1.24,0,2.25,1.01,2.25,2.25v35.16ZM281.13,439.52c0,1.24-1.01,2.25-2.25,2.25h-35.16c-1.24,0-2.25-1.01-2.25-2.25v-35.16c0-1.24,1.01-2.25,2.25-2.25h35.16c1.24,0,2.25,1.01,2.25,2.25v35.16ZM281.13,399.36c0,1.24-1.01,2.25-2.25,2.25h-35.16c-1.24,0-2.25-1.01-2.25-2.25v-35.16c0-1.24,1.01-2.25,2.25-2.25h35.16c1.24,0,2.25,1.01,2.25,2.25v35.16ZM281.13,359.2c0,1.24-1.01,2.25-2.25,2.25h-35.16c-1.24,0-2.25-1.01-2.25-2.25v-35.16c0-1.24,1.01-2.25,2.25-2.25h35.16c1.24,0,2.25,1.01,2.25,2.25v35.16ZM281.13,319.04c0,1.24-1.01,2.25-2.25,2.25h-35.16c-1.24,0-2.25-1.01-2.25-2.25v-35.16c0-1.24,1.01-2.25,2.25-2.25h35.16c1.24,0,2.25,1.01,2.25,2.25v35.16ZM281.13,278.88c0,1.24-1.01,2.25-2.25,2.25h-35.16c-1.24,0-2.25-1.01-2.25-2.25v-35.16c0-1.24,1.01-2.25,2.25-2.25h35.16c1.24,0,2.25,1.01,2.25,2.25v35.16ZM281.13,238.72c0,1.24-1.01,2.25-2.25,2.25h-35.16c-1.24,0-2.25-1.01-2.25-2.25v-35.16c0-1.24,1.01-2.25,2.25-2.25h35.16c1.24,0,2.25,1.01,2.25,2.25v35.16ZM281.13,198.56c0,1.24-1.01,2.25-2.25,2.25h-35.16c-1.24,0-2.25-1.01-2.25-2.25v-35.16c0-1.24,1.01-2.25,2.25-2.25h35.16c1.24,0,2.25,1.01,2.25,2.25v35.16ZM281.13,158.39c0,1.24-1.01,2.25-2.25,2.25h-35.16c-1.24,0-2.25-1.01-2.25-2.25v-35.16c0-1.24,1.01-2.25,2.25-2.25h35.16c1.24,0,2.25,1.01,2.25,2.25v35.16ZM281.13,118.23c0,1.24-1.01,2.25-2.25,2.25h-35.16c-1.24,0-2.25-1.01-2.25-2.25v-35.16c0-1.24,1.01-2.25,2.25-2.25h35.16c1.24,0,2.25,1.01,2.25,2.25v35.16ZM281.13,78.07c0,1.24-1.01,2.25-2.25,2.25h-35.16c-1.24,0-2.25-1.01-2.25-2.25v-35.16c0-1.24,1.01-2.25,2.25-2.25h35.16c1.24,0,2.25,1.01,2.25,2.25v35.16ZM281.13,37.91c0,1.24-1.01,2.25-2.25,2.25h-35.16c-1.24,0-2.25-1.01-2.25-2.25V2.75c0-1.24,1.01-2.25,2.25-2.25h35.16c1.24,0,2.25,1.01,2.25,2.25v35.16ZM321.29,600.17c0,1.24-1.01,2.25-2.25,2.25h-35.16c-1.24,0-2.25-1.01-2.25-2.25v-35.16c0-1.24,1.01-2.25,2.25-2.25h35.16c1.24,0,2.25,1.01,2.25,2.25v35.16ZM321.29,560.01c0,1.24-1.01,2.25-2.25,2.25h-35.16c-1.24,0-2.25-1.01-2.25-2.25v-35.16c0-1.24,1.01-2.25,2.25-2.25h35.16c1.24,0,2.25,1.01,2.25,2.25v35.16ZM321.29,519.85c0,1.24-1.01,2.25-2.25,2.25h-35.16c-1.24,0-2.25-1.01-2.25-2.25v-35.16c0-1.24,1.01-2.25,2.25-2.25h35.16c1.24,0,2.25,1.01,2.25,2.25v35.16ZM321.29,479.69c0,1.24-1.01,2.25-2.25,2.25h-35.16c-1.24,0-2.25-1.01-2.25-2.25v-35.16c0-1.24,1.01-2.25,2.25-2.25h35.16c1.24,0,2.25,1.01,2.25,2.25v35.16ZM321.29,439.52c0,1.24-1.01,2.25-2.25,2.25h-35.16c-1.24,0-2.25-1.01-2.25-2.25v-35.16c0-1.24,1.01-2.25,2.25-2.25h35.16c1.24,0,2.25,1.01,2.25,2.25v35.16ZM321.29,399.36c0,1.24-1.01,2.25-2.25,2.25h-35.16c-1.24,0-2.25-1.01-2.25-2.25v-35.16c0-1.24,1.01-2.25,2.25-2.25h35.16c1.24,0,2.25,1.01,2.25,2.25v35.16ZM321.29,359.2c0,1.24-1.01,2.25-2.25,2.25h-35.16c-1.24,0-2.25-1.01-2.25-2.25v-35.16c0-1.24,1.01-2.25,2.25-2.25h35.16c1.24,0,2.25,1.01,2.25,2.25v35.16ZM321.29,319.04c0,1.24-1.01,2.25-2.25,2.25h-35.16c-1.24,0-2.25-1.01-2.25-2.25v-35.16c0-1.24,1.01-2.25,2.25-2.25h35.16c1.24,0,2.25,1.01,2.25,2.25v35.16ZM321.29,278.88c0,1.24-1.01,2.25-2.25,2.25h-35.16c-1.24,0-2.25-1.01-2.25-2.25v-35.16c0-1.24,1.01-2.25,2.25-2.25h35.16c1.24,0,2.25,1.01,2.25,2.25v35.16ZM321.29,238.72c0,1.24-1.01,2.25-2.25,2.25h-35.16c-1.24,0-2.25-1.01-2.25-2.25v-35.16c0-1.24,1.01-2.25,2.25-2.25h35.16c1.24,0,2.25,1.01,2.25,2.25v35.16ZM321.29,198.56c0,1.24-1.01,2.25-2.25,2.25h-35.16c-1.24,0-2.25-1.01-2.25-2.25v-35.16c0-1.24,1.01-2.25,2.25-2.25h35.16c1.24,0,2.25,1.01,2.25,2.25v35.16ZM321.29,158.39c0,1.24-1.01,2.25-2.25,2.25h-35.16c-1.24,0-2.25-1.01-2.25-2.25v-35.16c0-1.24,1.01-2.25,2.25-2.25h35.16c1.24,0,2.25,1.01,2.25,2.25v35.16ZM321.29,118.23c0,1.24-1.01,2.25-2.25,2.25h-35.16c-1.24,0-2.25-1.01-2.25-2.25v-35.16c0-1.24,1.01-2.25,2.25-2.25h35.16c1.24,0,2.25,1.01,2.25,2.25v35.16ZM321.3,78.07c0,1.24-1.01,2.25-2.25,2.25h-35.16c-1.24,0-2.25-1.01-2.25-2.25v-35.16c0-1.24,1.01-2.25,2.25-2.25h35.16c1.24,0,2.25,1.01,2.25,2.25v35.16ZM321.3,37.91c0,1.24-1.01,2.25-2.25,2.25h-35.16c-1.24,0-2.25-1.01-2.25-2.25V2.75c0-1.24,1.01-2.25,2.25-2.25h35.16c1.24,0,2.25,1.01,2.25,2.25v35.16ZM361.46,600.17c0,1.24-1.01,2.25-2.25,2.25h-35.16c-1.24,0-2.25-1.01-2.25-2.25v-35.16c0-1.24,1.01-2.25,2.25-2.25h35.16c1.24,0,2.25,1.01,2.25,2.25v35.16ZM361.46,560.01c0,1.24-1.01,2.25-2.25,2.25h-35.16c-1.24,0-2.25-1.01-2.25-2.25v-35.16c0-1.24,1.01-2.25,2.25-2.25h35.16c1.24,0,2.25,1.01,2.25,2.25v35.16ZM361.46,519.85c0,1.24-1.01,2.25-2.25,2.25h-35.16c-1.24,0-2.25-1.01-2.25-2.25v-35.16c0-1.24,1.01-2.25,2.25-2.25h35.16c1.24,0,2.25,1.01,2.25,2.25v35.16ZM361.46,479.69c0,1.24-1.01,2.25-2.25,2.25h-35.16c-1.24,0-2.25-1.01-2.25-2.25v-35.16c0-1.24,1.01-2.25,2.25-2.25h35.16c1.24,0,2.25,1.01,2.25,2.25v35.16ZM361.46,439.53c0,1.24-1.01,2.25-2.25,2.25h-35.16c-1.24,0-2.25-1.01-2.25-2.25v-35.16c0-1.24,1.01-2.25,2.25-2.25h35.16c1.24,0,2.25,1.01,2.25,2.25v35.16ZM361.46,399.36c0,1.24-1.01,2.25-2.25,2.25h-35.16c-1.24,0-2.25-1.01-2.25-2.25v-35.16c0-1.24,1.01-2.25,2.25-2.25h35.16c1.24,0,2.25,1.01,2.25,2.25v35.16ZM361.46,359.2c0,1.24-1.01,2.25-2.25,2.25h-35.16c-1.24,0-2.25-1.01-2.25-2.25v-35.16c0-1.24,1.01-2.25,2.25-2.25h35.16c1.24,0,2.25,1.01,2.25,2.25v35.16ZM361.46,319.04c0,1.24-1.01,2.25-2.25,2.25h-35.16c-1.24,0-2.25-1.01-2.25-2.25v-35.16c0-1.24,1.01-2.25,2.25-2.25h35.16c1.24,0,2.25,1.01,2.25,2.25v35.16ZM361.46,278.88c0,1.24-1.01,2.25-2.25,2.25h-35.16c-1.24,0-2.25-1.01-2.25-2.25v-35.16c0-1.24,1.01-2.25,2.25-2.25h35.16c1.24,0,2.25,1.01,2.25,2.25v35.16ZM361.46,238.72c0,1.24-1.01,2.25-2.25,2.25h-35.16c-1.24,0-2.25-1.01-2.25-2.25v-35.16c0-1.24,1.01-2.25,2.25-2.25h35.16c1.24,0,2.25,1.01,2.25,2.25v35.16ZM361.46,198.56c0,1.24-1.01,2.25-2.25,2.25h-35.16c-1.24,0-2.25-1.01-2.25-2.25v-35.16c0-1.24,1.01-2.25,2.25-2.25h35.16c1.24,0,2.25,1.01,2.25,2.25v35.16ZM361.46,158.39c0,1.24-1.01,2.25-2.25,2.25h-35.16c-1.24,0-2.25-1.01-2.25-2.25v-35.16c0-1.24,1.01-2.25,2.25-2.25h35.16c1.24,0,2.25,1.01,2.25,2.25v35.16ZM361.46,118.23c0,1.24-1.01,2.25-2.25,2.25h-35.16c-1.24,0-2.25-1.01-2.25-2.25v-35.16c0-1.24,1.01-2.25,2.25-2.25h35.16c1.24,0,2.25,1.01,2.25,2.25v35.16ZM361.46,78.07c0,1.24-1.01,2.25-2.25,2.25h-35.16c-1.24,0-2.25-1.01-2.25-2.25v-35.16c0-1.24,1.01-2.25,2.25-2.25h35.16c1.24,0,2.25,1.01,2.25,2.25v35.16ZM361.46,37.91c0,1.24-1.01,2.25-2.25,2.25h-35.16c-1.24,0-2.25-1.01-2.25-2.25V2.75c0-1.24,1.01-2.25,2.25-2.25h35.16c1.24,0,2.25,1.01,2.25,2.25v35.16ZM401.62,600.17c0,1.24-1.01,2.25-2.25,2.25h-35.16c-1.24,0-2.25-1.01-2.25-2.25v-35.16c0-1.24,1.01-2.25,2.25-2.25h35.16c1.24,0,2.25,1.01,2.25,2.25v35.16ZM401.62,560.01c0,1.24-1.01,2.25-2.25,2.25h-35.16c-1.24,0-2.25-1.01-2.25-2.25v-35.16c0-1.24,1.01-2.25,2.25-2.25h35.16c1.24,0,2.25,1.01,2.25,2.25v35.16ZM401.62,519.85c0,1.24-1.01,2.25-2.25,2.25h-35.16c-1.24,0-2.25-1.01-2.25-2.25v-35.16c0-1.24,1.01-2.25,2.25-2.25h35.16c1.24,0,2.25,1.01,2.25,2.25v35.16ZM401.62,479.69c0,1.24-1.01,2.25-2.25,2.25h-35.16c-1.24,0-2.25-1.01-2.25-2.25v-35.16c0-1.24,1.01-2.25,2.25-2.25h35.16c1.24,0,2.25,1.01,2.25,2.25v35.16ZM401.62,439.53c0,1.24-1.01,2.25-2.25,2.25h-35.16c-1.24,0-2.25-1.01-2.25-2.25v-35.16c0-1.24,1.01-2.25,2.25-2.25h35.16c1.24,0,2.25,1.01,2.25,2.25v35.16ZM401.62,399.36c0,1.24-1.01,2.25-2.25,2.25h-35.16c-1.24,0-2.25-1.01-2.25-2.25v-35.16c0-1.24,1.01-2.25,2.25-2.25h35.16c1.24,0,2.25,1.01,2.25,2.25v35.16ZM401.62,359.2c0,1.24-1.01,2.25-2.25,2.25h-35.16c-1.24,0-2.25-1.01-2.25-2.25v-35.16c0-1.24,1.01-2.25,2.25-2.25h35.16c1.24,0,2.25,1.01,2.25,2.25v35.16ZM401.62,319.04c0,1.24-1.01,2.25-2.25,2.25h-35.16c-1.24,0-2.25-1.01-2.25-2.25v-35.16c0-1.24,1.01-2.25,2.25-2.25h35.16c1.24,0,2.25,1.01,2.25,2.25v35.16ZM401.62,278.88c0,1.24-1.01,2.25-2.25,2.25h-35.16c-1.24,0-2.25-1.01-2.25-2.25v-35.16c0-1.24,1.01-2.25,2.25-2.25h35.16c1.24,0,2.25,1.01,2.25,2.25v35.16ZM401.62,238.72c0,1.24-1.01,2.25-2.25,2.25h-35.16c-1.24,0-2.25-1.01-2.25-2.25v-35.16c0-1.24,1.01-2.25,2.25-2.25h35.16c1.24,0,2.25,1.01,2.25,2.25v35.16ZM401.62,198.56c0,1.24-1.01,2.25-2.25,2.25h-35.16c-1.24,0-2.25-1.01-2.25-2.25v-35.16c0-1.24,1.01-2.25,2.25-2.25h35.16c1.24,0,2.25,1.01,2.25,2.25v35.16ZM401.62,158.39c0,1.24-1.01,2.25-2.25,2.25h-35.16c-1.24,0-2.25-1.01-2.25-2.25v-35.16c0-1.24,1.01-2.25,2.25-2.25h35.16c1.24,0,2.25,1.01,2.25,2.25v35.16ZM401.62,118.23c0,1.24-1.01,2.25-2.25,2.25h-35.16c-1.24,0-2.25-1.01-2.25-2.25v-35.16c0-1.24,1.01-2.25,2.25-2.25h35.16c1.24,0,2.25,1.01,2.25,2.25v35.16ZM401.62,78.07c0,1.24-1.01,2.25-2.25,2.25h-35.16c-1.24,0-2.25-1.01-2.25-2.25v-35.16c0-1.24,1.01-2.25,2.25-2.25h35.16c1.24,0,2.25,1.01,2.25,2.25v35.16ZM401.62,37.91c0,1.24-1.01,2.25-2.25,2.25h-35.16c-1.24,0-2.25-1.01-2.25-2.25V2.75c0-1.24,1.01-2.25,2.25-2.25h35.16c1.24,0,2.25,1.01,2.25,2.25v35.16ZM441.78,600.17c0,1.24-1.01,2.25-2.25,2.25h-35.16c-1.24,0-2.25-1.01-2.25-2.25v-35.16c0-1.24,1.01-2.25,2.25-2.25h35.16c1.24,0,2.25,1.01,2.25,2.25v35.16ZM441.78,560.01c0,1.24-1.01,2.25-2.25,2.25h-35.16c-1.24,0-2.25-1.01-2.25-2.25v-35.16c0-1.24,1.01-2.25,2.25-2.25h35.16c1.24,0,2.25,1.01,2.25,2.25v35.16ZM441.78,519.85c0,1.24-1.01,2.25-2.25,2.25h-35.16c-1.24,0-2.25-1.01-2.25-2.25v-35.16c0-1.24,1.01-2.25,2.25-2.25h35.16c1.24,0,2.25,1.01,2.25,2.25v35.16ZM441.78,479.69c0,1.24-1.01,2.25-2.25,2.25h-35.16c-1.24,0-2.25-1.01-2.25-2.25v-35.16c0-1.24,1.01-2.25,2.25-2.25h35.16c1.24,0,2.25,1.01,2.25,2.25v35.16ZM441.78,439.53c0,1.24-1.01,2.25-2.25,2.25h-35.16c-1.24,0-2.25-1.01-2.25-2.25v-35.16c0-1.24,1.01-2.25,2.25-2.25h35.16c1.24,0,2.25,1.01,2.25,2.25v35.16ZM441.78,399.36c0,1.24-1.01,2.25-2.25,2.25h-35.16c-1.24,0-2.25-1.01-2.25-2.25v-35.16c0-1.24,1.01-2.25,2.25-2.25h35.16c1.24,0,2.25,1.01,2.25,2.25v35.16ZM441.78,359.2c0,1.24-1.01,2.25-2.25,2.25h-35.16c-1.24,0-2.25-1.01-2.25-2.25v-35.16c0-1.24,1.01-2.25,2.25-2.25h35.16c1.24,0,2.25,1.01,2.25,2.25v35.16ZM441.78,319.04c0,1.24-1.01,2.25-2.25,2.25h-35.16c-1.24,0-2.25-1.01-2.25-2.25v-35.16c0-1.24,1.01-2.25,2.25-2.25h35.16c1.24,0,2.25,1.01,2.25,2.25v35.16ZM441.78,278.88c0,1.24-1.01,2.25-2.25,2.25h-35.16c-1.24,0-2.25-1.01-2.25-2.25v-35.16c0-1.24,1.01-2.25,2.25-2.25h35.16c1.24,0,2.25,1.01,2.25,2.25v35.16ZM441.78,238.72c0,1.24-1.01,2.25-2.25,2.25h-35.16c-1.24,0-2.25-1.01-2.25-2.25v-35.16c0-1.24,1.01-2.25,2.25-2.25h35.16c1.24,0,2.25,1.01,2.25,2.25v35.16ZM441.78,198.56c0,1.24-1.01,2.25-2.25,2.25h-35.16c-1.24,0-2.25-1.01-2.25-2.25v-35.16c0-1.24,1.01-2.25,2.25-2.25h35.16c1.24,0,2.25,1.01,2.25,2.25v35.16ZM441.78,158.39c0,1.24-1.01,2.25-2.25,2.25h-35.16c-1.24,0-2.25-1.01-2.25-2.25v-35.16c0-1.24,1.01-2.25,2.25-2.25h35.16c1.24,0,2.25,1.01,2.25,2.25v35.16ZM441.78,118.23c0,1.24-1.01,2.25-2.25,2.25h-35.16c-1.24,0-2.25-1.01-2.25-2.25v-35.16c0-1.24,1.01-2.25,2.25-2.25h35.16c1.24,0,2.25,1.01,2.25,2.25v35.16ZM441.78,78.07c0,1.24-1.01,2.25-2.25,2.25h-35.16c-1.24,0-2.25-1.01-2.25-2.25v-35.16c0-1.24,1.01-2.25,2.25-2.25h35.16c1.24,0,2.25,1.01,2.25,2.25v35.16ZM441.78,37.91c0,1.24-1.01,2.25-2.25,2.25h-35.16c-1.24,0-2.25-1.01-2.25-2.25V2.75c0-1.24,1.01-2.25,2.25-2.25h35.16c1.24,0,2.25,1.01,2.25,2.25v35.16Z"/>
    </g>
  </g>
</svg>