<?xml version="1.0" encoding="UTF-8"?>
<svg id="Layer_2" data-name="Layer 2" xmlns="http://www.w3.org/2000/svg" viewBox="0 0 124.15 133.58">
  <defs>
    <style>
      .cls-1 {
        fill: #a7a39d;
      }
    </style>
  </defs>
  <g id="Layer_1-2" data-name="Layer 1">
    <g>
      <g>
        <path class="cls-1" d="M82.07,68.28c-23.24,0-42.07,1.05-42.07,2.35s18.84,2.35,42.07,2.35,42.07-1.05,42.07-2.35-18.83-2.35-42.07-2.35Z"/>
        <path class="cls-1" d="M71.63,59.69c-29.01,0-52.52,1.05-52.52,2.35s23.51,2.35,52.52,2.35,52.52-1.05,52.52-2.35-23.52-2.35-52.52-2.35Z"/>
        <path class="cls-1" d="M64.15,51.09c-33.14,0-60,1.05-60,2.35s26.86,2.35,60,2.35,60-1.05,60-2.35-26.87-2.35-60-2.35Z"/>
        <path class="cls-1" d="M42.07,29.72c23.24,0,42.07-1.05,42.07-2.35s-18.84-2.35-42.07-2.35S0,26.07,0,27.37s18.84,2.35,42.07,2.35Z"/>
        <path class="cls-1" d="M52.52,38.31c29.01,0,52.52-1.05,52.52-2.35s-23.51-2.35-52.52-2.35S0,34.66,0,35.96s23.51,2.35,52.52,2.35Z"/>
        <path class="cls-1" d="M60,46.9c33.14,0,60-1.05,60-2.35s-26.86-2.35-60-2.35S0,43.25,0,44.55s26.86,2.35,60,2.35Z"/>
        <path class="cls-1" d="M62.07,3.77V0c-15.21.43-25.07,1.11-25.07,1.89s9.86,1.46,25.07,1.88Z"/>
        <path class="cls-1" d="M62.07,21.41v-4.67c-30.99.13-55.07,1.13-55.07,2.33s24.09,2.2,55.07,2.34Z"/>
        <path class="cls-1" d="M62.07,12.76v-4.56c-27.03.25-47.07,1.18-47.07,2.28s20.04,2.03,47.07,2.28Z"/>
        <path class="cls-1" d="M62.55,94.75v3.77c15.21-.43,25.07-1.11,25.07-1.89s-9.85-1.46-25.07-1.88Z"/>
        <path class="cls-1" d="M62.55,77.11v4.67c30.99-.13,55.07-1.13,55.07-2.33s-24.08-2.21-55.07-2.34Z"/>
        <path class="cls-1" d="M62.55,85.76v4.56c27.03-.25,47.07-1.18,47.07-2.28s-20.03-2.03-47.07-2.28Z"/>
      </g>
      <g>
        <path class="cls-1" d="M29.32,133.58c-4.15,0-7.35-1.25-9.61-3.76s-3.4-6.07-3.4-10.68,1.12-7.94,3.38-10.49c2.25-2.55,5.35-3.82,9.31-3.82s7.38,1.24,9.69,3.72,3.48,5.95,3.48,10.39-1.12,8.2-3.37,10.78c-2.26,2.57-5.42,3.86-9.48,3.86ZM29.28,110.55c-3.55,0-5.32,2.89-5.32,8.67,0,2.75.34,4.8,1.02,6.14.84,1.66,2.26,2.5,4.25,2.5,3.52,0,5.28-2.81,5.28-8.43,0-3.11-.42-5.37-1.25-6.77-.83-1.41-2.16-2.11-3.98-2.11Z"/>
        <path class="cls-1" d="M60.77,127.65c.93,0,1.39-.84,1.39-2.54v-11.78c0-1.83-.67-2.74-2-2.74s-2,.46-2,1.39c0,.27.05.69.14,1.25.1.56.14.98.14,1.25,0,2.43-1.02,3.64-3.07,3.64-.96,0-1.7-.31-2.25-.92s-.82-1.44-.82-2.47c0-.35.05-1,.16-1.92.08-.71.12-1.36.12-1.96,0-.33-.06-1-.17-2-.08-.68-.11-1.23-.11-1.64,0-1.2.6-1.8,1.81-1.8.63,0,1.43.04,2.39.12,2.19.19,5.27.29,9.22.29s7.07-.09,9.26-.29c.96-.08,1.74-.12,2.35-.12,1.23,0,1.85.6,1.85,1.8,0,.41-.05,1.02-.14,1.82-.1.8-.14,1.41-.14,1.82,0,.44.04,1.09.12,1.96.11,1.15.16,1.8.16,1.96,0,1.04-.28,1.85-.84,2.45-.56.6-1.3.9-2.23.9-2.05,0-3.07-1.17-3.07-3.52,0-.33.04-.76.12-1.31s.12-.95.12-1.23c0-.98-.6-1.47-1.8-1.47-.79,0-1.35.21-1.68.61-.33.41-.49,1.12-.49,2.13v11.78c0,1.69.46,2.54,1.39,2.54.3,0,.74-.05,1.33-.14s1.03-.14,1.33-.14c1.64,0,2.45.82,2.45,2.45,0,2.16-1.02,3.23-3.07,3.23-.79,0-1.73-.05-2.82-.16-1.64-.16-3.04-.25-4.21-.25s-2.6.08-4.21.25c-1.06.11-2,.16-2.82.16-2.05,0-3.07-1-3.07-2.99,0-1.8.83-2.7,2.5-2.7.3,0,.74.05,1.33.14.59.1,1.03.15,1.33.15Z"/>
        <path class="cls-1" d="M101.23,112.43l3.68,13.17,3.89-13.17c.14-.46.2-.79.2-.98,0-.46-.22-.68-.65-.65h-.65c-1.25,0-1.88-.81-1.88-2.44,0-1.98.87-2.96,2.62-2.96.57,0,1.42.07,2.54.21s1.96.2,2.54.2c.87,0,1.66-.05,2.37-.16,1.06-.16,1.84-.25,2.33-.25.85,0,1.53.27,2.05.8.52.53.78,1.22.78,2.07,0,.79-.2,1.46-.59,2-.4.55-.88.82-1.45.82-.19,0-.46-.05-.82-.14-.35-.09-.59-.14-.7-.14-.65,0-1.36,1.17-2.13,3.52l-4.99,15.18c-.74,2.24-1.81,3.35-3.23,3.35-.27,0-.68-.02-1.23-.06s-.96-.06-1.23-.06-.67.02-1.19.06-.91.06-1.19.06c-1.45,0-2.67-1.58-3.68-4.75l-4.87-15.3c-.44-1.34-.93-2-1.47-2-.19,0-.44.05-.76.14-.31.1-.62.14-.92.14-.6,0-1.08-.25-1.45-.76s-.55-1.15-.55-1.94c0-1.99,1-2.99,2.99-2.99.54,0,1.38.07,2.5.21s1.96.2,2.54.2c.82,0,1.75-.07,2.78-.2,1.04-.14,1.76-.21,2.17-.21,1.8,0,2.7,1,2.7,3,0,1.6-.56,2.4-1.68,2.4h-.78c-.49,0-.74.23-.74.7-.02.24.04.55.15.93Z"/>
      </g>
    </g>
  </g>
</svg>