<?xml version="1.0" encoding="UTF-8"?>
<svg id="Layer_2" data-name="Layer 2" xmlns="http://www.w3.org/2000/svg" viewBox="0 0 164.3 138.22">
  <defs>
    <style>
      .cls-1 {
        fill: #231f20;
      }

      .cls-2 {
        fill: aqua;
      }
    </style>
  </defs>
  <g id="Layer_1-2" data-name="Layer 1">
    <g>
      <path class="cls-2" d="M153.56,0c5.92,0,10.74,4.82,10.74,10.74v116.74c0,5.92-4.82,10.74-10.74,10.74H10.74c-5.92,0-10.74-4.82-10.74-10.74V10.74C0,4.82,4.82,0,10.74,0h142.82"/>
      <g>
        <path d="M27.78,80.53c1.77,0,3.31.31,4.62.94s2.38,1.49,3.24,2.58c.85,1.09,1.48,2.38,1.88,3.86s.6,3.09.6,4.83c0,4.11-1,7.19-2.99,9.24s-4.91,3.08-8.76,3.08h-3.26v15.09h-9.33v-39.62h14ZM24.87,97.62c1.17,0,2.07-.39,2.68-1.17.62-.78.93-2,.93-3.66,0-3.22-1.2-4.83-3.61-4.83h-1.76v9.66h1.76Z"/>
        <path d="M58.84,80.53l8.73,39.62h-9.93l-.95-6.94h-7.43l-.95,6.94h-9.78l8.58-39.62h11.74ZM52.92,88.63l-2.56,16.81h5.22l-2.56-16.81h-.1Z"/>
        <path d="M79.57,109.1c0,1.92.25,3.21.75,3.86s1.19.97,2.06.97,1.55-.32,2.06-.97.75-1.93.75-3.86v-28.58h9.33v25.97c0,2.77-.27,5.09-.8,6.94-.54,1.85-1.31,3.33-2.33,4.44-1.02,1.11-2.28,1.87-3.79,2.28-1.5.41-3.25.61-5.22.61s-3.67-.2-5.19-.61c-1.52-.41-2.79-1.17-3.81-2.28-1.02-1.11-1.8-2.59-2.33-4.44-.54-1.85-.8-4.16-.8-6.94v-25.97h9.33v28.58Z"/>
        <path d="M114.49,91.01c0-1.18-.22-2.19-.65-3.02s-1.1-1.25-2.01-1.25c-1,0-1.74.36-2.21,1.08-.47.72-.7,1.53-.7,2.41,0,1.3.38,2.32,1.13,3.08.75.76,1.7,1.42,2.83,1.97,1.14.55,2.36,1.12,3.66,1.69,1.3.57,2.53,1.32,3.66,2.25,1.14.93,2.08,2.14,2.83,3.63.75,1.5,1.13,3.45,1.13,5.85,0,4.22-1.09,7.28-3.26,9.18-2.17,1.91-5.32,2.86-9.43,2.86-1.94,0-3.66-.18-5.14-.53-1.49-.35-2.74-.96-3.76-1.83-1.02-.87-1.8-2.01-2.33-3.41s-.8-3.14-.8-5.22v-1.39h9.03v.94c0,1.7.28,2.89.85,3.58.57.68,1.3,1.03,2.21,1.03.97,0,1.71-.37,2.23-1.11s.78-1.65.78-2.72c0-1.29-.36-2.32-1.08-3.08-.72-.76-1.62-1.41-2.71-1.94-1.09-.54-2.27-1.08-3.54-1.64s-2.45-1.28-3.54-2.16c-1.09-.89-1.99-2.05-2.71-3.5s-1.08-3.33-1.08-5.66c0-4.03.97-7.1,2.91-9.21,1.94-2.11,4.88-3.16,8.83-3.16s7.03.97,8.86,2.91c1.82,1.94,2.73,5.04,2.73,9.29h-8.73v-.94Z"/>
        <path d="M150.71,80.53v8.43h-11.89v6.77h11.14v8.1h-11.14v7.88h12.34v8.43h-21.68v-39.62h21.22Z"/>
      </g>
      <g>
        <rect class="cls-1" x="54.15" y="17.06" width="23.69" height="56"/>
        <rect class="cls-1" x="86.46" y="17.06" width="23.69" height="56"/>
      </g>
    </g>
  </g>
</svg>