<?xml version="1.0" encoding="UTF-8"?>
<svg id="Layer_2" data-name="Layer 2" xmlns="http://www.w3.org/2000/svg" viewBox="0 0 164.3 138.22">
  <defs>
    <style>
      .cls-1 {
        fill: #f15a24;
      }

      .cls-2 {
        fill: #231f20;
      }
    </style>
  </defs>
  <g id="Layer_1-2" data-name="Layer 1">
    <g>
      <path class="cls-1" d="M153.56,0c5.92,0,10.74,4.82,10.74,10.74v116.74c0,5.92-4.82,10.74-10.74,10.74H10.74c-5.92,0-10.74-4.82-10.74-10.74V10.74C0,4.82,4.82,0,10.74,0h142.82"/>
      <polygon class="cls-2" points="65.65 16.92 111.23 44.99 65.65 73.06 65.65 16.92"/>
      <g>
        <path d="M37.07,80.53c1.96,0,3.66.31,5.1.94s2.64,1.49,3.58,2.58c.94,1.09,1.64,2.38,2.08,3.86.44,1.48.67,3.09.67,4.83,0,4.11-1.1,7.19-3.3,9.24-2.2,2.05-5.43,3.08-9.68,3.08h-3.61v15.09h-10.32v-39.62h15.48ZM33.85,97.62c1.29,0,2.28-.39,2.97-1.17.68-.78,1.03-2,1.03-3.66,0-3.22-1.33-4.83-4-4.83h-1.94v9.66h1.94Z"/>
        <path d="M66.53,80.53v31.18h12.71v8.43h-23.03v-39.62h10.32Z"/>
        <path d="M105.82,80.53l9.65,39.62h-10.99l-1.05-6.94h-8.21l-1.05,6.94h-10.82l9.49-39.62h12.98ZM99.27,88.63l-2.83,16.81h5.77l-2.83-16.81h-.11Z"/>
        <path d="M114.42,80.53h11.15l3.88,13.82h.11l3.88-13.82h11.32l-10.1,24.03v15.59h-10.32v-15.59l-9.93-24.03Z"/>
      </g>
    </g>
  </g>
</svg>