<?xml version="1.0" encoding="UTF-8"?>
<svg id="Layer_2" data-name="Layer 2" xmlns="http://www.w3.org/2000/svg" xmlns:xlink="http://www.w3.org/1999/xlink" viewBox="0 0 29.99 122.55">
  <defs>
    <style>
      .cls-1 {
        fill: url(#linear-gradient-5);
      }

      .cls-2 {
        fill: url(#linear-gradient-4);
      }

      .cls-3 {
        fill: url(#linear-gradient-3);
      }

      .cls-4 {
        fill: url(#linear-gradient-2);
      }

      .cls-5 {
        fill: url(#linear-gradient);
      }

      .cls-6 {
        fill: #231f20;
        opacity: .3;
      }
    </style>
    <linearGradient id="linear-gradient" x1="9.63" y1="67.51" x2="20.39" y2="67.59" gradientUnits="userSpaceOnUse">
      <stop offset="0" stop-color="#5870aa"/>
      <stop offset=".5" stop-color="#a6b3d2"/>
      <stop offset="1" stop-color="#5870aa"/>
    </linearGradient>
    <linearGradient id="linear-gradient-2" x1="-637.11" y1="212.18" x2="-637.11" y2="242.14" gradientTransform="translate(-216.59 664.58) rotate(90.4) scale(1 -1)" gradientUnits="userSpaceOnUse">
      <stop offset="0" stop-color="#25307d"/>
      <stop offset=".05" stop-color="#222c82"/>
      <stop offset=".12" stop-color="#1a2290"/>
      <stop offset=".18" stop-color="#0d11a8"/>
      <stop offset=".24" stop-color="#0000c0"/>
      <stop offset=".28" stop-color="#0005bf"/>
      <stop offset=".33" stop-color="#0013be"/>
      <stop offset=".39" stop-color="#002bbb"/>
      <stop offset=".45" stop-color="#004db7"/>
      <stop offset=".49" stop-color="#006ab4"/>
      <stop offset=".5" stop-color="#0068b4"/>
      <stop offset=".57" stop-color="#0043b8"/>
      <stop offset=".63" stop-color="#0025bc"/>
      <stop offset=".7" stop-color="#0011be"/>
      <stop offset=".76" stop-color="#0004c0"/>
      <stop offset=".82" stop-color="#0000c0"/>
      <stop offset="1" stop-color="#1b2266"/>
    </linearGradient>
    <linearGradient id="linear-gradient-3" x1="-628.16" y1="212.24" x2="-628.16" y2="242.2" xlink:href="#linear-gradient-2"/>
    <linearGradient id="linear-gradient-4" x1="-619.2" y1="212.31" x2="-619.2" y2="242.27" xlink:href="#linear-gradient-2"/>
    <linearGradient id="linear-gradient-5" x1="6.5" y1="6.28" x2="23.5" y2="6.28" xlink:href="#linear-gradient"/>
  </defs>
  <g id="Layer_1-2" data-name="Layer 1">
    <rect class="cls-5" x="10" y="12.55" width="10" height="110"/>
    <path class="cls-6" d="M10.5,12.55h9v1.55c0,1-.81,1.81-1.81,1.81h-5.37c-1,0-1.81-.81-1.81-1.81v-1.55h0Z"/>
    <g>
      <g>
        <path class="cls-6" d="M10,30.82h10v1.55c0,1-.81,1.81-1.81,1.81h-6.37c-1,0-1.81-.81-1.81-1.81v-1.55h0Z"/>
        <path class="cls-4" d="M26.19,32.5l-22.46-.07C1.66,32.42-.01,31.69,0,30.81l.04-4.27c.04-2.42,1.68.11,3.76.11l22.46.07c2.06,0,3.74-1.56,3.72-.67l-.04,4.84c0,.9-1.69,1.61-3.76,1.61Z"/>
        <path d="M26.27,24.24h-6.27s0,0,0,0c0,1-.81,1.81-1.81,1.81h-6.37c-1,0-1.81-.81-1.81-1.81v-.02H3.8c-2.06-.02-3.75,1.02-3.76,1.58L0,26.25c-.01.56,1.66,1.6,3.72,1.6l22.47.04c2.06,0,3.75-1.02,3.76-1.59l.04-.46c.01-.56-1.66-1.6-3.72-1.6Z"/>
      </g>
      <g>
        <path class="cls-6" d="M10,39.77h10v1.55c0,1-.81,1.81-1.81,1.81h-6.37c-1,0-1.81-.81-1.81-1.81v-1.55h0Z"/>
        <path class="cls-3" d="M26.19,41.45l-22.46-.07c-2.06,0-3.74-.73-3.72-1.62l.04-4.27c.04-2.42,1.68.11,3.76.11l22.46.07c2.06,0,3.74-1.56,3.72-.67l-.04,4.84c0,.9-1.69,1.61-3.76,1.61Z"/>
        <path d="M26.27,33.2h-6.27s0,0,0,0c0,1-.81,1.81-1.81,1.81h-6.37c-1,0-1.81-.81-1.81-1.81v-.02H3.8c-2.06-.02-3.75,1.02-3.76,1.58L0,35.2c-.01.56,1.66,1.6,3.72,1.6l22.47.04c2.06,0,3.75-1.02,3.76-1.59l.04-.46c.01-.56-1.66-1.6-3.72-1.6Z"/>
      </g>
      <g>
        <path class="cls-6" d="M10,48.73h10v1.55c0,1-.81,1.81-1.81,1.81h-6.37c-1,0-1.81-.81-1.81-1.81v-1.55h0Z"/>
        <path class="cls-2" d="M26.19,50.41l-22.46-.07c-2.06,0-3.74-.73-3.72-1.62l.04-4.27c.04-2.42,1.68.11,3.76.11l22.46.07c2.06,0,3.74-1.56,3.72-.67l-.04,4.84c0,.9-1.69,1.61-3.76,1.61Z"/>
        <path d="M26.27,42.15h-6.27s0,0,0,0c0,1-.81,1.81-1.81,1.81h-6.37c-1,0-1.81-.81-1.81-1.81v-.02H3.8c-2.06-.02-3.75,1.02-3.76,1.58L0,44.16c-.01.56,1.66,1.6,3.72,1.6l22.47.04c2.06,0,3.75-1.02,3.76-1.59l.04-.46c.01-.56-1.66-1.6-3.72-1.6Z"/>
      </g>
    </g>
    <path d="M9.89,13.04c1.42-.08,3.19-.12,5.11-.12s3.69.05,5.11.12c2.05-.11,3.39-.29,3.39-.49,0-.34-3.81-.61-8.5-.61s-8.5.27-8.5.61c0,.2,1.33.38,3.39.49Z"/>
    <path class="cls-1" d="M23.46.55c-.43-.31-4.05-.55-8.46-.55S6.97.24,6.54.55h-.04v.06h0v11.94h17V.55h-.04Z"/>
  </g>
</svg>