<?xml version="1.0" encoding="UTF-8"?>
<svg id="Layer_2" data-name="Layer 2" xmlns="http://www.w3.org/2000/svg" viewBox="0 0 164.3 138.22">
  <defs>
    <style>
      .cls-1 {
        fill: #231f20;
      }

      .cls-2 {
        fill: red;
      }
    </style>
  </defs>
  <g id="Layer_1-2" data-name="Layer 1">
    <g>
      <path class="cls-2" d="M153.56,0c5.92,0,10.74,4.82,10.74,10.74v116.74c0,5.92-4.82,10.74-10.74,10.74H10.74c-5.92,0-10.74-4.82-10.74-10.74V10.74C0,4.82,4.82,0,10.74,0h142.82"/>
      <g>
        <path d="M35.32,91.01c0-1.18-.24-2.19-.72-3.02s-1.22-1.25-2.22-1.25c-1.11,0-1.92.36-2.44,1.08-.52.72-.78,1.53-.78,2.41,0,1.3.42,2.32,1.25,3.08.83.76,1.88,1.42,3.14,1.97,1.26.55,2.61,1.12,4.05,1.69,1.44.57,2.79,1.32,4.05,2.25,1.26.93,2.3,2.14,3.13,3.63s1.25,3.45,1.25,5.85c0,4.22-1.2,7.28-3.61,9.18-2.41,1.91-5.88,2.86-10.43,2.86-2.15,0-4.04-.18-5.69-.53-1.65-.35-3.03-.96-4.16-1.83-1.13-.87-1.99-2.01-2.58-3.41-.59-1.41-.89-3.14-.89-5.22v-1.39h9.99v.94c0,1.7.31,2.89.94,3.58.63.68,1.44,1.03,2.44,1.03,1.07,0,1.89-.37,2.47-1.11.57-.74.86-1.65.86-2.72,0-1.29-.4-2.32-1.19-3.08-.8-.76-1.79-1.41-3-1.94-1.2-.54-2.51-1.08-3.91-1.64-1.41-.55-2.71-1.28-3.91-2.16s-2.2-2.05-3-3.5c-.8-1.44-1.19-3.33-1.19-5.66,0-4.03,1.07-7.1,3.22-9.21,2.14-2.11,5.4-3.16,9.77-3.16s7.78.97,9.79,2.91c2.02,1.94,3.02,5.04,3.02,9.29h-9.66v-.94Z"/>
        <path d="M51.69,89.29v-8.77h25.75v8.77h-7.77v30.85h-10.32v-30.85h-7.66Z"/>
        <path d="M83.76,90.87c.48-2.61,1.28-4.74,2.39-6.38,1.11-1.65,2.57-2.85,4.38-3.61,1.81-.76,4.03-1.14,6.66-1.14s4.85.38,6.66,1.14c1.81.76,3.27,1.96,4.38,3.61,1.11,1.65,1.9,3.77,2.39,6.38.48,2.61.72,5.76.72,9.46s-.24,6.85-.72,9.46c-.48,2.61-1.28,4.74-2.39,6.38-1.11,1.65-2.57,2.82-4.38,3.52-1.81.7-4.03,1.05-6.66,1.05s-4.85-.35-6.66-1.05c-1.81-.7-3.27-1.88-4.38-3.52-1.11-1.65-1.91-3.77-2.39-6.38-.48-2.61-.72-5.76-.72-9.46s.24-6.85.72-9.46ZM93.8,106.97c.07,1.76.23,3.15.47,4.19.24,1.04.59,1.76,1.05,2.16.46.41,1.08.61,1.86.61s1.4-.2,1.86-.61c.46-.41.81-1.13,1.05-2.16.24-1.04.4-2.43.47-4.19.07-1.76.11-3.97.11-6.63s-.04-4.87-.11-6.63c-.08-1.76-.23-3.15-.47-4.19-.24-1.04-.59-1.76-1.05-2.16-.46-.41-1.08-.61-1.86-.61s-1.4.2-1.86.61c-.46.41-.81,1.13-1.05,2.16-.24,1.04-.4,2.43-.47,4.19s-.11,3.97-.11,6.63.04,4.87.11,6.63Z"/>
        <path d="M134.59,80.53c1.96,0,3.66.31,5.1.94,1.44.63,2.64,1.49,3.58,2.58.94,1.09,1.64,2.38,2.08,3.86s.67,3.09.67,4.83c0,4.11-1.1,7.19-3.3,9.24-2.2,2.05-5.43,3.08-9.68,3.08h-3.61v15.09h-10.32v-39.62h15.48ZM131.37,97.62c1.29,0,2.28-.39,2.97-1.17.68-.78,1.03-2,1.03-3.66,0-3.22-1.33-4.83-4-4.83h-1.94v9.66h1.94Z"/>
      </g>
      <rect class="cls-1" x="54.15" y="17.06" width="56" height="56"/>
    </g>
  </g>
</svg>