<?xml version="1.0" encoding="UTF-8"?>
<svg id="Layer_2" data-name="Layer 2" xmlns="http://www.w3.org/2000/svg" viewBox="0 0 164.3 138.22">
  <defs>
    <style>
      .cls-1 {
        fill: #231f20;
      }

      .cls-2 {
        fill: aqua;
      }
    </style>
  </defs>
  <g id="Layer_1-2" data-name="Layer 1">
    <g>
      <path class="cls-2" d="M153.56,0c5.92,0,10.74,4.82,10.74,10.74v116.74c0,5.92-4.82,10.74-10.74,10.74H10.74c-5.92,0-10.74-4.82-10.74-10.74V10.74C0,4.82,4.82,0,10.74,0h142.82"/>
      <g>
        <path d="M27.24,91.01c0-1.18-.24-2.19-.72-3.02s-1.22-1.25-2.22-1.25c-1.11,0-1.92.36-2.44,1.08-.52.72-.78,1.53-.78,2.41,0,1.3.42,2.32,1.25,3.08.83.76,1.88,1.42,3.14,1.97,1.26.55,2.61,1.12,4.05,1.69,1.44.57,2.79,1.32,4.05,2.25,1.26.93,2.3,2.14,3.13,3.63s1.25,3.45,1.25,5.85c0,4.22-1.2,7.28-3.61,9.18-2.41,1.91-5.88,2.86-10.43,2.86-2.15,0-4.04-.18-5.69-.53-1.65-.35-3.03-.96-4.16-1.83-1.13-.87-1.99-2.01-2.58-3.41-.59-1.41-.89-3.14-.89-5.22v-1.39h9.99v.94c0,1.7.31,2.89.94,3.58.63.68,1.44,1.03,2.44,1.03,1.07,0,1.89-.37,2.47-1.11.57-.74.86-1.65.86-2.72,0-1.29-.4-2.32-1.19-3.08-.8-.76-1.79-1.41-3-1.94-1.2-.54-2.51-1.08-3.91-1.64-1.41-.55-2.71-1.28-3.91-2.16s-2.2-2.05-3-3.5c-.8-1.44-1.19-3.33-1.19-5.66,0-4.03,1.07-7.1,3.22-9.21,2.14-2.11,5.4-3.16,9.77-3.16s7.78.97,9.79,2.91c2.02,1.94,3.02,5.04,3.02,9.29h-9.66v-.94Z"/>
        <path d="M69.86,80.53l4.05,27.41h.11l2.77-27.41h9.99l-6.77,39.62h-11.32l-3.44-26.63h-.11l-3.44,26.63h-11.32l-6.77-39.62h9.99l3.11,27.41h.11l3.72-27.41h9.32Z"/>
        <path d="M111.75,80.53l9.66,39.62h-10.99l-1.05-6.94h-8.21l-1.05,6.94h-10.82l9.49-39.62h12.98ZM105.21,88.63l-2.83,16.81h5.77l-2.83-16.81h-.11Z"/>
        <path d="M142.66,80.53c1.96,0,3.66.31,5.1.94,1.44.63,2.64,1.49,3.58,2.58.94,1.09,1.64,2.38,2.08,3.86s.67,3.09.67,4.83c0,4.11-1.1,7.19-3.3,9.24-2.2,2.05-5.43,3.08-9.68,3.08h-3.61v15.09h-10.32v-39.62h15.48ZM139.44,97.62c1.29,0,2.28-.39,2.97-1.17.68-.78,1.03-2,1.03-3.66,0-3.22-1.33-4.83-4-4.83h-1.94v9.66h1.94Z"/>
      </g>
      <g>
        <rect class="cls-1" x="70.31" y=".9" width="23.69" height="56" transform="translate(111.05 -53.25) rotate(90)"/>
        <rect class="cls-1" x="70.31" y="33.22" width="23.69" height="56" transform="translate(143.37 -20.93) rotate(90)"/>
      </g>
    </g>
  </g>
</svg>