<?xml version="1.0" encoding="UTF-8"?>
<svg id="Layer_2" data-name="Layer 2" xmlns="http://www.w3.org/2000/svg" viewBox="0 0 600 600">
  <defs>
    <style>
      .cls-1 {
        fill: none;
      }

      .cls-2 {
        fill: #999590;
      }

      .cls-3 {
        fill: #787672;
      }

      .cls-4 {
        fill: #a7a39d;
      }
    </style>
  </defs>
  <g id="Layer_1-2" data-name="Layer 1">
    <g>
      <rect class="cls-1" width="600" height="600"/>
      <g>
        <path class="cls-3" d="M208.65,60.69v8.92h109.93v-8.92c0-1.1-.9-2-2-2h-105.93c-1.1,0-2,.9-2,2Z"/>
        <path class="cls-2" d="M208.65,66.15v46.67c0,1.1.9,2,2,2h105.93c1.1,0,2-.9,2-2v-46.67c0-1.1-.9-2-2-2h-105.93c-1.1,0-2,.9-2,2ZM287.32,100.89h-47c-6.3,0-11.72-4.93-11.82-11.22s5.05-11.6,11.41-11.6h47c6.3,0,11.72,4.93,11.82,11.22s-5.05,11.6-11.41,11.6Z"/>
        <path class="cls-4" d="M210.65,113.32c-.28,0-.5-.22-.5-.5v-46.67c0-.28.22-.5.5-.5h105.93c.28,0,.5.22.5.5v46.67c0,.28-.22.5-.5.5h-105.93ZM239.91,76.57c-3.49,0-6.75,1.37-9.2,3.86-2.45,2.49-3.76,5.78-3.71,9.26.11,7,6.09,12.7,13.32,12.7h47c3.49,0,6.75-1.37,9.2-3.86,2.45-2.49,3.76-5.78,3.71-9.26-.11-7-6.09-12.7-13.32-12.7h-47Z"/>
        <path class="cls-3" d="M287.32,78.07h-47.41c-6.3,0-11.41,5.11-11.41,11.41s5.11,11.41,11.41,11.41h47.41c6.3,0,11.41-5.11,11.41-11.41s-5.11-11.41-11.41-11.41ZM237.39,97.48c-4.42,0-8-3.58-8-8s3.58-8,8-8,8,3.58,8,8-3.58,8-8,8ZM280.95,92.48h-34.67v-6h34.67v6ZM289.84,97.48c-4.42,0-8-3.58-8-8s3.58-8,8-8,8,3.58,8,8-3.59,8-8,8Z"/>
      </g>
    </g>
  </g>
</svg>