<?xml version="1.0" encoding="UTF-8"?>
<svg id="Layer_2" data-name="Layer 2" xmlns="http://www.w3.org/2000/svg" viewBox="0 0 109.93 56.13">
  <defs>
    <style>
      .cls-1 {
        fill: #999590;
      }

      .cls-2 {
        fill: #787672;
      }

      .cls-3 {
        fill: #a7a39d;
      }
    </style>
  </defs>
  <g id="Layer_1-2" data-name="Layer 1">
    <g>
      <path class="cls-2" d="M109.93,54.13v-8.92H0v8.92c0,1.1.9,2,2,2h105.93c1.1,0,2-.9,2-2Z"/>
      <path class="cls-1" d="M109.93,48.67V2c0-1.1-.9-2-2-2H2C.9,0,0,.9,0,2v46.67c0,1.1.9,2,2,2h105.93c1.1,0,2-.9,2-2ZM31.26,13.93h47c6.3,0,11.72,4.93,11.82,11.22s-5.05,11.6-11.41,11.6H31.67c-6.3,0-11.72-4.93-11.82-11.22s5.05-11.6,11.41-11.6Z"/>
      <path class="cls-3" d="M107.93,1.5c.28,0,.5.22.5.5v46.67c0,.28-.22.5-.5.5H2c-.28,0-.5-.22-.5-.5V2c0-.28.22-.5.5-.5h105.93ZM78.67,38.25c3.49,0,6.75-1.37,9.2-3.86,2.45-2.49,3.76-5.78,3.71-9.26-.11-7-6.09-12.7-13.32-12.7H31.26c-3.49,0-6.75,1.37-9.2,3.86-2.45,2.49-3.76,5.78-3.71,9.26.11,7,6.09,12.7,13.32,12.7h47Z"/>
      <path class="cls-2" d="M31.26,36.75h47.41c6.3,0,11.41-5.11,11.41-11.41s-5.11-11.41-11.41-11.41H31.26c-6.3,0-11.41,5.11-11.41,11.41s5.11,11.41,11.41,11.41ZM81.19,17.34c4.42,0,8,3.58,8,8s-3.58,8-8,8-8-3.58-8-8,3.58-8,8-8ZM37.63,22.34h34.67v6h-34.67v-6ZM28.74,17.34c4.42,0,8,3.58,8,8s-3.58,8-8,8-8-3.58-8-8,3.59-8,8-8Z"/>
    </g>
  </g>
</svg>