<?xml version="1.0" encoding="UTF-8"?>
<svg id="Layer_2" data-name="Layer 2" xmlns="http://www.w3.org/2000/svg" viewBox="0 0 600 600">
  <defs>
    <style>
      .cls-1 {
        fill: none;
      }

      .cls-2 {
        fill: #002158;
      }

      .cls-3 {
        fill: #c00000;
      }

      .cls-4 {
        fill: #09c2c3;
      }

      .cls-5 {
        fill: #002f62;
      }

      .cls-6 {
        fill: #a7a39d;
      }
    </style>
  </defs>
  <g id="Layer_1-2" data-name="Layer 1">
    <g>
      <rect class="cls-1" width="600" height="600"/>
      <g>
        <g>
          <rect class="cls-6" x="173.66" y="492.89" width="56" height="3.56"/>
          <rect class="cls-6" x="179.44" y="476.89" width="7.11" height="18.67"/>
          <rect class="cls-6" x="198.1" y="476.89" width="7.11" height="18.67"/>
          <rect class="cls-6" x="216.77" y="476.89" width="7.11" height="18.67"/>
          <rect class="cls-3" x="181.33" y="458.15" width="3.33" height="18.44"/>
          <rect class="cls-3" x="199.99" y="458.15" width="3.33" height="18.44"/>
          <rect class="cls-3" x="218.66" y="458.15" width="3.33" height="18.44"/>
          <path class="cls-4" d="M195.1,458.15h-3.33v16.78c0,.92.75,1.67,1.67,1.67h0c.92,0,1.67-.75,1.67-1.67v-16.78h-.01Z"/>
          <path class="cls-4" d="M213.77,458.15h-3.33v16.78c0,.92.75,1.67,1.67,1.67h0c.92,0,1.67-.75,1.67-1.67v-16.78h-.01Z"/>
          <path class="cls-4" d="M232.44,458.15h-3.33v16.78c0,.92.75,1.67,1.67,1.67h0c.92,0,1.67-.75,1.67-1.67v-16.78h-.01Z"/>
        </g>
        <g id="tape_deck" data-name="tape deck">
          <g>
            <path class="cls-6" d="M365.36,500.11h-206.89c-1.72,0-3.11,1.39-3.11,3.11v93.67c0,1.72,1.39,3.11,3.11,3.11h206.89c1.72,0,3.11-1.39,3.11-3.11v-93.67c0-1.72-1.39-3.11-3.11-3.11Z"/>
            <path class="cls-5" d="M340.92,543.67c-2.39,0-4.33,1.94-4.33,4.33s1.94,4.33,4.33,4.33,4.33-1.94,4.33-4.33-1.94-4.33-4.33-4.33Z"/>
            <path class="cls-5" d="M340.92,519.67c-2.39,0-4.33,1.94-4.33,4.33s1.94,4.33,4.33,4.33,4.33-1.94,4.33-4.33-1.94-4.33-4.33-4.33Z"/>
            <path class="cls-5" d="M340.92,567.67c-2.39,0-4.33,1.94-4.33,4.33s1.94,4.33,4.33,4.33,4.33-1.94,4.33-4.33-1.94-4.33-4.33-4.33Z"/>
            <path class="cls-5" d="M362.7,499.56h-204.89c-1.72,0-3.11,1.39-3.11,3.11v90.67c0,1.72,1.39,3.11,3.11,3.11h204.89c1.72,0,3.11-1.39,3.11-3.11v-90.67c0-1.72-1.4-3.11-3.11-3.11ZM362.92,588c0,2.95-2.39,5.33-5.33,5.33-2.42,0-4.44-1.62-5.09-3.83h-184.48c-.65,2.21-2.67,3.83-5.09,3.83-2.95,0-5.33-2.39-5.33-5.33,0-2.42,1.62-4.44,3.83-5.09v-69.81c-2.21-.65-3.83-2.67-3.83-5.09,0-2.95,2.39-5.33,5.33-5.33,2.42,0,4.44,1.62,5.09,3.83h184.48c.65-2.21,2.67-3.83,5.09-3.83,2.95,0,5.33,2.39,5.33,5.33,0,2.42-1.62,4.44-3.83,5.09v69.81c2.2.65,3.83,2.67,3.83,5.09Z"/>
            <path class="cls-5" d="M352.49,509.5h-184.48c-.51,1.73-1.86,3.08-3.59,3.59v69.81c1.73.51,3.08,1.86,3.59,3.59h184.48c.51-1.73,1.86-3.08,3.59-3.59v-69.81c-1.73-.51-3.08-1.86-3.59-3.59ZM183.7,555.33h-2v-36.67h2v36.67ZM189.38,555.33h-2v-36.67h2v36.67ZM195.06,555.33h-2v-36.67h2v36.67ZM200.74,555.33h-2v-36.67h2v36.67ZM206.43,555.33h-2v-36.67h2v36.67ZM212.11,555.33h-2v-36.67h2v36.67ZM217.79,555.33h-2v-36.67h2v36.67ZM223.47,555.33h-2v-36.67h2v36.67ZM340.92,578.33c-3.49,0-6.33-2.84-6.33-6.33s2.84-6.33,6.33-6.33,6.33,2.84,6.33,6.33-2.84,6.33-6.33,6.33ZM340.92,554.33c-3.49,0-6.33-2.84-6.33-6.33s2.84-6.33,6.33-6.33,6.33,2.84,6.33,6.33-2.84,6.33-6.33,6.33ZM340.92,530.33c-3.49,0-6.33-2.84-6.33-6.33s2.84-6.33,6.33-6.33,6.33,2.84,6.33,6.33-2.84,6.33-6.33,6.33Z"/>
            <path class="cls-2" d="M340.92,517.67c-3.49,0-6.33,2.84-6.33,6.33s2.84,6.33,6.33,6.33,6.33-2.84,6.33-6.33-2.84-6.33-6.33-6.33ZM340.92,528.33c-2.39,0-4.33-1.94-4.33-4.33s1.94-4.33,4.33-4.33,4.33,1.94,4.33,4.33-1.94,4.33-4.33,4.33Z"/>
            <path class="cls-2" d="M340.92,565.67c-3.49,0-6.33,2.84-6.33,6.33s2.84,6.33,6.33,6.33,6.33-2.84,6.33-6.33-2.84-6.33-6.33-6.33ZM340.92,576.33c-2.39,0-4.33-1.94-4.33-4.33s1.94-4.33,4.33-4.33,4.33,1.94,4.33,4.33-1.94,4.33-4.33,4.33Z"/>
            <path class="cls-2" d="M340.92,541.67c-3.49,0-6.33,2.84-6.33,6.33s2.84,6.33,6.33,6.33,6.33-2.84,6.33-6.33-2.84-6.33-6.33-6.33ZM340.92,552.33c-2.39,0-4.33-1.94-4.33-4.33s1.94-4.33,4.33-4.33,4.33,1.94,4.33,4.33-1.94,4.33-4.33,4.33Z"/>
            <path class="cls-2" d="M359.08,582.91v-69.81c2.21-.65,3.83-2.67,3.83-5.09,0-2.95-2.39-5.33-5.33-5.33-2.42,0-4.44,1.62-5.09,3.83h-184.48c-.65-2.21-2.67-3.83-5.09-3.83-2.95,0-5.33,2.39-5.33,5.33,0,2.42,1.62,4.44,3.83,5.09v69.81c-2.21.65-3.83,2.67-3.83,5.09,0,2.95,2.39,5.33,5.33,5.33,2.42,0,4.44-1.62,5.09-3.83h184.48c.65,2.21,2.67,3.83,5.09,3.83,2.95,0,5.33-2.39,5.33-5.33.01-2.42-1.62-4.44-3.83-5.09ZM168.01,586.5c-.51-1.73-1.86-3.08-3.59-3.59v-69.81c1.73-.51,3.08-1.86,3.59-3.59h184.48c.51,1.73,1.86,3.08,3.59,3.59v69.81c-1.73.51-3.08,1.86-3.59,3.59h-184.48Z"/>
            <rect class="cls-2" x="181.7" y="518.67" width="2" height="36.67"/>
            <rect class="cls-2" x="187.38" y="518.67" width="2" height="36.67"/>
            <rect class="cls-2" x="193.06" y="518.67" width="2" height="36.67"/>
            <rect class="cls-2" x="198.74" y="518.67" width="2" height="36.67"/>
            <rect class="cls-2" x="204.43" y="518.67" width="2" height="36.67"/>
            <rect class="cls-2" x="210.11" y="518.67" width="2" height="36.67"/>
            <rect class="cls-2" x="215.79" y="518.67" width="2" height="36.67"/>
            <rect class="cls-2" x="221.47" y="518.67" width="2" height="36.67"/>
          </g>
        </g>
      </g>
    </g>
  </g>
</svg>